<svg width="17" height="18" viewBox="0 0 17 18" fill="none" xmlns="http://www.w3.org/2000/svg">
<path d="M16.9392 12.8177C16.8237 12.501 16.6011 12.3298 16.3487 12.1929C16.3016 12.1672 16.2588 12.1415 16.2203 12.1244C16.1433 12.0859 16.0662 12.0474 15.9892 12.0089C15.2018 11.5895 14.5856 11.0674 14.1619 10.4426C14.0421 10.2672 13.9351 10.0789 13.8496 9.88633C13.811 9.78363 13.8153 9.72372 13.841 9.66809C13.8667 9.62529 13.9009 9.59106 13.9437 9.5611C14.0806 9.47124 14.2176 9.38137 14.3117 9.32146C14.4786 9.2102 14.6155 9.12461 14.7011 9.0647C15.0221 8.8379 15.2489 8.59826 15.3901 8.32866C15.5912 7.95208 15.6169 7.51131 15.4628 7.11334C15.2489 6.54847 14.7183 6.20184 14.0721 6.20184C13.9351 6.20184 13.8025 6.21468 13.6655 6.24464C13.6313 6.2532 13.5928 6.26175 13.5586 6.27031C13.5628 5.88517 13.5543 5.47864 13.52 5.07638C13.4002 3.66849 12.9038 2.93245 12.3903 2.34618C12.0608 1.97816 11.6757 1.66577 11.2434 1.42185C10.4646 0.976804 9.5788 0.75 8.61595 0.75C7.65311 0.75 6.77157 0.976804 5.99273 1.42185C5.56052 1.66577 5.17538 1.97816 4.84588 2.34618C4.33236 2.93245 3.84024 3.67277 3.71614 5.07638C3.6819 5.47864 3.67335 5.88517 3.67762 6.27031C3.64339 6.26175 3.60916 6.2532 3.57064 6.24464C3.43798 6.21468 3.30105 6.20184 3.16839 6.20184C2.52221 6.20184 1.99158 6.55275 1.77761 7.11334C1.62356 7.51131 1.64923 7.95208 1.85036 8.32866C1.99158 8.59826 2.21838 8.8379 2.53933 9.0647C2.62491 9.12461 2.75757 9.2102 2.92875 9.32146C3.01861 9.38137 3.15127 9.46696 3.28393 9.55254C3.331 9.5825 3.36951 9.62101 3.39947 9.66809C3.42515 9.72372 3.42942 9.78363 3.38663 9.89489C3.30105 10.0832 3.19834 10.2672 3.07852 10.4384C2.66343 11.046 2.06432 11.5638 1.30261 11.9789C0.900352 12.1929 0.480979 12.3341 0.301248 12.8177C0.168589 13.1814 0.254175 13.5922 0.592241 13.9431C0.716341 14.0715 0.861838 14.1828 1.02017 14.2683C1.34968 14.4481 1.70058 14.5893 2.0686 14.6877C2.14563 14.7091 2.2141 14.7391 2.27829 14.7819C2.40239 14.8888 2.38527 15.0515 2.54789 15.2911C2.62919 15.4152 2.73618 15.5222 2.856 15.6078C3.20262 15.8474 3.59204 15.8603 4.00285 15.8774C4.37515 15.8902 4.79453 15.9073 5.27809 16.0657C5.47922 16.1298 5.68462 16.2582 5.92426 16.408C6.50197 16.7632 7.28936 17.2467 8.61167 17.2467C9.93398 17.2467 10.7257 16.7589 11.3076 16.4037C11.5473 16.2582 11.7527 16.1298 11.9453 16.0657C12.4245 15.9073 12.8482 15.8902 13.2205 15.8774C13.6313 15.8603 14.0207 15.8474 14.3673 15.6078C14.5128 15.5051 14.6327 15.3767 14.7183 15.2226C14.8381 15.0215 14.8338 14.8803 14.9451 14.7819C15.005 14.7391 15.0734 14.7091 15.1419 14.692C15.5099 14.5936 15.8694 14.4524 16.2032 14.2683C16.3701 14.1785 16.5241 14.0587 16.6525 13.9174L16.6568 13.9132C16.9906 13.5708 17.0719 13.1686 16.9392 12.8177ZM15.7667 13.4467C15.052 13.8404 14.5728 13.7976 14.2047 14.0373C13.8881 14.2384 14.0764 14.6749 13.8496 14.8332C13.5671 15.0258 12.7369 14.8204 11.6671 15.1756C10.7813 15.4666 10.2207 16.3096 8.62879 16.3096C7.03689 16.3096 6.48913 15.4708 5.59048 15.1756C4.52065 14.8204 3.69046 15.0301 3.40803 14.8332C3.18122 14.6749 3.36524 14.2384 3.05285 14.0373C2.68055 13.7976 2.20554 13.8404 1.4909 13.4467C1.03301 13.1942 1.29405 13.0402 1.44382 12.9674C4.03709 11.7136 4.45218 9.77507 4.4693 9.62957C4.49069 9.45412 4.51637 9.31718 4.3238 9.14173C4.13979 8.97056 3.31816 8.46132 3.08708 8.30299C2.7105 8.03767 2.54361 7.77663 2.66771 7.4514C2.75329 7.22888 2.96298 7.14329 3.18122 7.14329C3.24969 7.14329 3.31816 7.15185 3.38663 7.16469C3.80172 7.25455 4.20398 7.45996 4.43506 7.51987C4.46502 7.52843 4.49069 7.53271 4.52065 7.53271C4.64475 7.53271 4.68754 7.46852 4.67898 7.3273C4.65331 6.87369 4.58912 5.99216 4.66187 5.16625C4.76029 4.03223 5.12403 3.46736 5.56052 2.97096C5.77021 2.73132 6.75017 1.69573 8.62879 1.69573C10.5074 1.69573 11.4874 2.72704 11.6971 2.96668C12.1335 3.46308 12.4973 4.02795 12.5957 5.16197C12.6685 5.98788 12.6043 6.86942 12.5743 7.32302C12.5658 7.4728 12.6086 7.52843 12.7326 7.52843C12.7626 7.52843 12.7883 7.52415 12.8182 7.51559C13.0493 7.45996 13.4516 7.25028 13.8667 7.16041C13.9351 7.14329 14.0036 7.13901 14.0721 7.13901C14.2903 7.13901 14.5 7.2246 14.5856 7.44712C14.7097 7.77235 14.5428 8.03339 14.1662 8.29871C13.9394 8.45704 13.1178 8.96628 12.9295 9.13745C12.7369 9.3129 12.7626 9.44984 12.784 9.62529C12.8011 9.77079 13.2162 11.7093 15.8095 12.9632C15.9635 13.0359 16.2203 13.1942 15.7667 13.4467Z" fill="white"/>
</svg>
