<svg width="17" height="18" viewBox="0 0 17 18" fill="none" xmlns="http://www.w3.org/2000/svg">
<g clip-path="url(#clip0)">
<path d="M16.7581 9.00795C16.7581 4.38033 13.0067 0.628906 8.37905 0.628906C3.75143 0.628906 0 4.38033 0 9.00795C0 13.1901 3.06408 16.6566 7.06982 17.2852V11.43H4.94233V9.00795H7.06982V7.16195C7.06982 5.06195 8.32079 3.90197 10.2347 3.90197C11.1512 3.90197 12.1103 4.06563 12.1103 4.06563V6.12766H11.0538C10.013 6.12766 9.68828 6.7736 9.68828 7.43688V9.00795H12.0122L11.6407 11.43H9.68828V17.2852C13.694 16.6566 16.7581 13.1901 16.7581 9.00795Z" fill="white"/>
</g>
<defs>
<clipPath id="clip0">
<rect width="16.7581" height="16.7581" fill="white" transform="translate(0 0.628906)"/>
</clipPath>
</defs>
</svg>
