<svg width="18" height="18" viewBox="0 0 18 18" fill="none" xmlns="http://www.w3.org/2000/svg">
<g clip-path="url(#clip0)">
<path d="M8.87368 2.13779C11.1125 2.13779 11.3776 2.14761 12.258 2.18689C13.0763 2.22289 13.5182 2.36036 13.8127 2.47492C14.2022 2.62548 14.4837 2.80877 14.775 3.10007C15.0696 3.39465 15.2496 3.67286 15.4002 4.06235C15.5147 4.35693 15.6522 4.80206 15.6882 5.61706C15.7275 6.50079 15.7373 6.7659 15.7373 9.00141C15.7373 11.2402 15.7275 11.5053 15.6882 12.3858C15.6522 13.204 15.5147 13.6459 15.4002 13.9405C15.2496 14.33 15.0663 14.6114 14.775 14.9027C14.4804 15.1973 14.2022 15.3773 13.8127 15.5279C13.5182 15.6425 13.073 15.7799 12.258 15.8159C11.3743 15.8552 11.1092 15.865 8.87368 15.865C6.6349 15.865 6.36978 15.8552 5.48933 15.8159C4.67106 15.7799 4.2292 15.6425 3.93462 15.5279C3.54513 15.3773 3.26364 15.194 2.97234 14.9027C2.67776 14.6082 2.49775 14.33 2.34718 13.9405C2.23263 13.6459 2.09516 13.2008 2.05915 12.3858C2.01988 11.502 2.01006 11.2369 2.01006 9.00141C2.01006 6.76263 2.01988 6.49751 2.05915 5.61706C2.09516 4.79879 2.23263 4.35693 2.34718 4.06235C2.49775 3.67286 2.68104 3.39137 2.97234 3.10007C3.26692 2.8055 3.54513 2.62548 3.93462 2.47492C4.2292 2.36036 4.67433 2.22289 5.48933 2.18689C6.36978 2.14761 6.6349 2.13779 8.87368 2.13779ZM8.87368 0.628906C6.5989 0.628906 6.31414 0.638725 5.42059 0.678002C4.53032 0.717279 3.91826 0.861294 3.38802 1.0675C2.83487 1.28352 2.36682 1.56828 1.90205 2.03632C1.434 2.5011 1.14924 2.96915 0.93322 3.51902C0.727017 4.05253 0.583002 4.66132 0.543725 5.5516C0.504448 6.44842 0.494629 6.73317 0.494629 9.00795C0.494629 11.2827 0.504448 11.5675 0.543725 12.461C0.583002 13.3513 0.727017 13.9634 0.93322 14.4936C1.14924 15.0468 1.434 15.5148 1.90205 15.9796C2.36682 16.4444 2.83487 16.7324 3.38475 16.9451C3.91826 17.1513 4.52705 17.2954 5.41732 17.3346C6.31087 17.3739 6.59562 17.3837 8.8704 17.3837C11.1452 17.3837 11.4299 17.3739 12.3235 17.3346C13.2138 17.2954 13.8258 17.1513 14.3561 16.9451C14.9059 16.7324 15.374 16.4444 15.8388 15.9796C16.3035 15.5148 16.5916 15.0468 16.8043 14.4969C17.0105 13.9634 17.1545 13.3546 17.1938 12.4643C17.2331 11.5708 17.2429 11.286 17.2429 9.01123C17.2429 6.73645 17.2331 6.45169 17.1938 5.55814C17.1545 4.66787 17.0105 4.05581 16.8043 3.52557C16.5981 2.96915 16.3134 2.5011 15.8453 2.03632C15.3805 1.57155 14.9125 1.28352 14.3626 1.07077C13.8291 0.864567 13.2203 0.720552 12.33 0.681275C11.4332 0.638725 11.1485 0.628906 8.87368 0.628906Z" fill="white"/>
<path d="M8.87391 4.70312C6.49766 4.70312 4.56982 6.63096 4.56982 9.00721C4.56982 11.3835 6.49766 13.3113 8.87391 13.3113C11.2502 13.3113 13.178 11.3835 13.178 9.00721C13.178 6.63096 11.2502 4.70312 8.87391 4.70312ZM8.87391 11.7991C7.33229 11.7991 6.08198 10.5488 6.08198 9.00721C6.08198 7.46559 7.33229 6.21528 8.87391 6.21528C10.4155 6.21528 11.6658 7.46559 11.6658 9.00721C11.6658 10.5488 10.4155 11.7991 8.87391 11.7991Z" fill="white"/>
<path d="M14.3529 4.53413C14.3529 5.09055 13.9012 5.53896 13.3481 5.53896C12.7917 5.53896 12.3433 5.08728 12.3433 4.53413C12.3433 3.97771 12.7949 3.5293 13.3481 3.5293C13.9012 3.5293 14.3529 3.98098 14.3529 4.53413Z" fill="white"/>
</g>
<defs>
<clipPath id="clip0">
<rect width="16.7581" height="16.7581" fill="white" transform="translate(0.494629 0.628906)"/>
</clipPath>
</defs>
</svg>
