<svg width="18" height="18" viewBox="0 0 18 18" fill="none" xmlns="http://www.w3.org/2000/svg">
<g clip-path="url(#clip0)">
<path d="M6.01949 15.8157C12.3417 15.8157 15.8007 10.5765 15.8007 6.03444C15.8007 5.88716 15.7974 5.7366 15.7909 5.58931C16.4638 5.10269 17.0445 4.49996 17.5057 3.80941C16.879 4.08823 16.2136 4.27032 15.5323 4.34947C16.2497 3.91947 16.7868 3.24395 17.0442 2.44815C16.3693 2.8481 15.6312 3.13023 14.8617 3.28245C14.3432 2.73149 13.6576 2.36669 12.9109 2.24445C12.1643 2.12221 11.3982 2.24934 10.731 2.60618C10.0639 2.96302 9.53285 3.5297 9.22007 4.2186C8.90728 4.9075 8.83015 5.68026 9.00059 6.41739C7.63408 6.34882 6.29724 5.99384 5.07672 5.37546C3.8562 4.75708 2.77926 3.88911 1.91572 2.82782C1.47681 3.58454 1.34251 4.47998 1.5401 5.33216C1.73769 6.18434 2.25234 6.92932 2.97946 7.41568C2.43358 7.39835 1.89966 7.25138 1.42181 6.98691V7.02946C1.42132 7.82357 1.69586 8.59336 2.19875 9.20795C2.70164 9.82254 3.40185 10.244 4.18035 10.4007C3.67468 10.5391 3.14395 10.5592 2.62924 10.4596C2.84892 11.1426 3.27634 11.7399 3.85184 12.1682C4.42734 12.5966 5.12221 12.8346 5.83947 12.849C4.62177 13.8055 3.11755 14.3243 1.5691 14.3218C1.29449 14.3214 1.02016 14.3046 0.747559 14.2714C2.32062 15.2806 4.15052 15.8167 6.01949 15.8157Z" fill="white"/>
</g>
<defs>
<clipPath id="clip0">
<rect width="16.7581" height="16.7581" fill="white" transform="translate(0.747559 0.628906)"/>
</clipPath>
</defs>
</svg>
