<svg width="5078" height="331" viewBox="0 0 5078 331" fill="none" xmlns="http://www.w3.org/2000/svg">
<g opacity="0.8">
<path d="M1039.31 39H1016.66C1016.66 39 1016.66 39.9 1016.66 40.2C1019.06 41.55 1020.11 43.65 1020.11 49.05V134.1C1020.11 139.35 1019.06 141.6 1016.66 142.95C1016.66 143.25 1016.66 144 1016.66 144H1035.26C1035.26 144 1035.26 143.25 1035.26 142.95C1033.01 141.6 1031.96 139.35 1031.96 134.1V100.35H1039.31C1068.86 100.35 1088.51 90.9 1088.51 69.75C1088.51 48.45 1068.86 39 1039.31 39ZM1039.31 99.15H1031.96V40.2H1039.31C1066.31 40.2 1076.66 52.05 1076.66 69.75C1076.66 87.3 1066.31 99.15 1039.31 99.15ZM1148.63 73.05V71.85H1127.93C1115.78 71.85 1110.98 62.7 1109.93 56.25C1108.58 48.15 1110.38 40.2 1115.48 37.95C1125.53 33.3 1135.28 48 1138.88 57.15H1139.93L1142.18 41.4C1136.78 37.5 1129.13 35.85 1122.68 35.85C1107.83 35.85 1099.58 43.8 1099.58 54C1099.58 64.05 1112.03 71.4 1121.03 71.85H1098.98V73.05C1104.83 73.05 1107.83 76.95 1107.83 85.05V134.1C1107.83 139.35 1106.78 141.6 1104.53 142.95C1104.53 143.25 1104.53 144 1104.53 144H1122.98C1122.98 144 1122.98 143.25 1122.98 142.95C1120.73 141.6 1119.68 139.35 1119.68 134.1V73.05H1148.63ZM1169.8 134.1V35.85H1168.75L1154.65 39C1154.65 39 1154.65 39.9 1154.65 40.2C1157.5 40.65 1157.95 42.15 1157.95 47.4V134.1C1157.95 139.35 1156.9 141.6 1154.65 142.95C1154.65 143.25 1154.65 144 1154.65 144H1173.1C1173.1 144 1173.1 143.25 1173.1 142.95C1170.85 141.6 1169.8 139.35 1169.8 134.1ZM1241.55 95.55H1244.85C1244.85 95.55 1254.15 95.55 1255.5 95.55C1253.4 77.4 1235.85 71.25 1223.1 71.85C1206.6 72.75 1183.05 84 1183.8 109.95C1184.4 134.7 1204.35 144.9 1225.05 144.9C1246.35 144.9 1255.8 130.8 1256.7 120.15C1257.9 106.5 1250.1 97.8 1241.55 95.55ZM1216.35 73.65C1231.05 70.8 1242.75 81.3 1244.7 94.35H1196.85C1199.55 84.15 1206.15 75.6 1216.35 73.65ZM1255.35 120.45C1253.85 132.15 1242.6 141 1229.7 141.6C1214.4 142.2 1203.15 135.3 1197.6 119.55C1195.05 112.35 1194.6 103.5 1196.55 95.55H1235.4C1246.8 95.55 1257.15 104.85 1255.35 120.45ZM1344.99 139.95C1337.34 140.25 1328.04 148.05 1316.94 154.65C1307.34 160.5 1298.64 166.35 1290.99 166.2C1285.44 166.2 1282.89 162.6 1282.59 157.65C1281.84 148.65 1293.39 145.2 1303.29 144.75C1303.89 144.9 1304.34 144.9 1304.79 144.9C1325.04 144.9 1345.59 129.15 1345.59 105.15C1345.59 91.5 1338.09 81.45 1327.29 76.2L1351.44 75.15L1350.54 67.65L1324.89 75.15C1319.79 73.05 1314.09 71.85 1308.09 71.85C1287.99 71.85 1267.29 86.85 1267.29 111.6C1267.29 130.65 1281.54 142.35 1299.09 144.45C1288.59 145.5 1274.19 150.45 1274.49 159.6C1274.64 166.5 1280.64 169.35 1288.59 168.75C1295.64 168.3 1303.14 164.4 1310.04 160.2C1313.64 165.15 1318.89 171 1329.69 171C1342.44 171 1357.44 163.35 1357.44 151.5C1357.44 144.9 1353.99 139.8 1344.99 139.95ZM1280.04 116.4C1274.79 98.25 1279.44 79.5 1296.54 74.55C1313.64 69.6 1327.74 82.35 1332.99 100.35C1338.24 118.5 1333.44 137.25 1316.49 142.2C1299.39 147.3 1285.29 134.4 1280.04 116.4ZM1348.29 154.05C1347.69 163.95 1341.24 170.1 1329.69 169.95C1318.59 169.8 1313.94 163.65 1311.09 159.45C1313.34 158.1 1315.59 156.75 1317.84 155.4C1326.54 150 1336.14 143.55 1340.79 142.95C1346.79 142.05 1348.59 147.15 1348.29 154.05ZM1415.28 95.55H1418.58C1418.58 95.55 1427.88 95.55 1429.23 95.55C1427.13 77.4 1409.58 71.25 1396.83 71.85C1380.33 72.75 1356.78 84 1357.53 109.95C1358.13 134.7 1378.08 144.9 1398.78 144.9C1420.08 144.9 1429.53 130.8 1430.43 120.15C1431.63 106.5 1423.83 97.8 1415.28 95.55ZM1390.08 73.65C1404.78 70.8 1416.48 81.3 1418.43 94.35H1370.58C1373.28 84.15 1379.88 75.6 1390.08 73.65ZM1429.08 120.45C1427.58 132.15 1416.33 141 1403.43 141.6C1388.13 142.2 1376.88 135.3 1371.33 119.55C1368.78 112.35 1368.33 103.5 1370.28 95.55H1409.13C1420.53 95.55 1430.88 104.85 1429.08 120.45ZM1494.12 117.45C1491.42 129 1486.47 140.85 1476.57 142.2C1463.82 143.85 1460.22 133.8 1460.22 120.75V73.05H1477.92V71.85H1444.77C1453.77 71.4 1465.17 62.85 1465.17 51.3H1453.32C1453.32 58.5 1452.27 71.85 1439.52 71.85V73.05H1448.37V118.5C1448.37 136.2 1456.62 144.9 1469.97 144.9C1485.72 144.9 1492.02 131.85 1494.87 117.75L1494.12 117.45ZM1511.55 134.1V71.85H1510.5L1496.4 75.15C1496.4 75.15 1496.4 75.9 1496.4 76.2C1499.25 76.65 1499.7 78.15 1499.7 83.4V134.1C1499.7 139.35 1498.65 141.6 1496.4 142.95C1496.4 143.25 1496.4 144 1496.4 144H1515C1515 144 1515 143.25 1515 142.95C1512.6 141.6 1511.55 139.35 1511.55 134.1ZM1505.25 59.7C1509.15 59.7 1512.3 56.55 1512.3 52.65C1512.3 48.75 1509.15 45.6 1505.25 45.6C1501.35 45.6 1498.2 48.75 1498.2 52.65C1498.2 56.55 1501.35 59.7 1505.25 59.7ZM1572.05 71.85C1551.05 71.85 1543.4 95.55 1540.7 112.95V71.85H1539.65L1525.55 75.15C1525.55 75.15 1525.55 75.9 1525.55 76.2C1528.4 76.65 1528.85 78.15 1528.85 83.4V180.9H1529.9L1544 177.6C1544 177.6 1544 176.85 1544 176.55C1541.15 176.1 1540.7 174.6 1540.7 169.35V143.55C1543.25 144.3 1546.25 144.9 1549.55 144.9C1566.35 144.9 1600.85 138.6 1599.95 101.4C1599.35 82.35 1584.35 71.85 1572.05 71.85ZM1549.7 144C1544.9 144.15 1541.45 142.95 1540.7 142.65V121.8C1540.7 109.2 1548.65 77.85 1565.45 74.55C1578.35 72 1587.5 86.25 1588.25 99.3C1590.35 137.55 1564.1 143.85 1549.7 144ZM1657.15 71.85C1636.15 71.85 1628.5 95.55 1625.8 112.95V71.85H1624.75L1610.65 75.15C1610.65 75.15 1610.65 75.9 1610.65 76.2C1613.5 76.65 1613.95 78.15 1613.95 83.4V180.9H1615L1629.1 177.6C1629.1 177.6 1629.1 176.85 1629.1 176.55C1626.25 176.1 1625.8 174.6 1625.8 169.35V143.55C1628.35 144.3 1631.35 144.9 1634.65 144.9C1651.45 144.9 1685.95 138.6 1685.05 101.4C1684.45 82.35 1669.45 71.85 1657.15 71.85ZM1634.8 144C1630 144.15 1626.55 142.95 1625.8 142.65V121.8C1625.8 109.2 1633.75 77.85 1650.55 74.55C1663.45 72 1672.6 86.25 1673.35 99.3C1675.45 137.55 1649.2 143.85 1634.8 144ZM1723.28 71.85C1706.93 71.85 1701.53 80.7 1700.33 90.45C1696.73 119.85 1749.08 111.15 1746.23 130.8C1745.33 137.25 1737.23 142.8 1726.43 142.8C1713.08 142.8 1701.83 130.35 1696.73 119.85H1695.98L1692.83 134.85C1700.93 140.85 1709.93 144.9 1722.08 144.9C1738.88 144.9 1749.98 136.05 1750.88 124.2C1752.53 99.75 1701.98 105.15 1704.08 85.05C1704.83 78.9 1710.53 73.2 1720.73 73.2C1729.28 73.2 1738.88 82.5 1743.53 95.25H1744.28L1747.28 81.45C1741.28 76.8 1731.08 71.85 1723.28 71.85Z" fill="#EBDDCE"/>
<path d="M28.65 187H6C6 187 6 187.9 6 188.2C8.4 189.55 9.45 191.65 9.45 197.05V282.1C9.45 287.35 8.4 289.6 6 290.95C6 291.25 6 292 6 292H24.6C24.6 292 24.6 291.25 24.6 290.95C22.35 289.6 21.3 287.35 21.3 282.1V248.35H28.65C58.2 248.35 77.85 238.9 77.85 217.75C77.85 196.45 58.2 187 28.65 187ZM28.65 247.15H21.3V188.2H28.65C55.65 188.2 66 200.05 66 217.75C66 235.3 55.65 247.15 28.65 247.15ZM137.974 221.05V219.85H117.274C105.124 219.85 100.324 210.7 99.2742 204.25C97.9242 196.15 99.7242 188.2 104.824 185.95C114.874 181.3 124.624 196 128.224 205.15H129.274L131.524 189.4C126.124 185.5 118.474 183.85 112.024 183.85C97.1742 183.85 88.9242 191.8 88.9242 202C88.9242 212.05 101.374 219.4 110.374 219.85H88.3242V221.05C94.1742 221.05 97.1742 224.95 97.1742 233.05V282.1C97.1742 287.35 96.1242 289.6 93.8742 290.95C93.8742 291.25 93.8742 292 93.8742 292H112.324C112.324 292 112.324 291.25 112.324 290.95C110.074 289.6 109.024 287.35 109.024 282.1V221.05H137.974ZM159.138 282.1V183.85H158.088L143.988 187C143.988 187 143.988 187.9 143.988 188.2C146.838 188.65 147.288 190.15 147.288 195.4V282.1C147.288 287.35 146.238 289.6 143.988 290.95C143.988 291.25 143.988 292 143.988 292H162.438C162.438 292 162.438 291.25 162.438 290.95C160.188 289.6 159.138 287.35 159.138 282.1ZM230.892 243.55H234.192C234.192 243.55 243.492 243.55 244.842 243.55C242.742 225.4 225.192 219.25 212.442 219.85C195.942 220.75 172.392 232 173.142 257.95C173.742 282.7 193.692 292.9 214.392 292.9C235.692 292.9 245.142 278.8 246.042 268.15C247.242 254.5 239.442 245.8 230.892 243.55ZM205.692 221.65C220.392 218.8 232.092 229.3 234.042 242.35H186.192C188.892 232.15 195.492 223.6 205.692 221.65ZM244.692 268.45C243.192 280.15 231.942 289 219.042 289.6C203.742 290.2 192.492 283.3 186.942 267.55C184.392 260.35 183.942 251.5 185.892 243.55H224.742C236.142 243.55 246.492 252.85 244.692 268.45ZM334.335 287.95C326.685 288.25 317.385 296.05 306.285 302.65C296.685 308.5 287.985 314.35 280.335 314.2C274.785 314.2 272.235 310.6 271.935 305.65C271.185 296.65 282.735 293.2 292.635 292.75C293.235 292.9 293.685 292.9 294.135 292.9C314.385 292.9 334.935 277.15 334.935 253.15C334.935 239.5 327.435 229.45 316.635 224.2L340.785 223.15L339.885 215.65L314.235 223.15C309.135 221.05 303.435 219.85 297.435 219.85C277.335 219.85 256.635 234.85 256.635 259.6C256.635 278.65 270.885 290.35 288.435 292.45C277.935 293.5 263.535 298.45 263.835 307.6C263.985 314.5 269.985 317.35 277.935 316.75C284.985 316.3 292.485 312.4 299.385 308.2C302.985 313.15 308.235 319 319.035 319C331.785 319 346.785 311.35 346.785 299.5C346.785 292.9 343.335 287.8 334.335 287.95ZM269.385 264.4C264.135 246.25 268.785 227.5 285.885 222.55C302.985 217.6 317.085 230.35 322.335 248.35C327.585 266.5 322.785 285.25 305.835 290.2C288.735 295.3 274.635 282.4 269.385 264.4ZM337.635 302.05C337.035 311.95 330.585 318.1 319.035 317.95C307.935 317.8 303.285 311.65 300.435 307.45C302.685 306.1 304.935 304.75 307.185 303.4C315.885 298 325.485 291.55 330.135 290.95C336.135 290.05 337.935 295.15 337.635 302.05ZM404.623 243.55H407.923C407.923 243.55 417.223 243.55 418.573 243.55C416.473 225.4 398.923 219.25 386.173 219.85C369.673 220.75 346.123 232 346.873 257.95C347.473 282.7 367.423 292.9 388.123 292.9C409.423 292.9 418.873 278.8 419.773 268.15C420.973 254.5 413.173 245.8 404.623 243.55ZM379.423 221.65C394.123 218.8 405.823 229.3 407.773 242.35H359.923C362.623 232.15 369.223 223.6 379.423 221.65ZM418.423 268.45C416.923 280.15 405.673 289 392.773 289.6C377.473 290.2 366.223 283.3 360.673 267.55C358.123 260.35 357.673 251.5 359.623 243.55H398.473C409.873 243.55 420.223 252.85 418.423 268.45ZM483.465 265.45C480.765 277 475.815 288.85 465.915 290.2C453.165 291.85 449.565 281.8 449.565 268.75V221.05H467.265V219.85H434.115C443.115 219.4 454.515 210.85 454.515 199.3H442.665C442.665 206.5 441.615 219.85 428.865 219.85V221.05H437.715V266.5C437.715 284.2 445.965 292.9 459.315 292.9C475.065 292.9 481.365 279.85 484.215 265.75L483.465 265.45ZM500.886 282.1V219.85H499.836L485.736 223.15C485.736 223.15 485.736 223.9 485.736 224.2C488.586 224.65 489.036 226.15 489.036 231.4V282.1C489.036 287.35 487.986 289.6 485.736 290.95C485.736 291.25 485.736 292 485.736 292H504.336C504.336 292 504.336 291.25 504.336 290.95C501.936 289.6 500.886 287.35 500.886 282.1ZM494.586 207.7C498.486 207.7 501.636 204.55 501.636 200.65C501.636 196.75 498.486 193.6 494.586 193.6C490.686 193.6 487.536 196.75 487.536 200.65C487.536 204.55 490.686 207.7 494.586 207.7ZM561.387 219.85C540.387 219.85 532.737 243.55 530.037 260.95V219.85H528.987L514.887 223.15C514.887 223.15 514.887 223.9 514.887 224.2C517.737 224.65 518.187 226.15 518.187 231.4V328.9H519.237L533.337 325.6C533.337 325.6 533.337 324.85 533.337 324.55C530.487 324.1 530.037 322.6 530.037 317.35V291.55C532.587 292.3 535.587 292.9 538.887 292.9C555.687 292.9 590.187 286.6 589.287 249.4C588.687 230.35 573.687 219.85 561.387 219.85ZM539.037 292C534.237 292.15 530.787 290.95 530.037 290.65V269.8C530.037 257.2 537.987 225.85 554.787 222.55C567.687 220 576.837 234.25 577.587 247.3C579.687 285.55 553.437 291.85 539.037 292ZM646.494 219.85C625.494 219.85 617.844 243.55 615.144 260.95V219.85H614.094L599.994 223.15C599.994 223.15 599.994 223.9 599.994 224.2C602.844 224.65 603.294 226.15 603.294 231.4V328.9H604.344L618.444 325.6C618.444 325.6 618.444 324.85 618.444 324.55C615.594 324.1 615.144 322.6 615.144 317.35V291.55C617.694 292.3 620.694 292.9 623.994 292.9C640.794 292.9 675.294 286.6 674.394 249.4C673.794 230.35 658.794 219.85 646.494 219.85ZM624.144 292C619.344 292.15 615.894 290.95 615.144 290.65V269.8C615.144 257.2 623.094 225.85 639.894 222.55C652.794 220 661.944 234.25 662.694 247.3C664.794 285.55 638.544 291.85 624.144 292ZM712.622 219.85C696.272 219.85 690.872 228.7 689.672 238.45C686.072 267.85 738.422 259.15 735.572 278.8C734.672 285.25 726.572 290.8 715.772 290.8C702.422 290.8 691.172 278.35 686.072 267.85H685.322L682.172 282.85C690.272 288.85 699.272 292.9 711.422 292.9C728.222 292.9 739.322 284.05 740.222 272.2C741.872 247.75 691.322 253.15 693.422 233.05C694.172 226.9 699.872 221.2 710.072 221.2C718.622 221.2 728.222 230.5 732.872 243.25H733.622L736.622 229.45C730.622 224.8 720.422 219.85 712.622 219.85Z" fill="#EBDDCE"/>
<path d="M847.896 187H825.246C825.246 187 825.246 187.9 825.246 188.2C827.646 189.55 828.696 191.65 828.696 197.05V282.1C828.696 287.35 827.646 289.6 825.246 290.95C825.246 291.25 825.246 292 825.246 292H843.846C843.846 292 843.846 291.25 843.846 290.95C841.596 289.6 840.546 287.35 840.546 282.1V248.35H847.896C877.446 248.35 897.096 238.9 897.096 217.75C897.096 196.45 877.446 187 847.896 187ZM847.896 247.15H840.546V188.2H847.896C874.896 188.2 885.246 200.05 885.246 217.75C885.246 235.3 874.896 247.15 847.896 247.15ZM957.22 221.05V219.85H936.52C924.37 219.85 919.57 210.7 918.52 204.25C917.17 196.15 918.97 188.2 924.07 185.95C934.12 181.3 943.87 196 947.47 205.15H948.52L950.77 189.4C945.37 185.5 937.72 183.85 931.27 183.85C916.42 183.85 908.17 191.8 908.17 202C908.17 212.05 920.62 219.4 929.62 219.85H907.57V221.05C913.42 221.05 916.42 224.95 916.42 233.05V282.1C916.42 287.35 915.37 289.6 913.12 290.95C913.12 291.25 913.12 292 913.12 292H931.57C931.57 292 931.57 291.25 931.57 290.95C929.32 289.6 928.27 287.35 928.27 282.1V221.05H957.22ZM978.384 282.1V183.85H977.334L963.234 187C963.234 187 963.234 187.9 963.234 188.2C966.084 188.65 966.534 190.15 966.534 195.4V282.1C966.534 287.35 965.484 289.6 963.234 290.95C963.234 291.25 963.234 292 963.234 292H981.684C981.684 292 981.684 291.25 981.684 290.95C979.434 289.6 978.384 287.35 978.384 282.1ZM1050.14 243.55H1053.44C1053.44 243.55 1062.74 243.55 1064.09 243.55C1061.99 225.4 1044.44 219.25 1031.69 219.85C1015.19 220.75 991.638 232 992.388 257.95C992.988 282.7 1012.94 292.9 1033.64 292.9C1054.94 292.9 1064.39 278.8 1065.29 268.15C1066.49 254.5 1058.69 245.8 1050.14 243.55ZM1024.94 221.65C1039.64 218.8 1051.34 229.3 1053.29 242.35H1005.44C1008.14 232.15 1014.74 223.6 1024.94 221.65ZM1063.94 268.45C1062.44 280.15 1051.19 289 1038.29 289.6C1022.99 290.2 1011.74 283.3 1006.19 267.55C1003.64 260.35 1003.19 251.5 1005.14 243.55H1043.99C1055.39 243.55 1065.74 252.85 1063.94 268.45ZM1153.58 287.95C1145.93 288.25 1136.63 296.05 1125.53 302.65C1115.93 308.5 1107.23 314.35 1099.58 314.2C1094.03 314.2 1091.48 310.6 1091.18 305.65C1090.43 296.65 1101.98 293.2 1111.88 292.75C1112.48 292.9 1112.93 292.9 1113.38 292.9C1133.63 292.9 1154.18 277.15 1154.18 253.15C1154.18 239.5 1146.68 229.45 1135.88 224.2L1160.03 223.15L1159.13 215.65L1133.48 223.15C1128.38 221.05 1122.68 219.85 1116.68 219.85C1096.58 219.85 1075.88 234.85 1075.88 259.6C1075.88 278.65 1090.13 290.35 1107.68 292.45C1097.18 293.5 1082.78 298.45 1083.08 307.6C1083.23 314.5 1089.23 317.35 1097.18 316.75C1104.23 316.3 1111.73 312.4 1118.63 308.2C1122.23 313.15 1127.48 319 1138.28 319C1151.03 319 1166.03 311.35 1166.03 299.5C1166.03 292.9 1162.58 287.8 1153.58 287.95ZM1088.63 264.4C1083.38 246.25 1088.03 227.5 1105.13 222.55C1122.23 217.6 1136.33 230.35 1141.58 248.35C1146.83 266.5 1142.03 285.25 1125.08 290.2C1107.98 295.3 1093.88 282.4 1088.63 264.4ZM1156.88 302.05C1156.28 311.95 1149.83 318.1 1138.28 317.95C1127.18 317.8 1122.53 311.65 1119.68 307.45C1121.93 306.1 1124.18 304.75 1126.43 303.4C1135.13 298 1144.73 291.55 1149.38 290.95C1155.38 290.05 1157.18 295.15 1156.88 302.05ZM1223.87 243.55H1227.17C1227.17 243.55 1236.47 243.55 1237.82 243.55C1235.72 225.4 1218.17 219.25 1205.42 219.85C1188.92 220.75 1165.37 232 1166.12 257.95C1166.72 282.7 1186.67 292.9 1207.37 292.9C1228.67 292.9 1238.12 278.8 1239.02 268.15C1240.22 254.5 1232.42 245.8 1223.87 243.55ZM1198.67 221.65C1213.37 218.8 1225.07 229.3 1227.02 242.35H1179.17C1181.87 232.15 1188.47 223.6 1198.67 221.65ZM1237.67 268.45C1236.17 280.15 1224.92 289 1212.02 289.6C1196.72 290.2 1185.47 283.3 1179.92 267.55C1177.37 260.35 1176.92 251.5 1178.87 243.55H1217.72C1229.12 243.55 1239.47 252.85 1237.67 268.45ZM1302.71 265.45C1300.01 277 1295.06 288.85 1285.16 290.2C1272.41 291.85 1268.81 281.8 1268.81 268.75V221.05H1286.51V219.85H1253.36C1262.36 219.4 1273.76 210.85 1273.76 199.3H1261.91C1261.91 206.5 1260.86 219.85 1248.11 219.85V221.05H1256.96V266.5C1256.96 284.2 1265.21 292.9 1278.56 292.9C1294.31 292.9 1300.61 279.85 1303.46 265.75L1302.71 265.45ZM1320.13 282.1V219.85H1319.08L1304.98 223.15C1304.98 223.15 1304.98 223.9 1304.98 224.2C1307.83 224.65 1308.28 226.15 1308.28 231.4V282.1C1308.28 287.35 1307.23 289.6 1304.98 290.95C1304.98 291.25 1304.98 292 1304.98 292H1323.58C1323.58 292 1323.58 291.25 1323.58 290.95C1321.18 289.6 1320.13 287.35 1320.13 282.1ZM1313.83 207.7C1317.73 207.7 1320.88 204.55 1320.88 200.65C1320.88 196.75 1317.73 193.6 1313.83 193.6C1309.93 193.6 1306.78 196.75 1306.78 200.65C1306.78 204.55 1309.93 207.7 1313.83 207.7ZM1380.63 219.85C1359.63 219.85 1351.98 243.55 1349.28 260.95V219.85H1348.23L1334.13 223.15C1334.13 223.15 1334.13 223.9 1334.13 224.2C1336.98 224.65 1337.43 226.15 1337.43 231.4V328.9H1338.48L1352.58 325.6C1352.58 325.6 1352.58 324.85 1352.58 324.55C1349.73 324.1 1349.28 322.6 1349.28 317.35V291.55C1351.83 292.3 1354.83 292.9 1358.13 292.9C1374.93 292.9 1409.43 286.6 1408.53 249.4C1407.93 230.35 1392.93 219.85 1380.63 219.85ZM1358.28 292C1353.48 292.15 1350.03 290.95 1349.28 290.65V269.8C1349.28 257.2 1357.23 225.85 1374.03 222.55C1386.93 220 1396.08 234.25 1396.83 247.3C1398.93 285.55 1372.68 291.85 1358.28 292ZM1465.74 219.85C1444.74 219.85 1437.09 243.55 1434.39 260.95V219.85H1433.34L1419.24 223.15C1419.24 223.15 1419.24 223.9 1419.24 224.2C1422.09 224.65 1422.54 226.15 1422.54 231.4V328.9H1423.59L1437.69 325.6C1437.69 325.6 1437.69 324.85 1437.69 324.55C1434.84 324.1 1434.39 322.6 1434.39 317.35V291.55C1436.94 292.3 1439.94 292.9 1443.24 292.9C1460.04 292.9 1494.54 286.6 1493.64 249.4C1493.04 230.35 1478.04 219.85 1465.74 219.85ZM1443.39 292C1438.59 292.15 1435.14 290.95 1434.39 290.65V269.8C1434.39 257.2 1442.34 225.85 1459.14 222.55C1472.04 220 1481.19 234.25 1481.94 247.3C1484.04 285.55 1457.79 291.85 1443.39 292ZM1531.87 219.85C1515.52 219.85 1510.12 228.7 1508.92 238.45C1505.32 267.85 1557.67 259.15 1554.82 278.8C1553.92 285.25 1545.82 290.8 1535.02 290.8C1521.67 290.8 1510.42 278.35 1505.32 267.85H1504.57L1501.42 282.85C1509.52 288.85 1518.52 292.9 1530.67 292.9C1547.47 292.9 1558.57 284.05 1559.47 272.2C1561.12 247.75 1510.57 253.15 1512.67 233.05C1513.42 226.9 1519.12 221.2 1529.32 221.2C1537.87 221.2 1547.47 230.5 1552.12 243.25H1552.87L1555.87 229.45C1549.87 224.8 1539.67 219.85 1531.87 219.85Z" fill="#2E2828"/>
<path d="M218.969 39H196.319C196.319 39 196.319 39.9 196.319 40.2C198.719 41.55 199.769 43.65 199.769 49.05V134.1C199.769 139.35 198.719 141.6 196.319 142.95C196.319 143.25 196.319 144 196.319 144H214.919C214.919 144 214.919 143.25 214.919 142.95C212.669 141.6 211.619 139.35 211.619 134.1V100.35H218.969C248.519 100.35 268.169 90.9 268.169 69.75C268.169 48.45 248.519 39 218.969 39ZM218.969 99.15H211.619V40.2H218.969C245.969 40.2 256.319 52.05 256.319 69.75C256.319 87.3 245.969 99.15 218.969 99.15ZM328.293 73.05V71.85H307.593C295.443 71.85 290.643 62.7 289.593 56.25C288.243 48.15 290.043 40.2 295.143 37.95C305.193 33.3 314.943 48 318.543 57.15H319.593L321.843 41.4C316.443 37.5 308.793 35.85 302.343 35.85C287.493 35.85 279.243 43.8 279.243 54C279.243 64.05 291.693 71.4 300.693 71.85H278.643V73.05C284.493 73.05 287.493 76.95 287.493 85.05V134.1C287.493 139.35 286.443 141.6 284.193 142.95C284.193 143.25 284.193 144 284.193 144H302.643C302.643 144 302.643 143.25 302.643 142.95C300.393 141.6 299.343 139.35 299.343 134.1V73.05H328.293ZM349.457 134.1V35.85H348.407L334.307 39C334.307 39 334.307 39.9 334.307 40.2C337.157 40.65 337.607 42.15 337.607 47.4V134.1C337.607 139.35 336.557 141.6 334.307 142.95C334.307 143.25 334.307 144 334.307 144H352.757C352.757 144 352.757 143.25 352.757 142.95C350.507 141.6 349.457 139.35 349.457 134.1ZM421.211 95.55H424.511C424.511 95.55 433.811 95.55 435.161 95.55C433.061 77.4 415.511 71.25 402.761 71.85C386.261 72.75 362.711 84 363.461 109.95C364.061 134.7 384.011 144.9 404.711 144.9C426.011 144.9 435.461 130.8 436.361 120.15C437.561 106.5 429.761 97.8 421.211 95.55ZM396.011 73.65C410.711 70.8 422.411 81.3 424.361 94.35H376.511C379.211 84.15 385.811 75.6 396.011 73.65ZM435.011 120.45C433.511 132.15 422.261 141 409.361 141.6C394.061 142.2 382.811 135.3 377.261 119.55C374.711 112.35 374.261 103.5 376.211 95.55H415.061C426.461 95.55 436.811 104.85 435.011 120.45ZM524.654 139.95C517.004 140.25 507.704 148.05 496.604 154.65C487.004 160.5 478.304 166.35 470.654 166.2C465.104 166.2 462.554 162.6 462.254 157.65C461.504 148.65 473.054 145.2 482.954 144.75C483.554 144.9 484.004 144.9 484.454 144.9C504.704 144.9 525.254 129.15 525.254 105.15C525.254 91.5 517.754 81.45 506.954 76.2L531.104 75.15L530.204 67.65L504.554 75.15C499.454 73.05 493.754 71.85 487.754 71.85C467.654 71.85 446.954 86.85 446.954 111.6C446.954 130.65 461.204 142.35 478.754 144.45C468.254 145.5 453.854 150.45 454.154 159.6C454.304 166.5 460.304 169.35 468.254 168.75C475.304 168.3 482.804 164.4 489.704 160.2C493.304 165.15 498.554 171 509.354 171C522.104 171 537.104 163.35 537.104 151.5C537.104 144.9 533.654 139.8 524.654 139.95ZM459.704 116.4C454.454 98.25 459.104 79.5 476.204 74.55C493.304 69.6 507.404 82.35 512.654 100.35C517.904 118.5 513.104 137.25 496.154 142.2C479.054 147.3 464.954 134.4 459.704 116.4ZM527.954 154.05C527.354 163.95 520.904 170.1 509.354 169.95C498.254 169.8 493.604 163.65 490.754 159.45C493.004 158.1 495.254 156.75 497.504 155.4C506.204 150 515.804 143.55 520.454 142.95C526.454 142.05 528.254 147.15 527.954 154.05ZM594.942 95.55H598.242C598.242 95.55 607.542 95.55 608.892 95.55C606.792 77.4 589.242 71.25 576.492 71.85C559.992 72.75 536.442 84 537.192 109.95C537.792 134.7 557.742 144.9 578.442 144.9C599.742 144.9 609.192 130.8 610.092 120.15C611.292 106.5 603.492 97.8 594.942 95.55ZM569.742 73.65C584.442 70.8 596.142 81.3 598.092 94.35H550.242C552.942 84.15 559.542 75.6 569.742 73.65ZM608.742 120.45C607.242 132.15 595.992 141 583.092 141.6C567.792 142.2 556.542 135.3 550.992 119.55C548.442 112.35 547.992 103.5 549.942 95.55H588.792C600.192 95.55 610.542 104.85 608.742 120.45ZM673.784 117.45C671.084 129 666.134 140.85 656.234 142.2C643.484 143.85 639.884 133.8 639.884 120.75V73.05H657.584V71.85H624.434C633.434 71.4 644.834 62.85 644.834 51.3H632.984C632.984 58.5 631.934 71.85 619.184 71.85V73.05H628.034V118.5C628.034 136.2 636.284 144.9 649.634 144.9C665.384 144.9 671.684 131.85 674.534 117.75L673.784 117.45ZM691.205 134.1V71.85H690.155L676.055 75.15C676.055 75.15 676.055 75.9 676.055 76.2C678.905 76.65 679.355 78.15 679.355 83.4V134.1C679.355 139.35 678.305 141.6 676.055 142.95C676.055 143.25 676.055 144 676.055 144H694.655C694.655 144 694.655 143.25 694.655 142.95C692.255 141.6 691.205 139.35 691.205 134.1ZM684.905 59.7C688.805 59.7 691.955 56.55 691.955 52.65C691.955 48.75 688.805 45.6 684.905 45.6C681.005 45.6 677.855 48.75 677.855 52.65C677.855 56.55 681.005 59.7 684.905 59.7ZM751.706 71.85C730.706 71.85 723.056 95.55 720.356 112.95V71.85H719.306L705.206 75.15C705.206 75.15 705.206 75.9 705.206 76.2C708.056 76.65 708.506 78.15 708.506 83.4V180.9H709.556L723.656 177.6C723.656 177.6 723.656 176.85 723.656 176.55C720.806 176.1 720.356 174.6 720.356 169.35V143.55C722.906 144.3 725.906 144.9 729.206 144.9C746.006 144.9 780.506 138.6 779.606 101.4C779.006 82.35 764.006 71.85 751.706 71.85ZM729.356 144C724.556 144.15 721.106 142.95 720.356 142.65V121.8C720.356 109.2 728.306 77.85 745.106 74.55C758.006 72 767.156 86.25 767.906 99.3C770.006 137.55 743.756 143.85 729.356 144ZM836.813 71.85C815.813 71.85 808.163 95.55 805.463 112.95V71.85H804.413L790.313 75.15C790.313 75.15 790.313 75.9 790.313 76.2C793.163 76.65 793.613 78.15 793.613 83.4V180.9H794.663L808.763 177.6C808.763 177.6 808.763 176.85 808.763 176.55C805.913 176.1 805.463 174.6 805.463 169.35V143.55C808.013 144.3 811.013 144.9 814.313 144.9C831.113 144.9 865.613 138.6 864.713 101.4C864.113 82.35 849.113 71.85 836.813 71.85ZM814.463 144C809.663 144.15 806.213 142.95 805.463 142.65V121.8C805.463 109.2 813.413 77.85 830.213 74.55C843.113 72 852.263 86.25 853.013 99.3C855.113 137.55 828.863 143.85 814.463 144ZM902.941 71.85C886.591 71.85 881.191 80.7 879.991 90.45C876.391 119.85 928.741 111.15 925.891 130.8C924.991 137.25 916.891 142.8 906.091 142.8C892.741 142.8 881.491 130.35 876.391 119.85H875.641L872.491 134.85C880.591 140.85 889.591 144.9 901.741 144.9C918.541 144.9 929.641 136.05 930.541 124.2C932.191 99.75 881.641 105.15 883.741 85.05C884.491 78.9 890.191 73.2 900.391 73.2C908.941 73.2 918.541 82.5 923.191 95.25H923.941L926.941 81.45C920.941 76.8 910.741 71.85 902.941 71.85Z" fill="#2E2828"/>
</g>
<g opacity="0.8">
<path d="M2659.31 39H2636.66C2636.66 39 2636.66 39.9 2636.66 40.2C2639.06 41.55 2640.11 43.65 2640.11 49.05V134.1C2640.11 139.35 2639.06 141.6 2636.66 142.95C2636.66 143.25 2636.66 144 2636.66 144H2655.26C2655.26 144 2655.26 143.25 2655.26 142.95C2653.01 141.6 2651.96 139.35 2651.96 134.1V100.35H2659.31C2688.86 100.35 2708.51 90.9 2708.51 69.75C2708.51 48.45 2688.86 39 2659.31 39ZM2659.31 99.15H2651.96V40.2H2659.31C2686.31 40.2 2696.66 52.05 2696.66 69.75C2696.66 87.3 2686.31 99.15 2659.31 99.15ZM2768.63 73.05V71.85H2747.93C2735.78 71.85 2730.98 62.7 2729.93 56.25C2728.58 48.15 2730.38 40.2 2735.48 37.95C2745.53 33.3 2755.28 48 2758.88 57.15H2759.93L2762.18 41.4C2756.78 37.5 2749.13 35.85 2742.68 35.85C2727.83 35.85 2719.58 43.8 2719.58 54C2719.58 64.05 2732.03 71.4 2741.03 71.85H2718.98V73.05C2724.83 73.05 2727.83 76.95 2727.83 85.05V134.1C2727.83 139.35 2726.78 141.6 2724.53 142.95C2724.53 143.25 2724.53 144 2724.53 144H2742.98C2742.98 144 2742.98 143.25 2742.98 142.95C2740.73 141.6 2739.68 139.35 2739.68 134.1V73.05H2768.63ZM2789.8 134.1V35.85H2788.75L2774.65 39C2774.65 39 2774.65 39.9 2774.65 40.2C2777.5 40.65 2777.95 42.15 2777.95 47.4V134.1C2777.95 139.35 2776.9 141.6 2774.65 142.95C2774.65 143.25 2774.65 144 2774.65 144H2793.1C2793.1 144 2793.1 143.25 2793.1 142.95C2790.85 141.6 2789.8 139.35 2789.8 134.1ZM2861.55 95.55H2864.85C2864.85 95.55 2874.15 95.55 2875.5 95.55C2873.4 77.4 2855.85 71.25 2843.1 71.85C2826.6 72.75 2803.05 84 2803.8 109.95C2804.4 134.7 2824.35 144.9 2845.05 144.9C2866.35 144.9 2875.8 130.8 2876.7 120.15C2877.9 106.5 2870.1 97.8 2861.55 95.55ZM2836.35 73.65C2851.05 70.8 2862.75 81.3 2864.7 94.35H2816.85C2819.55 84.15 2826.15 75.6 2836.35 73.65ZM2875.35 120.45C2873.85 132.15 2862.6 141 2849.7 141.6C2834.4 142.2 2823.15 135.3 2817.6 119.55C2815.05 112.35 2814.6 103.5 2816.55 95.55H2855.4C2866.8 95.55 2877.15 104.85 2875.35 120.45ZM2964.99 139.95C2957.34 140.25 2948.04 148.05 2936.94 154.65C2927.34 160.5 2918.64 166.35 2910.99 166.2C2905.44 166.2 2902.89 162.6 2902.59 157.65C2901.84 148.65 2913.39 145.2 2923.29 144.75C2923.89 144.9 2924.34 144.9 2924.79 144.9C2945.04 144.9 2965.59 129.15 2965.59 105.15C2965.59 91.5 2958.09 81.45 2947.29 76.2L2971.44 75.15L2970.54 67.65L2944.89 75.15C2939.79 73.05 2934.09 71.85 2928.09 71.85C2907.99 71.85 2887.29 86.85 2887.29 111.6C2887.29 130.65 2901.54 142.35 2919.09 144.45C2908.59 145.5 2894.19 150.45 2894.49 159.6C2894.64 166.5 2900.64 169.35 2908.59 168.75C2915.64 168.3 2923.14 164.4 2930.04 160.2C2933.64 165.15 2938.89 171 2949.69 171C2962.44 171 2977.44 163.35 2977.44 151.5C2977.44 144.9 2973.99 139.8 2964.99 139.95ZM2900.04 116.4C2894.79 98.25 2899.44 79.5 2916.54 74.55C2933.64 69.6 2947.74 82.35 2952.99 100.35C2958.24 118.5 2953.44 137.25 2936.49 142.2C2919.39 147.3 2905.29 134.4 2900.04 116.4ZM2968.29 154.05C2967.69 163.95 2961.24 170.1 2949.69 169.95C2938.59 169.8 2933.94 163.65 2931.09 159.45C2933.34 158.1 2935.59 156.75 2937.84 155.4C2946.54 150 2956.14 143.55 2960.79 142.95C2966.79 142.05 2968.59 147.15 2968.29 154.05ZM3035.28 95.55H3038.58C3038.58 95.55 3047.88 95.55 3049.23 95.55C3047.13 77.4 3029.58 71.25 3016.83 71.85C3000.33 72.75 2976.78 84 2977.53 109.95C2978.13 134.7 2998.08 144.9 3018.78 144.9C3040.08 144.9 3049.53 130.8 3050.43 120.15C3051.63 106.5 3043.83 97.8 3035.28 95.55ZM3010.08 73.65C3024.78 70.8 3036.48 81.3 3038.43 94.35H2990.58C2993.28 84.15 2999.88 75.6 3010.08 73.65ZM3049.08 120.45C3047.58 132.15 3036.33 141 3023.43 141.6C3008.13 142.2 2996.88 135.3 2991.33 119.55C2988.78 112.35 2988.33 103.5 2990.28 95.55H3029.13C3040.53 95.55 3050.88 104.85 3049.08 120.45ZM3114.12 117.45C3111.42 129 3106.47 140.85 3096.57 142.2C3083.82 143.85 3080.22 133.8 3080.22 120.75V73.05H3097.92V71.85H3064.77C3073.77 71.4 3085.17 62.85 3085.17 51.3H3073.32C3073.32 58.5 3072.27 71.85 3059.52 71.85V73.05H3068.37V118.5C3068.37 136.2 3076.62 144.9 3089.97 144.9C3105.72 144.9 3112.02 131.85 3114.87 117.75L3114.12 117.45ZM3131.55 134.1V71.85H3130.5L3116.4 75.15C3116.4 75.15 3116.4 75.9 3116.4 76.2C3119.25 76.65 3119.7 78.15 3119.7 83.4V134.1C3119.7 139.35 3118.65 141.6 3116.4 142.95C3116.4 143.25 3116.4 144 3116.4 144H3135C3135 144 3135 143.25 3135 142.95C3132.6 141.6 3131.55 139.35 3131.55 134.1ZM3125.25 59.7C3129.15 59.7 3132.3 56.55 3132.3 52.65C3132.3 48.75 3129.15 45.6 3125.25 45.6C3121.35 45.6 3118.2 48.75 3118.2 52.65C3118.2 56.55 3121.35 59.7 3125.25 59.7ZM3192.05 71.85C3171.05 71.85 3163.4 95.55 3160.7 112.95V71.85H3159.65L3145.55 75.15C3145.55 75.15 3145.55 75.9 3145.55 76.2C3148.4 76.65 3148.85 78.15 3148.85 83.4V180.9H3149.9L3164 177.6C3164 177.6 3164 176.85 3164 176.55C3161.15 176.1 3160.7 174.6 3160.7 169.35V143.55C3163.25 144.3 3166.25 144.9 3169.55 144.9C3186.35 144.9 3220.85 138.6 3219.95 101.4C3219.35 82.35 3204.35 71.85 3192.05 71.85ZM3169.7 144C3164.9 144.15 3161.45 142.95 3160.7 142.65V121.8C3160.7 109.2 3168.65 77.85 3185.45 74.55C3198.35 72 3207.5 86.25 3208.25 99.3C3210.35 137.55 3184.1 143.85 3169.7 144ZM3277.15 71.85C3256.15 71.85 3248.5 95.55 3245.8 112.95V71.85H3244.75L3230.65 75.15C3230.65 75.15 3230.65 75.9 3230.65 76.2C3233.5 76.65 3233.95 78.15 3233.95 83.4V180.9H3235L3249.1 177.6C3249.1 177.6 3249.1 176.85 3249.1 176.55C3246.25 176.1 3245.8 174.6 3245.8 169.35V143.55C3248.35 144.3 3251.35 144.9 3254.65 144.9C3271.45 144.9 3305.95 138.6 3305.05 101.4C3304.45 82.35 3289.45 71.85 3277.15 71.85ZM3254.8 144C3250 144.15 3246.55 142.95 3245.8 142.65V121.8C3245.8 109.2 3253.75 77.85 3270.55 74.55C3283.45 72 3292.6 86.25 3293.35 99.3C3295.45 137.55 3269.2 143.85 3254.8 144ZM3343.28 71.85C3326.93 71.85 3321.53 80.7 3320.33 90.45C3316.73 119.85 3369.08 111.15 3366.23 130.8C3365.33 137.25 3357.23 142.8 3346.43 142.8C3333.08 142.8 3321.83 130.35 3316.73 119.85H3315.98L3312.83 134.85C3320.93 140.85 3329.93 144.9 3342.08 144.9C3358.88 144.9 3369.98 136.05 3370.88 124.2C3372.53 99.75 3321.98 105.15 3324.08 85.05C3324.83 78.9 3330.53 73.2 3340.73 73.2C3349.28 73.2 3358.88 82.5 3363.53 95.25H3364.28L3367.28 81.45C3361.28 76.8 3351.08 71.85 3343.28 71.85Z" fill="#EBDDCE"/>
<path d="M1648.65 187H1626C1626 187 1626 187.9 1626 188.2C1628.4 189.55 1629.45 191.65 1629.45 197.05V282.1C1629.45 287.35 1628.4 289.6 1626 290.95C1626 291.25 1626 292 1626 292H1644.6C1644.6 292 1644.6 291.25 1644.6 290.95C1642.35 289.6 1641.3 287.35 1641.3 282.1V248.35H1648.65C1678.2 248.35 1697.85 238.9 1697.85 217.75C1697.85 196.45 1678.2 187 1648.65 187ZM1648.65 247.15H1641.3V188.2H1648.65C1675.65 188.2 1686 200.05 1686 217.75C1686 235.3 1675.65 247.15 1648.65 247.15ZM1757.97 221.05V219.85H1737.27C1725.12 219.85 1720.32 210.7 1719.27 204.25C1717.92 196.15 1719.72 188.2 1724.82 185.95C1734.87 181.3 1744.62 196 1748.22 205.15H1749.27L1751.52 189.4C1746.12 185.5 1738.47 183.85 1732.02 183.85C1717.17 183.85 1708.92 191.8 1708.92 202C1708.92 212.05 1721.37 219.4 1730.37 219.85H1708.32V221.05C1714.17 221.05 1717.17 224.95 1717.17 233.05V282.1C1717.17 287.35 1716.12 289.6 1713.87 290.95C1713.87 291.25 1713.87 292 1713.87 292H1732.32C1732.32 292 1732.32 291.25 1732.32 290.95C1730.07 289.6 1729.02 287.35 1729.02 282.1V221.05H1757.97ZM1779.14 282.1V183.85H1778.09L1763.99 187C1763.99 187 1763.99 187.9 1763.99 188.2C1766.84 188.65 1767.29 190.15 1767.29 195.4V282.1C1767.29 287.35 1766.24 289.6 1763.99 290.95C1763.99 291.25 1763.99 292 1763.99 292H1782.44C1782.44 292 1782.44 291.25 1782.44 290.95C1780.19 289.6 1779.14 287.35 1779.14 282.1ZM1850.89 243.55H1854.19C1854.19 243.55 1863.49 243.55 1864.84 243.55C1862.74 225.4 1845.19 219.25 1832.44 219.85C1815.94 220.75 1792.39 232 1793.14 257.95C1793.74 282.7 1813.69 292.9 1834.39 292.9C1855.69 292.9 1865.14 278.8 1866.04 268.15C1867.24 254.5 1859.44 245.8 1850.89 243.55ZM1825.69 221.65C1840.39 218.8 1852.09 229.3 1854.04 242.35H1806.19C1808.89 232.15 1815.49 223.6 1825.69 221.65ZM1864.69 268.45C1863.19 280.15 1851.94 289 1839.04 289.6C1823.74 290.2 1812.49 283.3 1806.94 267.55C1804.39 260.35 1803.94 251.5 1805.89 243.55H1844.74C1856.14 243.55 1866.49 252.85 1864.69 268.45ZM1954.33 287.95C1946.68 288.25 1937.38 296.05 1926.28 302.65C1916.68 308.5 1907.98 314.35 1900.33 314.2C1894.78 314.2 1892.23 310.6 1891.93 305.65C1891.18 296.65 1902.73 293.2 1912.63 292.75C1913.23 292.9 1913.68 292.9 1914.13 292.9C1934.38 292.9 1954.93 277.15 1954.93 253.15C1954.93 239.5 1947.43 229.45 1936.63 224.2L1960.78 223.15L1959.88 215.65L1934.23 223.15C1929.13 221.05 1923.43 219.85 1917.43 219.85C1897.33 219.85 1876.63 234.85 1876.63 259.6C1876.63 278.65 1890.88 290.35 1908.43 292.45C1897.93 293.5 1883.53 298.45 1883.83 307.6C1883.98 314.5 1889.98 317.35 1897.93 316.75C1904.98 316.3 1912.48 312.4 1919.38 308.2C1922.98 313.15 1928.23 319 1939.03 319C1951.78 319 1966.78 311.35 1966.78 299.5C1966.78 292.9 1963.33 287.8 1954.33 287.95ZM1889.38 264.4C1884.13 246.25 1888.78 227.5 1905.88 222.55C1922.98 217.6 1937.08 230.35 1942.33 248.35C1947.58 266.5 1942.78 285.25 1925.83 290.2C1908.73 295.3 1894.63 282.4 1889.38 264.4ZM1957.63 302.05C1957.03 311.95 1950.58 318.1 1939.03 317.95C1927.93 317.8 1923.28 311.65 1920.43 307.45C1922.68 306.1 1924.93 304.75 1927.18 303.4C1935.88 298 1945.48 291.55 1950.13 290.95C1956.13 290.05 1957.93 295.15 1957.63 302.05ZM2024.62 243.55H2027.92C2027.92 243.55 2037.22 243.55 2038.57 243.55C2036.47 225.4 2018.92 219.25 2006.17 219.85C1989.67 220.75 1966.12 232 1966.87 257.95C1967.47 282.7 1987.42 292.9 2008.12 292.9C2029.42 292.9 2038.87 278.8 2039.77 268.15C2040.97 254.5 2033.17 245.8 2024.62 243.55ZM1999.42 221.65C2014.12 218.8 2025.82 229.3 2027.77 242.35H1979.92C1982.62 232.15 1989.22 223.6 1999.42 221.65ZM2038.42 268.45C2036.92 280.15 2025.67 289 2012.77 289.6C1997.47 290.2 1986.22 283.3 1980.67 267.55C1978.12 260.35 1977.67 251.5 1979.62 243.55H2018.47C2029.87 243.55 2040.22 252.85 2038.42 268.45ZM2103.47 265.45C2100.77 277 2095.82 288.85 2085.92 290.2C2073.17 291.85 2069.57 281.8 2069.57 268.75V221.05H2087.27V219.85H2054.12C2063.12 219.4 2074.52 210.85 2074.52 199.3H2062.67C2062.67 206.5 2061.62 219.85 2048.87 219.85V221.05H2057.72V266.5C2057.72 284.2 2065.97 292.9 2079.32 292.9C2095.07 292.9 2101.37 279.85 2104.22 265.75L2103.47 265.45ZM2120.89 282.1V219.85H2119.84L2105.74 223.15C2105.74 223.15 2105.74 223.9 2105.74 224.2C2108.59 224.65 2109.04 226.15 2109.04 231.4V282.1C2109.04 287.35 2107.99 289.6 2105.74 290.95C2105.74 291.25 2105.74 292 2105.74 292H2124.34C2124.34 292 2124.34 291.25 2124.34 290.95C2121.94 289.6 2120.89 287.35 2120.89 282.1ZM2114.59 207.7C2118.49 207.7 2121.64 204.55 2121.64 200.65C2121.64 196.75 2118.49 193.6 2114.59 193.6C2110.69 193.6 2107.54 196.75 2107.54 200.65C2107.54 204.55 2110.69 207.7 2114.59 207.7ZM2181.39 219.85C2160.39 219.85 2152.74 243.55 2150.04 260.95V219.85H2148.99L2134.89 223.15C2134.89 223.15 2134.89 223.9 2134.89 224.2C2137.74 224.65 2138.19 226.15 2138.19 231.4V328.9H2139.24L2153.34 325.6C2153.34 325.6 2153.34 324.85 2153.34 324.55C2150.49 324.1 2150.04 322.6 2150.04 317.35V291.55C2152.59 292.3 2155.59 292.9 2158.89 292.9C2175.69 292.9 2210.19 286.6 2209.29 249.4C2208.69 230.35 2193.69 219.85 2181.39 219.85ZM2159.04 292C2154.24 292.15 2150.79 290.95 2150.04 290.65V269.8C2150.04 257.2 2157.99 225.85 2174.79 222.55C2187.69 220 2196.84 234.25 2197.59 247.3C2199.69 285.55 2173.44 291.85 2159.04 292ZM2266.49 219.85C2245.49 219.85 2237.84 243.55 2235.14 260.95V219.85H2234.09L2219.99 223.15C2219.99 223.15 2219.99 223.9 2219.99 224.2C2222.84 224.65 2223.29 226.15 2223.29 231.4V328.9H2224.34L2238.44 325.6C2238.44 325.6 2238.44 324.85 2238.44 324.55C2235.59 324.1 2235.14 322.6 2235.14 317.35V291.55C2237.69 292.3 2240.69 292.9 2243.99 292.9C2260.79 292.9 2295.29 286.6 2294.39 249.4C2293.79 230.35 2278.79 219.85 2266.49 219.85ZM2244.14 292C2239.34 292.15 2235.89 290.95 2235.14 290.65V269.8C2235.14 257.2 2243.09 225.85 2259.89 222.55C2272.79 220 2281.94 234.25 2282.69 247.3C2284.79 285.55 2258.54 291.85 2244.14 292ZM2332.62 219.85C2316.27 219.85 2310.87 228.7 2309.67 238.45C2306.07 267.85 2358.42 259.15 2355.57 278.8C2354.67 285.25 2346.57 290.8 2335.77 290.8C2322.42 290.8 2311.17 278.35 2306.07 267.85H2305.32L2302.17 282.85C2310.27 288.85 2319.27 292.9 2331.42 292.9C2348.22 292.9 2359.32 284.05 2360.22 272.2C2361.87 247.75 2311.32 253.15 2313.42 233.05C2314.17 226.9 2319.87 221.2 2330.07 221.2C2338.62 221.2 2348.22 230.5 2352.87 243.25H2353.62L2356.62 229.45C2350.62 224.8 2340.42 219.85 2332.62 219.85Z" fill="#EBDDCE"/>
<path d="M2467.9 187H2445.25C2445.25 187 2445.25 187.9 2445.25 188.2C2447.65 189.55 2448.7 191.65 2448.7 197.05V282.1C2448.7 287.35 2447.65 289.6 2445.25 290.95C2445.25 291.25 2445.25 292 2445.25 292H2463.85C2463.85 292 2463.85 291.25 2463.85 290.95C2461.6 289.6 2460.55 287.35 2460.55 282.1V248.35H2467.9C2497.45 248.35 2517.1 238.9 2517.1 217.75C2517.1 196.45 2497.45 187 2467.9 187ZM2467.9 247.15H2460.55V188.2H2467.9C2494.9 188.2 2505.25 200.05 2505.25 217.75C2505.25 235.3 2494.9 247.15 2467.9 247.15ZM2577.22 221.05V219.85H2556.52C2544.37 219.85 2539.57 210.7 2538.52 204.25C2537.17 196.15 2538.97 188.2 2544.07 185.95C2554.12 181.3 2563.87 196 2567.47 205.15H2568.52L2570.77 189.4C2565.37 185.5 2557.72 183.85 2551.27 183.85C2536.42 183.85 2528.17 191.8 2528.17 202C2528.17 212.05 2540.62 219.4 2549.62 219.85H2527.57V221.05C2533.42 221.05 2536.42 224.95 2536.42 233.05V282.1C2536.42 287.35 2535.37 289.6 2533.12 290.95C2533.12 291.25 2533.12 292 2533.12 292H2551.57C2551.57 292 2551.57 291.25 2551.57 290.95C2549.32 289.6 2548.27 287.35 2548.27 282.1V221.05H2577.22ZM2598.38 282.1V183.85H2597.33L2583.23 187C2583.23 187 2583.23 187.9 2583.23 188.2C2586.08 188.65 2586.53 190.15 2586.53 195.4V282.1C2586.53 287.35 2585.48 289.6 2583.23 290.95C2583.23 291.25 2583.23 292 2583.23 292H2601.68C2601.68 292 2601.68 291.25 2601.68 290.95C2599.43 289.6 2598.38 287.35 2598.38 282.1ZM2670.14 243.55H2673.44C2673.44 243.55 2682.74 243.55 2684.09 243.55C2681.99 225.4 2664.44 219.25 2651.69 219.85C2635.19 220.75 2611.64 232 2612.39 257.95C2612.99 282.7 2632.94 292.9 2653.64 292.9C2674.94 292.9 2684.39 278.8 2685.29 268.15C2686.49 254.5 2678.69 245.8 2670.14 243.55ZM2644.94 221.65C2659.64 218.8 2671.34 229.3 2673.29 242.35H2625.44C2628.14 232.15 2634.74 223.6 2644.94 221.65ZM2683.94 268.45C2682.44 280.15 2671.19 289 2658.29 289.6C2642.99 290.2 2631.74 283.3 2626.19 267.55C2623.64 260.35 2623.19 251.5 2625.14 243.55H2663.99C2675.39 243.55 2685.74 252.85 2683.94 268.45ZM2773.58 287.95C2765.93 288.25 2756.63 296.05 2745.53 302.65C2735.93 308.5 2727.23 314.35 2719.58 314.2C2714.03 314.2 2711.48 310.6 2711.18 305.65C2710.43 296.65 2721.98 293.2 2731.88 292.75C2732.48 292.9 2732.93 292.9 2733.38 292.9C2753.63 292.9 2774.18 277.15 2774.18 253.15C2774.18 239.5 2766.68 229.45 2755.88 224.2L2780.03 223.15L2779.13 215.65L2753.48 223.15C2748.38 221.05 2742.68 219.85 2736.68 219.85C2716.58 219.85 2695.88 234.85 2695.88 259.6C2695.88 278.65 2710.13 290.35 2727.68 292.45C2717.18 293.5 2702.78 298.45 2703.08 307.6C2703.23 314.5 2709.23 317.35 2717.18 316.75C2724.23 316.3 2731.73 312.4 2738.63 308.2C2742.23 313.15 2747.48 319 2758.28 319C2771.03 319 2786.03 311.35 2786.03 299.5C2786.03 292.9 2782.58 287.8 2773.58 287.95ZM2708.63 264.4C2703.38 246.25 2708.03 227.5 2725.13 222.55C2742.23 217.6 2756.33 230.35 2761.58 248.35C2766.83 266.5 2762.03 285.25 2745.08 290.2C2727.98 295.3 2713.88 282.4 2708.63 264.4ZM2776.88 302.05C2776.28 311.95 2769.83 318.1 2758.28 317.95C2747.18 317.8 2742.53 311.65 2739.68 307.45C2741.93 306.1 2744.18 304.75 2746.43 303.4C2755.13 298 2764.73 291.55 2769.38 290.95C2775.38 290.05 2777.18 295.15 2776.88 302.05ZM2843.87 243.55H2847.17C2847.17 243.55 2856.47 243.55 2857.82 243.55C2855.72 225.4 2838.17 219.25 2825.42 219.85C2808.92 220.75 2785.37 232 2786.12 257.95C2786.72 282.7 2806.67 292.9 2827.37 292.9C2848.67 292.9 2858.12 278.8 2859.02 268.15C2860.22 254.5 2852.42 245.8 2843.87 243.55ZM2818.67 221.65C2833.37 218.8 2845.07 229.3 2847.02 242.35H2799.17C2801.87 232.15 2808.47 223.6 2818.67 221.65ZM2857.67 268.45C2856.17 280.15 2844.92 289 2832.02 289.6C2816.72 290.2 2805.47 283.3 2799.92 267.55C2797.37 260.35 2796.92 251.5 2798.87 243.55H2837.72C2849.12 243.55 2859.47 252.85 2857.67 268.45ZM2922.71 265.45C2920.01 277 2915.06 288.85 2905.16 290.2C2892.41 291.85 2888.81 281.8 2888.81 268.75V221.05H2906.51V219.85H2873.36C2882.36 219.4 2893.76 210.85 2893.76 199.3H2881.91C2881.91 206.5 2880.86 219.85 2868.11 219.85V221.05H2876.96V266.5C2876.96 284.2 2885.21 292.9 2898.56 292.9C2914.31 292.9 2920.61 279.85 2923.46 265.75L2922.71 265.45ZM2940.13 282.1V219.85H2939.08L2924.98 223.15C2924.98 223.15 2924.98 223.9 2924.98 224.2C2927.83 224.65 2928.28 226.15 2928.28 231.4V282.1C2928.28 287.35 2927.23 289.6 2924.98 290.95C2924.98 291.25 2924.98 292 2924.98 292H2943.58C2943.58 292 2943.58 291.25 2943.58 290.95C2941.18 289.6 2940.13 287.35 2940.13 282.1ZM2933.83 207.7C2937.73 207.7 2940.88 204.55 2940.88 200.65C2940.88 196.75 2937.73 193.6 2933.83 193.6C2929.93 193.6 2926.78 196.75 2926.78 200.65C2926.78 204.55 2929.93 207.7 2933.83 207.7ZM3000.63 219.85C2979.63 219.85 2971.98 243.55 2969.28 260.95V219.85H2968.23L2954.13 223.15C2954.13 223.15 2954.13 223.9 2954.13 224.2C2956.98 224.65 2957.43 226.15 2957.43 231.4V328.9H2958.48L2972.58 325.6C2972.58 325.6 2972.58 324.85 2972.58 324.55C2969.73 324.1 2969.28 322.6 2969.28 317.35V291.55C2971.83 292.3 2974.83 292.9 2978.13 292.9C2994.93 292.9 3029.43 286.6 3028.53 249.4C3027.93 230.35 3012.93 219.85 3000.63 219.85ZM2978.28 292C2973.48 292.15 2970.03 290.95 2969.28 290.65V269.8C2969.28 257.2 2977.23 225.85 2994.03 222.55C3006.93 220 3016.08 234.25 3016.83 247.3C3018.93 285.55 2992.68 291.85 2978.28 292ZM3085.74 219.85C3064.74 219.85 3057.09 243.55 3054.39 260.95V219.85H3053.34L3039.24 223.15C3039.24 223.15 3039.24 223.9 3039.24 224.2C3042.09 224.65 3042.54 226.15 3042.54 231.4V328.9H3043.59L3057.69 325.6C3057.69 325.6 3057.69 324.85 3057.69 324.55C3054.84 324.1 3054.39 322.6 3054.39 317.35V291.55C3056.94 292.3 3059.94 292.9 3063.24 292.9C3080.04 292.9 3114.54 286.6 3113.64 249.4C3113.04 230.35 3098.04 219.85 3085.74 219.85ZM3063.39 292C3058.59 292.15 3055.14 290.95 3054.39 290.65V269.8C3054.39 257.2 3062.34 225.85 3079.14 222.55C3092.04 220 3101.19 234.25 3101.94 247.3C3104.04 285.55 3077.79 291.85 3063.39 292ZM3151.87 219.85C3135.52 219.85 3130.12 228.7 3128.92 238.45C3125.32 267.85 3177.67 259.15 3174.82 278.8C3173.92 285.25 3165.82 290.8 3155.02 290.8C3141.67 290.8 3130.42 278.35 3125.32 267.85H3124.57L3121.42 282.85C3129.52 288.85 3138.52 292.9 3150.67 292.9C3167.47 292.9 3178.57 284.05 3179.47 272.2C3181.12 247.75 3130.57 253.15 3132.67 233.05C3133.42 226.9 3139.12 221.2 3149.32 221.2C3157.87 221.2 3167.47 230.5 3172.12 243.25H3172.87L3175.87 229.45C3169.87 224.8 3159.67 219.85 3151.87 219.85Z" fill="#2E2828"/>
<path d="M1838.97 39H1816.32C1816.32 39 1816.32 39.9 1816.32 40.2C1818.72 41.55 1819.77 43.65 1819.77 49.05V134.1C1819.77 139.35 1818.72 141.6 1816.32 142.95C1816.32 143.25 1816.32 144 1816.32 144H1834.92C1834.92 144 1834.92 143.25 1834.92 142.95C1832.67 141.6 1831.62 139.35 1831.62 134.1V100.35H1838.97C1868.52 100.35 1888.17 90.9 1888.17 69.75C1888.17 48.45 1868.52 39 1838.97 39ZM1838.97 99.15H1831.62V40.2H1838.97C1865.97 40.2 1876.32 52.05 1876.32 69.75C1876.32 87.3 1865.97 99.15 1838.97 99.15ZM1948.29 73.05V71.85H1927.59C1915.44 71.85 1910.64 62.7 1909.59 56.25C1908.24 48.15 1910.04 40.2 1915.14 37.95C1925.19 33.3 1934.94 48 1938.54 57.15H1939.59L1941.84 41.4C1936.44 37.5 1928.79 35.85 1922.34 35.85C1907.49 35.85 1899.24 43.8 1899.24 54C1899.24 64.05 1911.69 71.4 1920.69 71.85H1898.64V73.05C1904.49 73.05 1907.49 76.95 1907.49 85.05V134.1C1907.49 139.35 1906.44 141.6 1904.19 142.95C1904.19 143.25 1904.19 144 1904.19 144H1922.64C1922.64 144 1922.64 143.25 1922.64 142.95C1920.39 141.6 1919.34 139.35 1919.34 134.1V73.05H1948.29ZM1969.46 134.1V35.85H1968.41L1954.31 39C1954.31 39 1954.31 39.9 1954.31 40.2C1957.16 40.65 1957.61 42.15 1957.61 47.4V134.1C1957.61 139.35 1956.56 141.6 1954.31 142.95C1954.31 143.25 1954.31 144 1954.31 144H1972.76C1972.76 144 1972.76 143.25 1972.76 142.95C1970.51 141.6 1969.46 139.35 1969.46 134.1ZM2041.21 95.55H2044.51C2044.51 95.55 2053.81 95.55 2055.16 95.55C2053.06 77.4 2035.51 71.25 2022.76 71.85C2006.26 72.75 1982.71 84 1983.46 109.95C1984.06 134.7 2004.01 144.9 2024.71 144.9C2046.01 144.9 2055.46 130.8 2056.36 120.15C2057.56 106.5 2049.76 97.8 2041.21 95.55ZM2016.01 73.65C2030.71 70.8 2042.41 81.3 2044.36 94.35H1996.51C1999.21 84.15 2005.81 75.6 2016.01 73.65ZM2055.01 120.45C2053.51 132.15 2042.26 141 2029.36 141.6C2014.06 142.2 2002.81 135.3 1997.26 119.55C1994.71 112.35 1994.26 103.5 1996.21 95.55H2035.06C2046.46 95.55 2056.81 104.85 2055.01 120.45ZM2144.65 139.95C2137 140.25 2127.7 148.05 2116.6 154.65C2107 160.5 2098.3 166.35 2090.65 166.2C2085.1 166.2 2082.55 162.6 2082.25 157.65C2081.5 148.65 2093.05 145.2 2102.95 144.75C2103.55 144.9 2104 144.9 2104.45 144.9C2124.7 144.9 2145.25 129.15 2145.25 105.15C2145.25 91.5 2137.75 81.45 2126.95 76.2L2151.1 75.15L2150.2 67.65L2124.55 75.15C2119.45 73.05 2113.75 71.85 2107.75 71.85C2087.65 71.85 2066.95 86.85 2066.95 111.6C2066.95 130.65 2081.2 142.35 2098.75 144.45C2088.25 145.5 2073.85 150.45 2074.15 159.6C2074.3 166.5 2080.3 169.35 2088.25 168.75C2095.3 168.3 2102.8 164.4 2109.7 160.2C2113.3 165.15 2118.55 171 2129.35 171C2142.1 171 2157.1 163.35 2157.1 151.5C2157.1 144.9 2153.65 139.8 2144.65 139.95ZM2079.7 116.4C2074.45 98.25 2079.1 79.5 2096.2 74.55C2113.3 69.6 2127.4 82.35 2132.65 100.35C2137.9 118.5 2133.1 137.25 2116.15 142.2C2099.05 147.3 2084.95 134.4 2079.7 116.4ZM2147.95 154.05C2147.35 163.95 2140.9 170.1 2129.35 169.95C2118.25 169.8 2113.6 163.65 2110.75 159.45C2113 158.1 2115.25 156.75 2117.5 155.4C2126.2 150 2135.8 143.55 2140.45 142.95C2146.45 142.05 2148.25 147.15 2147.95 154.05ZM2214.94 95.55H2218.24C2218.24 95.55 2227.54 95.55 2228.89 95.55C2226.79 77.4 2209.24 71.25 2196.49 71.85C2179.99 72.75 2156.44 84 2157.19 109.95C2157.79 134.7 2177.74 144.9 2198.44 144.9C2219.74 144.9 2229.19 130.8 2230.09 120.15C2231.29 106.5 2223.49 97.8 2214.94 95.55ZM2189.74 73.65C2204.44 70.8 2216.14 81.3 2218.09 94.35H2170.24C2172.94 84.15 2179.54 75.6 2189.74 73.65ZM2228.74 120.45C2227.24 132.15 2215.99 141 2203.09 141.6C2187.79 142.2 2176.54 135.3 2170.99 119.55C2168.44 112.35 2167.99 103.5 2169.94 95.55H2208.79C2220.19 95.55 2230.54 104.85 2228.74 120.45ZM2293.78 117.45C2291.08 129 2286.13 140.85 2276.23 142.2C2263.48 143.85 2259.88 133.8 2259.88 120.75V73.05H2277.58V71.85H2244.43C2253.43 71.4 2264.83 62.85 2264.83 51.3H2252.98C2252.98 58.5 2251.93 71.85 2239.18 71.85V73.05H2248.03V118.5C2248.03 136.2 2256.28 144.9 2269.63 144.9C2285.38 144.9 2291.68 131.85 2294.53 117.75L2293.78 117.45ZM2311.21 134.1V71.85H2310.16L2296.06 75.15C2296.06 75.15 2296.06 75.9 2296.06 76.2C2298.91 76.65 2299.36 78.15 2299.36 83.4V134.1C2299.36 139.35 2298.31 141.6 2296.06 142.95C2296.06 143.25 2296.06 144 2296.06 144H2314.66C2314.66 144 2314.66 143.25 2314.66 142.95C2312.26 141.6 2311.21 139.35 2311.21 134.1ZM2304.91 59.7C2308.81 59.7 2311.96 56.55 2311.96 52.65C2311.96 48.75 2308.81 45.6 2304.91 45.6C2301.01 45.6 2297.86 48.75 2297.86 52.65C2297.86 56.55 2301.01 59.7 2304.91 59.7ZM2371.71 71.85C2350.71 71.85 2343.06 95.55 2340.36 112.95V71.85H2339.31L2325.21 75.15C2325.21 75.15 2325.21 75.9 2325.21 76.2C2328.06 76.65 2328.51 78.15 2328.51 83.4V180.9H2329.56L2343.66 177.6C2343.66 177.6 2343.66 176.85 2343.66 176.55C2340.81 176.1 2340.36 174.6 2340.36 169.35V143.55C2342.91 144.3 2345.91 144.9 2349.21 144.9C2366.01 144.9 2400.51 138.6 2399.61 101.4C2399.01 82.35 2384.01 71.85 2371.71 71.85ZM2349.36 144C2344.56 144.15 2341.11 142.95 2340.36 142.65V121.8C2340.36 109.2 2348.31 77.85 2365.11 74.55C2378.01 72 2387.16 86.25 2387.91 99.3C2390.01 137.55 2363.76 143.85 2349.36 144ZM2456.81 71.85C2435.81 71.85 2428.16 95.55 2425.46 112.95V71.85H2424.41L2410.31 75.15C2410.31 75.15 2410.31 75.9 2410.31 76.2C2413.16 76.65 2413.61 78.15 2413.61 83.4V180.9H2414.66L2428.76 177.6C2428.76 177.6 2428.76 176.85 2428.76 176.55C2425.91 176.1 2425.46 174.6 2425.46 169.35V143.55C2428.01 144.3 2431.01 144.9 2434.31 144.9C2451.11 144.9 2485.61 138.6 2484.71 101.4C2484.11 82.35 2469.11 71.85 2456.81 71.85ZM2434.46 144C2429.66 144.15 2426.21 142.95 2425.46 142.65V121.8C2425.46 109.2 2433.41 77.85 2450.21 74.55C2463.11 72 2472.26 86.25 2473.01 99.3C2475.11 137.55 2448.86 143.85 2434.46 144ZM2522.94 71.85C2506.59 71.85 2501.19 80.7 2499.99 90.45C2496.39 119.85 2548.74 111.15 2545.89 130.8C2544.99 137.25 2536.89 142.8 2526.09 142.8C2512.74 142.8 2501.49 130.35 2496.39 119.85H2495.64L2492.49 134.85C2500.59 140.85 2509.59 144.9 2521.74 144.9C2538.54 144.9 2549.64 136.05 2550.54 124.2C2552.19 99.75 2501.64 105.15 2503.74 85.05C2504.49 78.9 2510.19 73.2 2520.39 73.2C2528.94 73.2 2538.54 82.5 2543.19 95.25H2543.94L2546.94 81.45C2540.94 76.8 2530.74 71.85 2522.94 71.85Z" fill="#2E2828"/>
</g>
<g opacity="0.8">
<path d="M4251.31 39H4228.66C4228.66 39 4228.66 39.9 4228.66 40.2C4231.06 41.55 4232.11 43.65 4232.11 49.05V134.1C4232.11 139.35 4231.06 141.6 4228.66 142.95C4228.66 143.25 4228.66 144 4228.66 144H4247.26C4247.26 144 4247.26 143.25 4247.26 142.95C4245.01 141.6 4243.96 139.35 4243.96 134.1V100.35H4251.31C4280.86 100.35 4300.51 90.9 4300.51 69.75C4300.51 48.45 4280.86 39 4251.31 39ZM4251.31 99.15H4243.96V40.2H4251.31C4278.31 40.2 4288.66 52.05 4288.66 69.75C4288.66 87.3 4278.31 99.15 4251.31 99.15ZM4360.63 73.05V71.85H4339.93C4327.78 71.85 4322.98 62.7 4321.93 56.25C4320.58 48.15 4322.38 40.2 4327.48 37.95C4337.53 33.3 4347.28 48 4350.88 57.15H4351.93L4354.18 41.4C4348.78 37.5 4341.13 35.85 4334.68 35.85C4319.83 35.85 4311.58 43.8 4311.58 54C4311.58 64.05 4324.03 71.4 4333.03 71.85H4310.98V73.05C4316.83 73.05 4319.83 76.95 4319.83 85.05V134.1C4319.83 139.35 4318.78 141.6 4316.53 142.95C4316.53 143.25 4316.53 144 4316.53 144H4334.98C4334.98 144 4334.98 143.25 4334.98 142.95C4332.73 141.6 4331.68 139.35 4331.68 134.1V73.05H4360.63ZM4381.8 134.1V35.85H4380.75L4366.65 39C4366.65 39 4366.65 39.9 4366.65 40.2C4369.5 40.65 4369.95 42.15 4369.95 47.4V134.1C4369.95 139.35 4368.9 141.6 4366.65 142.95C4366.65 143.25 4366.65 144 4366.65 144H4385.1C4385.1 144 4385.1 143.25 4385.1 142.95C4382.85 141.6 4381.8 139.35 4381.8 134.1ZM4453.55 95.55H4456.85C4456.85 95.55 4466.15 95.55 4467.5 95.55C4465.4 77.4 4447.85 71.25 4435.1 71.85C4418.6 72.75 4395.05 84 4395.8 109.95C4396.4 134.7 4416.35 144.9 4437.05 144.9C4458.35 144.9 4467.8 130.8 4468.7 120.15C4469.9 106.5 4462.1 97.8 4453.55 95.55ZM4428.35 73.65C4443.05 70.8 4454.75 81.3 4456.7 94.35H4408.85C4411.55 84.15 4418.15 75.6 4428.35 73.65ZM4467.35 120.45C4465.85 132.15 4454.6 141 4441.7 141.6C4426.4 142.2 4415.15 135.3 4409.6 119.55C4407.05 112.35 4406.6 103.5 4408.55 95.55H4447.4C4458.8 95.55 4469.15 104.85 4467.35 120.45ZM4556.99 139.95C4549.34 140.25 4540.04 148.05 4528.94 154.65C4519.34 160.5 4510.64 166.35 4502.99 166.2C4497.44 166.2 4494.89 162.6 4494.59 157.65C4493.84 148.65 4505.39 145.2 4515.29 144.75C4515.89 144.9 4516.34 144.9 4516.79 144.9C4537.04 144.9 4557.59 129.15 4557.59 105.15C4557.59 91.5 4550.09 81.45 4539.29 76.2L4563.44 75.15L4562.54 67.65L4536.89 75.15C4531.79 73.05 4526.09 71.85 4520.09 71.85C4499.99 71.85 4479.29 86.85 4479.29 111.6C4479.29 130.65 4493.54 142.35 4511.09 144.45C4500.59 145.5 4486.19 150.45 4486.49 159.6C4486.64 166.5 4492.64 169.35 4500.59 168.75C4507.64 168.3 4515.14 164.4 4522.04 160.2C4525.64 165.15 4530.89 171 4541.69 171C4554.44 171 4569.44 163.35 4569.44 151.5C4569.44 144.9 4565.99 139.8 4556.99 139.95ZM4492.04 116.4C4486.79 98.25 4491.44 79.5 4508.54 74.55C4525.64 69.6 4539.74 82.35 4544.99 100.35C4550.24 118.5 4545.44 137.25 4528.49 142.2C4511.39 147.3 4497.29 134.4 4492.04 116.4ZM4560.29 154.05C4559.69 163.95 4553.24 170.1 4541.69 169.95C4530.59 169.8 4525.94 163.65 4523.09 159.45C4525.34 158.1 4527.59 156.75 4529.84 155.4C4538.54 150 4548.14 143.55 4552.79 142.95C4558.79 142.05 4560.59 147.15 4560.29 154.05ZM4627.28 95.55H4630.58C4630.58 95.55 4639.88 95.55 4641.23 95.55C4639.13 77.4 4621.58 71.25 4608.83 71.85C4592.33 72.75 4568.78 84 4569.53 109.95C4570.13 134.7 4590.08 144.9 4610.78 144.9C4632.08 144.9 4641.53 130.8 4642.43 120.15C4643.63 106.5 4635.83 97.8 4627.28 95.55ZM4602.08 73.65C4616.78 70.8 4628.48 81.3 4630.43 94.35H4582.58C4585.28 84.15 4591.88 75.6 4602.08 73.65ZM4641.08 120.45C4639.58 132.15 4628.33 141 4615.43 141.6C4600.13 142.2 4588.88 135.3 4583.33 119.55C4580.78 112.35 4580.33 103.5 4582.28 95.55H4621.13C4632.53 95.55 4642.88 104.85 4641.08 120.45ZM4706.12 117.45C4703.42 129 4698.47 140.85 4688.57 142.2C4675.82 143.85 4672.22 133.8 4672.22 120.75V73.05H4689.92V71.85H4656.77C4665.77 71.4 4677.17 62.85 4677.17 51.3H4665.32C4665.32 58.5 4664.27 71.85 4651.52 71.85V73.05H4660.37V118.5C4660.37 136.2 4668.62 144.9 4681.97 144.9C4697.72 144.9 4704.02 131.85 4706.87 117.75L4706.12 117.45ZM4723.55 134.1V71.85H4722.5L4708.4 75.15C4708.4 75.15 4708.4 75.9 4708.4 76.2C4711.25 76.65 4711.7 78.15 4711.7 83.4V134.1C4711.7 139.35 4710.65 141.6 4708.4 142.95C4708.4 143.25 4708.4 144 4708.4 144H4727C4727 144 4727 143.25 4727 142.95C4724.6 141.6 4723.55 139.35 4723.55 134.1ZM4717.25 59.7C4721.15 59.7 4724.3 56.55 4724.3 52.65C4724.3 48.75 4721.15 45.6 4717.25 45.6C4713.35 45.6 4710.2 48.75 4710.2 52.65C4710.2 56.55 4713.35 59.7 4717.25 59.7ZM4784.05 71.85C4763.05 71.85 4755.4 95.55 4752.7 112.95V71.85H4751.65L4737.55 75.15C4737.55 75.15 4737.55 75.9 4737.55 76.2C4740.4 76.65 4740.85 78.15 4740.85 83.4V180.9H4741.9L4756 177.6C4756 177.6 4756 176.85 4756 176.55C4753.15 176.1 4752.7 174.6 4752.7 169.35V143.55C4755.25 144.3 4758.25 144.9 4761.55 144.9C4778.35 144.9 4812.85 138.6 4811.95 101.4C4811.35 82.35 4796.35 71.85 4784.05 71.85ZM4761.7 144C4756.9 144.15 4753.45 142.95 4752.7 142.65V121.8C4752.7 109.2 4760.65 77.85 4777.45 74.55C4790.35 72 4799.5 86.25 4800.25 99.3C4802.35 137.55 4776.1 143.85 4761.7 144ZM4869.15 71.85C4848.15 71.85 4840.5 95.55 4837.8 112.95V71.85H4836.75L4822.65 75.15C4822.65 75.15 4822.65 75.9 4822.65 76.2C4825.5 76.65 4825.95 78.15 4825.95 83.4V180.9H4827L4841.1 177.6C4841.1 177.6 4841.1 176.85 4841.1 176.55C4838.25 176.1 4837.8 174.6 4837.8 169.35V143.55C4840.35 144.3 4843.35 144.9 4846.65 144.9C4863.45 144.9 4897.95 138.6 4897.05 101.4C4896.45 82.35 4881.45 71.85 4869.15 71.85ZM4846.8 144C4842 144.15 4838.55 142.95 4837.8 142.65V121.8C4837.8 109.2 4845.75 77.85 4862.55 74.55C4875.45 72 4884.6 86.25 4885.35 99.3C4887.45 137.55 4861.2 143.85 4846.8 144ZM4935.28 71.85C4918.93 71.85 4913.53 80.7 4912.33 90.45C4908.73 119.85 4961.08 111.15 4958.23 130.8C4957.33 137.25 4949.23 142.8 4938.43 142.8C4925.08 142.8 4913.83 130.35 4908.73 119.85H4907.98L4904.83 134.85C4912.93 140.85 4921.93 144.9 4934.08 144.9C4950.88 144.9 4961.98 136.05 4962.88 124.2C4964.53 99.75 4913.98 105.15 4916.08 85.05C4916.83 78.9 4922.53 73.2 4932.73 73.2C4941.28 73.2 4950.88 82.5 4955.53 95.25H4956.28L4959.28 81.45C4953.28 76.8 4943.08 71.85 4935.28 71.85Z" fill="#EBDDCE"/>
<path d="M3240.65 187H3218C3218 187 3218 187.9 3218 188.2C3220.4 189.55 3221.45 191.65 3221.45 197.05V282.1C3221.45 287.35 3220.4 289.6 3218 290.95C3218 291.25 3218 292 3218 292H3236.6C3236.6 292 3236.6 291.25 3236.6 290.95C3234.35 289.6 3233.3 287.35 3233.3 282.1V248.35H3240.65C3270.2 248.35 3289.85 238.9 3289.85 217.75C3289.85 196.45 3270.2 187 3240.65 187ZM3240.65 247.15H3233.3V188.2H3240.65C3267.65 188.2 3278 200.05 3278 217.75C3278 235.3 3267.65 247.15 3240.65 247.15ZM3349.97 221.05V219.85H3329.27C3317.12 219.85 3312.32 210.7 3311.27 204.25C3309.92 196.15 3311.72 188.2 3316.82 185.95C3326.87 181.3 3336.62 196 3340.22 205.15H3341.27L3343.52 189.4C3338.12 185.5 3330.47 183.85 3324.02 183.85C3309.17 183.85 3300.92 191.8 3300.92 202C3300.92 212.05 3313.37 219.4 3322.37 219.85H3300.32V221.05C3306.17 221.05 3309.17 224.95 3309.17 233.05V282.1C3309.17 287.35 3308.12 289.6 3305.87 290.95C3305.87 291.25 3305.87 292 3305.87 292H3324.32C3324.32 292 3324.32 291.25 3324.32 290.95C3322.07 289.6 3321.02 287.35 3321.02 282.1V221.05H3349.97ZM3371.14 282.1V183.85H3370.09L3355.99 187C3355.99 187 3355.99 187.9 3355.99 188.2C3358.84 188.65 3359.29 190.15 3359.29 195.4V282.1C3359.29 287.35 3358.24 289.6 3355.99 290.95C3355.99 291.25 3355.99 292 3355.99 292H3374.44C3374.44 292 3374.44 291.25 3374.44 290.95C3372.19 289.6 3371.14 287.35 3371.14 282.1ZM3442.89 243.55H3446.19C3446.19 243.55 3455.49 243.55 3456.84 243.55C3454.74 225.4 3437.19 219.25 3424.44 219.85C3407.94 220.75 3384.39 232 3385.14 257.95C3385.74 282.7 3405.69 292.9 3426.39 292.9C3447.69 292.9 3457.14 278.8 3458.04 268.15C3459.24 254.5 3451.44 245.8 3442.89 243.55ZM3417.69 221.65C3432.39 218.8 3444.09 229.3 3446.04 242.35H3398.19C3400.89 232.15 3407.49 223.6 3417.69 221.65ZM3456.69 268.45C3455.19 280.15 3443.94 289 3431.04 289.6C3415.74 290.2 3404.49 283.3 3398.94 267.55C3396.39 260.35 3395.94 251.5 3397.89 243.55H3436.74C3448.14 243.55 3458.49 252.85 3456.69 268.45ZM3546.33 287.95C3538.68 288.25 3529.38 296.05 3518.28 302.65C3508.68 308.5 3499.98 314.35 3492.33 314.2C3486.78 314.2 3484.23 310.6 3483.93 305.65C3483.18 296.65 3494.73 293.2 3504.63 292.75C3505.23 292.9 3505.68 292.9 3506.13 292.9C3526.38 292.9 3546.93 277.15 3546.93 253.15C3546.93 239.5 3539.43 229.45 3528.63 224.2L3552.78 223.15L3551.88 215.65L3526.23 223.15C3521.13 221.05 3515.43 219.85 3509.43 219.85C3489.33 219.85 3468.63 234.85 3468.63 259.6C3468.63 278.65 3482.88 290.35 3500.43 292.45C3489.93 293.5 3475.53 298.45 3475.83 307.6C3475.98 314.5 3481.98 317.35 3489.93 316.75C3496.98 316.3 3504.48 312.4 3511.38 308.2C3514.98 313.15 3520.23 319 3531.03 319C3543.78 319 3558.78 311.35 3558.78 299.5C3558.78 292.9 3555.33 287.8 3546.33 287.95ZM3481.38 264.4C3476.13 246.25 3480.78 227.5 3497.88 222.55C3514.98 217.6 3529.08 230.35 3534.33 248.35C3539.58 266.5 3534.78 285.25 3517.83 290.2C3500.73 295.3 3486.63 282.4 3481.38 264.4ZM3549.63 302.05C3549.03 311.95 3542.58 318.1 3531.03 317.95C3519.93 317.8 3515.28 311.65 3512.43 307.45C3514.68 306.1 3516.93 304.75 3519.18 303.4C3527.88 298 3537.48 291.55 3542.13 290.95C3548.13 290.05 3549.93 295.15 3549.63 302.05ZM3616.62 243.55H3619.92C3619.92 243.55 3629.22 243.55 3630.57 243.55C3628.47 225.4 3610.92 219.25 3598.17 219.85C3581.67 220.75 3558.12 232 3558.87 257.95C3559.47 282.7 3579.42 292.9 3600.12 292.9C3621.42 292.9 3630.87 278.8 3631.77 268.15C3632.97 254.5 3625.17 245.8 3616.62 243.55ZM3591.42 221.65C3606.12 218.8 3617.82 229.3 3619.77 242.35H3571.92C3574.62 232.15 3581.22 223.6 3591.42 221.65ZM3630.42 268.45C3628.92 280.15 3617.67 289 3604.77 289.6C3589.47 290.2 3578.22 283.3 3572.67 267.55C3570.12 260.35 3569.67 251.5 3571.62 243.55H3610.47C3621.87 243.55 3632.22 252.85 3630.42 268.45ZM3695.47 265.45C3692.77 277 3687.82 288.85 3677.92 290.2C3665.17 291.85 3661.57 281.8 3661.57 268.75V221.05H3679.27V219.85H3646.12C3655.12 219.4 3666.52 210.85 3666.52 199.3H3654.67C3654.67 206.5 3653.62 219.85 3640.87 219.85V221.05H3649.72V266.5C3649.72 284.2 3657.97 292.9 3671.32 292.9C3687.07 292.9 3693.37 279.85 3696.22 265.75L3695.47 265.45ZM3712.89 282.1V219.85H3711.84L3697.74 223.15C3697.74 223.15 3697.74 223.9 3697.74 224.2C3700.59 224.65 3701.04 226.15 3701.04 231.4V282.1C3701.04 287.35 3699.99 289.6 3697.74 290.95C3697.74 291.25 3697.74 292 3697.74 292H3716.34C3716.34 292 3716.34 291.25 3716.34 290.95C3713.94 289.6 3712.89 287.35 3712.89 282.1ZM3706.59 207.7C3710.49 207.7 3713.64 204.55 3713.64 200.65C3713.64 196.75 3710.49 193.6 3706.59 193.6C3702.69 193.6 3699.54 196.75 3699.54 200.65C3699.54 204.55 3702.69 207.7 3706.59 207.7ZM3773.39 219.85C3752.39 219.85 3744.74 243.55 3742.04 260.95V219.85H3740.99L3726.89 223.15C3726.89 223.15 3726.89 223.9 3726.89 224.2C3729.74 224.65 3730.19 226.15 3730.19 231.4V328.9H3731.24L3745.34 325.6C3745.34 325.6 3745.34 324.85 3745.34 324.55C3742.49 324.1 3742.04 322.6 3742.04 317.35V291.55C3744.59 292.3 3747.59 292.9 3750.89 292.9C3767.69 292.9 3802.19 286.6 3801.29 249.4C3800.69 230.35 3785.69 219.85 3773.39 219.85ZM3751.04 292C3746.24 292.15 3742.79 290.95 3742.04 290.65V269.8C3742.04 257.2 3749.99 225.85 3766.79 222.55C3779.69 220 3788.84 234.25 3789.59 247.3C3791.69 285.55 3765.44 291.85 3751.04 292ZM3858.49 219.85C3837.49 219.85 3829.84 243.55 3827.14 260.95V219.85H3826.09L3811.99 223.15C3811.99 223.15 3811.99 223.9 3811.99 224.2C3814.84 224.65 3815.29 226.15 3815.29 231.4V328.9H3816.34L3830.44 325.6C3830.44 325.6 3830.44 324.85 3830.44 324.55C3827.59 324.1 3827.14 322.6 3827.14 317.35V291.55C3829.69 292.3 3832.69 292.9 3835.99 292.9C3852.79 292.9 3887.29 286.6 3886.39 249.4C3885.79 230.35 3870.79 219.85 3858.49 219.85ZM3836.14 292C3831.34 292.15 3827.89 290.95 3827.14 290.65V269.8C3827.14 257.2 3835.09 225.85 3851.89 222.55C3864.79 220 3873.94 234.25 3874.69 247.3C3876.79 285.55 3850.54 291.85 3836.14 292ZM3924.62 219.85C3908.27 219.85 3902.87 228.7 3901.67 238.45C3898.07 267.85 3950.42 259.15 3947.57 278.8C3946.67 285.25 3938.57 290.8 3927.77 290.8C3914.42 290.8 3903.17 278.35 3898.07 267.85H3897.32L3894.17 282.85C3902.27 288.85 3911.27 292.9 3923.42 292.9C3940.22 292.9 3951.32 284.05 3952.22 272.2C3953.87 247.75 3903.32 253.15 3905.42 233.05C3906.17 226.9 3911.87 221.2 3922.07 221.2C3930.62 221.2 3940.22 230.5 3944.87 243.25H3945.62L3948.62 229.45C3942.62 224.8 3932.42 219.85 3924.62 219.85Z" fill="#EBDDCE"/>
<path d="M4059.9 187H4037.25C4037.25 187 4037.25 187.9 4037.25 188.2C4039.65 189.55 4040.7 191.65 4040.7 197.05V282.1C4040.7 287.35 4039.65 289.6 4037.25 290.95C4037.25 291.25 4037.25 292 4037.25 292H4055.85C4055.85 292 4055.85 291.25 4055.85 290.95C4053.6 289.6 4052.55 287.35 4052.55 282.1V248.35H4059.9C4089.45 248.35 4109.1 238.9 4109.1 217.75C4109.1 196.45 4089.45 187 4059.9 187ZM4059.9 247.15H4052.55V188.2H4059.9C4086.9 188.2 4097.25 200.05 4097.25 217.75C4097.25 235.3 4086.9 247.15 4059.9 247.15ZM4169.22 221.05V219.85H4148.52C4136.37 219.85 4131.57 210.7 4130.52 204.25C4129.17 196.15 4130.97 188.2 4136.07 185.95C4146.12 181.3 4155.87 196 4159.47 205.15H4160.52L4162.77 189.4C4157.37 185.5 4149.72 183.85 4143.27 183.85C4128.42 183.85 4120.17 191.8 4120.17 202C4120.17 212.05 4132.62 219.4 4141.62 219.85H4119.57V221.05C4125.42 221.05 4128.42 224.95 4128.42 233.05V282.1C4128.42 287.35 4127.37 289.6 4125.12 290.95C4125.12 291.25 4125.12 292 4125.12 292H4143.57C4143.57 292 4143.57 291.25 4143.57 290.95C4141.32 289.6 4140.27 287.35 4140.27 282.1V221.05H4169.22ZM4190.38 282.1V183.85H4189.33L4175.23 187C4175.23 187 4175.23 187.9 4175.23 188.2C4178.08 188.65 4178.53 190.15 4178.53 195.4V282.1C4178.53 287.35 4177.48 289.6 4175.23 290.95C4175.23 291.25 4175.23 292 4175.23 292H4193.68C4193.68 292 4193.68 291.25 4193.68 290.95C4191.43 289.6 4190.38 287.35 4190.38 282.1ZM4262.14 243.55H4265.44C4265.44 243.55 4274.74 243.55 4276.09 243.55C4273.99 225.4 4256.44 219.25 4243.69 219.85C4227.19 220.75 4203.64 232 4204.39 257.95C4204.99 282.7 4224.94 292.9 4245.64 292.9C4266.94 292.9 4276.39 278.8 4277.29 268.15C4278.49 254.5 4270.69 245.8 4262.14 243.55ZM4236.94 221.65C4251.64 218.8 4263.34 229.3 4265.29 242.35H4217.44C4220.14 232.15 4226.74 223.6 4236.94 221.65ZM4275.94 268.45C4274.44 280.15 4263.19 289 4250.29 289.6C4234.99 290.2 4223.74 283.3 4218.19 267.55C4215.64 260.35 4215.19 251.5 4217.14 243.55H4255.99C4267.39 243.55 4277.74 252.85 4275.94 268.45ZM4365.58 287.95C4357.93 288.25 4348.63 296.05 4337.53 302.65C4327.93 308.5 4319.23 314.35 4311.58 314.2C4306.03 314.2 4303.48 310.6 4303.18 305.65C4302.43 296.65 4313.98 293.2 4323.88 292.75C4324.48 292.9 4324.93 292.9 4325.38 292.9C4345.63 292.9 4366.18 277.15 4366.18 253.15C4366.18 239.5 4358.68 229.45 4347.88 224.2L4372.03 223.15L4371.13 215.65L4345.48 223.15C4340.38 221.05 4334.68 219.85 4328.68 219.85C4308.58 219.85 4287.88 234.85 4287.88 259.6C4287.88 278.65 4302.13 290.35 4319.68 292.45C4309.18 293.5 4294.78 298.45 4295.08 307.6C4295.23 314.5 4301.23 317.35 4309.18 316.75C4316.23 316.3 4323.73 312.4 4330.63 308.2C4334.23 313.15 4339.48 319 4350.28 319C4363.03 319 4378.03 311.35 4378.03 299.5C4378.03 292.9 4374.58 287.8 4365.58 287.95ZM4300.63 264.4C4295.38 246.25 4300.03 227.5 4317.13 222.55C4334.23 217.6 4348.33 230.35 4353.58 248.35C4358.83 266.5 4354.03 285.25 4337.08 290.2C4319.98 295.3 4305.88 282.4 4300.63 264.4ZM4368.88 302.05C4368.28 311.95 4361.83 318.1 4350.28 317.95C4339.18 317.8 4334.53 311.65 4331.68 307.45C4333.93 306.1 4336.18 304.75 4338.43 303.4C4347.13 298 4356.73 291.55 4361.38 290.95C4367.38 290.05 4369.18 295.15 4368.88 302.05ZM4435.87 243.55H4439.17C4439.17 243.55 4448.47 243.55 4449.82 243.55C4447.72 225.4 4430.17 219.25 4417.42 219.85C4400.92 220.75 4377.37 232 4378.12 257.95C4378.72 282.7 4398.67 292.9 4419.37 292.9C4440.67 292.9 4450.12 278.8 4451.02 268.15C4452.22 254.5 4444.42 245.8 4435.87 243.55ZM4410.67 221.65C4425.37 218.8 4437.07 229.3 4439.02 242.35H4391.17C4393.87 232.15 4400.47 223.6 4410.67 221.65ZM4449.67 268.45C4448.17 280.15 4436.92 289 4424.02 289.6C4408.72 290.2 4397.47 283.3 4391.92 267.55C4389.37 260.35 4388.92 251.5 4390.87 243.55H4429.72C4441.12 243.55 4451.47 252.85 4449.67 268.45ZM4514.71 265.45C4512.01 277 4507.06 288.85 4497.16 290.2C4484.41 291.85 4480.81 281.8 4480.81 268.75V221.05H4498.51V219.85H4465.36C4474.36 219.4 4485.76 210.85 4485.76 199.3H4473.91C4473.91 206.5 4472.86 219.85 4460.11 219.85V221.05H4468.96V266.5C4468.96 284.2 4477.21 292.9 4490.56 292.9C4506.31 292.9 4512.61 279.85 4515.46 265.75L4514.71 265.45ZM4532.13 282.1V219.85H4531.08L4516.98 223.15C4516.98 223.15 4516.98 223.9 4516.98 224.2C4519.83 224.65 4520.28 226.15 4520.28 231.4V282.1C4520.28 287.35 4519.23 289.6 4516.98 290.95C4516.98 291.25 4516.98 292 4516.98 292H4535.58C4535.58 292 4535.58 291.25 4535.58 290.95C4533.18 289.6 4532.13 287.35 4532.13 282.1ZM4525.83 207.7C4529.73 207.7 4532.88 204.55 4532.88 200.65C4532.88 196.75 4529.73 193.6 4525.83 193.6C4521.93 193.6 4518.78 196.75 4518.78 200.65C4518.78 204.55 4521.93 207.7 4525.83 207.7ZM4592.63 219.85C4571.63 219.85 4563.98 243.55 4561.28 260.95V219.85H4560.23L4546.13 223.15C4546.13 223.15 4546.13 223.9 4546.13 224.2C4548.98 224.65 4549.43 226.15 4549.43 231.4V328.9H4550.48L4564.58 325.6C4564.58 325.6 4564.58 324.85 4564.58 324.55C4561.73 324.1 4561.28 322.6 4561.28 317.35V291.55C4563.83 292.3 4566.83 292.9 4570.13 292.9C4586.93 292.9 4621.43 286.6 4620.53 249.4C4619.93 230.35 4604.93 219.85 4592.63 219.85ZM4570.28 292C4565.48 292.15 4562.03 290.95 4561.28 290.65V269.8C4561.28 257.2 4569.23 225.85 4586.03 222.55C4598.93 220 4608.08 234.25 4608.83 247.3C4610.93 285.55 4584.68 291.85 4570.28 292ZM4677.74 219.85C4656.74 219.85 4649.09 243.55 4646.39 260.95V219.85H4645.34L4631.24 223.15C4631.24 223.15 4631.24 223.9 4631.24 224.2C4634.09 224.65 4634.54 226.15 4634.54 231.4V328.9H4635.59L4649.69 325.6C4649.69 325.6 4649.69 324.85 4649.69 324.55C4646.84 324.1 4646.39 322.6 4646.39 317.35V291.55C4648.94 292.3 4651.94 292.9 4655.24 292.9C4672.04 292.9 4706.54 286.6 4705.64 249.4C4705.04 230.35 4690.04 219.85 4677.74 219.85ZM4655.39 292C4650.59 292.15 4647.14 290.95 4646.39 290.65V269.8C4646.39 257.2 4654.34 225.85 4671.14 222.55C4684.04 220 4693.19 234.25 4693.94 247.3C4696.04 285.55 4669.79 291.85 4655.39 292ZM4743.87 219.85C4727.52 219.85 4722.12 228.7 4720.92 238.45C4717.32 267.85 4769.67 259.15 4766.82 278.8C4765.92 285.25 4757.82 290.8 4747.02 290.8C4733.67 290.8 4722.42 278.35 4717.32 267.85H4716.57L4713.42 282.85C4721.52 288.85 4730.52 292.9 4742.67 292.9C4759.47 292.9 4770.57 284.05 4771.47 272.2C4773.12 247.75 4722.57 253.15 4724.67 233.05C4725.42 226.9 4731.12 221.2 4741.32 221.2C4749.87 221.2 4759.47 230.5 4764.12 243.25H4764.87L4767.87 229.45C4761.87 224.8 4751.67 219.85 4743.87 219.85Z" fill="#2E2828"/>
<path d="M3430.97 39H3408.32C3408.32 39 3408.32 39.9 3408.32 40.2C3410.72 41.55 3411.77 43.65 3411.77 49.05V134.1C3411.77 139.35 3410.72 141.6 3408.32 142.95C3408.32 143.25 3408.32 144 3408.32 144H3426.92C3426.92 144 3426.92 143.25 3426.92 142.95C3424.67 141.6 3423.62 139.35 3423.62 134.1V100.35H3430.97C3460.52 100.35 3480.17 90.9 3480.17 69.75C3480.17 48.45 3460.52 39 3430.97 39ZM3430.97 99.15H3423.62V40.2H3430.97C3457.97 40.2 3468.32 52.05 3468.32 69.75C3468.32 87.3 3457.97 99.15 3430.97 99.15ZM3540.29 73.05V71.85H3519.59C3507.44 71.85 3502.64 62.7 3501.59 56.25C3500.24 48.15 3502.04 40.2 3507.14 37.95C3517.19 33.3 3526.94 48 3530.54 57.15H3531.59L3533.84 41.4C3528.44 37.5 3520.79 35.85 3514.34 35.85C3499.49 35.85 3491.24 43.8 3491.24 54C3491.24 64.05 3503.69 71.4 3512.69 71.85H3490.64V73.05C3496.49 73.05 3499.49 76.95 3499.49 85.05V134.1C3499.49 139.35 3498.44 141.6 3496.19 142.95C3496.19 143.25 3496.19 144 3496.19 144H3514.64C3514.64 144 3514.64 143.25 3514.64 142.95C3512.39 141.6 3511.34 139.35 3511.34 134.1V73.05H3540.29ZM3561.46 134.1V35.85H3560.41L3546.31 39C3546.31 39 3546.31 39.9 3546.31 40.2C3549.16 40.65 3549.61 42.15 3549.61 47.4V134.1C3549.61 139.35 3548.56 141.6 3546.31 142.95C3546.31 143.25 3546.31 144 3546.31 144H3564.76C3564.76 144 3564.76 143.25 3564.76 142.95C3562.51 141.6 3561.46 139.35 3561.46 134.1ZM3633.21 95.55H3636.51C3636.51 95.55 3645.81 95.55 3647.16 95.55C3645.06 77.4 3627.51 71.25 3614.76 71.85C3598.26 72.75 3574.71 84 3575.46 109.95C3576.06 134.7 3596.01 144.9 3616.71 144.9C3638.01 144.9 3647.46 130.8 3648.36 120.15C3649.56 106.5 3641.76 97.8 3633.21 95.55ZM3608.01 73.65C3622.71 70.8 3634.41 81.3 3636.36 94.35H3588.51C3591.21 84.15 3597.81 75.6 3608.01 73.65ZM3647.01 120.45C3645.51 132.15 3634.26 141 3621.36 141.6C3606.06 142.2 3594.81 135.3 3589.26 119.55C3586.71 112.35 3586.26 103.5 3588.21 95.55H3627.06C3638.46 95.55 3648.81 104.85 3647.01 120.45ZM3736.65 139.95C3729 140.25 3719.7 148.05 3708.6 154.65C3699 160.5 3690.3 166.35 3682.65 166.2C3677.1 166.2 3674.55 162.6 3674.25 157.65C3673.5 148.65 3685.05 145.2 3694.95 144.75C3695.55 144.9 3696 144.9 3696.45 144.9C3716.7 144.9 3737.25 129.15 3737.25 105.15C3737.25 91.5 3729.75 81.45 3718.95 76.2L3743.1 75.15L3742.2 67.65L3716.55 75.15C3711.45 73.05 3705.75 71.85 3699.75 71.85C3679.65 71.85 3658.95 86.85 3658.95 111.6C3658.95 130.65 3673.2 142.35 3690.75 144.45C3680.25 145.5 3665.85 150.45 3666.15 159.6C3666.3 166.5 3672.3 169.35 3680.25 168.75C3687.3 168.3 3694.8 164.4 3701.7 160.2C3705.3 165.15 3710.55 171 3721.35 171C3734.1 171 3749.1 163.35 3749.1 151.5C3749.1 144.9 3745.65 139.8 3736.65 139.95ZM3671.7 116.4C3666.45 98.25 3671.1 79.5 3688.2 74.55C3705.3 69.6 3719.4 82.35 3724.65 100.35C3729.9 118.5 3725.1 137.25 3708.15 142.2C3691.05 147.3 3676.95 134.4 3671.7 116.4ZM3739.95 154.05C3739.35 163.95 3732.9 170.1 3721.35 169.95C3710.25 169.8 3705.6 163.65 3702.75 159.45C3705 158.1 3707.25 156.75 3709.5 155.4C3718.2 150 3727.8 143.55 3732.45 142.95C3738.45 142.05 3740.25 147.15 3739.95 154.05ZM3806.94 95.55H3810.24C3810.24 95.55 3819.54 95.55 3820.89 95.55C3818.79 77.4 3801.24 71.25 3788.49 71.85C3771.99 72.75 3748.44 84 3749.19 109.95C3749.79 134.7 3769.74 144.9 3790.44 144.9C3811.74 144.9 3821.19 130.8 3822.09 120.15C3823.29 106.5 3815.49 97.8 3806.94 95.55ZM3781.74 73.65C3796.44 70.8 3808.14 81.3 3810.09 94.35H3762.24C3764.94 84.15 3771.54 75.6 3781.74 73.65ZM3820.74 120.45C3819.24 132.15 3807.99 141 3795.09 141.6C3779.79 142.2 3768.54 135.3 3762.99 119.55C3760.44 112.35 3759.99 103.5 3761.94 95.55H3800.79C3812.19 95.55 3822.54 104.85 3820.74 120.45ZM3885.78 117.45C3883.08 129 3878.13 140.85 3868.23 142.2C3855.48 143.85 3851.88 133.8 3851.88 120.75V73.05H3869.58V71.85H3836.43C3845.43 71.4 3856.83 62.85 3856.83 51.3H3844.98C3844.98 58.5 3843.93 71.85 3831.18 71.85V73.05H3840.03V118.5C3840.03 136.2 3848.28 144.9 3861.63 144.9C3877.38 144.9 3883.68 131.85 3886.53 117.75L3885.78 117.45ZM3903.21 134.1V71.85H3902.16L3888.06 75.15C3888.06 75.15 3888.06 75.9 3888.06 76.2C3890.91 76.65 3891.36 78.15 3891.36 83.4V134.1C3891.36 139.35 3890.31 141.6 3888.06 142.95C3888.06 143.25 3888.06 144 3888.06 144H3906.66C3906.66 144 3906.66 143.25 3906.66 142.95C3904.26 141.6 3903.21 139.35 3903.21 134.1ZM3896.91 59.7C3900.81 59.7 3903.96 56.55 3903.96 52.65C3903.96 48.75 3900.81 45.6 3896.91 45.6C3893.01 45.6 3889.86 48.75 3889.86 52.65C3889.86 56.55 3893.01 59.7 3896.91 59.7ZM3963.71 71.85C3942.71 71.85 3935.06 95.55 3932.36 112.95V71.85H3931.31L3917.21 75.15C3917.21 75.15 3917.21 75.9 3917.21 76.2C3920.06 76.65 3920.51 78.15 3920.51 83.4V180.9H3921.56L3935.66 177.6C3935.66 177.6 3935.66 176.85 3935.66 176.55C3932.81 176.1 3932.36 174.6 3932.36 169.35V143.55C3934.91 144.3 3937.91 144.9 3941.21 144.9C3958.01 144.9 3992.51 138.6 3991.61 101.4C3991.01 82.35 3976.01 71.85 3963.71 71.85ZM3941.36 144C3936.56 144.15 3933.11 142.95 3932.36 142.65V121.8C3932.36 109.2 3940.31 77.85 3957.11 74.55C3970.01 72 3979.16 86.25 3979.91 99.3C3982.01 137.55 3955.76 143.85 3941.36 144ZM4048.81 71.85C4027.81 71.85 4020.16 95.55 4017.46 112.95V71.85H4016.41L4002.31 75.15C4002.31 75.15 4002.31 75.9 4002.31 76.2C4005.16 76.65 4005.61 78.15 4005.61 83.4V180.9H4006.66L4020.76 177.6C4020.76 177.6 4020.76 176.85 4020.76 176.55C4017.91 176.1 4017.46 174.6 4017.46 169.35V143.55C4020.01 144.3 4023.01 144.9 4026.31 144.9C4043.11 144.9 4077.61 138.6 4076.71 101.4C4076.11 82.35 4061.11 71.85 4048.81 71.85ZM4026.46 144C4021.66 144.15 4018.21 142.95 4017.46 142.65V121.8C4017.46 109.2 4025.41 77.85 4042.21 74.55C4055.11 72 4064.26 86.25 4065.01 99.3C4067.11 137.55 4040.86 143.85 4026.46 144ZM4114.94 71.85C4098.59 71.85 4093.19 80.7 4091.99 90.45C4088.39 119.85 4140.74 111.15 4137.89 130.8C4136.99 137.25 4128.89 142.8 4118.09 142.8C4104.74 142.8 4093.49 130.35 4088.39 119.85H4087.64L4084.49 134.85C4092.59 140.85 4101.59 144.9 4113.74 144.9C4130.54 144.9 4141.64 136.05 4142.54 124.2C4144.19 99.75 4093.64 105.15 4095.74 85.05C4096.49 78.9 4102.19 73.2 4112.39 73.2C4120.94 73.2 4130.54 82.5 4135.19 95.25H4135.94L4138.94 81.45C4132.94 76.8 4122.74 71.85 4114.94 71.85Z" fill="#2E2828"/>
</g>
</svg>
