<svg width="4753" height="327" viewBox="0 0 4753 327" fill="none" xmlns="http://www.w3.org/2000/svg">
<g opacity="0.8">
<path d="M889.221 37.5C865.071 37.5 855.321 52.65 855.321 64.8C855.321 102.45 919.821 92.25 915.921 124.2C914.721 133.65 904.071 141.9 891.321 141.9C871.671 141.9 857.721 128.25 850.071 112.95H849.021L844.521 130.05C856.221 138.9 867.321 144.9 885.171 144.9C906.471 144.9 922.521 132.3 922.521 114.45C922.521 76.95 858.171 86.85 861.021 56.85C861.921 47.85 870.471 39.45 885.321 39.45C897.171 39.45 908.121 47.1 916.671 67.2H917.721L922.221 51.6C913.371 44.7 900.771 37.5 889.221 37.5ZM986.132 117.45C983.432 129 978.482 140.85 968.582 142.2C955.832 143.85 952.232 133.8 952.232 120.75V73.05H969.932V71.85H936.782C945.782 71.4 957.182 62.85 957.182 51.3H945.332C945.332 58.5 944.282 71.85 931.532 71.85V73.05H940.382V118.5C940.382 136.2 948.632 144.9 961.982 144.9C977.732 144.9 984.032 131.85 986.882 117.75L986.132 117.45ZM1003.55 134.1V71.85H1002.5L988.403 75.15C988.403 75.15 988.403 75.9 988.403 76.2C991.253 76.65 991.703 78.15 991.703 83.4V134.1C991.703 139.35 990.653 141.6 988.403 142.95C988.403 143.25 988.403 144 988.403 144H1007C1007 144 1007 143.25 1007 142.95C1004.6 141.6 1003.55 139.35 1003.55 134.1ZM997.253 59.7C1001.15 59.7 1004.3 56.55 1004.3 52.65C1004.3 48.75 1001.15 45.6 997.253 45.6C993.353 45.6 990.203 48.75 990.203 52.65C990.203 56.55 993.353 59.7 997.253 59.7ZM1127.2 134.1C1126.6 128.55 1125.25 112.8 1123.6 98.25C1121.8 80.7 1113.4 71.85 1101.55 71.85C1086.4 71.85 1080.85 85.35 1079.05 99.9L1078.9 98.25C1078.3 81.75 1068.4 71.85 1056.85 71.85C1038.85 71.85 1034.35 89.25 1032.7 105.15V71.85H1031.65L1017.55 75.15C1017.55 75.15 1017.55 75.9 1017.55 76.2C1020.55 76.65 1021 78.15 1021 83.4V134.1C1021 139.35 1019.8 141.6 1017.55 142.95C1017.55 143.25 1017.55 144 1017.55 144H1036.15C1036.15 144 1036.15 143.25 1036.15 142.95C1033.9 141.6 1032.7 139.35 1032.7 134.1V121.8C1032.7 109.05 1033.45 77.7 1050.25 74.55C1061.95 72.3 1067.2 84.6 1067.2 96V134.1C1067.2 139.35 1066.15 141.6 1063.9 142.95C1063.9 143.25 1063.9 144 1063.9 144H1082.35C1082.35 144 1082.35 143.25 1082.35 142.95C1080.1 141.6 1079.05 139.35 1079.05 134.1V116.55C1079.2 100.8 1081 77.55 1094.8 74.55C1106.5 72 1110.85 84.75 1112.05 96C1112.8 103.8 1114.9 129.15 1115.5 134.1C1115.95 139.05 1115.2 141.6 1112.95 142.95C1112.95 143.25 1112.95 144 1112.95 144H1131.4C1131.4 144 1131.4 143.25 1131.4 142.95C1129.15 141.6 1127.8 139.5 1127.2 134.1ZM1250.1 134.1C1249.5 128.55 1248.15 112.8 1246.5 98.25C1244.7 80.7 1236.3 71.85 1224.45 71.85C1209.3 71.85 1203.75 85.35 1201.95 99.9L1201.8 98.25C1201.2 81.75 1191.3 71.85 1179.75 71.85C1161.75 71.85 1157.25 89.25 1155.6 105.15V71.85H1154.55L1140.45 75.15C1140.45 75.15 1140.45 75.9 1140.45 76.2C1143.45 76.65 1143.9 78.15 1143.9 83.4V134.1C1143.9 139.35 1142.7 141.6 1140.45 142.95C1140.45 143.25 1140.45 144 1140.45 144H1159.05C1159.05 144 1159.05 143.25 1159.05 142.95C1156.8 141.6 1155.6 139.35 1155.6 134.1V121.8C1155.6 109.05 1156.35 77.7 1173.15 74.55C1184.85 72.3 1190.1 84.6 1190.1 96V134.1C1190.1 139.35 1189.05 141.6 1186.8 142.95C1186.8 143.25 1186.8 144 1186.8 144H1205.25C1205.25 144 1205.25 143.25 1205.25 142.95C1203 141.6 1201.95 139.35 1201.95 134.1V116.55C1202.1 100.8 1203.9 77.55 1217.7 74.55C1229.4 72 1233.75 84.75 1234.95 96C1235.7 103.8 1237.8 129.15 1238.4 134.1C1238.85 139.05 1238.1 141.6 1235.85 142.95C1235.85 143.25 1235.85 144 1235.85 144H1254.3C1254.3 144 1254.3 143.25 1254.3 142.95C1252.05 141.6 1250.7 139.5 1250.1 134.1ZM1319.79 95.55H1323.09C1323.09 95.55 1332.39 95.55 1333.74 95.55C1331.64 77.4 1314.09 71.25 1301.34 71.85C1284.84 72.75 1261.29 84 1262.04 109.95C1262.64 134.7 1282.59 144.9 1303.29 144.9C1324.59 144.9 1334.04 130.8 1334.94 120.15C1336.14 106.5 1328.34 97.8 1319.79 95.55ZM1294.59 73.65C1309.29 70.8 1320.99 81.3 1322.94 94.35H1275.09C1277.79 84.15 1284.39 75.6 1294.59 73.65ZM1333.59 120.45C1332.09 132.15 1320.84 141 1307.94 141.6C1292.64 142.2 1281.39 135.3 1275.84 119.55C1273.29 112.35 1272.84 103.5 1274.79 95.55H1313.64C1325.04 95.55 1335.39 104.85 1333.59 120.45ZM1415.43 134.1C1414.83 128.55 1413.33 112.8 1411.83 98.25C1410.03 80.25 1399.53 71.85 1387.23 71.85C1367.73 71.85 1362.63 92.25 1360.68 109.05V71.85H1359.63L1345.53 75.15C1345.53 75.15 1345.53 75.9 1345.53 76.2C1348.38 76.65 1348.83 78.15 1348.83 83.4V134.1C1348.83 139.35 1347.78 141.6 1345.53 142.95C1345.53 143.25 1345.53 144 1345.53 144H1364.13C1364.13 144 1364.13 143.25 1364.13 142.95C1361.73 141.6 1360.68 139.35 1360.68 134.1V121.8C1360.68 109.2 1363.83 77.85 1380.63 74.55C1393.53 72 1399.08 84.75 1400.13 96C1400.88 103.8 1403.13 129.15 1403.58 134.1C1404.03 139.05 1403.43 141.6 1401.03 142.95C1401.03 143.25 1401.03 144 1401.03 144H1419.63C1419.63 144 1419.63 143.25 1419.63 142.95C1417.38 141.6 1416.03 139.5 1415.43 134.1Z" fill="#E8D6C5"/>
<path d="M49.2 181.5C25.05 181.5 15.3 196.65 15.3 208.8C15.3 246.45 79.8 236.25 75.9 268.2C74.7 277.65 64.05 285.9 51.3 285.9C31.65 285.9 17.7 272.25 10.05 256.95H9L4.5 274.05C16.2 282.9 27.3 288.9 45.15 288.9C66.45 288.9 82.5 276.3 82.5 258.45C82.5 220.95 18.15 230.85 21 200.85C21.9 191.85 30.45 183.45 45.3 183.45C57.15 183.45 68.1 191.1 76.65 211.2H77.7L82.2 195.6C73.35 188.7 60.75 181.5 49.2 181.5ZM146.112 261.45C143.412 273 138.462 284.85 128.562 286.2C115.812 287.85 112.212 277.8 112.212 264.75V217.05H129.912V215.85H96.7617C105.762 215.4 117.162 206.85 117.162 195.3H105.312C105.312 202.5 104.262 215.85 91.5117 215.85V217.05H100.362V262.5C100.362 280.2 108.612 288.9 121.962 288.9C137.712 288.9 144.012 275.85 146.862 261.75L146.112 261.45ZM163.533 278.1V215.85H162.483L148.383 219.15C148.383 219.15 148.383 219.9 148.383 220.2C151.233 220.65 151.683 222.15 151.683 227.4V278.1C151.683 283.35 150.633 285.6 148.383 286.95C148.383 287.25 148.383 288 148.383 288H166.983C166.983 288 166.983 287.25 166.983 286.95C164.583 285.6 163.533 283.35 163.533 278.1ZM157.233 203.7C161.133 203.7 164.283 200.55 164.283 196.65C164.283 192.75 161.133 189.6 157.233 189.6C153.333 189.6 150.183 192.75 150.183 196.65C150.183 200.55 153.333 203.7 157.233 203.7ZM287.183 278.1C286.583 272.55 285.233 256.8 283.583 242.25C281.783 224.7 273.383 215.85 261.533 215.85C246.383 215.85 240.833 229.35 239.033 243.9L238.883 242.25C238.283 225.75 228.383 215.85 216.833 215.85C198.833 215.85 194.333 233.25 192.683 249.15V215.85H191.633L177.533 219.15C177.533 219.15 177.533 219.9 177.533 220.2C180.533 220.65 180.983 222.15 180.983 227.4V278.1C180.983 283.35 179.783 285.6 177.533 286.95C177.533 287.25 177.533 288 177.533 288H196.133C196.133 288 196.133 287.25 196.133 286.95C193.883 285.6 192.683 283.35 192.683 278.1V265.8C192.683 253.05 193.433 221.7 210.233 218.55C221.933 216.3 227.183 228.6 227.183 240V278.1C227.183 283.35 226.133 285.6 223.883 286.95C223.883 287.25 223.883 288 223.883 288H242.333C242.333 288 242.333 287.25 242.333 286.95C240.083 285.6 239.033 283.35 239.033 278.1V260.55C239.183 244.8 240.983 221.55 254.783 218.55C266.483 216 270.833 228.75 272.033 240C272.783 247.8 274.883 273.15 275.483 278.1C275.933 283.05 275.183 285.6 272.933 286.95C272.933 287.25 272.933 288 272.933 288H291.383C291.383 288 291.383 287.25 291.383 286.95C289.133 285.6 287.783 283.5 287.183 278.1ZM410.084 278.1C409.484 272.55 408.134 256.8 406.484 242.25C404.684 224.7 396.284 215.85 384.434 215.85C369.284 215.85 363.734 229.35 361.934 243.9L361.784 242.25C361.184 225.75 351.284 215.85 339.734 215.85C321.734 215.85 317.234 233.25 315.584 249.15V215.85H314.534L300.434 219.15C300.434 219.15 300.434 219.9 300.434 220.2C303.434 220.65 303.884 222.15 303.884 227.4V278.1C303.884 283.35 302.684 285.6 300.434 286.95C300.434 287.25 300.434 288 300.434 288H319.034C319.034 288 319.034 287.25 319.034 286.95C316.784 285.6 315.584 283.35 315.584 278.1V265.8C315.584 253.05 316.334 221.7 333.134 218.55C344.834 216.3 350.084 228.6 350.084 240V278.1C350.084 283.35 349.034 285.6 346.784 286.95C346.784 287.25 346.784 288 346.784 288H365.234C365.234 288 365.234 287.25 365.234 286.95C362.984 285.6 361.934 283.35 361.934 278.1V260.55C362.084 244.8 363.884 221.55 377.684 218.55C389.384 216 393.734 228.75 394.934 240C395.684 247.8 397.784 273.15 398.384 278.1C398.834 283.05 398.084 285.6 395.834 286.95C395.834 287.25 395.834 288 395.834 288H414.284C414.284 288 414.284 287.25 414.284 286.95C412.034 285.6 410.684 283.5 410.084 278.1ZM479.769 239.55H483.069C483.069 239.55 492.369 239.55 493.719 239.55C491.619 221.4 474.069 215.25 461.319 215.85C444.819 216.75 421.269 228 422.019 253.95C422.619 278.7 442.569 288.9 463.269 288.9C484.569 288.9 494.019 274.8 494.919 264.15C496.119 250.5 488.319 241.8 479.769 239.55ZM454.569 217.65C469.269 214.8 480.969 225.3 482.919 238.35H435.069C437.769 228.15 444.369 219.6 454.569 217.65ZM493.569 264.45C492.069 276.15 480.819 285 467.919 285.6C452.619 286.2 441.369 279.3 435.819 263.55C433.269 256.35 432.819 247.5 434.769 239.55H473.619C485.019 239.55 495.369 248.85 493.569 264.45ZM575.412 278.1C574.812 272.55 573.312 256.8 571.812 242.25C570.012 224.25 559.512 215.85 547.212 215.85C527.712 215.85 522.612 236.25 520.662 253.05V215.85H519.612L505.512 219.15C505.512 219.15 505.512 219.9 505.512 220.2C508.362 220.65 508.812 222.15 508.812 227.4V278.1C508.812 283.35 507.762 285.6 505.512 286.95C505.512 287.25 505.512 288 505.512 288H524.112C524.112 288 524.112 287.25 524.112 286.95C521.712 285.6 520.662 283.35 520.662 278.1V265.8C520.662 253.2 523.812 221.85 540.612 218.55C553.512 216 559.062 228.75 560.112 240C560.862 247.8 563.112 273.15 563.562 278.1C564.012 283.05 563.412 285.6 561.012 286.95C561.012 287.25 561.012 288 561.012 288H579.612C579.612 288 579.612 287.25 579.612 286.95C577.362 285.6 576.012 283.5 575.412 278.1Z" fill="#E8D6C5"/>
<path d="M672.544 181.5C648.394 181.5 638.644 196.65 638.644 208.8C638.644 246.45 703.144 236.25 699.244 268.2C698.044 277.65 687.394 285.9 674.644 285.9C654.994 285.9 641.044 272.25 633.394 256.95H632.344L627.844 274.05C639.544 282.9 650.644 288.9 668.494 288.9C689.794 288.9 705.844 276.3 705.844 258.45C705.844 220.95 641.494 230.85 644.344 200.85C645.244 191.85 653.794 183.45 668.644 183.45C680.494 183.45 691.444 191.1 699.994 211.2H701.044L705.544 195.6C696.694 188.7 684.094 181.5 672.544 181.5ZM769.456 261.45C766.756 273 761.806 284.85 751.906 286.2C739.156 287.85 735.556 277.8 735.556 264.75V217.05H753.256V215.85H720.106C729.106 215.4 740.506 206.85 740.506 195.3H728.656C728.656 202.5 727.606 215.85 714.856 215.85V217.05H723.706V262.5C723.706 280.2 731.956 288.9 745.306 288.9C761.056 288.9 767.356 275.85 770.206 261.75L769.456 261.45ZM786.877 278.1V215.85H785.827L771.727 219.15C771.727 219.15 771.727 219.9 771.727 220.2C774.577 220.65 775.027 222.15 775.027 227.4V278.1C775.027 283.35 773.977 285.6 771.727 286.95C771.727 287.25 771.727 288 771.727 288H790.327C790.327 288 790.327 287.25 790.327 286.95C787.927 285.6 786.877 283.35 786.877 278.1ZM780.577 203.7C784.477 203.7 787.627 200.55 787.627 196.65C787.627 192.75 784.477 189.6 780.577 189.6C776.677 189.6 773.527 192.75 773.527 196.65C773.527 200.55 776.677 203.7 780.577 203.7ZM910.527 278.1C909.927 272.55 908.577 256.8 906.927 242.25C905.127 224.7 896.727 215.85 884.877 215.85C869.727 215.85 864.177 229.35 862.377 243.9L862.227 242.25C861.627 225.75 851.727 215.85 840.177 215.85C822.177 215.85 817.677 233.25 816.027 249.15V215.85H814.977L800.877 219.15C800.877 219.15 800.877 219.9 800.877 220.2C803.877 220.65 804.327 222.15 804.327 227.4V278.1C804.327 283.35 803.127 285.6 800.877 286.95C800.877 287.25 800.877 288 800.877 288H819.477C819.477 288 819.477 287.25 819.477 286.95C817.227 285.6 816.027 283.35 816.027 278.1V265.8C816.027 253.05 816.777 221.7 833.577 218.55C845.277 216.3 850.527 228.6 850.527 240V278.1C850.527 283.35 849.477 285.6 847.227 286.95C847.227 287.25 847.227 288 847.227 288H865.677C865.677 288 865.677 287.25 865.677 286.95C863.427 285.6 862.377 283.35 862.377 278.1V260.55C862.527 244.8 864.327 221.55 878.127 218.55C889.827 216 894.177 228.75 895.377 240C896.127 247.8 898.227 273.15 898.827 278.1C899.277 283.05 898.527 285.6 896.277 286.95C896.277 287.25 896.277 288 896.277 288H914.727C914.727 288 914.727 287.25 914.727 286.95C912.477 285.6 911.127 283.5 910.527 278.1ZM1033.43 278.1C1032.83 272.55 1031.48 256.8 1029.83 242.25C1028.03 224.7 1019.63 215.85 1007.78 215.85C992.628 215.85 987.078 229.35 985.278 243.9L985.128 242.25C984.528 225.75 974.628 215.85 963.078 215.85C945.078 215.85 940.578 233.25 938.928 249.15V215.85H937.878L923.778 219.15C923.778 219.15 923.778 219.9 923.778 220.2C926.778 220.65 927.228 222.15 927.228 227.4V278.1C927.228 283.35 926.028 285.6 923.778 286.95C923.778 287.25 923.778 288 923.778 288H942.378C942.378 288 942.378 287.25 942.378 286.95C940.128 285.6 938.928 283.35 938.928 278.1V265.8C938.928 253.05 939.678 221.7 956.478 218.55C968.178 216.3 973.428 228.6 973.428 240V278.1C973.428 283.35 972.378 285.6 970.128 286.95C970.128 287.25 970.128 288 970.128 288H988.578C988.578 288 988.578 287.25 988.578 286.95C986.328 285.6 985.278 283.35 985.278 278.1V260.55C985.428 244.8 987.228 221.55 1001.03 218.55C1012.73 216 1017.08 228.75 1018.28 240C1019.03 247.8 1021.13 273.15 1021.73 278.1C1022.18 283.05 1021.43 285.6 1019.18 286.95C1019.18 287.25 1019.18 288 1019.18 288H1037.63C1037.63 288 1037.63 287.25 1037.63 286.95C1035.38 285.6 1034.03 283.5 1033.43 278.1ZM1103.11 239.55H1106.41C1106.41 239.55 1115.71 239.55 1117.06 239.55C1114.96 221.4 1097.41 215.25 1084.66 215.85C1068.16 216.75 1044.61 228 1045.36 253.95C1045.96 278.7 1065.91 288.9 1086.61 288.9C1107.91 288.9 1117.36 274.8 1118.26 264.15C1119.46 250.5 1111.66 241.8 1103.11 239.55ZM1077.91 217.65C1092.61 214.8 1104.31 225.3 1106.26 238.35H1058.41C1061.11 228.15 1067.71 219.6 1077.91 217.65ZM1116.91 264.45C1115.41 276.15 1104.16 285 1091.26 285.6C1075.96 286.2 1064.71 279.3 1059.16 263.55C1056.61 256.35 1056.16 247.5 1058.11 239.55H1096.96C1108.36 239.55 1118.71 248.85 1116.91 264.45ZM1198.76 278.1C1198.16 272.55 1196.66 256.8 1195.16 242.25C1193.36 224.25 1182.86 215.85 1170.56 215.85C1151.06 215.85 1145.96 236.25 1144.01 253.05V215.85H1142.96L1128.86 219.15C1128.86 219.15 1128.86 219.9 1128.86 220.2C1131.71 220.65 1132.16 222.15 1132.16 227.4V278.1C1132.16 283.35 1131.11 285.6 1128.86 286.95C1128.86 287.25 1128.86 288 1128.86 288H1147.46C1147.46 288 1147.46 287.25 1147.46 286.95C1145.06 285.6 1144.01 283.35 1144.01 278.1V265.8C1144.01 253.2 1147.16 221.85 1163.96 218.55C1176.86 216 1182.41 228.75 1183.46 240C1184.21 247.8 1186.46 273.15 1186.91 278.1C1187.36 283.05 1186.76 285.6 1184.36 286.95C1184.36 287.25 1184.36 288 1184.36 288H1202.96C1202.96 288 1202.96 287.25 1202.96 286.95C1200.71 285.6 1199.36 283.5 1198.76 278.1Z" fill="#2E2828"/>
<path d="M1302.29 181.5C1278.14 181.5 1268.39 196.65 1268.39 208.8C1268.39 246.45 1332.89 236.25 1328.99 268.2C1327.79 277.65 1317.14 285.9 1304.39 285.9C1284.74 285.9 1270.79 272.25 1263.14 256.95H1262.09L1257.59 274.05C1269.29 282.9 1280.39 288.9 1298.24 288.9C1319.54 288.9 1335.59 276.3 1335.59 258.45C1335.59 220.95 1271.24 230.85 1274.09 200.85C1274.99 191.85 1283.54 183.45 1298.39 183.45C1310.24 183.45 1321.19 191.1 1329.74 211.2H1330.79L1335.29 195.6C1326.44 188.7 1313.84 181.5 1302.29 181.5ZM1399.2 261.45C1396.5 273 1391.55 284.85 1381.65 286.2C1368.9 287.85 1365.3 277.8 1365.3 264.75V217.05H1383V215.85H1349.85C1358.85 215.4 1370.25 206.85 1370.25 195.3H1358.4C1358.4 202.5 1357.35 215.85 1344.6 215.85V217.05H1353.45V262.5C1353.45 280.2 1361.7 288.9 1375.05 288.9C1390.8 288.9 1397.1 275.85 1399.95 261.75L1399.2 261.45ZM1416.63 278.1V215.85H1415.58L1401.48 219.15C1401.48 219.15 1401.48 219.9 1401.48 220.2C1404.33 220.65 1404.78 222.15 1404.78 227.4V278.1C1404.78 283.35 1403.73 285.6 1401.48 286.95C1401.48 287.25 1401.48 288 1401.48 288H1420.08C1420.08 288 1420.08 287.25 1420.08 286.95C1417.68 285.6 1416.63 283.35 1416.63 278.1ZM1410.33 203.7C1414.23 203.7 1417.38 200.55 1417.38 196.65C1417.38 192.75 1414.23 189.6 1410.33 189.6C1406.43 189.6 1403.28 192.75 1403.28 196.65C1403.28 200.55 1406.43 203.7 1410.33 203.7ZM1540.28 278.1C1539.68 272.55 1538.33 256.8 1536.68 242.25C1534.88 224.7 1526.48 215.85 1514.63 215.85C1499.48 215.85 1493.93 229.35 1492.13 243.9L1491.98 242.25C1491.38 225.75 1481.48 215.85 1469.93 215.85C1451.93 215.85 1447.43 233.25 1445.78 249.15V215.85H1444.73L1430.63 219.15C1430.63 219.15 1430.63 219.9 1430.63 220.2C1433.63 220.65 1434.08 222.15 1434.08 227.4V278.1C1434.08 283.35 1432.88 285.6 1430.63 286.95C1430.63 287.25 1430.63 288 1430.63 288H1449.23C1449.23 288 1449.23 287.25 1449.23 286.95C1446.98 285.6 1445.78 283.35 1445.78 278.1V265.8C1445.78 253.05 1446.53 221.7 1463.33 218.55C1475.03 216.3 1480.28 228.6 1480.28 240V278.1C1480.28 283.35 1479.23 285.6 1476.98 286.95C1476.98 287.25 1476.98 288 1476.98 288H1495.43C1495.43 288 1495.43 287.25 1495.43 286.95C1493.18 285.6 1492.13 283.35 1492.13 278.1V260.55C1492.28 244.8 1494.08 221.55 1507.88 218.55C1519.58 216 1523.93 228.75 1525.13 240C1525.88 247.8 1527.98 273.15 1528.58 278.1C1529.03 283.05 1528.28 285.6 1526.03 286.95C1526.03 287.25 1526.03 288 1526.03 288H1544.48C1544.48 288 1544.48 287.25 1544.48 286.95C1542.23 285.6 1540.88 283.5 1540.28 278.1ZM1663.18 278.1C1662.58 272.55 1661.23 256.8 1659.58 242.25C1657.78 224.7 1649.38 215.85 1637.53 215.85C1622.38 215.85 1616.83 229.35 1615.03 243.9L1614.88 242.25C1614.28 225.75 1604.38 215.85 1592.83 215.85C1574.83 215.85 1570.33 233.25 1568.68 249.15V215.85H1567.63L1553.53 219.15C1553.53 219.15 1553.53 219.9 1553.53 220.2C1556.53 220.65 1556.98 222.15 1556.98 227.4V278.1C1556.98 283.35 1555.78 285.6 1553.53 286.95C1553.53 287.25 1553.53 288 1553.53 288H1572.13C1572.13 288 1572.13 287.25 1572.13 286.95C1569.88 285.6 1568.68 283.35 1568.68 278.1V265.8C1568.68 253.05 1569.43 221.7 1586.23 218.55C1597.93 216.3 1603.18 228.6 1603.18 240V278.1C1603.18 283.35 1602.13 285.6 1599.88 286.95C1599.88 287.25 1599.88 288 1599.88 288H1618.33C1618.33 288 1618.33 287.25 1618.33 286.95C1616.08 285.6 1615.03 283.35 1615.03 278.1V260.55C1615.18 244.8 1616.98 221.55 1630.78 218.55C1642.48 216 1646.83 228.75 1648.03 240C1648.78 247.8 1650.88 273.15 1651.48 278.1C1651.93 283.05 1651.18 285.6 1648.93 286.95C1648.93 287.25 1648.93 288 1648.93 288H1667.38C1667.38 288 1667.38 287.25 1667.38 286.95C1665.13 285.6 1663.78 283.5 1663.18 278.1ZM1732.86 239.55H1736.16C1736.16 239.55 1745.46 239.55 1746.81 239.55C1744.71 221.4 1727.16 215.25 1714.41 215.85C1697.91 216.75 1674.36 228 1675.11 253.95C1675.71 278.7 1695.66 288.9 1716.36 288.9C1737.66 288.9 1747.11 274.8 1748.01 264.15C1749.21 250.5 1741.41 241.8 1732.86 239.55ZM1707.66 217.65C1722.36 214.8 1734.06 225.3 1736.01 238.35H1688.16C1690.86 228.15 1697.46 219.6 1707.66 217.65ZM1746.66 264.45C1745.16 276.15 1733.91 285 1721.01 285.6C1705.71 286.2 1694.46 279.3 1688.91 263.55C1686.36 256.35 1685.91 247.5 1687.86 239.55H1726.71C1738.11 239.55 1748.46 248.85 1746.66 264.45ZM1828.5 278.1C1827.9 272.55 1826.4 256.8 1824.9 242.25C1823.1 224.25 1812.6 215.85 1800.3 215.85C1780.8 215.85 1775.7 236.25 1773.75 253.05V215.85H1772.7L1758.6 219.15C1758.6 219.15 1758.6 219.9 1758.6 220.2C1761.45 220.65 1761.9 222.15 1761.9 227.4V278.1C1761.9 283.35 1760.85 285.6 1758.6 286.95C1758.6 287.25 1758.6 288 1758.6 288H1777.2C1777.2 288 1777.2 287.25 1777.2 286.95C1774.8 285.6 1773.75 283.35 1773.75 278.1V265.8C1773.75 253.2 1776.9 221.85 1793.7 218.55C1806.6 216 1812.15 228.75 1813.2 240C1813.95 247.8 1816.2 273.15 1816.65 278.1C1817.1 283.05 1816.5 285.6 1814.1 286.95C1814.1 287.25 1814.1 288 1814.1 288H1832.7C1832.7 288 1832.7 287.25 1832.7 286.95C1830.45 285.6 1829.1 283.5 1828.5 278.1Z" fill="#E8D6C5"/>
<path d="M1520.04 46.5C1495.89 46.5 1486.14 61.65 1486.14 73.8C1486.14 111.45 1550.64 101.25 1546.74 133.2C1545.54 142.65 1534.89 150.9 1522.14 150.9C1502.49 150.9 1488.54 137.25 1480.89 121.95H1479.84L1475.34 139.05C1487.04 147.9 1498.14 153.9 1515.99 153.9C1537.29 153.9 1553.34 141.3 1553.34 123.45C1553.34 85.95 1488.99 95.85 1491.84 65.85C1492.74 56.85 1501.29 48.45 1516.14 48.45C1527.99 48.45 1538.94 56.1 1547.49 76.2H1548.54L1553.04 60.6C1544.19 53.7 1531.59 46.5 1520.04 46.5ZM1616.95 126.45C1614.25 138 1609.3 149.85 1599.4 151.2C1586.65 152.85 1583.05 142.8 1583.05 129.75V82.05H1600.75V80.85H1567.6C1576.6 80.4 1588 71.85 1588 60.3H1576.15C1576.15 67.5 1575.1 80.85 1562.35 80.85V82.05H1571.2V127.5C1571.2 145.2 1579.45 153.9 1592.8 153.9C1608.55 153.9 1614.85 140.85 1617.7 126.75L1616.95 126.45ZM1634.37 143.1V80.85H1633.32L1619.22 84.15C1619.22 84.15 1619.22 84.9 1619.22 85.2C1622.07 85.65 1622.52 87.15 1622.52 92.4V143.1C1622.52 148.35 1621.47 150.6 1619.22 151.95C1619.22 152.25 1619.22 153 1619.22 153H1637.82C1637.82 153 1637.82 152.25 1637.82 151.95C1635.42 150.6 1634.37 148.35 1634.37 143.1ZM1628.07 68.7C1631.97 68.7 1635.12 65.55 1635.12 61.65C1635.12 57.75 1631.97 54.6 1628.07 54.6C1624.17 54.6 1621.02 57.75 1621.02 61.65C1621.02 65.55 1624.17 68.7 1628.07 68.7ZM1758.02 143.1C1757.42 137.55 1756.07 121.8 1754.42 107.25C1752.62 89.7 1744.22 80.85 1732.37 80.85C1717.22 80.85 1711.67 94.35 1709.87 108.9L1709.72 107.25C1709.12 90.75 1699.22 80.85 1687.67 80.85C1669.67 80.85 1665.17 98.25 1663.52 114.15V80.85H1662.47L1648.37 84.15C1648.37 84.15 1648.37 84.9 1648.37 85.2C1651.37 85.65 1651.82 87.15 1651.82 92.4V143.1C1651.82 148.35 1650.62 150.6 1648.37 151.95C1648.37 152.25 1648.37 153 1648.37 153H1666.97C1666.97 153 1666.97 152.25 1666.97 151.95C1664.72 150.6 1663.52 148.35 1663.52 143.1V130.8C1663.52 118.05 1664.27 86.7 1681.07 83.55C1692.77 81.3 1698.02 93.6 1698.02 105V143.1C1698.02 148.35 1696.97 150.6 1694.72 151.95C1694.72 152.25 1694.72 153 1694.72 153H1713.17C1713.17 153 1713.17 152.25 1713.17 151.95C1710.92 150.6 1709.87 148.35 1709.87 143.1V125.55C1710.02 109.8 1711.82 86.55 1725.62 83.55C1737.32 81 1741.67 93.75 1742.87 105C1743.62 112.8 1745.72 138.15 1746.32 143.1C1746.77 148.05 1746.02 150.6 1743.77 151.95C1743.77 152.25 1743.77 153 1743.77 153H1762.22C1762.22 153 1762.22 152.25 1762.22 151.95C1759.97 150.6 1758.62 148.5 1758.02 143.1ZM1880.92 143.1C1880.32 137.55 1878.97 121.8 1877.32 107.25C1875.52 89.7 1867.12 80.85 1855.27 80.85C1840.12 80.85 1834.57 94.35 1832.77 108.9L1832.62 107.25C1832.02 90.75 1822.12 80.85 1810.57 80.85C1792.57 80.85 1788.07 98.25 1786.42 114.15V80.85H1785.37L1771.27 84.15C1771.27 84.15 1771.27 84.9 1771.27 85.2C1774.27 85.65 1774.72 87.15 1774.72 92.4V143.1C1774.72 148.35 1773.52 150.6 1771.27 151.95C1771.27 152.25 1771.27 153 1771.27 153H1789.87C1789.87 153 1789.87 152.25 1789.87 151.95C1787.62 150.6 1786.42 148.35 1786.42 143.1V130.8C1786.42 118.05 1787.17 86.7 1803.97 83.55C1815.67 81.3 1820.92 93.6 1820.92 105V143.1C1820.92 148.35 1819.87 150.6 1817.62 151.95C1817.62 152.25 1817.62 153 1817.62 153H1836.07C1836.07 153 1836.07 152.25 1836.07 151.95C1833.82 150.6 1832.77 148.35 1832.77 143.1V125.55C1832.92 109.8 1834.72 86.55 1848.52 83.55C1860.22 81 1864.57 93.75 1865.77 105C1866.52 112.8 1868.62 138.15 1869.22 143.1C1869.67 148.05 1868.92 150.6 1866.67 151.95C1866.67 152.25 1866.67 153 1866.67 153H1885.12C1885.12 153 1885.12 152.25 1885.12 151.95C1882.87 150.6 1881.52 148.5 1880.92 143.1ZM1950.61 104.55H1953.91C1953.91 104.55 1963.21 104.55 1964.56 104.55C1962.46 86.4 1944.91 80.25 1932.16 80.85C1915.66 81.75 1892.11 93 1892.86 118.95C1893.46 143.7 1913.41 153.9 1934.11 153.9C1955.41 153.9 1964.86 139.8 1965.76 129.15C1966.96 115.5 1959.16 106.8 1950.61 104.55ZM1925.41 82.65C1940.11 79.8 1951.81 90.3 1953.76 103.35H1905.91C1908.61 93.15 1915.21 84.6 1925.41 82.65ZM1964.41 129.45C1962.91 141.15 1951.66 150 1938.76 150.6C1923.46 151.2 1912.21 144.3 1906.66 128.55C1904.11 121.35 1903.66 112.5 1905.61 104.55H1944.46C1955.86 104.55 1966.21 113.85 1964.41 129.45ZM2046.25 143.1C2045.65 137.55 2044.15 121.8 2042.65 107.25C2040.85 89.25 2030.35 80.85 2018.05 80.85C1998.55 80.85 1993.45 101.25 1991.5 118.05V80.85H1990.45L1976.35 84.15C1976.35 84.15 1976.35 84.9 1976.35 85.2C1979.2 85.65 1979.65 87.15 1979.65 92.4V143.1C1979.65 148.35 1978.6 150.6 1976.35 151.95C1976.35 152.25 1976.35 153 1976.35 153H1994.95C1994.95 153 1994.95 152.25 1994.95 151.95C1992.55 150.6 1991.5 148.35 1991.5 143.1V130.8C1991.5 118.2 1994.65 86.85 2011.45 83.55C2024.35 81 2029.9 93.75 2030.95 105C2031.7 112.8 2033.95 138.15 2034.4 143.1C2034.85 148.05 2034.25 150.6 2031.85 151.95C2031.85 152.25 2031.85 153 2031.85 153H2050.45C2050.45 153 2050.45 152.25 2050.45 151.95C2048.2 150.6 2046.85 148.5 2046.25 143.1Z" fill="#2E2828"/>
<path d="M259.472 37.5C235.322 37.5 225.572 52.65 225.572 64.8C225.572 102.45 290.072 92.25 286.172 124.2C284.972 133.65 274.322 141.9 261.572 141.9C241.922 141.9 227.972 128.25 220.322 112.95H219.272L214.772 130.05C226.472 138.9 237.572 144.9 255.422 144.9C276.722 144.9 292.772 132.3 292.772 114.45C292.772 76.95 228.422 86.85 231.272 56.85C232.172 47.85 240.722 39.45 255.572 39.45C267.422 39.45 278.372 47.1 286.922 67.2H287.972L292.472 51.6C283.622 44.7 271.022 37.5 259.472 37.5ZM356.384 117.45C353.684 129 348.734 140.85 338.834 142.2C326.084 143.85 322.484 133.8 322.484 120.75V73.05H340.184V71.85H307.034C316.034 71.4 327.434 62.85 327.434 51.3H315.584C315.584 58.5 314.534 71.85 301.784 71.85V73.05H310.634V118.5C310.634 136.2 318.884 144.9 332.234 144.9C347.984 144.9 354.284 131.85 357.134 117.75L356.384 117.45ZM373.805 134.1V71.85H372.755L358.655 75.15C358.655 75.15 358.655 75.9 358.655 76.2C361.505 76.65 361.955 78.15 361.955 83.4V134.1C361.955 139.35 360.905 141.6 358.655 142.95C358.655 143.25 358.655 144 358.655 144H377.255C377.255 144 377.255 143.25 377.255 142.95C374.855 141.6 373.805 139.35 373.805 134.1ZM367.505 59.7C371.405 59.7 374.555 56.55 374.555 52.65C374.555 48.75 371.405 45.6 367.505 45.6C363.605 45.6 360.455 48.75 360.455 52.65C360.455 56.55 363.605 59.7 367.505 59.7ZM497.455 134.1C496.855 128.55 495.505 112.8 493.855 98.25C492.055 80.7 483.655 71.85 471.805 71.85C456.655 71.85 451.105 85.35 449.305 99.9L449.155 98.25C448.555 81.75 438.655 71.85 427.105 71.85C409.105 71.85 404.605 89.25 402.955 105.15V71.85H401.905L387.805 75.15C387.805 75.15 387.805 75.9 387.805 76.2C390.805 76.65 391.255 78.15 391.255 83.4V134.1C391.255 139.35 390.055 141.6 387.805 142.95C387.805 143.25 387.805 144 387.805 144H406.405C406.405 144 406.405 143.25 406.405 142.95C404.155 141.6 402.955 139.35 402.955 134.1V121.8C402.955 109.05 403.705 77.7 420.505 74.55C432.205 72.3 437.455 84.6 437.455 96V134.1C437.455 139.35 436.405 141.6 434.155 142.95C434.155 143.25 434.155 144 434.155 144H452.605C452.605 144 452.605 143.25 452.605 142.95C450.355 141.6 449.305 139.35 449.305 134.1V116.55C449.455 100.8 451.255 77.55 465.055 74.55C476.755 72 481.105 84.75 482.305 96C483.055 103.8 485.155 129.15 485.755 134.1C486.205 139.05 485.455 141.6 483.205 142.95C483.205 143.25 483.205 144 483.205 144H501.655C501.655 144 501.655 143.25 501.655 142.95C499.405 141.6 498.055 139.5 497.455 134.1ZM620.356 134.1C619.756 128.55 618.406 112.8 616.756 98.25C614.956 80.7 606.556 71.85 594.706 71.85C579.556 71.85 574.006 85.35 572.206 99.9L572.056 98.25C571.456 81.75 561.556 71.85 550.006 71.85C532.006 71.85 527.506 89.25 525.856 105.15V71.85H524.806L510.706 75.15C510.706 75.15 510.706 75.9 510.706 76.2C513.706 76.65 514.156 78.15 514.156 83.4V134.1C514.156 139.35 512.956 141.6 510.706 142.95C510.706 143.25 510.706 144 510.706 144H529.306C529.306 144 529.306 143.25 529.306 142.95C527.056 141.6 525.856 139.35 525.856 134.1V121.8C525.856 109.05 526.606 77.7 543.406 74.55C555.106 72.3 560.356 84.6 560.356 96V134.1C560.356 139.35 559.306 141.6 557.056 142.95C557.056 143.25 557.056 144 557.056 144H575.506C575.506 144 575.506 143.25 575.506 142.95C573.256 141.6 572.206 139.35 572.206 134.1V116.55C572.356 100.8 574.156 77.55 587.956 74.55C599.656 72 604.006 84.75 605.206 96C605.956 103.8 608.056 129.15 608.656 134.1C609.106 139.05 608.356 141.6 606.106 142.95C606.106 143.25 606.106 144 606.106 144H624.556C624.556 144 624.556 143.25 624.556 142.95C622.306 141.6 620.956 139.5 620.356 134.1ZM690.041 95.55H693.341C693.341 95.55 702.641 95.55 703.991 95.55C701.891 77.4 684.341 71.25 671.591 71.85C655.091 72.75 631.541 84 632.291 109.95C632.891 134.7 652.841 144.9 673.541 144.9C694.841 144.9 704.291 130.8 705.191 120.15C706.391 106.5 698.591 97.8 690.041 95.55ZM664.841 73.65C679.541 70.8 691.241 81.3 693.191 94.35H645.341C648.041 84.15 654.641 75.6 664.841 73.65ZM703.841 120.45C702.341 132.15 691.091 141 678.191 141.6C662.891 142.2 651.641 135.3 646.091 119.55C643.541 112.35 643.091 103.5 645.041 95.55H683.891C695.291 95.55 705.641 104.85 703.841 120.45ZM785.684 134.1C785.084 128.55 783.584 112.8 782.084 98.25C780.284 80.25 769.784 71.85 757.484 71.85C737.984 71.85 732.884 92.25 730.934 109.05V71.85H729.884L715.784 75.15C715.784 75.15 715.784 75.9 715.784 76.2C718.634 76.65 719.084 78.15 719.084 83.4V134.1C719.084 139.35 718.034 141.6 715.784 142.95C715.784 143.25 715.784 144 715.784 144H734.384C734.384 144 734.384 143.25 734.384 142.95C731.984 141.6 730.934 139.35 730.934 134.1V121.8C730.934 109.2 734.084 77.85 750.884 74.55C763.784 72 769.334 84.75 770.384 96C771.134 103.8 773.384 129.15 773.834 134.1C774.284 139.05 773.684 141.6 771.284 142.95C771.284 143.25 771.284 144 771.284 144H789.884C789.884 144 789.884 143.25 789.884 142.95C787.634 141.6 786.284 139.5 785.684 134.1Z" fill="#2E2828"/>
</g>
<g opacity="0.8">
<path d="M2152.99 37.5C2128.84 37.5 2119.09 52.65 2119.09 64.8C2119.09 102.45 2183.59 92.25 2179.69 124.2C2178.49 133.65 2167.84 141.9 2155.09 141.9C2135.44 141.9 2121.49 128.25 2113.84 112.95H2112.79L2108.29 130.05C2119.99 138.9 2131.09 144.9 2148.94 144.9C2170.24 144.9 2186.29 132.3 2186.29 114.45C2186.29 76.95 2121.94 86.85 2124.79 56.85C2125.69 47.85 2134.24 39.45 2149.09 39.45C2160.94 39.45 2171.89 47.1 2180.44 67.2H2181.49L2185.99 51.6C2177.14 44.7 2164.54 37.5 2152.99 37.5ZM2249.9 117.45C2247.2 129 2242.25 140.85 2232.35 142.2C2219.6 143.85 2216 133.8 2216 120.75V73.05H2233.7V71.85H2200.55C2209.55 71.4 2220.95 62.85 2220.95 51.3H2209.1C2209.1 58.5 2208.05 71.85 2195.3 71.85V73.05H2204.15V118.5C2204.15 136.2 2212.4 144.9 2225.75 144.9C2241.5 144.9 2247.8 131.85 2250.65 117.75L2249.9 117.45ZM2267.32 134.1V71.85H2266.27L2252.17 75.15C2252.17 75.15 2252.17 75.9 2252.17 76.2C2255.02 76.65 2255.47 78.15 2255.47 83.4V134.1C2255.47 139.35 2254.42 141.6 2252.17 142.95C2252.17 143.25 2252.17 144 2252.17 144H2270.77C2270.77 144 2270.77 143.25 2270.77 142.95C2268.37 141.6 2267.32 139.35 2267.32 134.1ZM2261.02 59.7C2264.92 59.7 2268.07 56.55 2268.07 52.65C2268.07 48.75 2264.92 45.6 2261.02 45.6C2257.12 45.6 2253.97 48.75 2253.97 52.65C2253.97 56.55 2257.12 59.7 2261.02 59.7ZM2390.97 134.1C2390.37 128.55 2389.02 112.8 2387.37 98.25C2385.57 80.7 2377.17 71.85 2365.32 71.85C2350.17 71.85 2344.62 85.35 2342.82 99.9L2342.67 98.25C2342.07 81.75 2332.17 71.85 2320.62 71.85C2302.62 71.85 2298.12 89.25 2296.47 105.15V71.85H2295.42L2281.32 75.15C2281.32 75.15 2281.32 75.9 2281.32 76.2C2284.32 76.65 2284.77 78.15 2284.77 83.4V134.1C2284.77 139.35 2283.57 141.6 2281.32 142.95C2281.32 143.25 2281.32 144 2281.32 144H2299.92C2299.92 144 2299.92 143.25 2299.92 142.95C2297.67 141.6 2296.47 139.35 2296.47 134.1V121.8C2296.47 109.05 2297.22 77.7 2314.02 74.55C2325.72 72.3 2330.97 84.6 2330.97 96V134.1C2330.97 139.35 2329.92 141.6 2327.67 142.95C2327.67 143.25 2327.67 144 2327.67 144H2346.12C2346.12 144 2346.12 143.25 2346.12 142.95C2343.87 141.6 2342.82 139.35 2342.82 134.1V116.55C2342.97 100.8 2344.77 77.55 2358.57 74.55C2370.27 72 2374.62 84.75 2375.82 96C2376.57 103.8 2378.67 129.15 2379.27 134.1C2379.72 139.05 2378.97 141.6 2376.72 142.95C2376.72 143.25 2376.72 144 2376.72 144H2395.17C2395.17 144 2395.17 143.25 2395.17 142.95C2392.92 141.6 2391.57 139.5 2390.97 134.1ZM2513.87 134.1C2513.27 128.55 2511.92 112.8 2510.27 98.25C2508.47 80.7 2500.07 71.85 2488.22 71.85C2473.07 71.85 2467.52 85.35 2465.72 99.9L2465.57 98.25C2464.97 81.75 2455.07 71.85 2443.52 71.85C2425.52 71.85 2421.02 89.25 2419.37 105.15V71.85H2418.32L2404.22 75.15C2404.22 75.15 2404.22 75.9 2404.22 76.2C2407.22 76.65 2407.67 78.15 2407.67 83.4V134.1C2407.67 139.35 2406.47 141.6 2404.22 142.95C2404.22 143.25 2404.22 144 2404.22 144H2422.82C2422.82 144 2422.82 143.25 2422.82 142.95C2420.57 141.6 2419.37 139.35 2419.37 134.1V121.8C2419.37 109.05 2420.12 77.7 2436.92 74.55C2448.62 72.3 2453.87 84.6 2453.87 96V134.1C2453.87 139.35 2452.82 141.6 2450.57 142.95C2450.57 143.25 2450.57 144 2450.57 144H2469.02C2469.02 144 2469.02 143.25 2469.02 142.95C2466.77 141.6 2465.72 139.35 2465.72 134.1V116.55C2465.87 100.8 2467.67 77.55 2481.47 74.55C2493.17 72 2497.52 84.75 2498.72 96C2499.47 103.8 2501.57 129.15 2502.17 134.1C2502.62 139.05 2501.87 141.6 2499.62 142.95C2499.62 143.25 2499.62 144 2499.62 144H2518.07C2518.07 144 2518.07 143.25 2518.07 142.95C2515.82 141.6 2514.47 139.5 2513.87 134.1ZM2583.56 95.55H2586.86C2586.86 95.55 2596.16 95.55 2597.51 95.55C2595.41 77.4 2577.86 71.25 2565.11 71.85C2548.61 72.75 2525.06 84 2525.81 109.95C2526.41 134.7 2546.36 144.9 2567.06 144.9C2588.36 144.9 2597.81 130.8 2598.71 120.15C2599.91 106.5 2592.11 97.8 2583.56 95.55ZM2558.36 73.65C2573.06 70.8 2584.76 81.3 2586.71 94.35H2538.86C2541.56 84.15 2548.16 75.6 2558.36 73.65ZM2597.36 120.45C2595.86 132.15 2584.61 141 2571.71 141.6C2556.41 142.2 2545.16 135.3 2539.61 119.55C2537.06 112.35 2536.61 103.5 2538.56 95.55H2577.41C2588.81 95.55 2599.16 104.85 2597.36 120.45ZM2679.2 134.1C2678.6 128.55 2677.1 112.8 2675.6 98.25C2673.8 80.25 2663.3 71.85 2651 71.85C2631.5 71.85 2626.4 92.25 2624.45 109.05V71.85H2623.4L2609.3 75.15C2609.3 75.15 2609.3 75.9 2609.3 76.2C2612.15 76.65 2612.6 78.15 2612.6 83.4V134.1C2612.6 139.35 2611.55 141.6 2609.3 142.95C2609.3 143.25 2609.3 144 2609.3 144H2627.9C2627.9 144 2627.9 143.25 2627.9 142.95C2625.5 141.6 2624.45 139.35 2624.45 134.1V121.8C2624.45 109.2 2627.6 77.85 2644.4 74.55C2657.3 72 2662.85 84.75 2663.9 96C2664.65 103.8 2666.9 129.15 2667.35 134.1C2667.8 139.05 2667.2 141.6 2664.8 142.95C2664.8 143.25 2664.8 144 2664.8 144H2683.4C2683.4 144 2683.4 143.25 2683.4 142.95C2681.15 141.6 2679.8 139.5 2679.2 134.1Z" fill="#E8D6C5"/>
<path d="M1936.31 181.5C1912.16 181.5 1902.41 196.65 1902.41 208.8C1902.41 246.45 1966.91 236.25 1963.01 268.2C1961.81 277.65 1951.16 285.9 1938.41 285.9C1918.76 285.9 1904.81 272.25 1897.16 256.95H1896.11L1891.61 274.05C1903.31 282.9 1914.41 288.9 1932.26 288.9C1953.56 288.9 1969.61 276.3 1969.61 258.45C1969.61 220.95 1905.26 230.85 1908.11 200.85C1909.01 191.85 1917.56 183.45 1932.41 183.45C1944.26 183.45 1955.21 191.1 1963.76 211.2H1964.81L1969.31 195.6C1960.46 188.7 1947.86 181.5 1936.31 181.5ZM2033.22 261.45C2030.52 273 2025.57 284.85 2015.67 286.2C2002.92 287.85 1999.32 277.8 1999.32 264.75V217.05H2017.02V215.85H1983.87C1992.87 215.4 2004.27 206.85 2004.27 195.3H1992.42C1992.42 202.5 1991.37 215.85 1978.62 215.85V217.05H1987.47V262.5C1987.47 280.2 1995.72 288.9 2009.07 288.9C2024.82 288.9 2031.12 275.85 2033.97 261.75L2033.22 261.45ZM2050.64 278.1V215.85H2049.59L2035.49 219.15C2035.49 219.15 2035.49 219.9 2035.49 220.2C2038.34 220.65 2038.79 222.15 2038.79 227.4V278.1C2038.79 283.35 2037.74 285.6 2035.49 286.95C2035.49 287.25 2035.49 288 2035.49 288H2054.09C2054.09 288 2054.09 287.25 2054.09 286.95C2051.69 285.6 2050.64 283.35 2050.64 278.1ZM2044.34 203.7C2048.24 203.7 2051.39 200.55 2051.39 196.65C2051.39 192.75 2048.24 189.6 2044.34 189.6C2040.44 189.6 2037.29 192.75 2037.29 196.65C2037.29 200.55 2040.44 203.7 2044.34 203.7ZM2174.29 278.1C2173.69 272.55 2172.34 256.8 2170.69 242.25C2168.89 224.7 2160.49 215.85 2148.64 215.85C2133.49 215.85 2127.94 229.35 2126.14 243.9L2125.99 242.25C2125.39 225.75 2115.49 215.85 2103.94 215.85C2085.94 215.85 2081.44 233.25 2079.79 249.15V215.85H2078.74L2064.64 219.15C2064.64 219.15 2064.64 219.9 2064.64 220.2C2067.64 220.65 2068.09 222.15 2068.09 227.4V278.1C2068.09 283.35 2066.89 285.6 2064.64 286.95C2064.64 287.25 2064.64 288 2064.64 288H2083.24C2083.24 288 2083.24 287.25 2083.24 286.95C2080.99 285.6 2079.79 283.35 2079.79 278.1V265.8C2079.79 253.05 2080.54 221.7 2097.34 218.55C2109.04 216.3 2114.29 228.6 2114.29 240V278.1C2114.29 283.35 2113.24 285.6 2110.99 286.95C2110.99 287.25 2110.99 288 2110.99 288H2129.44C2129.44 288 2129.44 287.25 2129.44 286.95C2127.19 285.6 2126.14 283.35 2126.14 278.1V260.55C2126.29 244.8 2128.09 221.55 2141.89 218.55C2153.59 216 2157.94 228.75 2159.14 240C2159.89 247.8 2161.99 273.15 2162.59 278.1C2163.04 283.05 2162.29 285.6 2160.04 286.95C2160.04 287.25 2160.04 288 2160.04 288H2178.49C2178.49 288 2178.49 287.25 2178.49 286.95C2176.24 285.6 2174.89 283.5 2174.29 278.1ZM2297.19 278.1C2296.59 272.55 2295.24 256.8 2293.59 242.25C2291.79 224.7 2283.39 215.85 2271.54 215.85C2256.39 215.85 2250.84 229.35 2249.04 243.9L2248.89 242.25C2248.29 225.75 2238.39 215.85 2226.84 215.85C2208.84 215.85 2204.34 233.25 2202.69 249.15V215.85H2201.64L2187.54 219.15C2187.54 219.15 2187.54 219.9 2187.54 220.2C2190.54 220.65 2190.99 222.15 2190.99 227.4V278.1C2190.99 283.35 2189.79 285.6 2187.54 286.95C2187.54 287.25 2187.54 288 2187.54 288H2206.14C2206.14 288 2206.14 287.25 2206.14 286.95C2203.89 285.6 2202.69 283.35 2202.69 278.1V265.8C2202.69 253.05 2203.44 221.7 2220.24 218.55C2231.94 216.3 2237.19 228.6 2237.19 240V278.1C2237.19 283.35 2236.14 285.6 2233.89 286.95C2233.89 287.25 2233.89 288 2233.89 288H2252.34C2252.34 288 2252.34 287.25 2252.34 286.95C2250.09 285.6 2249.04 283.35 2249.04 278.1V260.55C2249.19 244.8 2250.99 221.55 2264.79 218.55C2276.49 216 2280.84 228.75 2282.04 240C2282.79 247.8 2284.89 273.15 2285.49 278.1C2285.94 283.05 2285.19 285.6 2282.94 286.95C2282.94 287.25 2282.94 288 2282.94 288H2301.39C2301.39 288 2301.39 287.25 2301.39 286.95C2299.14 285.6 2297.79 283.5 2297.19 278.1ZM2366.88 239.55H2370.18C2370.18 239.55 2379.48 239.55 2380.83 239.55C2378.73 221.4 2361.18 215.25 2348.43 215.85C2331.93 216.75 2308.38 228 2309.13 253.95C2309.73 278.7 2329.68 288.9 2350.38 288.9C2371.68 288.9 2381.13 274.8 2382.03 264.15C2383.23 250.5 2375.43 241.8 2366.88 239.55ZM2341.68 217.65C2356.38 214.8 2368.08 225.3 2370.03 238.35H2322.18C2324.88 228.15 2331.48 219.6 2341.68 217.65ZM2380.68 264.45C2379.18 276.15 2367.93 285 2355.03 285.6C2339.73 286.2 2328.48 279.3 2322.93 263.55C2320.38 256.35 2319.93 247.5 2321.88 239.55H2360.73C2372.13 239.55 2382.48 248.85 2380.68 264.45ZM2462.52 278.1C2461.92 272.55 2460.42 256.8 2458.92 242.25C2457.12 224.25 2446.62 215.85 2434.32 215.85C2414.82 215.85 2409.72 236.25 2407.77 253.05V215.85H2406.72L2392.62 219.15C2392.62 219.15 2392.62 219.9 2392.62 220.2C2395.47 220.65 2395.92 222.15 2395.92 227.4V278.1C2395.92 283.35 2394.87 285.6 2392.62 286.95C2392.62 287.25 2392.62 288 2392.62 288H2411.22C2411.22 288 2411.22 287.25 2411.22 286.95C2408.82 285.6 2407.77 283.35 2407.77 278.1V265.8C2407.77 253.2 2410.92 221.85 2427.72 218.55C2440.62 216 2446.17 228.75 2447.22 240C2447.97 247.8 2450.22 273.15 2450.67 278.1C2451.12 283.05 2450.52 285.6 2448.12 286.95C2448.12 287.25 2448.12 288 2448.12 288H2466.72C2466.72 288 2466.72 287.25 2466.72 286.95C2464.47 285.6 2463.12 283.5 2462.52 278.1Z" fill="#2E2828"/>
<path d="M2566.06 181.5C2541.91 181.5 2532.16 196.65 2532.16 208.8C2532.16 246.45 2596.66 236.25 2592.76 268.2C2591.56 277.65 2580.91 285.9 2568.16 285.9C2548.51 285.9 2534.56 272.25 2526.91 256.95H2525.86L2521.36 274.05C2533.06 282.9 2544.16 288.9 2562.01 288.9C2583.31 288.9 2599.36 276.3 2599.36 258.45C2599.36 220.95 2535.01 230.85 2537.86 200.85C2538.76 191.85 2547.31 183.45 2562.16 183.45C2574.01 183.45 2584.96 191.1 2593.51 211.2H2594.56L2599.06 195.6C2590.21 188.7 2577.61 181.5 2566.06 181.5ZM2662.97 261.45C2660.27 273 2655.32 284.85 2645.42 286.2C2632.67 287.85 2629.07 277.8 2629.07 264.75V217.05H2646.77V215.85H2613.62C2622.62 215.4 2634.02 206.85 2634.02 195.3H2622.17C2622.17 202.5 2621.12 215.85 2608.37 215.85V217.05H2617.22V262.5C2617.22 280.2 2625.47 288.9 2638.82 288.9C2654.57 288.9 2660.87 275.85 2663.72 261.75L2662.97 261.45ZM2680.39 278.1V215.85H2679.34L2665.24 219.15C2665.24 219.15 2665.24 219.9 2665.24 220.2C2668.09 220.65 2668.54 222.15 2668.54 227.4V278.1C2668.54 283.35 2667.49 285.6 2665.24 286.95C2665.24 287.25 2665.24 288 2665.24 288H2683.84C2683.84 288 2683.84 287.25 2683.84 286.95C2681.44 285.6 2680.39 283.35 2680.39 278.1ZM2674.09 203.7C2677.99 203.7 2681.14 200.55 2681.14 196.65C2681.14 192.75 2677.99 189.6 2674.09 189.6C2670.19 189.6 2667.04 192.75 2667.04 196.65C2667.04 200.55 2670.19 203.7 2674.09 203.7ZM2804.04 278.1C2803.44 272.55 2802.09 256.8 2800.44 242.25C2798.64 224.7 2790.24 215.85 2778.39 215.85C2763.24 215.85 2757.69 229.35 2755.89 243.9L2755.74 242.25C2755.14 225.75 2745.24 215.85 2733.69 215.85C2715.69 215.85 2711.19 233.25 2709.54 249.15V215.85H2708.49L2694.39 219.15C2694.39 219.15 2694.39 219.9 2694.39 220.2C2697.39 220.65 2697.84 222.15 2697.84 227.4V278.1C2697.84 283.35 2696.64 285.6 2694.39 286.95C2694.39 287.25 2694.39 288 2694.39 288H2712.99C2712.99 288 2712.99 287.25 2712.99 286.95C2710.74 285.6 2709.54 283.35 2709.54 278.1V265.8C2709.54 253.05 2710.29 221.7 2727.09 218.55C2738.79 216.3 2744.04 228.6 2744.04 240V278.1C2744.04 283.35 2742.99 285.6 2740.74 286.95C2740.74 287.25 2740.74 288 2740.74 288H2759.19C2759.19 288 2759.19 287.25 2759.19 286.95C2756.94 285.6 2755.89 283.35 2755.89 278.1V260.55C2756.04 244.8 2757.84 221.55 2771.64 218.55C2783.34 216 2787.69 228.75 2788.89 240C2789.64 247.8 2791.74 273.15 2792.34 278.1C2792.79 283.05 2792.04 285.6 2789.79 286.95C2789.79 287.25 2789.79 288 2789.79 288H2808.24C2808.24 288 2808.24 287.25 2808.24 286.95C2805.99 285.6 2804.64 283.5 2804.04 278.1ZM2926.94 278.1C2926.34 272.55 2924.99 256.8 2923.34 242.25C2921.54 224.7 2913.14 215.85 2901.29 215.85C2886.14 215.85 2880.59 229.35 2878.79 243.9L2878.64 242.25C2878.04 225.75 2868.14 215.85 2856.59 215.85C2838.59 215.85 2834.09 233.25 2832.44 249.15V215.85H2831.39L2817.29 219.15C2817.29 219.15 2817.29 219.9 2817.29 220.2C2820.29 220.65 2820.74 222.15 2820.74 227.4V278.1C2820.74 283.35 2819.54 285.6 2817.29 286.95C2817.29 287.25 2817.29 288 2817.29 288H2835.89C2835.89 288 2835.89 287.25 2835.89 286.95C2833.64 285.6 2832.44 283.35 2832.44 278.1V265.8C2832.44 253.05 2833.19 221.7 2849.99 218.55C2861.69 216.3 2866.94 228.6 2866.94 240V278.1C2866.94 283.35 2865.89 285.6 2863.64 286.95C2863.64 287.25 2863.64 288 2863.64 288H2882.09C2882.09 288 2882.09 287.25 2882.09 286.95C2879.84 285.6 2878.79 283.35 2878.79 278.1V260.55C2878.94 244.8 2880.74 221.55 2894.54 218.55C2906.24 216 2910.59 228.75 2911.79 240C2912.54 247.8 2914.64 273.15 2915.24 278.1C2915.69 283.05 2914.94 285.6 2912.69 286.95C2912.69 287.25 2912.69 288 2912.69 288H2931.14C2931.14 288 2931.14 287.25 2931.14 286.95C2928.89 285.6 2927.54 283.5 2926.94 278.1ZM2996.63 239.55H2999.93C2999.93 239.55 3009.23 239.55 3010.58 239.55C3008.48 221.4 2990.93 215.25 2978.18 215.85C2961.68 216.75 2938.13 228 2938.88 253.95C2939.48 278.7 2959.43 288.9 2980.13 288.9C3001.43 288.9 3010.88 274.8 3011.78 264.15C3012.98 250.5 3005.18 241.8 2996.63 239.55ZM2971.43 217.65C2986.13 214.8 2997.83 225.3 2999.78 238.35H2951.93C2954.63 228.15 2961.23 219.6 2971.43 217.65ZM3010.43 264.45C3008.93 276.15 2997.68 285 2984.78 285.6C2969.48 286.2 2958.23 279.3 2952.68 263.55C2950.13 256.35 2949.68 247.5 2951.63 239.55H2990.48C3001.88 239.55 3012.23 248.85 3010.43 264.45ZM3092.27 278.1C3091.67 272.55 3090.17 256.8 3088.67 242.25C3086.87 224.25 3076.37 215.85 3064.07 215.85C3044.57 215.85 3039.47 236.25 3037.52 253.05V215.85H3036.47L3022.37 219.15C3022.37 219.15 3022.37 219.9 3022.37 220.2C3025.22 220.65 3025.67 222.15 3025.67 227.4V278.1C3025.67 283.35 3024.62 285.6 3022.37 286.95C3022.37 287.25 3022.37 288 3022.37 288H3040.97C3040.97 288 3040.97 287.25 3040.97 286.95C3038.57 285.6 3037.52 283.35 3037.52 278.1V265.8C3037.52 253.2 3040.67 221.85 3057.47 218.55C3070.37 216 3075.92 228.75 3076.97 240C3077.72 247.8 3079.97 273.15 3080.42 278.1C3080.87 283.05 3080.27 285.6 3077.87 286.95C3077.87 287.25 3077.87 288 3077.87 288H3096.47C3096.47 288 3096.47 287.25 3096.47 286.95C3094.22 285.6 3092.87 283.5 3092.27 278.1Z" fill="#E8D6C5"/>
<path d="M2783.8 46.5C2759.65 46.5 2749.9 61.65 2749.9 73.8C2749.9 111.45 2814.4 101.25 2810.5 133.2C2809.3 142.65 2798.65 150.9 2785.9 150.9C2766.25 150.9 2752.3 137.25 2744.65 121.95H2743.6L2739.1 139.05C2750.8 147.9 2761.9 153.9 2779.75 153.9C2801.05 153.9 2817.1 141.3 2817.1 123.45C2817.1 85.95 2752.75 95.85 2755.6 65.85C2756.5 56.85 2765.05 48.45 2779.9 48.45C2791.75 48.45 2802.7 56.1 2811.25 76.2H2812.3L2816.8 60.6C2807.95 53.7 2795.35 46.5 2783.8 46.5ZM2880.71 126.45C2878.01 138 2873.06 149.85 2863.16 151.2C2850.41 152.85 2846.81 142.8 2846.81 129.75V82.05H2864.51V80.85H2831.36C2840.36 80.4 2851.76 71.85 2851.76 60.3H2839.91C2839.91 67.5 2838.86 80.85 2826.11 80.85V82.05H2834.96V127.5C2834.96 145.2 2843.21 153.9 2856.56 153.9C2872.31 153.9 2878.61 140.85 2881.46 126.75L2880.71 126.45ZM2898.14 143.1V80.85H2897.09L2882.99 84.15C2882.99 84.15 2882.99 84.9 2882.99 85.2C2885.84 85.65 2886.29 87.15 2886.29 92.4V143.1C2886.29 148.35 2885.24 150.6 2882.99 151.95C2882.99 152.25 2882.99 153 2882.99 153H2901.59C2901.59 153 2901.59 152.25 2901.59 151.95C2899.19 150.6 2898.14 148.35 2898.14 143.1ZM2891.84 68.7C2895.74 68.7 2898.89 65.55 2898.89 61.65C2898.89 57.75 2895.74 54.6 2891.84 54.6C2887.94 54.6 2884.79 57.75 2884.79 61.65C2884.79 65.55 2887.94 68.7 2891.84 68.7ZM3021.79 143.1C3021.19 137.55 3019.84 121.8 3018.19 107.25C3016.39 89.7 3007.99 80.85 2996.14 80.85C2980.99 80.85 2975.44 94.35 2973.64 108.9L2973.49 107.25C2972.89 90.75 2962.99 80.85 2951.44 80.85C2933.44 80.85 2928.94 98.25 2927.29 114.15V80.85H2926.24L2912.14 84.15C2912.14 84.15 2912.14 84.9 2912.14 85.2C2915.14 85.65 2915.59 87.15 2915.59 92.4V143.1C2915.59 148.35 2914.39 150.6 2912.14 151.95C2912.14 152.25 2912.14 153 2912.14 153H2930.74C2930.74 153 2930.74 152.25 2930.74 151.95C2928.49 150.6 2927.29 148.35 2927.29 143.1V130.8C2927.29 118.05 2928.04 86.7 2944.84 83.55C2956.54 81.3 2961.79 93.6 2961.79 105V143.1C2961.79 148.35 2960.74 150.6 2958.49 151.95C2958.49 152.25 2958.49 153 2958.49 153H2976.94C2976.94 153 2976.94 152.25 2976.94 151.95C2974.69 150.6 2973.64 148.35 2973.64 143.1V125.55C2973.79 109.8 2975.59 86.55 2989.39 83.55C3001.09 81 3005.44 93.75 3006.64 105C3007.39 112.8 3009.49 138.15 3010.09 143.1C3010.54 148.05 3009.79 150.6 3007.54 151.95C3007.54 152.25 3007.54 153 3007.54 153H3025.99C3025.99 153 3025.99 152.25 3025.99 151.95C3023.74 150.6 3022.39 148.5 3021.79 143.1ZM3144.69 143.1C3144.09 137.55 3142.74 121.8 3141.09 107.25C3139.29 89.7 3130.89 80.85 3119.04 80.85C3103.89 80.85 3098.34 94.35 3096.54 108.9L3096.39 107.25C3095.79 90.75 3085.89 80.85 3074.34 80.85C3056.34 80.85 3051.84 98.25 3050.19 114.15V80.85H3049.14L3035.04 84.15C3035.04 84.15 3035.04 84.9 3035.04 85.2C3038.04 85.65 3038.49 87.15 3038.49 92.4V143.1C3038.49 148.35 3037.29 150.6 3035.04 151.95C3035.04 152.25 3035.04 153 3035.04 153H3053.64C3053.64 153 3053.64 152.25 3053.64 151.95C3051.39 150.6 3050.19 148.35 3050.19 143.1V130.8C3050.19 118.05 3050.94 86.7 3067.74 83.55C3079.44 81.3 3084.69 93.6 3084.69 105V143.1C3084.69 148.35 3083.64 150.6 3081.39 151.95C3081.39 152.25 3081.39 153 3081.39 153H3099.84C3099.84 153 3099.84 152.25 3099.84 151.95C3097.59 150.6 3096.54 148.35 3096.54 143.1V125.55C3096.69 109.8 3098.49 86.55 3112.29 83.55C3123.99 81 3128.34 93.75 3129.54 105C3130.29 112.8 3132.39 138.15 3132.99 143.1C3133.44 148.05 3132.69 150.6 3130.44 151.95C3130.44 152.25 3130.44 153 3130.44 153H3148.89C3148.89 153 3148.89 152.25 3148.89 151.95C3146.64 150.6 3145.29 148.5 3144.69 143.1ZM3214.37 104.55H3217.67C3217.67 104.55 3226.97 104.55 3228.32 104.55C3226.22 86.4 3208.67 80.25 3195.92 80.85C3179.42 81.75 3155.87 93 3156.62 118.95C3157.22 143.7 3177.17 153.9 3197.87 153.9C3219.17 153.9 3228.62 139.8 3229.52 129.15C3230.72 115.5 3222.92 106.8 3214.37 104.55ZM3189.17 82.65C3203.87 79.8 3215.57 90.3 3217.52 103.35H3169.67C3172.37 93.15 3178.97 84.6 3189.17 82.65ZM3228.17 129.45C3226.67 141.15 3215.42 150 3202.52 150.6C3187.22 151.2 3175.97 144.3 3170.42 128.55C3167.87 121.35 3167.42 112.5 3169.37 104.55H3208.22C3219.62 104.55 3229.97 113.85 3228.17 129.45ZM3310.01 143.1C3309.41 137.55 3307.91 121.8 3306.41 107.25C3304.61 89.25 3294.11 80.85 3281.81 80.85C3262.31 80.85 3257.21 101.25 3255.26 118.05V80.85H3254.21L3240.11 84.15C3240.11 84.15 3240.11 84.9 3240.11 85.2C3242.96 85.65 3243.41 87.15 3243.41 92.4V143.1C3243.41 148.35 3242.36 150.6 3240.11 151.95C3240.11 152.25 3240.11 153 3240.11 153H3258.71C3258.71 153 3258.71 152.25 3258.71 151.95C3256.31 150.6 3255.26 148.35 3255.26 143.1V130.8C3255.26 118.2 3258.41 86.85 3275.21 83.55C3288.11 81 3293.66 93.75 3294.71 105C3295.46 112.8 3297.71 138.15 3298.16 143.1C3298.61 148.05 3298.01 150.6 3295.61 151.95C3295.61 152.25 3295.61 153 3295.61 153H3314.21C3314.21 153 3314.21 152.25 3314.21 151.95C3311.96 150.6 3310.61 148.5 3310.01 143.1Z" fill="#2E2828"/>
</g>
<g opacity="0.8">
<path d="M3379.2 37.5C3355.05 37.5 3345.3 52.65 3345.3 64.8C3345.3 102.45 3409.8 92.25 3405.9 124.2C3404.7 133.65 3394.05 141.9 3381.3 141.9C3361.65 141.9 3347.7 128.25 3340.05 112.95H3339L3334.5 130.05C3346.2 138.9 3357.3 144.9 3375.15 144.9C3396.45 144.9 3412.5 132.3 3412.5 114.45C3412.5 76.95 3348.15 86.85 3351 56.85C3351.9 47.85 3360.45 39.45 3375.3 39.45C3387.15 39.45 3398.1 47.1 3406.65 67.2H3407.7L3412.2 51.6C3403.35 44.7 3390.75 37.5 3379.2 37.5ZM3476.11 117.45C3473.41 129 3468.46 140.85 3458.56 142.2C3445.81 143.85 3442.21 133.8 3442.21 120.75V73.05H3459.91V71.85H3426.76C3435.76 71.4 3447.16 62.85 3447.16 51.3H3435.31C3435.31 58.5 3434.26 71.85 3421.51 71.85V73.05H3430.36V118.5C3430.36 136.2 3438.61 144.9 3451.96 144.9C3467.71 144.9 3474.01 131.85 3476.86 117.75L3476.11 117.45ZM3493.53 134.1V71.85H3492.48L3478.38 75.15C3478.38 75.15 3478.38 75.9 3478.38 76.2C3481.23 76.65 3481.68 78.15 3481.68 83.4V134.1C3481.68 139.35 3480.63 141.6 3478.38 142.95C3478.38 143.25 3478.38 144 3478.38 144H3496.98C3496.98 144 3496.98 143.25 3496.98 142.95C3494.58 141.6 3493.53 139.35 3493.53 134.1ZM3487.23 59.7C3491.13 59.7 3494.28 56.55 3494.28 52.65C3494.28 48.75 3491.13 45.6 3487.23 45.6C3483.33 45.6 3480.18 48.75 3480.18 52.65C3480.18 56.55 3483.33 59.7 3487.23 59.7ZM3617.18 134.1C3616.58 128.55 3615.23 112.8 3613.58 98.25C3611.78 80.7 3603.38 71.85 3591.53 71.85C3576.38 71.85 3570.83 85.35 3569.03 99.9L3568.88 98.25C3568.28 81.75 3558.38 71.85 3546.83 71.85C3528.83 71.85 3524.33 89.25 3522.68 105.15V71.85H3521.63L3507.53 75.15C3507.53 75.15 3507.53 75.9 3507.53 76.2C3510.53 76.65 3510.98 78.15 3510.98 83.4V134.1C3510.98 139.35 3509.78 141.6 3507.53 142.95C3507.53 143.25 3507.53 144 3507.53 144H3526.13C3526.13 144 3526.13 143.25 3526.13 142.95C3523.88 141.6 3522.68 139.35 3522.68 134.1V121.8C3522.68 109.05 3523.43 77.7 3540.23 74.55C3551.93 72.3 3557.18 84.6 3557.18 96V134.1C3557.18 139.35 3556.13 141.6 3553.88 142.95C3553.88 143.25 3553.88 144 3553.88 144H3572.33C3572.33 144 3572.33 143.25 3572.33 142.95C3570.08 141.6 3569.03 139.35 3569.03 134.1V116.55C3569.18 100.8 3570.98 77.55 3584.78 74.55C3596.48 72 3600.83 84.75 3602.03 96C3602.78 103.8 3604.88 129.15 3605.48 134.1C3605.93 139.05 3605.18 141.6 3602.93 142.95C3602.93 143.25 3602.93 144 3602.93 144H3621.38C3621.38 144 3621.38 143.25 3621.38 142.95C3619.13 141.6 3617.78 139.5 3617.18 134.1ZM3740.08 134.1C3739.48 128.55 3738.13 112.8 3736.48 98.25C3734.68 80.7 3726.28 71.85 3714.43 71.85C3699.28 71.85 3693.73 85.35 3691.93 99.9L3691.78 98.25C3691.18 81.75 3681.28 71.85 3669.73 71.85C3651.73 71.85 3647.23 89.25 3645.58 105.15V71.85H3644.53L3630.43 75.15C3630.43 75.15 3630.43 75.9 3630.43 76.2C3633.43 76.65 3633.88 78.15 3633.88 83.4V134.1C3633.88 139.35 3632.68 141.6 3630.43 142.95C3630.43 143.25 3630.43 144 3630.43 144H3649.03C3649.03 144 3649.03 143.25 3649.03 142.95C3646.78 141.6 3645.58 139.35 3645.58 134.1V121.8C3645.58 109.05 3646.33 77.7 3663.13 74.55C3674.83 72.3 3680.08 84.6 3680.08 96V134.1C3680.08 139.35 3679.03 141.6 3676.78 142.95C3676.78 143.25 3676.78 144 3676.78 144H3695.23C3695.23 144 3695.23 143.25 3695.23 142.95C3692.98 141.6 3691.93 139.35 3691.93 134.1V116.55C3692.08 100.8 3693.88 77.55 3707.68 74.55C3719.38 72 3723.73 84.75 3724.93 96C3725.68 103.8 3727.78 129.15 3728.38 134.1C3728.83 139.05 3728.08 141.6 3725.83 142.95C3725.83 143.25 3725.83 144 3725.83 144H3744.28C3744.28 144 3744.28 143.25 3744.28 142.95C3742.03 141.6 3740.68 139.5 3740.08 134.1ZM3809.77 95.55H3813.07C3813.07 95.55 3822.37 95.55 3823.72 95.55C3821.62 77.4 3804.07 71.25 3791.32 71.85C3774.82 72.75 3751.27 84 3752.02 109.95C3752.62 134.7 3772.57 144.9 3793.27 144.9C3814.57 144.9 3824.02 130.8 3824.92 120.15C3826.12 106.5 3818.32 97.8 3809.77 95.55ZM3784.57 73.65C3799.27 70.8 3810.97 81.3 3812.92 94.35H3765.07C3767.77 84.15 3774.37 75.6 3784.57 73.65ZM3823.57 120.45C3822.07 132.15 3810.82 141 3797.92 141.6C3782.62 142.2 3771.37 135.3 3765.82 119.55C3763.27 112.35 3762.82 103.5 3764.77 95.55H3803.62C3815.02 95.55 3825.37 104.85 3823.57 120.45ZM3905.41 134.1C3904.81 128.55 3903.31 112.8 3901.81 98.25C3900.01 80.25 3889.51 71.85 3877.21 71.85C3857.71 71.85 3852.61 92.25 3850.66 109.05V71.85H3849.61L3835.51 75.15C3835.51 75.15 3835.51 75.9 3835.51 76.2C3838.36 76.65 3838.81 78.15 3838.81 83.4V134.1C3838.81 139.35 3837.76 141.6 3835.51 142.95C3835.51 143.25 3835.51 144 3835.51 144H3854.11C3854.11 144 3854.11 143.25 3854.11 142.95C3851.71 141.6 3850.66 139.35 3850.66 134.1V121.8C3850.66 109.2 3853.81 77.85 3870.61 74.55C3883.51 72 3889.06 84.75 3890.11 96C3890.86 103.8 3893.11 129.15 3893.56 134.1C3894.01 139.05 3893.41 141.6 3891.01 142.95C3891.01 143.25 3891.01 144 3891.01 144H3909.61C3909.61 144 3909.61 143.25 3909.61 142.95C3907.36 141.6 3906.01 139.5 3905.41 134.1Z" fill="#E8D6C5"/>
<path d="M3200.2 181.5C3176.05 181.5 3166.3 196.65 3166.3 208.8C3166.3 246.45 3230.8 236.25 3226.9 268.2C3225.7 277.65 3215.05 285.9 3202.3 285.9C3182.65 285.9 3168.7 272.25 3161.05 256.95H3160L3155.5 274.05C3167.2 282.9 3178.3 288.9 3196.15 288.9C3217.45 288.9 3233.5 276.3 3233.5 258.45C3233.5 220.95 3169.15 230.85 3172 200.85C3172.9 191.85 3181.45 183.45 3196.3 183.45C3208.15 183.45 3219.1 191.1 3227.65 211.2H3228.7L3233.2 195.6C3224.35 188.7 3211.75 181.5 3200.2 181.5ZM3297.11 261.45C3294.41 273 3289.46 284.85 3279.56 286.2C3266.81 287.85 3263.21 277.8 3263.21 264.75V217.05H3280.91V215.85H3247.76C3256.76 215.4 3268.16 206.85 3268.16 195.3H3256.31C3256.31 202.5 3255.26 215.85 3242.51 215.85V217.05H3251.36V262.5C3251.36 280.2 3259.61 288.9 3272.96 288.9C3288.71 288.9 3295.01 275.85 3297.86 261.75L3297.11 261.45ZM3314.53 278.1V215.85H3313.48L3299.38 219.15C3299.38 219.15 3299.38 219.9 3299.38 220.2C3302.23 220.65 3302.68 222.15 3302.68 227.4V278.1C3302.68 283.35 3301.63 285.6 3299.38 286.95C3299.38 287.25 3299.38 288 3299.38 288H3317.98C3317.98 288 3317.98 287.25 3317.98 286.95C3315.58 285.6 3314.53 283.35 3314.53 278.1ZM3308.23 203.7C3312.13 203.7 3315.28 200.55 3315.28 196.65C3315.28 192.75 3312.13 189.6 3308.23 189.6C3304.33 189.6 3301.18 192.75 3301.18 196.65C3301.18 200.55 3304.33 203.7 3308.23 203.7ZM3438.18 278.1C3437.58 272.55 3436.23 256.8 3434.58 242.25C3432.78 224.7 3424.38 215.85 3412.53 215.85C3397.38 215.85 3391.83 229.35 3390.03 243.9L3389.88 242.25C3389.28 225.75 3379.38 215.85 3367.83 215.85C3349.83 215.85 3345.33 233.25 3343.68 249.15V215.85H3342.63L3328.53 219.15C3328.53 219.15 3328.53 219.9 3328.53 220.2C3331.53 220.65 3331.98 222.15 3331.98 227.4V278.1C3331.98 283.35 3330.78 285.6 3328.53 286.95C3328.53 287.25 3328.53 288 3328.53 288H3347.13C3347.13 288 3347.13 287.25 3347.13 286.95C3344.88 285.6 3343.68 283.35 3343.68 278.1V265.8C3343.68 253.05 3344.43 221.7 3361.23 218.55C3372.93 216.3 3378.18 228.6 3378.18 240V278.1C3378.18 283.35 3377.13 285.6 3374.88 286.95C3374.88 287.25 3374.88 288 3374.88 288H3393.33C3393.33 288 3393.33 287.25 3393.33 286.95C3391.08 285.6 3390.03 283.35 3390.03 278.1V260.55C3390.18 244.8 3391.98 221.55 3405.78 218.55C3417.48 216 3421.83 228.75 3423.03 240C3423.78 247.8 3425.88 273.15 3426.48 278.1C3426.93 283.05 3426.18 285.6 3423.93 286.95C3423.93 287.25 3423.93 288 3423.93 288H3442.38C3442.38 288 3442.38 287.25 3442.38 286.95C3440.13 285.6 3438.78 283.5 3438.18 278.1ZM3561.08 278.1C3560.48 272.55 3559.13 256.8 3557.48 242.25C3555.68 224.7 3547.28 215.85 3535.43 215.85C3520.28 215.85 3514.73 229.35 3512.93 243.9L3512.78 242.25C3512.18 225.75 3502.28 215.85 3490.73 215.85C3472.73 215.85 3468.23 233.25 3466.58 249.15V215.85H3465.53L3451.43 219.15C3451.43 219.15 3451.43 219.9 3451.43 220.2C3454.43 220.65 3454.88 222.15 3454.88 227.4V278.1C3454.88 283.35 3453.68 285.6 3451.43 286.95C3451.43 287.25 3451.43 288 3451.43 288H3470.03C3470.03 288 3470.03 287.25 3470.03 286.95C3467.78 285.6 3466.58 283.35 3466.58 278.1V265.8C3466.58 253.05 3467.33 221.7 3484.13 218.55C3495.83 216.3 3501.08 228.6 3501.08 240V278.1C3501.08 283.35 3500.03 285.6 3497.78 286.95C3497.78 287.25 3497.78 288 3497.78 288H3516.23C3516.23 288 3516.23 287.25 3516.23 286.95C3513.98 285.6 3512.93 283.35 3512.93 278.1V260.55C3513.08 244.8 3514.88 221.55 3528.68 218.55C3540.38 216 3544.73 228.75 3545.93 240C3546.68 247.8 3548.78 273.15 3549.38 278.1C3549.83 283.05 3549.08 285.6 3546.83 286.95C3546.83 287.25 3546.83 288 3546.83 288H3565.28C3565.28 288 3565.28 287.25 3565.28 286.95C3563.03 285.6 3561.68 283.5 3561.08 278.1ZM3630.77 239.55H3634.07C3634.07 239.55 3643.37 239.55 3644.72 239.55C3642.62 221.4 3625.07 215.25 3612.32 215.85C3595.82 216.75 3572.27 228 3573.02 253.95C3573.62 278.7 3593.57 288.9 3614.27 288.9C3635.57 288.9 3645.02 274.8 3645.92 264.15C3647.12 250.5 3639.32 241.8 3630.77 239.55ZM3605.57 217.65C3620.27 214.8 3631.97 225.3 3633.92 238.35H3586.07C3588.77 228.15 3595.37 219.6 3605.57 217.65ZM3644.57 264.45C3643.07 276.15 3631.82 285 3618.92 285.6C3603.62 286.2 3592.37 279.3 3586.82 263.55C3584.27 256.35 3583.82 247.5 3585.77 239.55H3624.62C3636.02 239.55 3646.37 248.85 3644.57 264.45ZM3726.41 278.1C3725.81 272.55 3724.31 256.8 3722.81 242.25C3721.01 224.25 3710.51 215.85 3698.21 215.85C3678.71 215.85 3673.61 236.25 3671.66 253.05V215.85H3670.61L3656.51 219.15C3656.51 219.15 3656.51 219.9 3656.51 220.2C3659.36 220.65 3659.81 222.15 3659.81 227.4V278.1C3659.81 283.35 3658.76 285.6 3656.51 286.95C3656.51 287.25 3656.51 288 3656.51 288H3675.11C3675.11 288 3675.11 287.25 3675.11 286.95C3672.71 285.6 3671.66 283.35 3671.66 278.1V265.8C3671.66 253.2 3674.81 221.85 3691.61 218.55C3704.51 216 3710.06 228.75 3711.11 240C3711.86 247.8 3714.11 273.15 3714.56 278.1C3715.01 283.05 3714.41 285.6 3712.01 286.95C3712.01 287.25 3712.01 288 3712.01 288H3730.61C3730.61 288 3730.61 287.25 3730.61 286.95C3728.36 285.6 3727.01 283.5 3726.41 278.1Z" fill="#2E2828"/>
<path d="M3830.2 181.5C3806.05 181.5 3796.3 196.65 3796.3 208.8C3796.3 246.45 3860.8 236.25 3856.9 268.2C3855.7 277.65 3845.05 285.9 3832.3 285.9C3812.65 285.9 3798.7 272.25 3791.05 256.95H3790L3785.5 274.05C3797.2 282.9 3808.3 288.9 3826.15 288.9C3847.45 288.9 3863.5 276.3 3863.5 258.45C3863.5 220.95 3799.15 230.85 3802 200.85C3802.9 191.85 3811.45 183.45 3826.3 183.45C3838.15 183.45 3849.1 191.1 3857.65 211.2H3858.7L3863.2 195.6C3854.35 188.7 3841.75 181.5 3830.2 181.5ZM3927.11 261.45C3924.41 273 3919.46 284.85 3909.56 286.2C3896.81 287.85 3893.21 277.8 3893.21 264.75V217.05H3910.91V215.85H3877.76C3886.76 215.4 3898.16 206.85 3898.16 195.3H3886.31C3886.31 202.5 3885.26 215.85 3872.51 215.85V217.05H3881.36V262.5C3881.36 280.2 3889.61 288.9 3902.96 288.9C3918.71 288.9 3925.01 275.85 3927.86 261.75L3927.11 261.45ZM3944.53 278.1V215.85H3943.48L3929.38 219.15C3929.38 219.15 3929.38 219.9 3929.38 220.2C3932.23 220.65 3932.68 222.15 3932.68 227.4V278.1C3932.68 283.35 3931.63 285.6 3929.38 286.95C3929.38 287.25 3929.38 288 3929.38 288H3947.98C3947.98 288 3947.98 287.25 3947.98 286.95C3945.58 285.6 3944.53 283.35 3944.53 278.1ZM3938.23 203.7C3942.13 203.7 3945.28 200.55 3945.28 196.65C3945.28 192.75 3942.13 189.6 3938.23 189.6C3934.33 189.6 3931.18 192.75 3931.18 196.65C3931.18 200.55 3934.33 203.7 3938.23 203.7ZM4068.18 278.1C4067.58 272.55 4066.23 256.8 4064.58 242.25C4062.78 224.7 4054.38 215.85 4042.53 215.85C4027.38 215.85 4021.83 229.35 4020.03 243.9L4019.88 242.25C4019.28 225.75 4009.38 215.85 3997.83 215.85C3979.83 215.85 3975.33 233.25 3973.68 249.15V215.85H3972.63L3958.53 219.15C3958.53 219.15 3958.53 219.9 3958.53 220.2C3961.53 220.65 3961.98 222.15 3961.98 227.4V278.1C3961.98 283.35 3960.78 285.6 3958.53 286.95C3958.53 287.25 3958.53 288 3958.53 288H3977.13C3977.13 288 3977.13 287.25 3977.13 286.95C3974.88 285.6 3973.68 283.35 3973.68 278.1V265.8C3973.68 253.05 3974.43 221.7 3991.23 218.55C4002.93 216.3 4008.18 228.6 4008.18 240V278.1C4008.18 283.35 4007.13 285.6 4004.88 286.95C4004.88 287.25 4004.88 288 4004.88 288H4023.33C4023.33 288 4023.33 287.25 4023.33 286.95C4021.08 285.6 4020.03 283.35 4020.03 278.1V260.55C4020.18 244.8 4021.98 221.55 4035.78 218.55C4047.48 216 4051.83 228.75 4053.03 240C4053.78 247.8 4055.88 273.15 4056.48 278.1C4056.93 283.05 4056.18 285.6 4053.93 286.95C4053.93 287.25 4053.93 288 4053.93 288H4072.38C4072.38 288 4072.38 287.25 4072.38 286.95C4070.13 285.6 4068.78 283.5 4068.18 278.1ZM4191.08 278.1C4190.48 272.55 4189.13 256.8 4187.48 242.25C4185.68 224.7 4177.28 215.85 4165.43 215.85C4150.28 215.85 4144.73 229.35 4142.93 243.9L4142.78 242.25C4142.18 225.75 4132.28 215.85 4120.73 215.85C4102.73 215.85 4098.23 233.25 4096.58 249.15V215.85H4095.53L4081.43 219.15C4081.43 219.15 4081.43 219.9 4081.43 220.2C4084.43 220.65 4084.88 222.15 4084.88 227.4V278.1C4084.88 283.35 4083.68 285.6 4081.43 286.95C4081.43 287.25 4081.43 288 4081.43 288H4100.03C4100.03 288 4100.03 287.25 4100.03 286.95C4097.78 285.6 4096.58 283.35 4096.58 278.1V265.8C4096.58 253.05 4097.33 221.7 4114.13 218.55C4125.83 216.3 4131.08 228.6 4131.08 240V278.1C4131.08 283.35 4130.03 285.6 4127.78 286.95C4127.78 287.25 4127.78 288 4127.78 288H4146.23C4146.23 288 4146.23 287.25 4146.23 286.95C4143.98 285.6 4142.93 283.35 4142.93 278.1V260.55C4143.08 244.8 4144.88 221.55 4158.68 218.55C4170.38 216 4174.73 228.75 4175.93 240C4176.68 247.8 4178.78 273.15 4179.38 278.1C4179.83 283.05 4179.08 285.6 4176.83 286.95C4176.83 287.25 4176.83 288 4176.83 288H4195.28C4195.28 288 4195.28 287.25 4195.28 286.95C4193.03 285.6 4191.68 283.5 4191.08 278.1ZM4260.77 239.55H4264.07C4264.07 239.55 4273.37 239.55 4274.72 239.55C4272.62 221.4 4255.07 215.25 4242.32 215.85C4225.82 216.75 4202.27 228 4203.02 253.95C4203.62 278.7 4223.57 288.9 4244.27 288.9C4265.57 288.9 4275.02 274.8 4275.92 264.15C4277.12 250.5 4269.32 241.8 4260.77 239.55ZM4235.57 217.65C4250.27 214.8 4261.97 225.3 4263.92 238.35H4216.07C4218.77 228.15 4225.37 219.6 4235.57 217.65ZM4274.57 264.45C4273.07 276.15 4261.82 285 4248.92 285.6C4233.62 286.2 4222.37 279.3 4216.82 263.55C4214.27 256.35 4213.82 247.5 4215.77 239.55H4254.62C4266.02 239.55 4276.37 248.85 4274.57 264.45ZM4356.41 278.1C4355.81 272.55 4354.31 256.8 4352.81 242.25C4351.01 224.25 4340.51 215.85 4328.21 215.85C4308.71 215.85 4303.61 236.25 4301.66 253.05V215.85H4300.61L4286.51 219.15C4286.51 219.15 4286.51 219.9 4286.51 220.2C4289.36 220.65 4289.81 222.15 4289.81 227.4V278.1C4289.81 283.35 4288.76 285.6 4286.51 286.95C4286.51 287.25 4286.51 288 4286.51 288H4305.11C4305.11 288 4305.11 287.25 4305.11 286.95C4302.71 285.6 4301.66 283.35 4301.66 278.1V265.8C4301.66 253.2 4304.81 221.85 4321.61 218.55C4334.51 216 4340.06 228.75 4341.11 240C4341.86 247.8 4344.11 273.15 4344.56 278.1C4345.01 283.05 4344.41 285.6 4342.01 286.95C4342.01 287.25 4342.01 288 4342.01 288H4360.61C4360.61 288 4360.61 287.25 4360.61 286.95C4358.36 285.6 4357.01 283.5 4356.41 278.1Z" fill="#E8D6C5"/>
<path d="M4010.2 46.5C3986.05 46.5 3976.3 61.65 3976.3 73.8C3976.3 111.45 4040.8 101.25 4036.9 133.2C4035.7 142.65 4025.05 150.9 4012.3 150.9C3992.65 150.9 3978.7 137.25 3971.05 121.95H3970L3965.5 139.05C3977.2 147.9 3988.3 153.9 4006.15 153.9C4027.45 153.9 4043.5 141.3 4043.5 123.45C4043.5 85.95 3979.15 95.85 3982 65.85C3982.9 56.85 3991.45 48.45 4006.3 48.45C4018.15 48.45 4029.1 56.1 4037.65 76.2H4038.7L4043.2 60.6C4034.35 53.7 4021.75 46.5 4010.2 46.5ZM4107.11 126.45C4104.41 138 4099.46 149.85 4089.56 151.2C4076.81 152.85 4073.21 142.8 4073.21 129.75V82.05H4090.91V80.85H4057.76C4066.76 80.4 4078.16 71.85 4078.16 60.3H4066.31C4066.31 67.5 4065.26 80.85 4052.51 80.85V82.05H4061.36V127.5C4061.36 145.2 4069.61 153.9 4082.96 153.9C4098.71 153.9 4105.01 140.85 4107.86 126.75L4107.11 126.45ZM4124.53 143.1V80.85H4123.48L4109.38 84.15C4109.38 84.15 4109.38 84.9 4109.38 85.2C4112.23 85.65 4112.68 87.15 4112.68 92.4V143.1C4112.68 148.35 4111.63 150.6 4109.38 151.95C4109.38 152.25 4109.38 153 4109.38 153H4127.98C4127.98 153 4127.98 152.25 4127.98 151.95C4125.58 150.6 4124.53 148.35 4124.53 143.1ZM4118.23 68.7C4122.13 68.7 4125.28 65.55 4125.28 61.65C4125.28 57.75 4122.13 54.6 4118.23 54.6C4114.33 54.6 4111.18 57.75 4111.18 61.65C4111.18 65.55 4114.33 68.7 4118.23 68.7ZM4248.18 143.1C4247.58 137.55 4246.23 121.8 4244.58 107.25C4242.78 89.7 4234.38 80.85 4222.53 80.85C4207.38 80.85 4201.83 94.35 4200.03 108.9L4199.88 107.25C4199.28 90.75 4189.38 80.85 4177.83 80.85C4159.83 80.85 4155.33 98.25 4153.68 114.15V80.85H4152.63L4138.53 84.15C4138.53 84.15 4138.53 84.9 4138.53 85.2C4141.53 85.65 4141.98 87.15 4141.98 92.4V143.1C4141.98 148.35 4140.78 150.6 4138.53 151.95C4138.53 152.25 4138.53 153 4138.53 153H4157.13C4157.13 153 4157.13 152.25 4157.13 151.95C4154.88 150.6 4153.68 148.35 4153.68 143.1V130.8C4153.68 118.05 4154.43 86.7 4171.23 83.55C4182.93 81.3 4188.18 93.6 4188.18 105V143.1C4188.18 148.35 4187.13 150.6 4184.88 151.95C4184.88 152.25 4184.88 153 4184.88 153H4203.33C4203.33 153 4203.33 152.25 4203.33 151.95C4201.08 150.6 4200.03 148.35 4200.03 143.1V125.55C4200.18 109.8 4201.98 86.55 4215.78 83.55C4227.48 81 4231.83 93.75 4233.03 105C4233.78 112.8 4235.88 138.15 4236.48 143.1C4236.93 148.05 4236.18 150.6 4233.93 151.95C4233.93 152.25 4233.93 153 4233.93 153H4252.38C4252.38 153 4252.38 152.25 4252.38 151.95C4250.13 150.6 4248.78 148.5 4248.18 143.1ZM4371.08 143.1C4370.48 137.55 4369.13 121.8 4367.48 107.25C4365.68 89.7 4357.28 80.85 4345.43 80.85C4330.28 80.85 4324.73 94.35 4322.93 108.9L4322.78 107.25C4322.18 90.75 4312.28 80.85 4300.73 80.85C4282.73 80.85 4278.23 98.25 4276.58 114.15V80.85H4275.53L4261.43 84.15C4261.43 84.15 4261.43 84.9 4261.43 85.2C4264.43 85.65 4264.88 87.15 4264.88 92.4V143.1C4264.88 148.35 4263.68 150.6 4261.43 151.95C4261.43 152.25 4261.43 153 4261.43 153H4280.03C4280.03 153 4280.03 152.25 4280.03 151.95C4277.78 150.6 4276.58 148.35 4276.58 143.1V130.8C4276.58 118.05 4277.33 86.7 4294.13 83.55C4305.83 81.3 4311.08 93.6 4311.08 105V143.1C4311.08 148.35 4310.03 150.6 4307.78 151.95C4307.78 152.25 4307.78 153 4307.78 153H4326.23C4326.23 153 4326.23 152.25 4326.23 151.95C4323.98 150.6 4322.93 148.35 4322.93 143.1V125.55C4323.08 109.8 4324.88 86.55 4338.68 83.55C4350.38 81 4354.73 93.75 4355.93 105C4356.68 112.8 4358.78 138.15 4359.38 143.1C4359.83 148.05 4359.08 150.6 4356.83 151.95C4356.83 152.25 4356.83 153 4356.83 153H4375.28C4375.28 153 4375.28 152.25 4375.28 151.95C4373.03 150.6 4371.68 148.5 4371.08 143.1ZM4440.77 104.55H4444.07C4444.07 104.55 4453.37 104.55 4454.72 104.55C4452.62 86.4 4435.07 80.25 4422.32 80.85C4405.82 81.75 4382.27 93 4383.02 118.95C4383.62 143.7 4403.57 153.9 4424.27 153.9C4445.57 153.9 4455.02 139.8 4455.92 129.15C4457.12 115.5 4449.32 106.8 4440.77 104.55ZM4415.57 82.65C4430.27 79.8 4441.97 90.3 4443.92 103.35H4396.07C4398.77 93.15 4405.37 84.6 4415.57 82.65ZM4454.57 129.45C4453.07 141.15 4441.82 150 4428.92 150.6C4413.62 151.2 4402.37 144.3 4396.82 128.55C4394.27 121.35 4393.82 112.5 4395.77 104.55H4434.62C4446.02 104.55 4456.37 113.85 4454.57 129.45ZM4536.41 143.1C4535.81 137.55 4534.31 121.8 4532.81 107.25C4531.01 89.25 4520.51 80.85 4508.21 80.85C4488.71 80.85 4483.61 101.25 4481.66 118.05V80.85H4480.61L4466.51 84.15C4466.51 84.15 4466.51 84.9 4466.51 85.2C4469.36 85.65 4469.81 87.15 4469.81 92.4V143.1C4469.81 148.35 4468.76 150.6 4466.51 151.95C4466.51 152.25 4466.51 153 4466.51 153H4485.11C4485.11 153 4485.11 152.25 4485.11 151.95C4482.71 150.6 4481.66 148.35 4481.66 143.1V130.8C4481.66 118.2 4484.81 86.85 4501.61 83.55C4514.51 81 4520.06 93.75 4521.11 105C4521.86 112.8 4524.11 138.15 4524.56 143.1C4525.01 148.05 4524.41 150.6 4522.01 151.95C4522.01 152.25 4522.01 153 4522.01 153H4540.61C4540.61 153 4540.61 152.25 4540.61 151.95C4538.36 150.6 4537.01 148.5 4536.41 143.1Z" fill="#2E2828"/>
</g>
</svg>
