<svg width="5406" height="342" viewBox="0 0 5406 342" fill="none" xmlns="http://www.w3.org/2000/svg">
<g opacity="0.8">
<path d="M1165.45 51.2C1165.45 50.9 1165.45 50 1165.45 50H1151.5L1113.25 116.45L1070.2 50H1056.7L1063.45 59.3V137C1063.45 143.45 1058.95 151.4 1054 153.95C1054 154.25 1054 155 1054 155H1074.1C1074.1 155 1074.1 154.25 1074.1 153.95C1069.15 151.4 1064.65 143.45 1064.65 137V60.8L1107.55 126.2H1108.9L1150.3 54.5V145.1C1150.3 150.35 1149.1 152.6 1146.85 153.95C1146.85 154.25 1146.85 155 1146.85 155H1165.45C1165.45 155 1165.45 154.25 1165.45 153.95C1163.05 152.6 1162 150.35 1162 145.1V60.05C1162 54.65 1163.05 52.55 1165.45 51.2ZM1244.39 153.95C1242.14 152.6 1241.09 150.35 1241.09 145.1V107.9C1241.09 89.45 1227.89 82.85 1215.44 82.85C1195.34 82.85 1190.69 101.45 1194.59 110.15C1183.04 114.95 1173.89 123.95 1176.44 139.25C1178.39 150.05 1190.39 155.9 1202.69 155.9C1217.09 155.9 1225.34 147.2 1229.24 134V155H1244.39C1244.39 155 1244.39 154.25 1244.39 153.95ZM1214.09 84.35C1224.74 84.35 1229.24 94.4 1229.24 105.8V106.85C1226.69 106.1 1223.69 105.5 1220.24 105.5C1213.19 105.5 1204.19 106.55 1196.09 109.55C1191.59 97.4 1200.59 84.35 1214.09 84.35ZM1206.29 153.95C1198.79 154.4 1190.09 149.45 1188.14 141.35C1181.69 114.95 1203.89 106.85 1220.24 106.85C1224.89 106.85 1228.49 107.9 1229.24 108.2V131.3C1226.24 142.1 1219.34 153.2 1206.29 153.95ZM1312.43 96.35C1323.83 92.9 1340.78 88.55 1339.88 71.9C1339.13 59.45 1323.23 48.35 1302.98 48.35C1281.68 48.35 1258.13 63.05 1258.13 91.4V145.1C1258.13 150.35 1257.08 152.6 1254.83 153.95C1254.83 154.25 1254.83 155 1254.83 155H1273.43C1273.43 155 1273.43 154.25 1273.43 153.95C1271.03 152.6 1269.98 150.35 1269.98 145.1V80.3C1269.98 57.95 1287.68 50 1302.23 50C1316.18 50 1326.98 59.6 1328.48 71C1330.28 84.35 1321.73 92.45 1303.73 98.9C1303.73 98.9 1304.03 99.35 1304.18 99.95C1328.48 91.1 1343.33 107.3 1341.23 128.9C1340.03 141.95 1332.83 154.85 1314.83 154.25C1302.23 153.95 1288.88 142.25 1286.03 122.15H1284.98L1278.83 140.9C1287.38 149.3 1301.33 155.9 1315.58 155.9C1337.18 155.9 1350.98 141.2 1352.93 128.15C1356.68 104.9 1334.93 91.1 1312.43 96.35ZM1394.26 82.85C1377.91 82.85 1372.51 91.7 1371.31 101.45C1367.71 130.85 1420.06 122.15 1417.21 141.8C1416.31 148.25 1408.21 153.8 1397.41 153.8C1384.06 153.8 1372.81 141.35 1367.71 130.85H1366.96L1363.81 145.85C1371.91 151.85 1380.91 155.9 1393.06 155.9C1409.86 155.9 1420.96 147.05 1421.86 135.2C1423.51 110.75 1372.96 116.15 1375.06 96.05C1375.81 89.9 1381.51 84.2 1391.71 84.2C1400.26 84.2 1409.86 93.5 1414.51 106.25H1415.26L1418.26 92.45C1412.26 87.8 1402.06 82.85 1394.26 82.85ZM1444.85 130.55C1438.55 112.55 1445.3 88.85 1463.75 84.65C1477.85 81.35 1492.1 94.25 1495.7 103.25H1496.6L1498.85 90.8C1491.05 86.75 1479.05 82.85 1470.5 82.85C1454 82.85 1430.45 95 1431.2 120.95C1431.8 145.7 1452.5 156.95 1473.2 155.9C1491.05 154.85 1499.9 143.15 1504.55 134.75L1503.65 134.3C1501.25 138.5 1493.15 151.7 1478.3 153.2C1463.15 154.7 1450.4 146.3 1444.85 130.55ZM1583.42 145.1C1582.82 139.55 1581.47 123.8 1579.82 109.25C1578.02 91.25 1567.52 82.85 1555.37 82.85C1535.87 82.85 1530.62 103.25 1528.82 120.05V46.85H1527.62L1513.52 50C1513.52 50 1513.52 50.9 1513.52 51.2C1516.52 51.65 1516.97 53.15 1516.97 58.4V145.1C1516.97 150.35 1515.92 152.6 1513.52 153.95C1513.52 154.25 1513.52 155 1513.52 155H1532.12C1532.12 155 1532.12 154.25 1532.12 153.95C1529.87 152.6 1528.82 150.35 1528.82 145.1V132.8C1528.82 120.2 1531.82 88.85 1548.62 85.55C1561.52 83 1567.07 95.75 1568.27 107C1569.02 114.8 1571.12 140.15 1571.72 145.1C1572.17 150.05 1571.42 152.6 1569.17 153.95C1569.17 154.25 1569.17 155 1569.17 155H1587.62C1587.62 155 1587.62 154.25 1587.62 153.95C1585.37 152.6 1584.02 150.5 1583.42 145.1ZM1666.48 153.95C1664.08 152.6 1663.03 150.35 1663.03 145.1V82.85H1661.98L1647.88 86.15C1647.88 86.15 1647.88 86.9 1647.88 87.2C1650.73 87.65 1651.18 89.15 1651.18 94.4V105.95C1651.18 118.55 1648.18 149.9 1631.38 153.2C1618.48 155.6 1611.73 144.8 1611.73 131.75V82.85H1610.68L1596.58 86.15C1596.58 86.15 1596.58 86.9 1596.58 87.2C1599.43 87.65 1599.88 89.15 1599.88 94.4V129.5C1599.88 147.2 1610.83 155.9 1624.63 155.9C1644.13 155.9 1649.23 135.5 1651.18 118.55V155H1666.48C1666.48 155 1666.48 154.25 1666.48 153.95ZM1746.9 145.1C1746.3 139.55 1744.95 123.8 1743.3 109.25C1741.5 91.25 1731 82.85 1718.85 82.85C1699.35 82.85 1694.1 103.25 1692.3 120.05V46.85H1691.1L1677 50C1677 50 1677 50.9 1677 51.2C1680 51.65 1680.45 53.15 1680.45 58.4V145.1C1680.45 150.35 1679.4 152.6 1677 153.95C1677 154.25 1677 155 1677 155H1695.6C1695.6 155 1695.6 154.25 1695.6 153.95C1693.35 152.6 1692.3 150.35 1692.3 145.1V132.8C1692.3 120.2 1695.3 88.85 1712.1 85.55C1725 83 1730.55 95.75 1731.75 107C1732.5 114.8 1734.6 140.15 1735.2 145.1C1735.65 150.05 1734.9 152.6 1732.65 153.95C1732.65 154.25 1732.65 155 1732.65 155H1751.1C1751.1 155 1751.1 154.25 1751.1 153.95C1748.85 152.6 1747.5 150.5 1746.9 145.1ZM1816.49 106.55H1819.79C1819.79 106.55 1829.09 106.55 1830.44 106.55C1828.34 88.4 1810.79 82.25 1798.04 82.85C1781.54 83.75 1757.99 95 1758.74 120.95C1759.34 145.7 1779.29 155.9 1799.99 155.9C1821.29 155.9 1830.74 141.8 1831.64 131.15C1832.84 117.5 1825.04 108.8 1816.49 106.55ZM1791.29 84.65C1805.99 81.8 1817.69 92.3 1819.64 105.35H1771.79C1774.49 95.15 1781.09 86.6 1791.29 84.65ZM1830.29 131.45C1828.79 143.15 1817.54 152 1804.64 152.6C1789.34 153.2 1778.09 146.3 1772.54 130.55C1769.99 123.35 1769.54 114.5 1771.49 106.55H1810.34C1821.74 106.55 1832.09 115.85 1830.29 131.45Z" fill="#E8D6C5"/>
<path d="M117.45 199.2C117.45 198.9 117.45 198 117.45 198H103.5L65.25 264.45L22.2 198H8.7L15.45 207.3V285C15.45 291.45 10.95 299.4 6 301.95C6 302.25 6 303 6 303H26.1C26.1 303 26.1 302.25 26.1 301.95C21.15 299.4 16.65 291.45 16.65 285V208.8L59.55 274.2H60.9L102.3 202.5V293.1C102.3 298.35 101.1 300.6 98.85 301.95C98.85 302.25 98.85 303 98.85 303H117.45C117.45 303 117.45 302.25 117.45 301.95C115.05 300.6 114 298.35 114 293.1V208.05C114 202.65 115.05 200.55 117.45 199.2ZM196.386 301.95C194.136 300.6 193.086 298.35 193.086 293.1V255.9C193.086 237.45 179.886 230.85 167.436 230.85C147.336 230.85 142.686 249.45 146.586 258.15C135.036 262.95 125.886 271.95 128.436 287.25C130.386 298.05 142.386 303.9 154.686 303.9C169.086 303.9 177.336 295.2 181.236 282V303H196.386C196.386 303 196.386 302.25 196.386 301.95ZM166.086 232.35C176.736 232.35 181.236 242.4 181.236 253.8V254.85C178.686 254.1 175.686 253.5 172.236 253.5C165.186 253.5 156.186 254.55 148.086 257.55C143.586 245.4 152.586 232.35 166.086 232.35ZM158.286 301.95C150.786 302.4 142.086 297.45 140.136 289.35C133.686 262.95 155.886 254.85 172.236 254.85C176.886 254.85 180.486 255.9 181.236 256.2V279.3C178.236 290.1 171.336 301.2 158.286 301.95ZM264.43 244.35C275.83 240.9 292.78 236.55 291.88 219.9C291.13 207.45 275.23 196.35 254.98 196.35C233.68 196.35 210.13 211.05 210.13 239.4V293.1C210.13 298.35 209.08 300.6 206.83 301.95C206.83 302.25 206.83 303 206.83 303H225.43C225.43 303 225.43 302.25 225.43 301.95C223.03 300.6 221.98 298.35 221.98 293.1V228.3C221.98 205.95 239.68 198 254.23 198C268.18 198 278.98 207.6 280.48 219C282.28 232.35 273.73 240.45 255.73 246.9C255.73 246.9 256.03 247.35 256.18 247.95C280.48 239.1 295.33 255.3 293.23 276.9C292.03 289.95 284.83 302.85 266.83 302.25C254.23 301.95 240.88 290.25 238.03 270.15H236.98L230.83 288.9C239.38 297.3 253.33 303.9 267.58 303.9C289.18 303.9 302.98 289.2 304.93 276.15C308.68 252.9 286.93 239.1 264.43 244.35ZM346.264 230.85C329.914 230.85 324.514 239.7 323.314 249.45C319.714 278.85 372.064 270.15 369.214 289.8C368.314 296.25 360.214 301.8 349.414 301.8C336.064 301.8 324.814 289.35 319.714 278.85H318.964L315.814 293.85C323.914 299.85 332.914 303.9 345.064 303.9C361.864 303.9 372.964 295.05 373.864 283.2C375.514 258.75 324.964 264.15 327.064 244.05C327.814 237.9 333.514 232.2 343.714 232.2C352.264 232.2 361.864 241.5 366.514 254.25H367.264L370.264 240.45C364.264 235.8 354.064 230.85 346.264 230.85ZM396.851 278.55C390.551 260.55 397.301 236.85 415.751 232.65C429.851 229.35 444.101 242.25 447.701 251.25H448.601L450.851 238.8C443.051 234.75 431.051 230.85 422.501 230.85C406.001 230.85 382.451 243 383.201 268.95C383.801 293.7 404.501 304.95 425.201 303.9C443.051 302.85 451.901 291.15 456.551 282.75L455.651 282.3C453.251 286.5 445.151 299.7 430.301 301.2C415.151 302.7 402.401 294.3 396.851 278.55ZM535.421 293.1C534.821 287.55 533.471 271.8 531.821 257.25C530.021 239.25 519.521 230.85 507.371 230.85C487.871 230.85 482.621 251.25 480.821 268.05V194.85H479.621L465.521 198C465.521 198 465.521 198.9 465.521 199.2C468.521 199.65 468.971 201.15 468.971 206.4V293.1C468.971 298.35 467.921 300.6 465.521 301.95C465.521 302.25 465.521 303 465.521 303H484.121C484.121 303 484.121 302.25 484.121 301.95C481.871 300.6 480.821 298.35 480.821 293.1V280.8C480.821 268.2 483.821 236.85 500.621 233.55C513.521 231 519.071 243.75 520.271 255C521.021 262.8 523.121 288.15 523.721 293.1C524.171 298.05 523.421 300.6 521.171 301.95C521.171 302.25 521.171 303 521.171 303H539.621C539.621 303 539.621 302.25 539.621 301.95C537.371 300.6 536.021 298.5 535.421 293.1ZM618.478 301.95C616.078 300.6 615.028 298.35 615.028 293.1V230.85H613.978L599.878 234.15C599.878 234.15 599.878 234.9 599.878 235.2C602.728 235.65 603.178 237.15 603.178 242.4V253.95C603.178 266.55 600.178 297.9 583.378 301.2C570.478 303.6 563.728 292.8 563.728 279.75V230.85H562.678L548.578 234.15C548.578 234.15 548.578 234.9 548.578 235.2C551.428 235.65 551.878 237.15 551.878 242.4V277.5C551.878 295.2 562.828 303.9 576.628 303.9C596.128 303.9 601.228 283.5 603.178 266.55V303H618.478C618.478 303 618.478 302.25 618.478 301.95ZM698.898 293.1C698.298 287.55 696.948 271.8 695.298 257.25C693.498 239.25 682.998 230.85 670.848 230.85C651.348 230.85 646.098 251.25 644.298 268.05V194.85H643.098L628.998 198C628.998 198 628.998 198.9 628.998 199.2C631.998 199.65 632.448 201.15 632.448 206.4V293.1C632.448 298.35 631.398 300.6 628.998 301.95C628.998 302.25 628.998 303 628.998 303H647.598C647.598 303 647.598 302.25 647.598 301.95C645.348 300.6 644.298 298.35 644.298 293.1V280.8C644.298 268.2 647.298 236.85 664.098 233.55C676.998 231 682.548 243.75 683.748 255C684.498 262.8 686.598 288.15 687.198 293.1C687.648 298.05 686.898 300.6 684.648 301.95C684.648 302.25 684.648 303 684.648 303H703.098C703.098 303 703.098 302.25 703.098 301.95C700.848 300.6 699.498 298.5 698.898 293.1ZM768.49 254.55H771.79C771.79 254.55 781.09 254.55 782.44 254.55C780.34 236.4 762.79 230.25 750.04 230.85C733.54 231.75 709.99 243 710.74 268.95C711.34 293.7 731.29 303.9 751.99 303.9C773.29 303.9 782.74 289.8 783.64 279.15C784.84 265.5 777.04 256.8 768.49 254.55ZM743.29 232.65C757.99 229.8 769.69 240.3 771.64 253.35H723.79C726.49 243.15 733.09 234.6 743.29 232.65ZM782.29 279.45C780.79 291.15 769.54 300 756.64 300.6C741.34 301.2 730.09 294.3 724.54 278.55C721.99 271.35 721.54 262.5 723.49 254.55H762.34C773.74 254.55 784.09 263.85 782.29 279.45Z" fill="#E8D6C5"/>
<path d="M942.45 199.2C942.45 198.9 942.45 198 942.45 198H928.5L890.25 264.45L847.2 198H833.7L840.45 207.3V285C840.45 291.45 835.95 299.4 831 301.95C831 302.25 831 303 831 303H851.1C851.1 303 851.1 302.25 851.1 301.95C846.15 299.4 841.65 291.45 841.65 285V208.8L884.55 274.2H885.9L927.3 202.5V293.1C927.3 298.35 926.1 300.6 923.85 301.95C923.85 302.25 923.85 303 923.85 303H942.45C942.45 303 942.45 302.25 942.45 301.95C940.05 300.6 939 298.35 939 293.1V208.05C939 202.65 940.05 200.55 942.45 199.2ZM1021.39 301.95C1019.14 300.6 1018.09 298.35 1018.09 293.1V255.9C1018.09 237.45 1004.89 230.85 992.436 230.85C972.336 230.85 967.686 249.45 971.586 258.15C960.036 262.95 950.886 271.95 953.436 287.25C955.386 298.05 967.386 303.9 979.686 303.9C994.086 303.9 1002.34 295.2 1006.24 282V303H1021.39C1021.39 303 1021.39 302.25 1021.39 301.95ZM991.086 232.35C1001.74 232.35 1006.24 242.4 1006.24 253.8V254.85C1003.69 254.1 1000.69 253.5 997.236 253.5C990.186 253.5 981.186 254.55 973.086 257.55C968.586 245.4 977.586 232.35 991.086 232.35ZM983.286 301.95C975.786 302.4 967.086 297.45 965.136 289.35C958.686 262.95 980.886 254.85 997.236 254.85C1001.89 254.85 1005.49 255.9 1006.24 256.2V279.3C1003.24 290.1 996.336 301.2 983.286 301.95ZM1089.43 244.35C1100.83 240.9 1117.78 236.55 1116.88 219.9C1116.13 207.45 1100.23 196.35 1079.98 196.35C1058.68 196.35 1035.13 211.05 1035.13 239.4V293.1C1035.13 298.35 1034.08 300.6 1031.83 301.95C1031.83 302.25 1031.83 303 1031.83 303H1050.43C1050.43 303 1050.43 302.25 1050.43 301.95C1048.03 300.6 1046.98 298.35 1046.98 293.1V228.3C1046.98 205.95 1064.68 198 1079.23 198C1093.18 198 1103.98 207.6 1105.48 219C1107.28 232.35 1098.73 240.45 1080.73 246.9C1080.73 246.9 1081.03 247.35 1081.18 247.95C1105.48 239.1 1120.33 255.3 1118.23 276.9C1117.03 289.95 1109.83 302.85 1091.83 302.25C1079.23 301.95 1065.88 290.25 1063.03 270.15H1061.98L1055.83 288.9C1064.38 297.3 1078.33 303.9 1092.58 303.9C1114.18 303.9 1127.98 289.2 1129.93 276.15C1133.68 252.9 1111.93 239.1 1089.43 244.35ZM1171.26 230.85C1154.91 230.85 1149.51 239.7 1148.31 249.45C1144.71 278.85 1197.06 270.15 1194.21 289.8C1193.31 296.25 1185.21 301.8 1174.41 301.8C1161.06 301.8 1149.81 289.35 1144.71 278.85H1143.96L1140.81 293.85C1148.91 299.85 1157.91 303.9 1170.06 303.9C1186.86 303.9 1197.96 295.05 1198.86 283.2C1200.51 258.75 1149.96 264.15 1152.06 244.05C1152.81 237.9 1158.51 232.2 1168.71 232.2C1177.26 232.2 1186.86 241.5 1191.51 254.25H1192.26L1195.26 240.45C1189.26 235.8 1179.06 230.85 1171.26 230.85ZM1221.85 278.55C1215.55 260.55 1222.3 236.85 1240.75 232.65C1254.85 229.35 1269.1 242.25 1272.7 251.25H1273.6L1275.85 238.8C1268.05 234.75 1256.05 230.85 1247.5 230.85C1231 230.85 1207.45 243 1208.2 268.95C1208.8 293.7 1229.5 304.95 1250.2 303.9C1268.05 302.85 1276.9 291.15 1281.55 282.75L1280.65 282.3C1278.25 286.5 1270.15 299.7 1255.3 301.2C1240.15 302.7 1227.4 294.3 1221.85 278.55ZM1360.42 293.1C1359.82 287.55 1358.47 271.8 1356.82 257.25C1355.02 239.25 1344.52 230.85 1332.37 230.85C1312.87 230.85 1307.62 251.25 1305.82 268.05V194.85H1304.62L1290.52 198C1290.52 198 1290.52 198.9 1290.52 199.2C1293.52 199.65 1293.97 201.15 1293.97 206.4V293.1C1293.97 298.35 1292.92 300.6 1290.52 301.95C1290.52 302.25 1290.52 303 1290.52 303H1309.12C1309.12 303 1309.12 302.25 1309.12 301.95C1306.87 300.6 1305.82 298.35 1305.82 293.1V280.8C1305.82 268.2 1308.82 236.85 1325.62 233.55C1338.52 231 1344.07 243.75 1345.27 255C1346.02 262.8 1348.12 288.15 1348.72 293.1C1349.17 298.05 1348.42 300.6 1346.17 301.95C1346.17 302.25 1346.17 303 1346.17 303H1364.62C1364.62 303 1364.62 302.25 1364.62 301.95C1362.37 300.6 1361.02 298.5 1360.42 293.1ZM1443.48 301.95C1441.08 300.6 1440.03 298.35 1440.03 293.1V230.85H1438.98L1424.88 234.15C1424.88 234.15 1424.88 234.9 1424.88 235.2C1427.73 235.65 1428.18 237.15 1428.18 242.4V253.95C1428.18 266.55 1425.18 297.9 1408.38 301.2C1395.48 303.6 1388.73 292.8 1388.73 279.75V230.85H1387.68L1373.58 234.15C1373.58 234.15 1373.58 234.9 1373.58 235.2C1376.43 235.65 1376.88 237.15 1376.88 242.4V277.5C1376.88 295.2 1387.83 303.9 1401.63 303.9C1421.13 303.9 1426.23 283.5 1428.18 266.55V303H1443.48C1443.48 303 1443.48 302.25 1443.48 301.95ZM1523.9 293.1C1523.3 287.55 1521.95 271.8 1520.3 257.25C1518.5 239.25 1508 230.85 1495.85 230.85C1476.35 230.85 1471.1 251.25 1469.3 268.05V194.85H1468.1L1454 198C1454 198 1454 198.9 1454 199.2C1457 199.65 1457.45 201.15 1457.45 206.4V293.1C1457.45 298.35 1456.4 300.6 1454 301.95C1454 302.25 1454 303 1454 303H1472.6C1472.6 303 1472.6 302.25 1472.6 301.95C1470.35 300.6 1469.3 298.35 1469.3 293.1V280.8C1469.3 268.2 1472.3 236.85 1489.1 233.55C1502 231 1507.55 243.75 1508.75 255C1509.5 262.8 1511.6 288.15 1512.2 293.1C1512.65 298.05 1511.9 300.6 1509.65 301.95C1509.65 302.25 1509.65 303 1509.65 303H1528.1C1528.1 303 1528.1 302.25 1528.1 301.95C1525.85 300.6 1524.5 298.5 1523.9 293.1ZM1593.49 254.55H1596.79C1596.79 254.55 1606.09 254.55 1607.44 254.55C1605.34 236.4 1587.79 230.25 1575.04 230.85C1558.54 231.75 1534.99 243 1535.74 268.95C1536.34 293.7 1556.29 303.9 1576.99 303.9C1598.29 303.9 1607.74 289.8 1608.64 279.15C1609.84 265.5 1602.04 256.8 1593.49 254.55ZM1568.29 232.65C1582.99 229.8 1594.69 240.3 1596.64 253.35H1548.79C1551.49 243.15 1558.09 234.6 1568.29 232.65ZM1607.29 279.45C1605.79 291.15 1594.54 300 1581.64 300.6C1566.34 301.2 1555.09 294.3 1549.54 278.55C1546.99 271.35 1546.54 262.5 1548.49 254.55H1587.34C1598.74 254.55 1609.09 263.85 1607.29 279.45Z" fill="#2E2828"/>
<path d="M313.45 51.2C313.45 50.9 313.45 50 313.45 50H299.5L261.25 116.45L218.2 50H204.7L211.45 59.3V137C211.45 143.45 206.95 151.4 202 153.95C202 154.25 202 155 202 155H222.1C222.1 155 222.1 154.25 222.1 153.95C217.15 151.4 212.65 143.45 212.65 137V60.8L255.55 126.2H256.9L298.3 54.5V145.1C298.3 150.35 297.1 152.6 294.85 153.95C294.85 154.25 294.85 155 294.85 155H313.45C313.45 155 313.45 154.25 313.45 153.95C311.05 152.6 310 150.35 310 145.1V60.05C310 54.65 311.05 52.55 313.45 51.2ZM392.386 153.95C390.136 152.6 389.086 150.35 389.086 145.1V107.9C389.086 89.45 375.886 82.85 363.436 82.85C343.336 82.85 338.686 101.45 342.586 110.15C331.036 114.95 321.886 123.95 324.436 139.25C326.386 150.05 338.386 155.9 350.686 155.9C365.086 155.9 373.336 147.2 377.236 134V155H392.386C392.386 155 392.386 154.25 392.386 153.95ZM362.086 84.35C372.736 84.35 377.236 94.4 377.236 105.8V106.85C374.686 106.1 371.686 105.5 368.236 105.5C361.186 105.5 352.186 106.55 344.086 109.55C339.586 97.4 348.586 84.35 362.086 84.35ZM354.286 153.95C346.786 154.4 338.086 149.45 336.136 141.35C329.686 114.95 351.886 106.85 368.236 106.85C372.886 106.85 376.486 107.9 377.236 108.2V131.3C374.236 142.1 367.336 153.2 354.286 153.95ZM460.43 96.35C471.83 92.9 488.78 88.55 487.88 71.9C487.13 59.45 471.23 48.35 450.98 48.35C429.68 48.35 406.13 63.05 406.13 91.4V145.1C406.13 150.35 405.08 152.6 402.83 153.95C402.83 154.25 402.83 155 402.83 155H421.43C421.43 155 421.43 154.25 421.43 153.95C419.03 152.6 417.98 150.35 417.98 145.1V80.3C417.98 57.95 435.68 50 450.23 50C464.18 50 474.98 59.6 476.48 71C478.28 84.35 469.73 92.45 451.73 98.9C451.73 98.9 452.03 99.35 452.18 99.95C476.48 91.1 491.33 107.3 489.23 128.9C488.03 141.95 480.83 154.85 462.83 154.25C450.23 153.95 436.88 142.25 434.03 122.15H432.98L426.83 140.9C435.38 149.3 449.33 155.9 463.58 155.9C485.18 155.9 498.98 141.2 500.93 128.15C504.68 104.9 482.93 91.1 460.43 96.35ZM542.264 82.85C525.914 82.85 520.514 91.7 519.314 101.45C515.714 130.85 568.064 122.15 565.214 141.8C564.314 148.25 556.214 153.8 545.414 153.8C532.064 153.8 520.814 141.35 515.714 130.85H514.964L511.814 145.85C519.914 151.85 528.914 155.9 541.064 155.9C557.864 155.9 568.964 147.05 569.864 135.2C571.514 110.75 520.964 116.15 523.064 96.05C523.814 89.9 529.514 84.2 539.714 84.2C548.264 84.2 557.864 93.5 562.514 106.25H563.264L566.264 92.45C560.264 87.8 550.064 82.85 542.264 82.85ZM592.851 130.55C586.551 112.55 593.301 88.85 611.751 84.65C625.851 81.35 640.101 94.25 643.701 103.25H644.601L646.851 90.8C639.051 86.75 627.051 82.85 618.501 82.85C602.001 82.85 578.451 95 579.201 120.95C579.801 145.7 600.501 156.95 621.201 155.9C639.051 154.85 647.901 143.15 652.551 134.75L651.651 134.3C649.251 138.5 641.151 151.7 626.301 153.2C611.151 154.7 598.401 146.3 592.851 130.55ZM731.421 145.1C730.821 139.55 729.471 123.8 727.821 109.25C726.021 91.25 715.521 82.85 703.371 82.85C683.871 82.85 678.621 103.25 676.821 120.05V46.85H675.621L661.521 50C661.521 50 661.521 50.9 661.521 51.2C664.521 51.65 664.971 53.15 664.971 58.4V145.1C664.971 150.35 663.921 152.6 661.521 153.95C661.521 154.25 661.521 155 661.521 155H680.121C680.121 155 680.121 154.25 680.121 153.95C677.871 152.6 676.821 150.35 676.821 145.1V132.8C676.821 120.2 679.821 88.85 696.621 85.55C709.521 83 715.071 95.75 716.271 107C717.021 114.8 719.121 140.15 719.721 145.1C720.171 150.05 719.421 152.6 717.171 153.95C717.171 154.25 717.171 155 717.171 155H735.621C735.621 155 735.621 154.25 735.621 153.95C733.371 152.6 732.021 150.5 731.421 145.1ZM814.478 153.95C812.078 152.6 811.028 150.35 811.028 145.1V82.85H809.978L795.878 86.15C795.878 86.15 795.878 86.9 795.878 87.2C798.728 87.65 799.178 89.15 799.178 94.4V105.95C799.178 118.55 796.178 149.9 779.378 153.2C766.478 155.6 759.728 144.8 759.728 131.75V82.85H758.678L744.578 86.15C744.578 86.15 744.578 86.9 744.578 87.2C747.428 87.65 747.878 89.15 747.878 94.4V129.5C747.878 147.2 758.828 155.9 772.628 155.9C792.128 155.9 797.228 135.5 799.178 118.55V155H814.478C814.478 155 814.478 154.25 814.478 153.95ZM894.898 145.1C894.298 139.55 892.948 123.8 891.298 109.25C889.498 91.25 878.998 82.85 866.848 82.85C847.348 82.85 842.098 103.25 840.298 120.05V46.85H839.098L824.998 50C824.998 50 824.998 50.9 824.998 51.2C827.998 51.65 828.448 53.15 828.448 58.4V145.1C828.448 150.35 827.398 152.6 824.998 153.95C824.998 154.25 824.998 155 824.998 155H843.598C843.598 155 843.598 154.25 843.598 153.95C841.348 152.6 840.298 150.35 840.298 145.1V132.8C840.298 120.2 843.298 88.85 860.098 85.55C872.998 83 878.548 95.75 879.748 107C880.498 114.8 882.598 140.15 883.198 145.1C883.648 150.05 882.898 152.6 880.648 153.95C880.648 154.25 880.648 155 880.648 155H899.098C899.098 155 899.098 154.25 899.098 153.95C896.848 152.6 895.498 150.5 894.898 145.1ZM964.49 106.55H967.79C967.79 106.55 977.09 106.55 978.44 106.55C976.34 88.4 958.79 82.25 946.04 82.85C929.54 83.75 905.99 95 906.74 120.95C907.34 145.7 927.29 155.9 947.99 155.9C969.29 155.9 978.74 141.8 979.64 131.15C980.84 117.5 973.04 108.8 964.49 106.55ZM939.29 84.65C953.99 81.8 965.69 92.3 967.64 105.35H919.79C922.49 95.15 929.09 86.6 939.29 84.65ZM978.29 131.45C976.79 143.15 965.54 152 952.64 152.6C937.34 153.2 926.09 146.3 920.54 130.55C917.99 123.35 917.54 114.5 919.49 106.55H958.34C969.74 106.55 980.09 115.85 978.29 131.45Z" fill="#2E2828"/>
</g>
<g opacity="0.8">
<path d="M2855.45 40.2C2855.45 39.9 2855.45 39 2855.45 39H2841.5L2803.25 105.45L2760.2 39H2746.7L2753.45 48.3V126C2753.45 132.45 2748.95 140.4 2744 142.95C2744 143.25 2744 144 2744 144H2764.1C2764.1 144 2764.1 143.25 2764.1 142.95C2759.15 140.4 2754.65 132.45 2754.65 126V49.8L2797.55 115.2H2798.9L2840.3 43.5V134.1C2840.3 139.35 2839.1 141.6 2836.85 142.95C2836.85 143.25 2836.85 144 2836.85 144H2855.45C2855.45 144 2855.45 143.25 2855.45 142.95C2853.05 141.6 2852 139.35 2852 134.1V49.05C2852 43.65 2853.05 41.55 2855.45 40.2ZM2934.39 142.95C2932.14 141.6 2931.09 139.35 2931.09 134.1V96.9C2931.09 78.45 2917.89 71.85 2905.44 71.85C2885.34 71.85 2880.69 90.45 2884.59 99.15C2873.04 103.95 2863.89 112.95 2866.44 128.25C2868.39 139.05 2880.39 144.9 2892.69 144.9C2907.09 144.9 2915.34 136.2 2919.24 123V144H2934.39C2934.39 144 2934.39 143.25 2934.39 142.95ZM2904.09 73.35C2914.74 73.35 2919.24 83.4 2919.24 94.8V95.85C2916.69 95.1 2913.69 94.5 2910.24 94.5C2903.19 94.5 2894.19 95.55 2886.09 98.55C2881.59 86.4 2890.59 73.35 2904.09 73.35ZM2896.29 142.95C2888.79 143.4 2880.09 138.45 2878.14 130.35C2871.69 103.95 2893.89 95.85 2910.24 95.85C2914.89 95.85 2918.49 96.9 2919.24 97.2V120.3C2916.24 131.1 2909.34 142.2 2896.29 142.95ZM3002.43 85.35C3013.83 81.9 3030.78 77.55 3029.88 60.9C3029.13 48.45 3013.23 37.35 2992.98 37.35C2971.68 37.35 2948.13 52.05 2948.13 80.4V134.1C2948.13 139.35 2947.08 141.6 2944.83 142.95C2944.83 143.25 2944.83 144 2944.83 144H2963.43C2963.43 144 2963.43 143.25 2963.43 142.95C2961.03 141.6 2959.98 139.35 2959.98 134.1V69.3C2959.98 46.95 2977.68 39 2992.23 39C3006.18 39 3016.98 48.6 3018.48 60C3020.28 73.35 3011.73 81.45 2993.73 87.9C2993.73 87.9 2994.03 88.35 2994.18 88.95C3018.48 80.1 3033.33 96.3 3031.23 117.9C3030.03 130.95 3022.83 143.85 3004.83 143.25C2992.23 142.95 2978.88 131.25 2976.03 111.15H2974.98L2968.83 129.9C2977.38 138.3 2991.33 144.9 3005.58 144.9C3027.18 144.9 3040.98 130.2 3042.93 117.15C3046.68 93.9 3024.93 80.1 3002.43 85.35ZM3084.26 71.85C3067.91 71.85 3062.51 80.7 3061.31 90.45C3057.71 119.85 3110.06 111.15 3107.21 130.8C3106.31 137.25 3098.21 142.8 3087.41 142.8C3074.06 142.8 3062.81 130.35 3057.71 119.85H3056.96L3053.81 134.85C3061.91 140.85 3070.91 144.9 3083.06 144.9C3099.86 144.9 3110.96 136.05 3111.86 124.2C3113.51 99.75 3062.96 105.15 3065.06 85.05C3065.81 78.9 3071.51 73.2 3081.71 73.2C3090.26 73.2 3099.86 82.5 3104.51 95.25H3105.26L3108.26 81.45C3102.26 76.8 3092.06 71.85 3084.26 71.85ZM3134.85 119.55C3128.55 101.55 3135.3 77.85 3153.75 73.65C3167.85 70.35 3182.1 83.25 3185.7 92.25H3186.6L3188.85 79.8C3181.05 75.75 3169.05 71.85 3160.5 71.85C3144 71.85 3120.45 84 3121.2 109.95C3121.8 134.7 3142.5 145.95 3163.2 144.9C3181.05 143.85 3189.9 132.15 3194.55 123.75L3193.65 123.3C3191.25 127.5 3183.15 140.7 3168.3 142.2C3153.15 143.7 3140.4 135.3 3134.85 119.55ZM3273.42 134.1C3272.82 128.55 3271.47 112.8 3269.82 98.25C3268.02 80.25 3257.52 71.85 3245.37 71.85C3225.87 71.85 3220.62 92.25 3218.82 109.05V35.85H3217.62L3203.52 39C3203.52 39 3203.52 39.9 3203.52 40.2C3206.52 40.65 3206.97 42.15 3206.97 47.4V134.1C3206.97 139.35 3205.92 141.6 3203.52 142.95C3203.52 143.25 3203.52 144 3203.52 144H3222.12C3222.12 144 3222.12 143.25 3222.12 142.95C3219.87 141.6 3218.82 139.35 3218.82 134.1V121.8C3218.82 109.2 3221.82 77.85 3238.62 74.55C3251.52 72 3257.07 84.75 3258.27 96C3259.02 103.8 3261.12 129.15 3261.72 134.1C3262.17 139.05 3261.42 141.6 3259.17 142.95C3259.17 143.25 3259.17 144 3259.17 144H3277.62C3277.62 144 3277.62 143.25 3277.62 142.95C3275.37 141.6 3274.02 139.5 3273.42 134.1ZM3356.48 142.95C3354.08 141.6 3353.03 139.35 3353.03 134.1V71.85H3351.98L3337.88 75.15C3337.88 75.15 3337.88 75.9 3337.88 76.2C3340.73 76.65 3341.18 78.15 3341.18 83.4V94.95C3341.18 107.55 3338.18 138.9 3321.38 142.2C3308.48 144.6 3301.73 133.8 3301.73 120.75V71.85H3300.68L3286.58 75.15C3286.58 75.15 3286.58 75.9 3286.58 76.2C3289.43 76.65 3289.88 78.15 3289.88 83.4V118.5C3289.88 136.2 3300.83 144.9 3314.63 144.9C3334.13 144.9 3339.23 124.5 3341.18 107.55V144H3356.48C3356.48 144 3356.48 143.25 3356.48 142.95ZM3436.9 134.1C3436.3 128.55 3434.95 112.8 3433.3 98.25C3431.5 80.25 3421 71.85 3408.85 71.85C3389.35 71.85 3384.1 92.25 3382.3 109.05V35.85H3381.1L3367 39C3367 39 3367 39.9 3367 40.2C3370 40.65 3370.45 42.15 3370.45 47.4V134.1C3370.45 139.35 3369.4 141.6 3367 142.95C3367 143.25 3367 144 3367 144H3385.6C3385.6 144 3385.6 143.25 3385.6 142.95C3383.35 141.6 3382.3 139.35 3382.3 134.1V121.8C3382.3 109.2 3385.3 77.85 3402.1 74.55C3415 72 3420.55 84.75 3421.75 96C3422.5 103.8 3424.6 129.15 3425.2 134.1C3425.65 139.05 3424.9 141.6 3422.65 142.95C3422.65 143.25 3422.65 144 3422.65 144H3441.1C3441.1 144 3441.1 143.25 3441.1 142.95C3438.85 141.6 3437.5 139.5 3436.9 134.1ZM3506.49 95.55H3509.79C3509.79 95.55 3519.09 95.55 3520.44 95.55C3518.34 77.4 3500.79 71.25 3488.04 71.85C3471.54 72.75 3447.99 84 3448.74 109.95C3449.34 134.7 3469.29 144.9 3489.99 144.9C3511.29 144.9 3520.74 130.8 3521.64 120.15C3522.84 106.5 3515.04 97.8 3506.49 95.55ZM3481.29 73.65C3495.99 70.8 3507.69 81.3 3509.64 94.35H3461.79C3464.49 84.15 3471.09 75.6 3481.29 73.65ZM3520.29 120.45C3518.79 132.15 3507.54 141 3494.64 141.6C3479.34 142.2 3468.09 135.3 3462.54 119.55C3459.99 112.35 3459.54 103.5 3461.49 95.55H3500.34C3511.74 95.55 3522.09 104.85 3520.29 120.45Z" fill="#E8D6C5"/>
<path d="M1774.45 188.2C1774.45 187.9 1774.45 187 1774.45 187H1760.5L1722.25 253.45L1679.2 187H1665.7L1672.45 196.3V274C1672.45 280.45 1667.95 288.4 1663 290.95C1663 291.25 1663 292 1663 292H1683.1C1683.1 292 1683.1 291.25 1683.1 290.95C1678.15 288.4 1673.65 280.45 1673.65 274V197.8L1716.55 263.2H1717.9L1759.3 191.5V282.1C1759.3 287.35 1758.1 289.6 1755.85 290.95C1755.85 291.25 1755.85 292 1755.85 292H1774.45C1774.45 292 1774.45 291.25 1774.45 290.95C1772.05 289.6 1771 287.35 1771 282.1V197.05C1771 191.65 1772.05 189.55 1774.45 188.2ZM1853.39 290.95C1851.14 289.6 1850.09 287.35 1850.09 282.1V244.9C1850.09 226.45 1836.89 219.85 1824.44 219.85C1804.34 219.85 1799.69 238.45 1803.59 247.15C1792.04 251.95 1782.89 260.95 1785.44 276.25C1787.39 287.05 1799.39 292.9 1811.69 292.9C1826.09 292.9 1834.34 284.2 1838.24 271V292H1853.39C1853.39 292 1853.39 291.25 1853.39 290.95ZM1823.09 221.35C1833.74 221.35 1838.24 231.4 1838.24 242.8V243.85C1835.69 243.1 1832.69 242.5 1829.24 242.5C1822.19 242.5 1813.19 243.55 1805.09 246.55C1800.59 234.4 1809.59 221.35 1823.09 221.35ZM1815.29 290.95C1807.79 291.4 1799.09 286.45 1797.14 278.35C1790.69 251.95 1812.89 243.85 1829.24 243.85C1833.89 243.85 1837.49 244.9 1838.24 245.2V268.3C1835.24 279.1 1828.34 290.2 1815.29 290.95ZM1921.43 233.35C1932.83 229.9 1949.78 225.55 1948.88 208.9C1948.13 196.45 1932.23 185.35 1911.98 185.35C1890.68 185.35 1867.13 200.05 1867.13 228.4V282.1C1867.13 287.35 1866.08 289.6 1863.83 290.95C1863.83 291.25 1863.83 292 1863.83 292H1882.43C1882.43 292 1882.43 291.25 1882.43 290.95C1880.03 289.6 1878.98 287.35 1878.98 282.1V217.3C1878.98 194.95 1896.68 187 1911.23 187C1925.18 187 1935.98 196.6 1937.48 208C1939.28 221.35 1930.73 229.45 1912.73 235.9C1912.73 235.9 1913.03 236.35 1913.18 236.95C1937.48 228.1 1952.33 244.3 1950.23 265.9C1949.03 278.95 1941.83 291.85 1923.83 291.25C1911.23 290.95 1897.88 279.25 1895.03 259.15H1893.98L1887.83 277.9C1896.38 286.3 1910.33 292.9 1924.58 292.9C1946.18 292.9 1959.98 278.2 1961.93 265.15C1965.68 241.9 1943.93 228.1 1921.43 233.35ZM2003.26 219.85C1986.91 219.85 1981.51 228.7 1980.31 238.45C1976.71 267.85 2029.06 259.15 2026.21 278.8C2025.31 285.25 2017.21 290.8 2006.41 290.8C1993.06 290.8 1981.81 278.35 1976.71 267.85H1975.96L1972.81 282.85C1980.91 288.85 1989.91 292.9 2002.06 292.9C2018.86 292.9 2029.96 284.05 2030.86 272.2C2032.51 247.75 1981.96 253.15 1984.06 233.05C1984.81 226.9 1990.51 221.2 2000.71 221.2C2009.26 221.2 2018.86 230.5 2023.51 243.25H2024.26L2027.26 229.45C2021.26 224.8 2011.06 219.85 2003.26 219.85ZM2053.85 267.55C2047.55 249.55 2054.3 225.85 2072.75 221.65C2086.85 218.35 2101.1 231.25 2104.7 240.25H2105.6L2107.85 227.8C2100.05 223.75 2088.05 219.85 2079.5 219.85C2063 219.85 2039.45 232 2040.2 257.95C2040.8 282.7 2061.5 293.95 2082.2 292.9C2100.05 291.85 2108.9 280.15 2113.55 271.75L2112.65 271.3C2110.25 275.5 2102.15 288.7 2087.3 290.2C2072.15 291.7 2059.4 283.3 2053.85 267.55ZM2192.42 282.1C2191.82 276.55 2190.47 260.8 2188.82 246.25C2187.02 228.25 2176.52 219.85 2164.37 219.85C2144.87 219.85 2139.62 240.25 2137.82 257.05V183.85H2136.62L2122.52 187C2122.52 187 2122.52 187.9 2122.52 188.2C2125.52 188.65 2125.97 190.15 2125.97 195.4V282.1C2125.97 287.35 2124.92 289.6 2122.52 290.95C2122.52 291.25 2122.52 292 2122.52 292H2141.12C2141.12 292 2141.12 291.25 2141.12 290.95C2138.87 289.6 2137.82 287.35 2137.82 282.1V269.8C2137.82 257.2 2140.82 225.85 2157.62 222.55C2170.52 220 2176.07 232.75 2177.27 244C2178.02 251.8 2180.12 277.15 2180.72 282.1C2181.17 287.05 2180.42 289.6 2178.17 290.95C2178.17 291.25 2178.17 292 2178.17 292H2196.62C2196.62 292 2196.62 291.25 2196.62 290.95C2194.37 289.6 2193.02 287.5 2192.42 282.1ZM2275.48 290.95C2273.08 289.6 2272.03 287.35 2272.03 282.1V219.85H2270.98L2256.88 223.15C2256.88 223.15 2256.88 223.9 2256.88 224.2C2259.73 224.65 2260.18 226.15 2260.18 231.4V242.95C2260.18 255.55 2257.18 286.9 2240.38 290.2C2227.48 292.6 2220.73 281.8 2220.73 268.75V219.85H2219.68L2205.58 223.15C2205.58 223.15 2205.58 223.9 2205.58 224.2C2208.43 224.65 2208.88 226.15 2208.88 231.4V266.5C2208.88 284.2 2219.83 292.9 2233.63 292.9C2253.13 292.9 2258.23 272.5 2260.18 255.55V292H2275.48C2275.48 292 2275.48 291.25 2275.48 290.95ZM2355.9 282.1C2355.3 276.55 2353.95 260.8 2352.3 246.25C2350.5 228.25 2340 219.85 2327.85 219.85C2308.35 219.85 2303.1 240.25 2301.3 257.05V183.85H2300.1L2286 187C2286 187 2286 187.9 2286 188.2C2289 188.65 2289.45 190.15 2289.45 195.4V282.1C2289.45 287.35 2288.4 289.6 2286 290.95C2286 291.25 2286 292 2286 292H2304.6C2304.6 292 2304.6 291.25 2304.6 290.95C2302.35 289.6 2301.3 287.35 2301.3 282.1V269.8C2301.3 257.2 2304.3 225.85 2321.1 222.55C2334 220 2339.55 232.75 2340.75 244C2341.5 251.8 2343.6 277.15 2344.2 282.1C2344.65 287.05 2343.9 289.6 2341.65 290.95C2341.65 291.25 2341.65 292 2341.65 292H2360.1C2360.1 292 2360.1 291.25 2360.1 290.95C2357.85 289.6 2356.5 287.5 2355.9 282.1ZM2425.49 243.55H2428.79C2428.79 243.55 2438.09 243.55 2439.44 243.55C2437.34 225.4 2419.79 219.25 2407.04 219.85C2390.54 220.75 2366.99 232 2367.74 257.95C2368.34 282.7 2388.29 292.9 2408.99 292.9C2430.29 292.9 2439.74 278.8 2440.64 268.15C2441.84 254.5 2434.04 245.8 2425.49 243.55ZM2400.29 221.65C2414.99 218.8 2426.69 229.3 2428.64 242.35H2380.79C2383.49 232.15 2390.09 223.6 2400.29 221.65ZM2439.29 268.45C2437.79 280.15 2426.54 289 2413.64 289.6C2398.34 290.2 2387.09 283.3 2381.54 267.55C2378.99 260.35 2378.54 251.5 2380.49 243.55H2419.34C2430.74 243.55 2441.09 252.85 2439.29 268.45Z" fill="#E8D6C5"/>
<path d="M2599.45 188.2C2599.45 187.9 2599.45 187 2599.45 187H2585.5L2547.25 253.45L2504.2 187H2490.7L2497.45 196.3V274C2497.45 280.45 2492.95 288.4 2488 290.95C2488 291.25 2488 292 2488 292H2508.1C2508.1 292 2508.1 291.25 2508.1 290.95C2503.15 288.4 2498.65 280.45 2498.65 274V197.8L2541.55 263.2H2542.9L2584.3 191.5V282.1C2584.3 287.35 2583.1 289.6 2580.85 290.95C2580.85 291.25 2580.85 292 2580.85 292H2599.45C2599.45 292 2599.45 291.25 2599.45 290.95C2597.05 289.6 2596 287.35 2596 282.1V197.05C2596 191.65 2597.05 189.55 2599.45 188.2ZM2678.39 290.95C2676.14 289.6 2675.09 287.35 2675.09 282.1V244.9C2675.09 226.45 2661.89 219.85 2649.44 219.85C2629.34 219.85 2624.69 238.45 2628.59 247.15C2617.04 251.95 2607.89 260.95 2610.44 276.25C2612.39 287.05 2624.39 292.9 2636.69 292.9C2651.09 292.9 2659.34 284.2 2663.24 271V292H2678.39C2678.39 292 2678.39 291.25 2678.39 290.95ZM2648.09 221.35C2658.74 221.35 2663.24 231.4 2663.24 242.8V243.85C2660.69 243.1 2657.69 242.5 2654.24 242.5C2647.19 242.5 2638.19 243.55 2630.09 246.55C2625.59 234.4 2634.59 221.35 2648.09 221.35ZM2640.29 290.95C2632.79 291.4 2624.09 286.45 2622.14 278.35C2615.69 251.95 2637.89 243.85 2654.24 243.85C2658.89 243.85 2662.49 244.9 2663.24 245.2V268.3C2660.24 279.1 2653.34 290.2 2640.29 290.95ZM2746.43 233.35C2757.83 229.9 2774.78 225.55 2773.88 208.9C2773.13 196.45 2757.23 185.35 2736.98 185.35C2715.68 185.35 2692.13 200.05 2692.13 228.4V282.1C2692.13 287.35 2691.08 289.6 2688.83 290.95C2688.83 291.25 2688.83 292 2688.83 292H2707.43C2707.43 292 2707.43 291.25 2707.43 290.95C2705.03 289.6 2703.98 287.35 2703.98 282.1V217.3C2703.98 194.95 2721.68 187 2736.23 187C2750.18 187 2760.98 196.6 2762.48 208C2764.28 221.35 2755.73 229.45 2737.73 235.9C2737.73 235.9 2738.03 236.35 2738.18 236.95C2762.48 228.1 2777.33 244.3 2775.23 265.9C2774.03 278.95 2766.83 291.85 2748.83 291.25C2736.23 290.95 2722.88 279.25 2720.03 259.15H2718.98L2712.83 277.9C2721.38 286.3 2735.33 292.9 2749.58 292.9C2771.18 292.9 2784.98 278.2 2786.93 265.15C2790.68 241.9 2768.93 228.1 2746.43 233.35ZM2828.26 219.85C2811.91 219.85 2806.51 228.7 2805.31 238.45C2801.71 267.85 2854.06 259.15 2851.21 278.8C2850.31 285.25 2842.21 290.8 2831.41 290.8C2818.06 290.8 2806.81 278.35 2801.71 267.85H2800.96L2797.81 282.85C2805.91 288.85 2814.91 292.9 2827.06 292.9C2843.86 292.9 2854.96 284.05 2855.86 272.2C2857.51 247.75 2806.96 253.15 2809.06 233.05C2809.81 226.9 2815.51 221.2 2825.71 221.2C2834.26 221.2 2843.86 230.5 2848.51 243.25H2849.26L2852.26 229.45C2846.26 224.8 2836.06 219.85 2828.26 219.85ZM2878.85 267.55C2872.55 249.55 2879.3 225.85 2897.75 221.65C2911.85 218.35 2926.1 231.25 2929.7 240.25H2930.6L2932.85 227.8C2925.05 223.75 2913.05 219.85 2904.5 219.85C2888 219.85 2864.45 232 2865.2 257.95C2865.8 282.7 2886.5 293.95 2907.2 292.9C2925.05 291.85 2933.9 280.15 2938.55 271.75L2937.65 271.3C2935.25 275.5 2927.15 288.7 2912.3 290.2C2897.15 291.7 2884.4 283.3 2878.85 267.55ZM3017.42 282.1C3016.82 276.55 3015.47 260.8 3013.82 246.25C3012.02 228.25 3001.52 219.85 2989.37 219.85C2969.87 219.85 2964.62 240.25 2962.82 257.05V183.85H2961.62L2947.52 187C2947.52 187 2947.52 187.9 2947.52 188.2C2950.52 188.65 2950.97 190.15 2950.97 195.4V282.1C2950.97 287.35 2949.92 289.6 2947.52 290.95C2947.52 291.25 2947.52 292 2947.52 292H2966.12C2966.12 292 2966.12 291.25 2966.12 290.95C2963.87 289.6 2962.82 287.35 2962.82 282.1V269.8C2962.82 257.2 2965.82 225.85 2982.62 222.55C2995.52 220 3001.07 232.75 3002.27 244C3003.02 251.8 3005.12 277.15 3005.72 282.1C3006.17 287.05 3005.42 289.6 3003.17 290.95C3003.17 291.25 3003.17 292 3003.17 292H3021.62C3021.62 292 3021.62 291.25 3021.62 290.95C3019.37 289.6 3018.02 287.5 3017.42 282.1ZM3100.48 290.95C3098.08 289.6 3097.03 287.35 3097.03 282.1V219.85H3095.98L3081.88 223.15C3081.88 223.15 3081.88 223.9 3081.88 224.2C3084.73 224.65 3085.18 226.15 3085.18 231.4V242.95C3085.18 255.55 3082.18 286.9 3065.38 290.2C3052.48 292.6 3045.73 281.8 3045.73 268.75V219.85H3044.68L3030.58 223.15C3030.58 223.15 3030.58 223.9 3030.58 224.2C3033.43 224.65 3033.88 226.15 3033.88 231.4V266.5C3033.88 284.2 3044.83 292.9 3058.63 292.9C3078.13 292.9 3083.23 272.5 3085.18 255.55V292H3100.48C3100.48 292 3100.48 291.25 3100.48 290.95ZM3180.9 282.1C3180.3 276.55 3178.95 260.8 3177.3 246.25C3175.5 228.25 3165 219.85 3152.85 219.85C3133.35 219.85 3128.1 240.25 3126.3 257.05V183.85H3125.1L3111 187C3111 187 3111 187.9 3111 188.2C3114 188.65 3114.45 190.15 3114.45 195.4V282.1C3114.45 287.35 3113.4 289.6 3111 290.95C3111 291.25 3111 292 3111 292H3129.6C3129.6 292 3129.6 291.25 3129.6 290.95C3127.35 289.6 3126.3 287.35 3126.3 282.1V269.8C3126.3 257.2 3129.3 225.85 3146.1 222.55C3159 220 3164.55 232.75 3165.75 244C3166.5 251.8 3168.6 277.15 3169.2 282.1C3169.65 287.05 3168.9 289.6 3166.65 290.95C3166.65 291.25 3166.65 292 3166.65 292H3185.1C3185.1 292 3185.1 291.25 3185.1 290.95C3182.85 289.6 3181.5 287.5 3180.9 282.1ZM3250.49 243.55H3253.79C3253.79 243.55 3263.09 243.55 3264.44 243.55C3262.34 225.4 3244.79 219.25 3232.04 219.85C3215.54 220.75 3191.99 232 3192.74 257.95C3193.34 282.7 3213.29 292.9 3233.99 292.9C3255.29 292.9 3264.74 278.8 3265.64 268.15C3266.84 254.5 3259.04 245.8 3250.49 243.55ZM3225.29 221.65C3239.99 218.8 3251.69 229.3 3253.64 242.35H3205.79C3208.49 232.15 3215.09 223.6 3225.29 221.65ZM3264.29 268.45C3262.79 280.15 3251.54 289 3238.64 289.6C3223.34 290.2 3212.09 283.3 3206.54 267.55C3203.99 260.35 3203.54 251.5 3205.49 243.55H3244.34C3255.74 243.55 3266.09 252.85 3264.29 268.45Z" fill="#2E2828"/>
<path d="M2002.45 40.2C2002.45 39.9 2002.45 39 2002.45 39H1988.5L1950.25 105.45L1907.2 39H1893.7L1900.45 48.3V126C1900.45 132.45 1895.95 140.4 1891 142.95C1891 143.25 1891 144 1891 144H1911.1C1911.1 144 1911.1 143.25 1911.1 142.95C1906.15 140.4 1901.65 132.45 1901.65 126V49.8L1944.55 115.2H1945.9L1987.3 43.5V134.1C1987.3 139.35 1986.1 141.6 1983.85 142.95C1983.85 143.25 1983.85 144 1983.85 144H2002.45C2002.45 144 2002.45 143.25 2002.45 142.95C2000.05 141.6 1999 139.35 1999 134.1V49.05C1999 43.65 2000.05 41.55 2002.45 40.2ZM2081.39 142.95C2079.14 141.6 2078.09 139.35 2078.09 134.1V96.9C2078.09 78.45 2064.89 71.85 2052.44 71.85C2032.34 71.85 2027.69 90.45 2031.59 99.15C2020.04 103.95 2010.89 112.95 2013.44 128.25C2015.39 139.05 2027.39 144.9 2039.69 144.9C2054.09 144.9 2062.34 136.2 2066.24 123V144H2081.39C2081.39 144 2081.39 143.25 2081.39 142.95ZM2051.09 73.35C2061.74 73.35 2066.24 83.4 2066.24 94.8V95.85C2063.69 95.1 2060.69 94.5 2057.24 94.5C2050.19 94.5 2041.19 95.55 2033.09 98.55C2028.59 86.4 2037.59 73.35 2051.09 73.35ZM2043.29 142.95C2035.79 143.4 2027.09 138.45 2025.14 130.35C2018.69 103.95 2040.89 95.85 2057.24 95.85C2061.89 95.85 2065.49 96.9 2066.24 97.2V120.3C2063.24 131.1 2056.34 142.2 2043.29 142.95ZM2149.43 85.35C2160.83 81.9 2177.78 77.55 2176.88 60.9C2176.13 48.45 2160.23 37.35 2139.98 37.35C2118.68 37.35 2095.13 52.05 2095.13 80.4V134.1C2095.13 139.35 2094.08 141.6 2091.83 142.95C2091.83 143.25 2091.83 144 2091.83 144H2110.43C2110.43 144 2110.43 143.25 2110.43 142.95C2108.03 141.6 2106.98 139.35 2106.98 134.1V69.3C2106.98 46.95 2124.68 39 2139.23 39C2153.18 39 2163.98 48.6 2165.48 60C2167.28 73.35 2158.73 81.45 2140.73 87.9C2140.73 87.9 2141.03 88.35 2141.18 88.95C2165.48 80.1 2180.33 96.3 2178.23 117.9C2177.03 130.95 2169.83 143.85 2151.83 143.25C2139.23 142.95 2125.88 131.25 2123.03 111.15H2121.98L2115.83 129.9C2124.38 138.3 2138.33 144.9 2152.58 144.9C2174.18 144.9 2187.98 130.2 2189.93 117.15C2193.68 93.9 2171.93 80.1 2149.43 85.35ZM2231.26 71.85C2214.91 71.85 2209.51 80.7 2208.31 90.45C2204.71 119.85 2257.06 111.15 2254.21 130.8C2253.31 137.25 2245.21 142.8 2234.41 142.8C2221.06 142.8 2209.81 130.35 2204.71 119.85H2203.96L2200.81 134.85C2208.91 140.85 2217.91 144.9 2230.06 144.9C2246.86 144.9 2257.96 136.05 2258.86 124.2C2260.51 99.75 2209.96 105.15 2212.06 85.05C2212.81 78.9 2218.51 73.2 2228.71 73.2C2237.26 73.2 2246.86 82.5 2251.51 95.25H2252.26L2255.26 81.45C2249.26 76.8 2239.06 71.85 2231.26 71.85ZM2281.85 119.55C2275.55 101.55 2282.3 77.85 2300.75 73.65C2314.85 70.35 2329.1 83.25 2332.7 92.25H2333.6L2335.85 79.8C2328.05 75.75 2316.05 71.85 2307.5 71.85C2291 71.85 2267.45 84 2268.2 109.95C2268.8 134.7 2289.5 145.95 2310.2 144.9C2328.05 143.85 2336.9 132.15 2341.55 123.75L2340.65 123.3C2338.25 127.5 2330.15 140.7 2315.3 142.2C2300.15 143.7 2287.4 135.3 2281.85 119.55ZM2420.42 134.1C2419.82 128.55 2418.47 112.8 2416.82 98.25C2415.02 80.25 2404.52 71.85 2392.37 71.85C2372.87 71.85 2367.62 92.25 2365.82 109.05V35.85H2364.62L2350.52 39C2350.52 39 2350.52 39.9 2350.52 40.2C2353.52 40.65 2353.97 42.15 2353.97 47.4V134.1C2353.97 139.35 2352.92 141.6 2350.52 142.95C2350.52 143.25 2350.52 144 2350.52 144H2369.12C2369.12 144 2369.12 143.25 2369.12 142.95C2366.87 141.6 2365.82 139.35 2365.82 134.1V121.8C2365.82 109.2 2368.82 77.85 2385.62 74.55C2398.52 72 2404.07 84.75 2405.27 96C2406.02 103.8 2408.12 129.15 2408.72 134.1C2409.17 139.05 2408.42 141.6 2406.17 142.95C2406.17 143.25 2406.17 144 2406.17 144H2424.62C2424.62 144 2424.62 143.25 2424.62 142.95C2422.37 141.6 2421.02 139.5 2420.42 134.1ZM2503.48 142.95C2501.08 141.6 2500.03 139.35 2500.03 134.1V71.85H2498.98L2484.88 75.15C2484.88 75.15 2484.88 75.9 2484.88 76.2C2487.73 76.65 2488.18 78.15 2488.18 83.4V94.95C2488.18 107.55 2485.18 138.9 2468.38 142.2C2455.48 144.6 2448.73 133.8 2448.73 120.75V71.85H2447.68L2433.58 75.15C2433.58 75.15 2433.58 75.9 2433.58 76.2C2436.43 76.65 2436.88 78.15 2436.88 83.4V118.5C2436.88 136.2 2447.83 144.9 2461.63 144.9C2481.13 144.9 2486.23 124.5 2488.18 107.55V144H2503.48C2503.48 144 2503.48 143.25 2503.48 142.95ZM2583.9 134.1C2583.3 128.55 2581.95 112.8 2580.3 98.25C2578.5 80.25 2568 71.85 2555.85 71.85C2536.35 71.85 2531.1 92.25 2529.3 109.05V35.85H2528.1L2514 39C2514 39 2514 39.9 2514 40.2C2517 40.65 2517.45 42.15 2517.45 47.4V134.1C2517.45 139.35 2516.4 141.6 2514 142.95C2514 143.25 2514 144 2514 144H2532.6C2532.6 144 2532.6 143.25 2532.6 142.95C2530.35 141.6 2529.3 139.35 2529.3 134.1V121.8C2529.3 109.2 2532.3 77.85 2549.1 74.55C2562 72 2567.55 84.75 2568.75 96C2569.5 103.8 2571.6 129.15 2572.2 134.1C2572.65 139.05 2571.9 141.6 2569.65 142.95C2569.65 143.25 2569.65 144 2569.65 144H2588.1C2588.1 144 2588.1 143.25 2588.1 142.95C2585.85 141.6 2584.5 139.5 2583.9 134.1ZM2653.49 95.55H2656.79C2656.79 95.55 2666.09 95.55 2667.44 95.55C2665.34 77.4 2647.79 71.25 2635.04 71.85C2618.54 72.75 2594.99 84 2595.74 109.95C2596.34 134.7 2616.29 144.9 2636.99 144.9C2658.29 144.9 2667.74 130.8 2668.64 120.15C2669.84 106.5 2662.04 97.8 2653.49 95.55ZM2628.29 73.65C2642.99 70.8 2654.69 81.3 2656.64 94.35H2608.79C2611.49 84.15 2618.09 75.6 2628.29 73.65ZM2667.29 120.45C2665.79 132.15 2654.54 141 2641.64 141.6C2626.34 142.2 2615.09 135.3 2609.54 119.55C2606.99 112.35 2606.54 103.5 2608.49 95.55H2647.34C2658.74 95.55 2669.09 104.85 2667.29 120.45Z" fill="#2E2828"/>
</g>
<g opacity="0.8">
<path d="M4520.45 40.2C4520.45 39.9 4520.45 39 4520.45 39H4506.5L4468.25 105.45L4425.2 39H4411.7L4418.45 48.3V126C4418.45 132.45 4413.95 140.4 4409 142.95C4409 143.25 4409 144 4409 144H4429.1C4429.1 144 4429.1 143.25 4429.1 142.95C4424.15 140.4 4419.65 132.45 4419.65 126V49.8L4462.55 115.2H4463.9L4505.3 43.5V134.1C4505.3 139.35 4504.1 141.6 4501.85 142.95C4501.85 143.25 4501.85 144 4501.85 144H4520.45C4520.45 144 4520.45 143.25 4520.45 142.95C4518.05 141.6 4517 139.35 4517 134.1V49.05C4517 43.65 4518.05 41.55 4520.45 40.2ZM4599.39 142.95C4597.14 141.6 4596.09 139.35 4596.09 134.1V96.9C4596.09 78.45 4582.89 71.85 4570.44 71.85C4550.34 71.85 4545.69 90.45 4549.59 99.15C4538.04 103.95 4528.89 112.95 4531.44 128.25C4533.39 139.05 4545.39 144.9 4557.69 144.9C4572.09 144.9 4580.34 136.2 4584.24 123V144H4599.39C4599.39 144 4599.39 143.25 4599.39 142.95ZM4569.09 73.35C4579.74 73.35 4584.24 83.4 4584.24 94.8V95.85C4581.69 95.1 4578.69 94.5 4575.24 94.5C4568.19 94.5 4559.19 95.55 4551.09 98.55C4546.59 86.4 4555.59 73.35 4569.09 73.35ZM4561.29 142.95C4553.79 143.4 4545.09 138.45 4543.14 130.35C4536.69 103.95 4558.89 95.85 4575.24 95.85C4579.89 95.85 4583.49 96.9 4584.24 97.2V120.3C4581.24 131.1 4574.34 142.2 4561.29 142.95ZM4667.43 85.35C4678.83 81.9 4695.78 77.55 4694.88 60.9C4694.13 48.45 4678.23 37.35 4657.98 37.35C4636.68 37.35 4613.13 52.05 4613.13 80.4V134.1C4613.13 139.35 4612.08 141.6 4609.83 142.95C4609.83 143.25 4609.83 144 4609.83 144H4628.43C4628.43 144 4628.43 143.25 4628.43 142.95C4626.03 141.6 4624.98 139.35 4624.98 134.1V69.3C4624.98 46.95 4642.68 39 4657.23 39C4671.18 39 4681.98 48.6 4683.48 60C4685.28 73.35 4676.73 81.45 4658.73 87.9C4658.73 87.9 4659.03 88.35 4659.18 88.95C4683.48 80.1 4698.33 96.3 4696.23 117.9C4695.03 130.95 4687.83 143.85 4669.83 143.25C4657.23 142.95 4643.88 131.25 4641.03 111.15H4639.98L4633.83 129.9C4642.38 138.3 4656.33 144.9 4670.58 144.9C4692.18 144.9 4705.98 130.2 4707.93 117.15C4711.68 93.9 4689.93 80.1 4667.43 85.35ZM4749.26 71.85C4732.91 71.85 4727.51 80.7 4726.31 90.45C4722.71 119.85 4775.06 111.15 4772.21 130.8C4771.31 137.25 4763.21 142.8 4752.41 142.8C4739.06 142.8 4727.81 130.35 4722.71 119.85H4721.96L4718.81 134.85C4726.91 140.85 4735.91 144.9 4748.06 144.9C4764.86 144.9 4775.96 136.05 4776.86 124.2C4778.51 99.75 4727.96 105.15 4730.06 85.05C4730.81 78.9 4736.51 73.2 4746.71 73.2C4755.26 73.2 4764.86 82.5 4769.51 95.25H4770.26L4773.26 81.45C4767.26 76.8 4757.06 71.85 4749.26 71.85ZM4799.85 119.55C4793.55 101.55 4800.3 77.85 4818.75 73.65C4832.85 70.35 4847.1 83.25 4850.7 92.25H4851.6L4853.85 79.8C4846.05 75.75 4834.05 71.85 4825.5 71.85C4809 71.85 4785.45 84 4786.2 109.95C4786.8 134.7 4807.5 145.95 4828.2 144.9C4846.05 143.85 4854.9 132.15 4859.55 123.75L4858.65 123.3C4856.25 127.5 4848.15 140.7 4833.3 142.2C4818.15 143.7 4805.4 135.3 4799.85 119.55ZM4938.42 134.1C4937.82 128.55 4936.47 112.8 4934.82 98.25C4933.02 80.25 4922.52 71.85 4910.37 71.85C4890.87 71.85 4885.62 92.25 4883.82 109.05V35.85H4882.62L4868.52 39C4868.52 39 4868.52 39.9 4868.52 40.2C4871.52 40.65 4871.97 42.15 4871.97 47.4V134.1C4871.97 139.35 4870.92 141.6 4868.52 142.95C4868.52 143.25 4868.52 144 4868.52 144H4887.12C4887.12 144 4887.12 143.25 4887.12 142.95C4884.87 141.6 4883.82 139.35 4883.82 134.1V121.8C4883.82 109.2 4886.82 77.85 4903.62 74.55C4916.52 72 4922.07 84.75 4923.27 96C4924.02 103.8 4926.12 129.15 4926.72 134.1C4927.17 139.05 4926.42 141.6 4924.17 142.95C4924.17 143.25 4924.17 144 4924.17 144H4942.62C4942.62 144 4942.62 143.25 4942.62 142.95C4940.37 141.6 4939.02 139.5 4938.42 134.1ZM5021.48 142.95C5019.08 141.6 5018.03 139.35 5018.03 134.1V71.85H5016.98L5002.88 75.15C5002.88 75.15 5002.88 75.9 5002.88 76.2C5005.73 76.65 5006.18 78.15 5006.18 83.4V94.95C5006.18 107.55 5003.18 138.9 4986.38 142.2C4973.48 144.6 4966.73 133.8 4966.73 120.75V71.85H4965.68L4951.58 75.15C4951.58 75.15 4951.58 75.9 4951.58 76.2C4954.43 76.65 4954.88 78.15 4954.88 83.4V118.5C4954.88 136.2 4965.83 144.9 4979.63 144.9C4999.13 144.9 5004.23 124.5 5006.18 107.55V144H5021.48C5021.48 144 5021.48 143.25 5021.48 142.95ZM5101.9 134.1C5101.3 128.55 5099.95 112.8 5098.3 98.25C5096.5 80.25 5086 71.85 5073.85 71.85C5054.35 71.85 5049.1 92.25 5047.3 109.05V35.85H5046.1L5032 39C5032 39 5032 39.9 5032 40.2C5035 40.65 5035.45 42.15 5035.45 47.4V134.1C5035.45 139.35 5034.4 141.6 5032 142.95C5032 143.25 5032 144 5032 144H5050.6C5050.6 144 5050.6 143.25 5050.6 142.95C5048.35 141.6 5047.3 139.35 5047.3 134.1V121.8C5047.3 109.2 5050.3 77.85 5067.1 74.55C5080 72 5085.55 84.75 5086.75 96C5087.5 103.8 5089.6 129.15 5090.2 134.1C5090.65 139.05 5089.9 141.6 5087.65 142.95C5087.65 143.25 5087.65 144 5087.65 144H5106.1C5106.1 144 5106.1 143.25 5106.1 142.95C5103.85 141.6 5102.5 139.5 5101.9 134.1ZM5171.49 95.55H5174.79C5174.79 95.55 5184.09 95.55 5185.44 95.55C5183.34 77.4 5165.79 71.25 5153.04 71.85C5136.54 72.75 5112.99 84 5113.74 109.95C5114.34 134.7 5134.29 144.9 5154.99 144.9C5176.29 144.9 5185.74 130.8 5186.64 120.15C5187.84 106.5 5180.04 97.8 5171.49 95.55ZM5146.29 73.65C5160.99 70.8 5172.69 81.3 5174.64 94.35H5126.79C5129.49 84.15 5136.09 75.6 5146.29 73.65ZM5185.29 120.45C5183.79 132.15 5172.54 141 5159.64 141.6C5144.34 142.2 5133.09 135.3 5127.54 119.55C5124.99 112.35 5124.54 103.5 5126.49 95.55H5165.34C5176.74 95.55 5187.09 104.85 5185.29 120.45Z" fill="#E8D6C5"/>
<path d="M3439.45 188.2C3439.45 187.9 3439.45 187 3439.45 187H3425.5L3387.25 253.45L3344.2 187H3330.7L3337.45 196.3V274C3337.45 280.45 3332.95 288.4 3328 290.95C3328 291.25 3328 292 3328 292H3348.1C3348.1 292 3348.1 291.25 3348.1 290.95C3343.15 288.4 3338.65 280.45 3338.65 274V197.8L3381.55 263.2H3382.9L3424.3 191.5V282.1C3424.3 287.35 3423.1 289.6 3420.85 290.95C3420.85 291.25 3420.85 292 3420.85 292H3439.45C3439.45 292 3439.45 291.25 3439.45 290.95C3437.05 289.6 3436 287.35 3436 282.1V197.05C3436 191.65 3437.05 189.55 3439.45 188.2ZM3518.39 290.95C3516.14 289.6 3515.09 287.35 3515.09 282.1V244.9C3515.09 226.45 3501.89 219.85 3489.44 219.85C3469.34 219.85 3464.69 238.45 3468.59 247.15C3457.04 251.95 3447.89 260.95 3450.44 276.25C3452.39 287.05 3464.39 292.9 3476.69 292.9C3491.09 292.9 3499.34 284.2 3503.24 271V292H3518.39C3518.39 292 3518.39 291.25 3518.39 290.95ZM3488.09 221.35C3498.74 221.35 3503.24 231.4 3503.24 242.8V243.85C3500.69 243.1 3497.69 242.5 3494.24 242.5C3487.19 242.5 3478.19 243.55 3470.09 246.55C3465.59 234.4 3474.59 221.35 3488.09 221.35ZM3480.29 290.95C3472.79 291.4 3464.09 286.45 3462.14 278.35C3455.69 251.95 3477.89 243.85 3494.24 243.85C3498.89 243.85 3502.49 244.9 3503.24 245.2V268.3C3500.24 279.1 3493.34 290.2 3480.29 290.95ZM3586.43 233.35C3597.83 229.9 3614.78 225.55 3613.88 208.9C3613.13 196.45 3597.23 185.35 3576.98 185.35C3555.68 185.35 3532.13 200.05 3532.13 228.4V282.1C3532.13 287.35 3531.08 289.6 3528.83 290.95C3528.83 291.25 3528.83 292 3528.83 292H3547.43C3547.43 292 3547.43 291.25 3547.43 290.95C3545.03 289.6 3543.98 287.35 3543.98 282.1V217.3C3543.98 194.95 3561.68 187 3576.23 187C3590.18 187 3600.98 196.6 3602.48 208C3604.28 221.35 3595.73 229.45 3577.73 235.9C3577.73 235.9 3578.03 236.35 3578.18 236.95C3602.48 228.1 3617.33 244.3 3615.23 265.9C3614.03 278.95 3606.83 291.85 3588.83 291.25C3576.23 290.95 3562.88 279.25 3560.03 259.15H3558.98L3552.83 277.9C3561.38 286.3 3575.33 292.9 3589.58 292.9C3611.18 292.9 3624.98 278.2 3626.93 265.15C3630.68 241.9 3608.93 228.1 3586.43 233.35ZM3668.26 219.85C3651.91 219.85 3646.51 228.7 3645.31 238.45C3641.71 267.85 3694.06 259.15 3691.21 278.8C3690.31 285.25 3682.21 290.8 3671.41 290.8C3658.06 290.8 3646.81 278.35 3641.71 267.85H3640.96L3637.81 282.85C3645.91 288.85 3654.91 292.9 3667.06 292.9C3683.86 292.9 3694.96 284.05 3695.86 272.2C3697.51 247.75 3646.96 253.15 3649.06 233.05C3649.81 226.9 3655.51 221.2 3665.71 221.2C3674.26 221.2 3683.86 230.5 3688.51 243.25H3689.26L3692.26 229.45C3686.26 224.8 3676.06 219.85 3668.26 219.85ZM3718.85 267.55C3712.55 249.55 3719.3 225.85 3737.75 221.65C3751.85 218.35 3766.1 231.25 3769.7 240.25H3770.6L3772.85 227.8C3765.05 223.75 3753.05 219.85 3744.5 219.85C3728 219.85 3704.45 232 3705.2 257.95C3705.8 282.7 3726.5 293.95 3747.2 292.9C3765.05 291.85 3773.9 280.15 3778.55 271.75L3777.65 271.3C3775.25 275.5 3767.15 288.7 3752.3 290.2C3737.15 291.7 3724.4 283.3 3718.85 267.55ZM3857.42 282.1C3856.82 276.55 3855.47 260.8 3853.82 246.25C3852.02 228.25 3841.52 219.85 3829.37 219.85C3809.87 219.85 3804.62 240.25 3802.82 257.05V183.85H3801.62L3787.52 187C3787.52 187 3787.52 187.9 3787.52 188.2C3790.52 188.65 3790.97 190.15 3790.97 195.4V282.1C3790.97 287.35 3789.92 289.6 3787.52 290.95C3787.52 291.25 3787.52 292 3787.52 292H3806.12C3806.12 292 3806.12 291.25 3806.12 290.95C3803.87 289.6 3802.82 287.35 3802.82 282.1V269.8C3802.82 257.2 3805.82 225.85 3822.62 222.55C3835.52 220 3841.07 232.75 3842.27 244C3843.02 251.8 3845.12 277.15 3845.72 282.1C3846.17 287.05 3845.42 289.6 3843.17 290.95C3843.17 291.25 3843.17 292 3843.17 292H3861.62C3861.62 292 3861.62 291.25 3861.62 290.95C3859.37 289.6 3858.02 287.5 3857.42 282.1ZM3940.48 290.95C3938.08 289.6 3937.03 287.35 3937.03 282.1V219.85H3935.98L3921.88 223.15C3921.88 223.15 3921.88 223.9 3921.88 224.2C3924.73 224.65 3925.18 226.15 3925.18 231.4V242.95C3925.18 255.55 3922.18 286.9 3905.38 290.2C3892.48 292.6 3885.73 281.8 3885.73 268.75V219.85H3884.68L3870.58 223.15C3870.58 223.15 3870.58 223.9 3870.58 224.2C3873.43 224.65 3873.88 226.15 3873.88 231.4V266.5C3873.88 284.2 3884.83 292.9 3898.63 292.9C3918.13 292.9 3923.23 272.5 3925.18 255.55V292H3940.48C3940.48 292 3940.48 291.25 3940.48 290.95ZM4020.9 282.1C4020.3 276.55 4018.95 260.8 4017.3 246.25C4015.5 228.25 4005 219.85 3992.85 219.85C3973.35 219.85 3968.1 240.25 3966.3 257.05V183.85H3965.1L3951 187C3951 187 3951 187.9 3951 188.2C3954 188.65 3954.45 190.15 3954.45 195.4V282.1C3954.45 287.35 3953.4 289.6 3951 290.95C3951 291.25 3951 292 3951 292H3969.6C3969.6 292 3969.6 291.25 3969.6 290.95C3967.35 289.6 3966.3 287.35 3966.3 282.1V269.8C3966.3 257.2 3969.3 225.85 3986.1 222.55C3999 220 4004.55 232.75 4005.75 244C4006.5 251.8 4008.6 277.15 4009.2 282.1C4009.65 287.05 4008.9 289.6 4006.65 290.95C4006.65 291.25 4006.65 292 4006.65 292H4025.1C4025.1 292 4025.1 291.25 4025.1 290.95C4022.85 289.6 4021.5 287.5 4020.9 282.1ZM4090.49 243.55H4093.79C4093.79 243.55 4103.09 243.55 4104.44 243.55C4102.34 225.4 4084.79 219.25 4072.04 219.85C4055.54 220.75 4031.99 232 4032.74 257.95C4033.34 282.7 4053.29 292.9 4073.99 292.9C4095.29 292.9 4104.74 278.8 4105.64 268.15C4106.84 254.5 4099.04 245.8 4090.49 243.55ZM4065.29 221.65C4079.99 218.8 4091.69 229.3 4093.64 242.35H4045.79C4048.49 232.15 4055.09 223.6 4065.29 221.65ZM4104.29 268.45C4102.79 280.15 4091.54 289 4078.64 289.6C4063.34 290.2 4052.09 283.3 4046.54 267.55C4043.99 260.35 4043.54 251.5 4045.49 243.55H4084.34C4095.74 243.55 4106.09 252.85 4104.29 268.45Z" fill="#E8D6C5"/>
<path d="M4264.45 188.2C4264.45 187.9 4264.45 187 4264.45 187H4250.5L4212.25 253.45L4169.2 187H4155.7L4162.45 196.3V274C4162.45 280.45 4157.95 288.4 4153 290.95C4153 291.25 4153 292 4153 292H4173.1C4173.1 292 4173.1 291.25 4173.1 290.95C4168.15 288.4 4163.65 280.45 4163.65 274V197.8L4206.55 263.2H4207.9L4249.3 191.5V282.1C4249.3 287.35 4248.1 289.6 4245.85 290.95C4245.85 291.25 4245.85 292 4245.85 292H4264.45C4264.45 292 4264.45 291.25 4264.45 290.95C4262.05 289.6 4261 287.35 4261 282.1V197.05C4261 191.65 4262.05 189.55 4264.45 188.2ZM4343.39 290.95C4341.14 289.6 4340.09 287.35 4340.09 282.1V244.9C4340.09 226.45 4326.89 219.85 4314.44 219.85C4294.34 219.85 4289.69 238.45 4293.59 247.15C4282.04 251.95 4272.89 260.95 4275.44 276.25C4277.39 287.05 4289.39 292.9 4301.69 292.9C4316.09 292.9 4324.34 284.2 4328.24 271V292H4343.39C4343.39 292 4343.39 291.25 4343.39 290.95ZM4313.09 221.35C4323.74 221.35 4328.24 231.4 4328.24 242.8V243.85C4325.69 243.1 4322.69 242.5 4319.24 242.5C4312.19 242.5 4303.19 243.55 4295.09 246.55C4290.59 234.4 4299.59 221.35 4313.09 221.35ZM4305.29 290.95C4297.79 291.4 4289.09 286.45 4287.14 278.35C4280.69 251.95 4302.89 243.85 4319.24 243.85C4323.89 243.85 4327.49 244.9 4328.24 245.2V268.3C4325.24 279.1 4318.34 290.2 4305.29 290.95ZM4411.43 233.35C4422.83 229.9 4439.78 225.55 4438.88 208.9C4438.13 196.45 4422.23 185.35 4401.98 185.35C4380.68 185.35 4357.13 200.05 4357.13 228.4V282.1C4357.13 287.35 4356.08 289.6 4353.83 290.95C4353.83 291.25 4353.83 292 4353.83 292H4372.43C4372.43 292 4372.43 291.25 4372.43 290.95C4370.03 289.6 4368.98 287.35 4368.98 282.1V217.3C4368.98 194.95 4386.68 187 4401.23 187C4415.18 187 4425.98 196.6 4427.48 208C4429.28 221.35 4420.73 229.45 4402.73 235.9C4402.73 235.9 4403.03 236.35 4403.18 236.95C4427.48 228.1 4442.33 244.3 4440.23 265.9C4439.03 278.95 4431.83 291.85 4413.83 291.25C4401.23 290.95 4387.88 279.25 4385.03 259.15H4383.98L4377.83 277.9C4386.38 286.3 4400.33 292.9 4414.58 292.9C4436.18 292.9 4449.98 278.2 4451.93 265.15C4455.68 241.9 4433.93 228.1 4411.43 233.35ZM4493.26 219.85C4476.91 219.85 4471.51 228.7 4470.31 238.45C4466.71 267.85 4519.06 259.15 4516.21 278.8C4515.31 285.25 4507.21 290.8 4496.41 290.8C4483.06 290.8 4471.81 278.35 4466.71 267.85H4465.96L4462.81 282.85C4470.91 288.85 4479.91 292.9 4492.06 292.9C4508.86 292.9 4519.96 284.05 4520.86 272.2C4522.51 247.75 4471.96 253.15 4474.06 233.05C4474.81 226.9 4480.51 221.2 4490.71 221.2C4499.26 221.2 4508.86 230.5 4513.51 243.25H4514.26L4517.26 229.45C4511.26 224.8 4501.06 219.85 4493.26 219.85ZM4543.85 267.55C4537.55 249.55 4544.3 225.85 4562.75 221.65C4576.85 218.35 4591.1 231.25 4594.7 240.25H4595.6L4597.85 227.8C4590.05 223.75 4578.05 219.85 4569.5 219.85C4553 219.85 4529.45 232 4530.2 257.95C4530.8 282.7 4551.5 293.95 4572.2 292.9C4590.05 291.85 4598.9 280.15 4603.55 271.75L4602.65 271.3C4600.25 275.5 4592.15 288.7 4577.3 290.2C4562.15 291.7 4549.4 283.3 4543.85 267.55ZM4682.42 282.1C4681.82 276.55 4680.47 260.8 4678.82 246.25C4677.02 228.25 4666.52 219.85 4654.37 219.85C4634.87 219.85 4629.62 240.25 4627.82 257.05V183.85H4626.62L4612.52 187C4612.52 187 4612.52 187.9 4612.52 188.2C4615.52 188.65 4615.97 190.15 4615.97 195.4V282.1C4615.97 287.35 4614.92 289.6 4612.52 290.95C4612.52 291.25 4612.52 292 4612.52 292H4631.12C4631.12 292 4631.12 291.25 4631.12 290.95C4628.87 289.6 4627.82 287.35 4627.82 282.1V269.8C4627.82 257.2 4630.82 225.85 4647.62 222.55C4660.52 220 4666.07 232.75 4667.27 244C4668.02 251.8 4670.12 277.15 4670.72 282.1C4671.17 287.05 4670.42 289.6 4668.17 290.95C4668.17 291.25 4668.17 292 4668.17 292H4686.62C4686.62 292 4686.62 291.25 4686.62 290.95C4684.37 289.6 4683.02 287.5 4682.42 282.1ZM4765.48 290.95C4763.08 289.6 4762.03 287.35 4762.03 282.1V219.85H4760.98L4746.88 223.15C4746.88 223.15 4746.88 223.9 4746.88 224.2C4749.73 224.65 4750.18 226.15 4750.18 231.4V242.95C4750.18 255.55 4747.18 286.9 4730.38 290.2C4717.48 292.6 4710.73 281.8 4710.73 268.75V219.85H4709.68L4695.58 223.15C4695.58 223.15 4695.58 223.9 4695.58 224.2C4698.43 224.65 4698.88 226.15 4698.88 231.4V266.5C4698.88 284.2 4709.83 292.9 4723.63 292.9C4743.13 292.9 4748.23 272.5 4750.18 255.55V292H4765.48C4765.48 292 4765.48 291.25 4765.48 290.95ZM4845.9 282.1C4845.3 276.55 4843.95 260.8 4842.3 246.25C4840.5 228.25 4830 219.85 4817.85 219.85C4798.35 219.85 4793.1 240.25 4791.3 257.05V183.85H4790.1L4776 187C4776 187 4776 187.9 4776 188.2C4779 188.65 4779.45 190.15 4779.45 195.4V282.1C4779.45 287.35 4778.4 289.6 4776 290.95C4776 291.25 4776 292 4776 292H4794.6C4794.6 292 4794.6 291.25 4794.6 290.95C4792.35 289.6 4791.3 287.35 4791.3 282.1V269.8C4791.3 257.2 4794.3 225.85 4811.1 222.55C4824 220 4829.55 232.75 4830.75 244C4831.5 251.8 4833.6 277.15 4834.2 282.1C4834.65 287.05 4833.9 289.6 4831.65 290.95C4831.65 291.25 4831.65 292 4831.65 292H4850.1C4850.1 292 4850.1 291.25 4850.1 290.95C4847.85 289.6 4846.5 287.5 4845.9 282.1ZM4915.49 243.55H4918.79C4918.79 243.55 4928.09 243.55 4929.44 243.55C4927.34 225.4 4909.79 219.25 4897.04 219.85C4880.54 220.75 4856.99 232 4857.74 257.95C4858.34 282.7 4878.29 292.9 4898.99 292.9C4920.29 292.9 4929.74 278.8 4930.64 268.15C4931.84 254.5 4924.04 245.8 4915.49 243.55ZM4890.29 221.65C4904.99 218.8 4916.69 229.3 4918.64 242.35H4870.79C4873.49 232.15 4880.09 223.6 4890.29 221.65ZM4929.29 268.45C4927.79 280.15 4916.54 289 4903.64 289.6C4888.34 290.2 4877.09 283.3 4871.54 267.55C4868.99 260.35 4868.54 251.5 4870.49 243.55H4909.34C4920.74 243.55 4931.09 252.85 4929.29 268.45Z" fill="#2E2828"/>
<path d="M3668.45 40.2C3668.45 39.9 3668.45 39 3668.45 39H3654.5L3616.25 105.45L3573.2 39H3559.7L3566.45 48.3V126C3566.45 132.45 3561.95 140.4 3557 142.95C3557 143.25 3557 144 3557 144H3577.1C3577.1 144 3577.1 143.25 3577.1 142.95C3572.15 140.4 3567.65 132.45 3567.65 126V49.8L3610.55 115.2H3611.9L3653.3 43.5V134.1C3653.3 139.35 3652.1 141.6 3649.85 142.95C3649.85 143.25 3649.85 144 3649.85 144H3668.45C3668.45 144 3668.45 143.25 3668.45 142.95C3666.05 141.6 3665 139.35 3665 134.1V49.05C3665 43.65 3666.05 41.55 3668.45 40.2ZM3747.39 142.95C3745.14 141.6 3744.09 139.35 3744.09 134.1V96.9C3744.09 78.45 3730.89 71.85 3718.44 71.85C3698.34 71.85 3693.69 90.45 3697.59 99.15C3686.04 103.95 3676.89 112.95 3679.44 128.25C3681.39 139.05 3693.39 144.9 3705.69 144.9C3720.09 144.9 3728.34 136.2 3732.24 123V144H3747.39C3747.39 144 3747.39 143.25 3747.39 142.95ZM3717.09 73.35C3727.74 73.35 3732.24 83.4 3732.24 94.8V95.85C3729.69 95.1 3726.69 94.5 3723.24 94.5C3716.19 94.5 3707.19 95.55 3699.09 98.55C3694.59 86.4 3703.59 73.35 3717.09 73.35ZM3709.29 142.95C3701.79 143.4 3693.09 138.45 3691.14 130.35C3684.69 103.95 3706.89 95.85 3723.24 95.85C3727.89 95.85 3731.49 96.9 3732.24 97.2V120.3C3729.24 131.1 3722.34 142.2 3709.29 142.95ZM3815.43 85.35C3826.83 81.9 3843.78 77.55 3842.88 60.9C3842.13 48.45 3826.23 37.35 3805.98 37.35C3784.68 37.35 3761.13 52.05 3761.13 80.4V134.1C3761.13 139.35 3760.08 141.6 3757.83 142.95C3757.83 143.25 3757.83 144 3757.83 144H3776.43C3776.43 144 3776.43 143.25 3776.43 142.95C3774.03 141.6 3772.98 139.35 3772.98 134.1V69.3C3772.98 46.95 3790.68 39 3805.23 39C3819.18 39 3829.98 48.6 3831.48 60C3833.28 73.35 3824.73 81.45 3806.73 87.9C3806.73 87.9 3807.03 88.35 3807.18 88.95C3831.48 80.1 3846.33 96.3 3844.23 117.9C3843.03 130.95 3835.83 143.85 3817.83 143.25C3805.23 142.95 3791.88 131.25 3789.03 111.15H3787.98L3781.83 129.9C3790.38 138.3 3804.33 144.9 3818.58 144.9C3840.18 144.9 3853.98 130.2 3855.93 117.15C3859.68 93.9 3837.93 80.1 3815.43 85.35ZM3897.26 71.85C3880.91 71.85 3875.51 80.7 3874.31 90.45C3870.71 119.85 3923.06 111.15 3920.21 130.8C3919.31 137.25 3911.21 142.8 3900.41 142.8C3887.06 142.8 3875.81 130.35 3870.71 119.85H3869.96L3866.81 134.85C3874.91 140.85 3883.91 144.9 3896.06 144.9C3912.86 144.9 3923.96 136.05 3924.86 124.2C3926.51 99.75 3875.96 105.15 3878.06 85.05C3878.81 78.9 3884.51 73.2 3894.71 73.2C3903.26 73.2 3912.86 82.5 3917.51 95.25H3918.26L3921.26 81.45C3915.26 76.8 3905.06 71.85 3897.26 71.85ZM3947.85 119.55C3941.55 101.55 3948.3 77.85 3966.75 73.65C3980.85 70.35 3995.1 83.25 3998.7 92.25H3999.6L4001.85 79.8C3994.05 75.75 3982.05 71.85 3973.5 71.85C3957 71.85 3933.45 84 3934.2 109.95C3934.8 134.7 3955.5 145.95 3976.2 144.9C3994.05 143.85 4002.9 132.15 4007.55 123.75L4006.65 123.3C4004.25 127.5 3996.15 140.7 3981.3 142.2C3966.15 143.7 3953.4 135.3 3947.85 119.55ZM4086.42 134.1C4085.82 128.55 4084.47 112.8 4082.82 98.25C4081.02 80.25 4070.52 71.85 4058.37 71.85C4038.87 71.85 4033.62 92.25 4031.82 109.05V35.85H4030.62L4016.52 39C4016.52 39 4016.52 39.9 4016.52 40.2C4019.52 40.65 4019.97 42.15 4019.97 47.4V134.1C4019.97 139.35 4018.92 141.6 4016.52 142.95C4016.52 143.25 4016.52 144 4016.52 144H4035.12C4035.12 144 4035.12 143.25 4035.12 142.95C4032.87 141.6 4031.82 139.35 4031.82 134.1V121.8C4031.82 109.2 4034.82 77.85 4051.62 74.55C4064.52 72 4070.07 84.75 4071.27 96C4072.02 103.8 4074.12 129.15 4074.72 134.1C4075.17 139.05 4074.42 141.6 4072.17 142.95C4072.17 143.25 4072.17 144 4072.17 144H4090.62C4090.62 144 4090.62 143.25 4090.62 142.95C4088.37 141.6 4087.02 139.5 4086.42 134.1ZM4169.48 142.95C4167.08 141.6 4166.03 139.35 4166.03 134.1V71.85H4164.98L4150.88 75.15C4150.88 75.15 4150.88 75.9 4150.88 76.2C4153.73 76.65 4154.18 78.15 4154.18 83.4V94.95C4154.18 107.55 4151.18 138.9 4134.38 142.2C4121.48 144.6 4114.73 133.8 4114.73 120.75V71.85H4113.68L4099.58 75.15C4099.58 75.15 4099.58 75.9 4099.58 76.2C4102.43 76.65 4102.88 78.15 4102.88 83.4V118.5C4102.88 136.2 4113.83 144.9 4127.63 144.9C4147.13 144.9 4152.23 124.5 4154.18 107.55V144H4169.48C4169.48 144 4169.48 143.25 4169.48 142.95ZM4249.9 134.1C4249.3 128.55 4247.95 112.8 4246.3 98.25C4244.5 80.25 4234 71.85 4221.85 71.85C4202.35 71.85 4197.1 92.25 4195.3 109.05V35.85H4194.1L4180 39C4180 39 4180 39.9 4180 40.2C4183 40.65 4183.45 42.15 4183.45 47.4V134.1C4183.45 139.35 4182.4 141.6 4180 142.95C4180 143.25 4180 144 4180 144H4198.6C4198.6 144 4198.6 143.25 4198.6 142.95C4196.35 141.6 4195.3 139.35 4195.3 134.1V121.8C4195.3 109.2 4198.3 77.85 4215.1 74.55C4228 72 4233.55 84.75 4234.75 96C4235.5 103.8 4237.6 129.15 4238.2 134.1C4238.65 139.05 4237.9 141.6 4235.65 142.95C4235.65 143.25 4235.65 144 4235.65 144H4254.1C4254.1 144 4254.1 143.25 4254.1 142.95C4251.85 141.6 4250.5 139.5 4249.9 134.1ZM4319.49 95.55H4322.79C4322.79 95.55 4332.09 95.55 4333.44 95.55C4331.34 77.4 4313.79 71.25 4301.04 71.85C4284.54 72.75 4260.99 84 4261.74 109.95C4262.34 134.7 4282.29 144.9 4302.99 144.9C4324.29 144.9 4333.74 130.8 4334.64 120.15C4335.84 106.5 4328.04 97.8 4319.49 95.55ZM4294.29 73.65C4308.99 70.8 4320.69 81.3 4322.64 94.35H4274.79C4277.49 84.15 4284.09 75.6 4294.29 73.65ZM4333.29 120.45C4331.79 132.15 4320.54 141 4307.64 141.6C4292.34 142.2 4281.09 135.3 4275.54 119.55C4272.99 112.35 4272.54 103.5 4274.49 95.55H4313.34C4324.74 95.55 4335.09 104.85 4333.29 120.45Z" fill="#2E2828"/>
</g>
</svg>
