<svg width="5416" height="372" viewBox="0 0 5416 372" fill="none" xmlns="http://www.w3.org/2000/svg">
<path opacity="0.8" d="M918.811 125.25C911.761 134.4 899.461 142.95 882.811 142.95H869.161V49.05C869.161 43.65 870.211 41.55 872.461 40.2C872.461 39.9 872.461 39 872.461 39H853.861C853.861 39 853.861 39.9 853.861 40.2C856.261 41.55 857.311 43.65 857.311 49.05V134.1C857.311 139.35 856.261 141.6 853.861 142.95C853.861 143.25 853.861 144 853.861 144H916.411L919.711 125.85L918.811 125.25ZM985.15 95.55H988.45C988.45 95.55 997.75 95.55 999.1 95.55C997 77.4 979.45 71.25 966.7 71.85C950.2 72.75 926.65 84 927.4 109.95C928 134.7 947.95 144.9 968.65 144.9C989.95 144.9 999.4 130.8 1000.3 120.15C1001.5 106.5 993.7 97.8 985.15 95.55ZM959.95 73.65C974.65 70.8 986.35 81.3 988.3 94.35H940.45C943.15 84.15 949.75 75.6 959.95 73.65ZM998.95 120.45C997.45 132.15 986.2 141 973.3 141.6C958 142.2 946.75 135.3 941.2 119.55C938.65 112.35 938.2 103.5 940.15 95.55H979C990.4 95.55 1000.75 104.85 998.95 120.45ZM1026.04 134.1V71.85H1024.99L1010.89 75.15C1010.89 75.15 1010.89 75.9 1010.89 76.2C1013.74 76.65 1014.19 78.15 1014.19 83.4V134.1C1014.19 139.35 1013.14 141.6 1010.89 142.95C1010.89 143.25 1010.89 144 1010.89 144H1029.49C1029.49 144 1029.49 143.25 1029.49 142.95C1027.09 141.6 1026.04 139.35 1026.04 134.1ZM1019.74 59.7C1023.64 59.7 1026.79 56.55 1026.79 52.65C1026.79 48.75 1023.64 45.6 1019.74 45.6C1015.84 45.6 1012.69 48.75 1012.69 52.65C1012.69 56.55 1015.84 59.7 1019.74 59.7ZM1069.03 71.85C1052.68 71.85 1047.28 80.7 1046.08 90.45C1042.48 119.85 1094.83 111.15 1091.98 130.8C1091.08 137.25 1082.98 142.8 1072.18 142.8C1058.83 142.8 1047.58 130.35 1042.48 119.85H1041.73L1038.58 134.85C1046.68 140.85 1055.68 144.9 1067.83 144.9C1084.63 144.9 1095.73 136.05 1096.63 124.2C1098.28 99.75 1047.73 105.15 1049.83 85.05C1050.58 78.9 1056.28 73.2 1066.48 73.2C1075.03 73.2 1084.63 82.5 1089.28 95.25H1090.03L1093.03 81.45C1087.03 76.8 1076.83 71.85 1069.03 71.85ZM1158.91 117.45C1156.21 129 1151.26 140.85 1141.36 142.2C1128.61 143.85 1125.01 133.8 1125.01 120.75V73.05H1142.71V71.85H1109.56C1118.56 71.4 1129.96 62.85 1129.96 51.3H1118.11C1118.11 58.5 1117.06 71.85 1104.31 71.85V73.05H1113.16V118.5C1113.16 136.2 1121.41 144.9 1134.76 144.9C1150.51 144.9 1156.81 131.85 1159.66 117.75L1158.91 117.45ZM1232.55 142.95C1230.15 141.6 1229.1 139.35 1229.1 134.1V71.85H1228.05L1213.95 75.15C1213.95 75.15 1213.95 75.9 1213.95 76.2C1216.8 76.65 1217.25 78.15 1217.25 83.4V94.95C1217.25 107.55 1214.25 138.9 1197.45 142.2C1184.55 144.6 1177.8 133.8 1177.8 120.75V71.85H1176.75L1162.65 75.15C1162.65 75.15 1162.65 75.9 1162.65 76.2C1165.5 76.65 1165.95 78.15 1165.95 83.4V118.5C1165.95 136.2 1176.9 144.9 1190.7 144.9C1210.2 144.9 1215.3 124.5 1217.25 107.55V144H1232.55C1232.55 144 1232.55 143.25 1232.55 142.95ZM1312.97 134.1C1312.37 128.55 1310.87 112.8 1309.37 98.25C1307.57 80.25 1297.07 71.85 1284.77 71.85C1265.27 71.85 1260.17 92.25 1258.22 109.05V71.85H1257.17L1243.07 75.15C1243.07 75.15 1243.07 75.9 1243.07 76.2C1245.92 76.65 1246.37 78.15 1246.37 83.4V134.1C1246.37 139.35 1245.32 141.6 1243.07 142.95C1243.07 143.25 1243.07 144 1243.07 144H1261.67C1261.67 144 1261.67 143.25 1261.67 142.95C1259.27 141.6 1258.22 139.35 1258.22 134.1V121.8C1258.22 109.2 1261.37 77.85 1278.17 74.55C1291.07 72 1296.62 84.75 1297.67 96C1298.42 103.8 1300.67 129.15 1301.12 134.1C1301.57 139.05 1300.97 141.6 1298.57 142.95C1298.57 143.25 1298.57 144 1298.57 144H1317.17C1317.17 144 1317.17 143.25 1317.17 142.95C1314.92 141.6 1313.57 139.5 1312.97 134.1ZM1402.36 139.95C1394.71 140.25 1385.41 148.05 1374.31 154.65C1364.71 160.5 1356.01 166.35 1348.36 166.2C1342.81 166.2 1340.26 162.6 1339.96 157.65C1339.21 148.65 1350.76 145.2 1360.66 144.75C1361.26 144.9 1361.71 144.9 1362.16 144.9C1382.41 144.9 1402.96 129.15 1402.96 105.15C1402.96 91.5 1395.46 81.45 1384.66 76.2L1408.81 75.15L1407.91 67.65L1382.26 75.15C1377.16 73.05 1371.46 71.85 1365.46 71.85C1345.36 71.85 1324.66 86.85 1324.66 111.6C1324.66 130.65 1338.91 142.35 1356.46 144.45C1345.96 145.5 1331.56 150.45 1331.86 159.6C1332.01 166.5 1338.01 169.35 1345.96 168.75C1353.01 168.3 1360.51 164.4 1367.41 160.2C1371.01 165.15 1376.26 171 1387.06 171C1399.81 171 1414.81 163.35 1414.81 151.5C1414.81 144.9 1411.36 139.8 1402.36 139.95ZM1337.41 116.4C1332.16 98.25 1336.81 79.5 1353.91 74.55C1371.01 69.6 1385.11 82.35 1390.36 100.35C1395.61 118.5 1390.81 137.25 1373.86 142.2C1356.76 147.3 1342.66 134.4 1337.41 116.4ZM1405.66 154.05C1405.06 163.95 1398.61 170.1 1387.06 169.95C1375.96 169.8 1371.31 163.65 1368.46 159.45C1370.71 158.1 1372.96 156.75 1375.21 155.4C1383.91 150 1393.51 143.55 1398.16 142.95C1404.16 142.05 1405.96 147.15 1405.66 154.05ZM1472.65 95.55H1475.95C1475.95 95.55 1485.25 95.55 1486.6 95.55C1484.5 77.4 1466.95 71.25 1454.2 71.85C1437.7 72.75 1414.15 84 1414.9 109.95C1415.5 134.7 1435.45 144.9 1456.15 144.9C1477.45 144.9 1486.9 130.8 1487.8 120.15C1489 106.5 1481.2 97.8 1472.65 95.55ZM1447.45 73.65C1462.15 70.8 1473.85 81.3 1475.8 94.35H1427.95C1430.65 84.15 1437.25 75.6 1447.45 73.65ZM1486.45 120.45C1484.95 132.15 1473.7 141 1460.8 141.6C1445.5 142.2 1434.25 135.3 1428.7 119.55C1426.15 112.35 1425.7 103.5 1427.65 95.55H1466.5C1477.9 95.55 1488.25 104.85 1486.45 120.45ZM1568.29 134.1C1567.69 128.55 1566.19 112.8 1564.69 98.25C1562.89 80.25 1552.39 71.85 1540.09 71.85C1520.59 71.85 1515.49 92.25 1513.54 109.05V71.85H1512.49L1498.39 75.15C1498.39 75.15 1498.39 75.9 1498.39 76.2C1501.24 76.65 1501.69 78.15 1501.69 83.4V134.1C1501.69 139.35 1500.64 141.6 1498.39 142.95C1498.39 143.25 1498.39 144 1498.39 144H1516.99C1516.99 144 1516.99 143.25 1516.99 142.95C1514.59 141.6 1513.54 139.35 1513.54 134.1V121.8C1513.54 109.2 1516.69 77.85 1533.49 74.55C1546.39 72 1551.94 84.75 1552.99 96C1553.74 103.8 1555.99 129.15 1556.44 134.1C1556.89 139.05 1556.29 141.6 1553.89 142.95C1553.89 143.25 1553.89 144 1553.89 144H1572.49C1572.49 144 1572.49 143.25 1572.49 142.95C1570.24 141.6 1568.89 139.5 1568.29 134.1Z" fill="#E8D6C5"/>
<path opacity="0.8" d="M3146.95 306.207C3139.9 315.357 3127.6 323.907 3110.95 323.907H3097.3V230.007C3097.3 224.607 3098.35 222.507 3100.6 221.157C3100.6 220.857 3100.6 219.957 3100.6 219.957H3082C3082 219.957 3082 220.857 3082 221.157C3084.4 222.507 3085.45 224.607 3085.45 230.007V315.057C3085.45 320.307 3084.4 322.557 3082 323.907C3082 324.207 3082 324.957 3082 324.957H3144.55L3147.85 306.807L3146.95 306.207ZM3213.29 276.507H3216.59C3216.59 276.507 3225.89 276.507 3227.24 276.507C3225.14 258.357 3207.59 252.207 3194.84 252.807C3178.34 253.707 3154.79 264.957 3155.54 290.907C3156.14 315.657 3176.09 325.857 3196.79 325.857C3218.09 325.857 3227.54 311.757 3228.44 301.107C3229.64 287.457 3221.84 278.757 3213.29 276.507ZM3188.09 254.607C3202.79 251.757 3214.49 262.257 3216.44 275.307H3168.59C3171.29 265.107 3177.89 256.557 3188.09 254.607ZM3227.09 301.407C3225.59 313.107 3214.34 321.957 3201.44 322.557C3186.14 323.157 3174.89 316.257 3169.34 300.507C3166.79 293.307 3166.34 284.457 3168.29 276.507H3207.14C3218.54 276.507 3228.89 285.807 3227.09 301.407ZM3254.18 315.057V252.807H3253.13L3239.03 256.107C3239.03 256.107 3239.03 256.857 3239.03 257.157C3241.88 257.607 3242.33 259.107 3242.33 264.357V315.057C3242.33 320.307 3241.28 322.557 3239.03 323.907C3239.03 324.207 3239.03 324.957 3239.03 324.957H3257.63C3257.63 324.957 3257.63 324.207 3257.63 323.907C3255.23 322.557 3254.18 320.307 3254.18 315.057ZM3247.88 240.657C3251.78 240.657 3254.93 237.507 3254.93 233.607C3254.93 229.707 3251.78 226.557 3247.88 226.557C3243.98 226.557 3240.83 229.707 3240.83 233.607C3240.83 237.507 3243.98 240.657 3247.88 240.657ZM3297.17 252.807C3280.82 252.807 3275.42 261.657 3274.22 271.407C3270.62 300.807 3322.97 292.107 3320.12 311.757C3319.22 318.207 3311.12 323.757 3300.32 323.757C3286.97 323.757 3275.72 311.307 3270.62 300.807H3269.87L3266.72 315.807C3274.82 321.807 3283.82 325.857 3295.97 325.857C3312.77 325.857 3323.87 317.007 3324.77 305.157C3326.42 280.707 3275.87 286.107 3277.97 266.007C3278.72 259.857 3284.42 254.157 3294.62 254.157C3303.17 254.157 3312.77 263.457 3317.42 276.207H3318.17L3321.17 262.407C3315.17 257.757 3304.97 252.807 3297.17 252.807ZM3387.05 298.407C3384.35 309.957 3379.4 321.807 3369.5 323.157C3356.75 324.807 3353.15 314.757 3353.15 301.707V254.007H3370.85V252.807H3337.7C3346.7 252.357 3358.1 243.807 3358.1 232.257H3346.25C3346.25 239.457 3345.2 252.807 3332.45 252.807V254.007H3341.3V299.457C3341.3 317.157 3349.55 325.857 3362.9 325.857C3378.65 325.857 3384.95 312.807 3387.8 298.707L3387.05 298.407ZM3460.69 323.907C3458.29 322.557 3457.24 320.307 3457.24 315.057V252.807H3456.19L3442.09 256.107C3442.09 256.107 3442.09 256.857 3442.09 257.157C3444.94 257.607 3445.39 259.107 3445.39 264.357V275.907C3445.39 288.507 3442.39 319.857 3425.59 323.157C3412.69 325.557 3405.94 314.757 3405.94 301.707V252.807H3404.89L3390.79 256.107C3390.79 256.107 3390.79 256.857 3390.79 257.157C3393.64 257.607 3394.09 259.107 3394.09 264.357V299.457C3394.09 317.157 3405.04 325.857 3418.84 325.857C3438.34 325.857 3443.44 305.457 3445.39 288.507V324.957H3460.69C3460.69 324.957 3460.69 324.207 3460.69 323.907ZM3541.11 315.057C3540.51 309.507 3539.01 293.757 3537.51 279.207C3535.71 261.207 3525.21 252.807 3512.91 252.807C3493.41 252.807 3488.31 273.207 3486.36 290.007V252.807H3485.31L3471.21 256.107C3471.21 256.107 3471.21 256.857 3471.21 257.157C3474.06 257.607 3474.51 259.107 3474.51 264.357V315.057C3474.51 320.307 3473.46 322.557 3471.21 323.907C3471.21 324.207 3471.21 324.957 3471.21 324.957H3489.81C3489.81 324.957 3489.81 324.207 3489.81 323.907C3487.41 322.557 3486.36 320.307 3486.36 315.057V302.757C3486.36 290.157 3489.51 258.807 3506.31 255.507C3519.21 252.957 3524.76 265.707 3525.81 276.957C3526.56 284.757 3528.81 310.107 3529.26 315.057C3529.71 320.007 3529.11 322.557 3526.71 323.907C3526.71 324.207 3526.71 324.957 3526.71 324.957H3545.31C3545.31 324.957 3545.31 324.207 3545.31 323.907C3543.06 322.557 3541.71 320.457 3541.11 315.057ZM3630.5 320.907C3622.85 321.207 3613.55 329.007 3602.45 335.607C3592.85 341.457 3584.15 347.307 3576.5 347.157C3570.95 347.157 3568.4 343.557 3568.1 338.607C3567.35 329.607 3578.9 326.157 3588.8 325.707C3589.4 325.857 3589.85 325.857 3590.3 325.857C3610.55 325.857 3631.1 310.107 3631.1 286.107C3631.1 272.457 3623.6 262.407 3612.8 257.157L3636.95 256.107L3636.05 248.607L3610.4 256.107C3605.3 254.007 3599.6 252.807 3593.6 252.807C3573.5 252.807 3552.8 267.807 3552.8 292.557C3552.8 311.607 3567.05 323.307 3584.6 325.407C3574.1 326.457 3559.7 331.407 3560 340.557C3560.15 347.457 3566.15 350.307 3574.1 349.707C3581.15 349.257 3588.65 345.357 3595.55 341.157C3599.15 346.107 3604.4 351.957 3615.2 351.957C3627.95 351.957 3642.95 344.307 3642.95 332.457C3642.95 325.857 3639.5 320.757 3630.5 320.907ZM3565.55 297.357C3560.3 279.207 3564.95 260.457 3582.05 255.507C3599.15 250.557 3613.25 263.307 3618.5 281.307C3623.75 299.457 3618.95 318.207 3602 323.157C3584.9 328.257 3570.8 315.357 3565.55 297.357ZM3633.8 335.007C3633.2 344.907 3626.75 351.057 3615.2 350.907C3604.1 350.757 3599.45 344.607 3596.6 340.407C3598.85 339.057 3601.1 337.707 3603.35 336.357C3612.05 330.957 3621.65 324.507 3626.3 323.907C3632.3 323.007 3634.1 328.107 3633.8 335.007ZM3700.79 276.507H3704.09C3704.09 276.507 3713.39 276.507 3714.74 276.507C3712.64 258.357 3695.09 252.207 3682.34 252.807C3665.84 253.707 3642.29 264.957 3643.04 290.907C3643.64 315.657 3663.59 325.857 3684.29 325.857C3705.59 325.857 3715.04 311.757 3715.94 301.107C3717.14 287.457 3709.34 278.757 3700.79 276.507ZM3675.59 254.607C3690.29 251.757 3701.99 262.257 3703.94 275.307H3656.09C3658.79 265.107 3665.39 256.557 3675.59 254.607ZM3714.59 301.407C3713.09 313.107 3701.84 321.957 3688.94 322.557C3673.64 323.157 3662.39 316.257 3656.84 300.507C3654.29 293.307 3653.84 284.457 3655.79 276.507H3694.64C3706.04 276.507 3716.39 285.807 3714.59 301.407ZM3796.43 315.057C3795.83 309.507 3794.33 293.757 3792.83 279.207C3791.03 261.207 3780.53 252.807 3768.23 252.807C3748.73 252.807 3743.63 273.207 3741.68 290.007V252.807H3740.63L3726.53 256.107C3726.53 256.107 3726.53 256.857 3726.53 257.157C3729.38 257.607 3729.83 259.107 3729.83 264.357V315.057C3729.83 320.307 3728.78 322.557 3726.53 323.907C3726.53 324.207 3726.53 324.957 3726.53 324.957H3745.13C3745.13 324.957 3745.13 324.207 3745.13 323.907C3742.73 322.557 3741.68 320.307 3741.68 315.057V302.757C3741.68 290.157 3744.83 258.807 3761.63 255.507C3774.53 252.957 3780.08 265.707 3781.13 276.957C3781.88 284.757 3784.13 310.107 3784.58 315.057C3785.03 320.007 3784.43 322.557 3782.03 323.907C3782.03 324.207 3782.03 324.957 3782.03 324.957H3800.63C3800.63 324.957 3800.63 324.207 3800.63 323.907C3798.38 322.557 3797.03 320.457 3796.43 315.057Z" fill="#E8D6C5"/>
<path opacity="0.8" d="M2430.95 125.25C2423.9 134.4 2411.6 142.95 2394.95 142.95H2381.3V49.05C2381.3 43.65 2382.35 41.55 2384.6 40.2C2384.6 39.9 2384.6 39 2384.6 39H2366C2366 39 2366 39.9 2366 40.2C2368.4 41.55 2369.45 43.65 2369.45 49.05V134.1C2369.45 139.35 2368.4 141.6 2366 142.95C2366 143.25 2366 144 2366 144H2428.55L2431.85 125.85L2430.95 125.25ZM2497.29 95.55H2500.59C2500.59 95.55 2509.89 95.55 2511.24 95.55C2509.14 77.4 2491.59 71.25 2478.84 71.85C2462.34 72.75 2438.79 84 2439.54 109.95C2440.14 134.7 2460.09 144.9 2480.79 144.9C2502.09 144.9 2511.54 130.8 2512.44 120.15C2513.64 106.5 2505.84 97.8 2497.29 95.55ZM2472.09 73.65C2486.79 70.8 2498.49 81.3 2500.44 94.35H2452.59C2455.29 84.15 2461.89 75.6 2472.09 73.65ZM2511.09 120.45C2509.59 132.15 2498.34 141 2485.44 141.6C2470.14 142.2 2458.89 135.3 2453.34 119.55C2450.79 112.35 2450.34 103.5 2452.29 95.55H2491.14C2502.54 95.55 2512.89 104.85 2511.09 120.45ZM2538.18 134.1V71.85H2537.13L2523.03 75.15C2523.03 75.15 2523.03 75.9 2523.03 76.2C2525.88 76.65 2526.33 78.15 2526.33 83.4V134.1C2526.33 139.35 2525.28 141.6 2523.03 142.95C2523.03 143.25 2523.03 144 2523.03 144H2541.63C2541.63 144 2541.63 143.25 2541.63 142.95C2539.23 141.6 2538.18 139.35 2538.18 134.1ZM2531.88 59.7C2535.78 59.7 2538.93 56.55 2538.93 52.65C2538.93 48.75 2535.78 45.6 2531.88 45.6C2527.98 45.6 2524.83 48.75 2524.83 52.65C2524.83 56.55 2527.98 59.7 2531.88 59.7ZM2581.17 71.85C2564.82 71.85 2559.42 80.7 2558.22 90.45C2554.62 119.85 2606.97 111.15 2604.12 130.8C2603.22 137.25 2595.12 142.8 2584.32 142.8C2570.97 142.8 2559.72 130.35 2554.62 119.85H2553.87L2550.72 134.85C2558.82 140.85 2567.82 144.9 2579.97 144.9C2596.77 144.9 2607.87 136.05 2608.77 124.2C2610.42 99.75 2559.87 105.15 2561.97 85.05C2562.72 78.9 2568.42 73.2 2578.62 73.2C2587.17 73.2 2596.77 82.5 2601.42 95.25H2602.17L2605.17 81.45C2599.17 76.8 2588.97 71.85 2581.17 71.85ZM2671.05 117.45C2668.35 129 2663.4 140.85 2653.5 142.2C2640.75 143.85 2637.15 133.8 2637.15 120.75V73.05H2654.85V71.85H2621.7C2630.7 71.4 2642.1 62.85 2642.1 51.3H2630.25C2630.25 58.5 2629.2 71.85 2616.45 71.85V73.05H2625.3V118.5C2625.3 136.2 2633.55 144.9 2646.9 144.9C2662.65 144.9 2668.95 131.85 2671.8 117.75L2671.05 117.45ZM2744.69 142.95C2742.29 141.6 2741.24 139.35 2741.24 134.1V71.85H2740.19L2726.09 75.15C2726.09 75.15 2726.09 75.9 2726.09 76.2C2728.94 76.65 2729.39 78.15 2729.39 83.4V94.95C2729.39 107.55 2726.39 138.9 2709.59 142.2C2696.69 144.6 2689.94 133.8 2689.94 120.75V71.85H2688.89L2674.79 75.15C2674.79 75.15 2674.79 75.9 2674.79 76.2C2677.64 76.65 2678.09 78.15 2678.09 83.4V118.5C2678.09 136.2 2689.04 144.9 2702.84 144.9C2722.34 144.9 2727.44 124.5 2729.39 107.55V144H2744.69C2744.69 144 2744.69 143.25 2744.69 142.95ZM2825.11 134.1C2824.51 128.55 2823.01 112.8 2821.51 98.25C2819.71 80.25 2809.21 71.85 2796.91 71.85C2777.41 71.85 2772.31 92.25 2770.36 109.05V71.85H2769.31L2755.21 75.15C2755.21 75.15 2755.21 75.9 2755.21 76.2C2758.06 76.65 2758.51 78.15 2758.51 83.4V134.1C2758.51 139.35 2757.46 141.6 2755.21 142.95C2755.21 143.25 2755.21 144 2755.21 144H2773.81C2773.81 144 2773.81 143.25 2773.81 142.95C2771.41 141.6 2770.36 139.35 2770.36 134.1V121.8C2770.36 109.2 2773.51 77.85 2790.31 74.55C2803.21 72 2808.76 84.75 2809.81 96C2810.56 103.8 2812.81 129.15 2813.26 134.1C2813.71 139.05 2813.11 141.6 2810.71 142.95C2810.71 143.25 2810.71 144 2810.71 144H2829.31C2829.31 144 2829.31 143.25 2829.31 142.95C2827.06 141.6 2825.71 139.5 2825.11 134.1ZM2914.5 139.95C2906.85 140.25 2897.55 148.05 2886.45 154.65C2876.85 160.5 2868.15 166.35 2860.5 166.2C2854.95 166.2 2852.4 162.6 2852.1 157.65C2851.35 148.65 2862.9 145.2 2872.8 144.75C2873.4 144.9 2873.85 144.9 2874.3 144.9C2894.55 144.9 2915.1 129.15 2915.1 105.15C2915.1 91.5 2907.6 81.45 2896.8 76.2L2920.95 75.15L2920.05 67.65L2894.4 75.15C2889.3 73.05 2883.6 71.85 2877.6 71.85C2857.5 71.85 2836.8 86.85 2836.8 111.6C2836.8 130.65 2851.05 142.35 2868.6 144.45C2858.1 145.5 2843.7 150.45 2844 159.6C2844.15 166.5 2850.15 169.35 2858.1 168.75C2865.15 168.3 2872.65 164.4 2879.55 160.2C2883.15 165.15 2888.4 171 2899.2 171C2911.95 171 2926.95 163.35 2926.95 151.5C2926.95 144.9 2923.5 139.8 2914.5 139.95ZM2849.55 116.4C2844.3 98.25 2848.95 79.5 2866.05 74.55C2883.15 69.6 2897.25 82.35 2902.5 100.35C2907.75 118.5 2902.95 137.25 2886 142.2C2868.9 147.3 2854.8 134.4 2849.55 116.4ZM2917.8 154.05C2917.2 163.95 2910.75 170.1 2899.2 169.95C2888.1 169.8 2883.45 163.65 2880.6 159.45C2882.85 158.1 2885.1 156.75 2887.35 155.4C2896.05 150 2905.65 143.55 2910.3 142.95C2916.3 142.05 2918.1 147.15 2917.8 154.05ZM2984.79 95.55H2988.09C2988.09 95.55 2997.39 95.55 2998.74 95.55C2996.64 77.4 2979.09 71.25 2966.34 71.85C2949.84 72.75 2926.29 84 2927.04 109.95C2927.64 134.7 2947.59 144.9 2968.29 144.9C2989.59 144.9 2999.04 130.8 2999.94 120.15C3001.14 106.5 2993.34 97.8 2984.79 95.55ZM2959.59 73.65C2974.29 70.8 2985.99 81.3 2987.94 94.35H2940.09C2942.79 84.15 2949.39 75.6 2959.59 73.65ZM2998.59 120.45C2997.09 132.15 2985.84 141 2972.94 141.6C2957.64 142.2 2946.39 135.3 2940.84 119.55C2938.29 112.35 2937.84 103.5 2939.79 95.55H2978.64C2990.04 95.55 3000.39 104.85 2998.59 120.45ZM3080.43 134.1C3079.83 128.55 3078.33 112.8 3076.83 98.25C3075.03 80.25 3064.53 71.85 3052.23 71.85C3032.73 71.85 3027.63 92.25 3025.68 109.05V71.85H3024.63L3010.53 75.15C3010.53 75.15 3010.53 75.9 3010.53 76.2C3013.38 76.65 3013.83 78.15 3013.83 83.4V134.1C3013.83 139.35 3012.78 141.6 3010.53 142.95C3010.53 143.25 3010.53 144 3010.53 144H3029.13C3029.13 144 3029.13 143.25 3029.13 142.95C3026.73 141.6 3025.68 139.35 3025.68 134.1V121.8C3025.68 109.2 3028.83 77.85 3045.63 74.55C3058.53 72 3064.08 84.75 3065.13 96C3065.88 103.8 3068.13 129.15 3068.58 134.1C3069.03 139.05 3068.43 141.6 3066.03 142.95C3066.03 143.25 3066.03 144 3066.03 144H3084.63C3084.63 144 3084.63 143.25 3084.63 142.95C3082.38 141.6 3081.03 139.5 3080.43 134.1Z" fill="#E8D6C5"/>
<path opacity="0.8" d="M70.95 299.207C63.9 308.357 51.6 316.907 34.95 316.907H21.3V223.007C21.3 217.607 22.35 215.507 24.6 214.157C24.6 213.857 24.6 212.957 24.6 212.957H6C6 212.957 6 213.857 6 214.157C8.4 215.507 9.45 217.607 9.45 223.007V308.057C9.45 313.307 8.4 315.557 6 316.907C6 317.207 6 317.957 6 317.957H68.55L71.85 299.807L70.95 299.207ZM137.289 269.507H140.589C140.589 269.507 149.889 269.507 151.239 269.507C149.139 251.357 131.589 245.207 118.839 245.807C102.339 246.707 78.7887 257.957 79.5387 283.907C80.1387 308.657 100.089 318.857 120.789 318.857C142.089 318.857 151.539 304.757 152.439 294.107C153.639 280.457 145.839 271.757 137.289 269.507ZM112.089 247.607C126.789 244.757 138.489 255.257 140.439 268.307H92.5887C95.2887 258.107 101.889 249.557 112.089 247.607ZM151.089 294.407C149.589 306.107 138.339 314.957 125.439 315.557C110.139 316.157 98.8887 309.257 93.3387 293.507C90.7887 286.307 90.3387 277.457 92.2887 269.507H131.139C142.539 269.507 152.889 278.807 151.089 294.407ZM178.181 308.057V245.807H177.131L163.031 249.107C163.031 249.107 163.031 249.857 163.031 250.157C165.881 250.607 166.331 252.107 166.331 257.357V308.057C166.331 313.307 165.281 315.557 163.031 316.907C163.031 317.207 163.031 317.957 163.031 317.957H181.631C181.631 317.957 181.631 317.207 181.631 316.907C179.231 315.557 178.181 313.307 178.181 308.057ZM171.881 233.657C175.781 233.657 178.931 230.507 178.931 226.607C178.931 222.707 175.781 219.557 171.881 219.557C167.981 219.557 164.831 222.707 164.831 226.607C164.831 230.507 167.981 233.657 171.881 233.657ZM221.167 245.807C204.817 245.807 199.417 254.657 198.217 264.407C194.617 293.807 246.967 285.107 244.117 304.757C243.217 311.207 235.117 316.757 224.317 316.757C210.967 316.757 199.717 304.307 194.617 293.807H193.867L190.717 308.807C198.817 314.807 207.817 318.857 219.967 318.857C236.767 318.857 247.867 310.007 248.767 298.157C250.417 273.707 199.867 279.107 201.967 259.007C202.717 252.857 208.417 247.157 218.617 247.157C227.167 247.157 236.767 256.457 241.417 269.207H242.167L245.167 255.407C239.167 250.757 228.967 245.807 221.167 245.807ZM311.053 291.407C308.353 302.957 303.403 314.807 293.503 316.157C280.753 317.807 277.153 307.757 277.153 294.707V247.007H294.853V245.807H261.703C270.703 245.357 282.103 236.807 282.103 225.257H270.253C270.253 232.457 269.203 245.807 256.453 245.807V247.007H265.303V292.457C265.303 310.157 273.553 318.857 286.903 318.857C302.653 318.857 308.953 305.807 311.803 291.707L311.053 291.407ZM384.689 316.907C382.289 315.557 381.239 313.307 381.239 308.057V245.807H380.189L366.089 249.107C366.089 249.107 366.089 249.857 366.089 250.157C368.939 250.607 369.389 252.107 369.389 257.357V268.907C369.389 281.507 366.389 312.857 349.589 316.157C336.689 318.557 329.939 307.757 329.939 294.707V245.807H328.889L314.789 249.107C314.789 249.107 314.789 249.857 314.789 250.157C317.639 250.607 318.089 252.107 318.089 257.357V292.457C318.089 310.157 329.039 318.857 342.839 318.857C362.339 318.857 367.439 298.457 369.389 281.507V317.957H384.689C384.689 317.957 384.689 317.207 384.689 316.907ZM465.109 308.057C464.509 302.507 463.009 286.757 461.509 272.207C459.709 254.207 449.209 245.807 436.909 245.807C417.409 245.807 412.309 266.207 410.359 283.007V245.807H409.309L395.209 249.107C395.209 249.107 395.209 249.857 395.209 250.157C398.059 250.607 398.509 252.107 398.509 257.357V308.057C398.509 313.307 397.459 315.557 395.209 316.907C395.209 317.207 395.209 317.957 395.209 317.957H413.809C413.809 317.957 413.809 317.207 413.809 316.907C411.409 315.557 410.359 313.307 410.359 308.057V295.757C410.359 283.157 413.509 251.807 430.309 248.507C443.209 245.957 448.759 258.707 449.809 269.957C450.559 277.757 452.809 303.107 453.259 308.057C453.709 313.007 453.109 315.557 450.709 316.907C450.709 317.207 450.709 317.957 450.709 317.957H469.309C469.309 317.957 469.309 317.207 469.309 316.907C467.059 315.557 465.709 313.457 465.109 308.057ZM554.501 313.907C546.851 314.207 537.551 322.007 526.451 328.607C516.851 334.457 508.151 340.307 500.501 340.157C494.951 340.157 492.401 336.557 492.101 331.607C491.351 322.607 502.901 319.157 512.801 318.707C513.401 318.857 513.851 318.857 514.301 318.857C534.551 318.857 555.101 303.107 555.101 279.107C555.101 265.457 547.601 255.407 536.801 250.157L560.951 249.107L560.051 241.607L534.401 249.107C529.301 247.007 523.601 245.807 517.601 245.807C497.501 245.807 476.801 260.807 476.801 285.557C476.801 304.607 491.051 316.307 508.601 318.407C498.101 319.457 483.701 324.407 484.001 333.557C484.151 340.457 490.151 343.307 498.101 342.707C505.151 342.257 512.651 338.357 519.551 334.157C523.151 339.107 528.401 344.957 539.201 344.957C551.951 344.957 566.951 337.307 566.951 325.457C566.951 318.857 563.501 313.757 554.501 313.907ZM489.551 290.357C484.301 272.207 488.951 253.457 506.051 248.507C523.151 243.557 537.251 256.307 542.501 274.307C547.751 292.457 542.951 311.207 526.001 316.157C508.901 321.257 494.801 308.357 489.551 290.357ZM557.801 328.007C557.201 337.907 550.751 344.057 539.201 343.907C528.101 343.757 523.451 337.607 520.601 333.407C522.851 332.057 525.101 330.707 527.351 329.357C536.051 323.957 545.651 317.507 550.301 316.907C556.301 316.007 558.101 321.107 557.801 328.007ZM624.789 269.507H628.089C628.089 269.507 637.389 269.507 638.739 269.507C636.639 251.357 619.089 245.207 606.339 245.807C589.839 246.707 566.289 257.957 567.039 283.907C567.639 308.657 587.589 318.857 608.289 318.857C629.589 318.857 639.039 304.757 639.939 294.107C641.139 280.457 633.339 271.757 624.789 269.507ZM599.589 247.607C614.289 244.757 625.989 255.257 627.939 268.307H580.089C582.789 258.107 589.389 249.557 599.589 247.607ZM638.589 294.407C637.089 306.107 625.839 314.957 612.939 315.557C597.639 316.157 586.389 309.257 580.839 293.507C578.289 286.307 577.839 277.457 579.789 269.507H618.639C630.039 269.507 640.389 278.807 638.589 294.407ZM720.431 308.057C719.831 302.507 718.331 286.757 716.831 272.207C715.031 254.207 704.531 245.807 692.231 245.807C672.731 245.807 667.631 266.207 665.681 283.007V245.807H664.631L650.531 249.107C650.531 249.107 650.531 249.857 650.531 250.157C653.381 250.607 653.831 252.107 653.831 257.357V308.057C653.831 313.307 652.781 315.557 650.531 316.907C650.531 317.207 650.531 317.957 650.531 317.957H669.131C669.131 317.957 669.131 317.207 669.131 316.907C666.731 315.557 665.681 313.307 665.681 308.057V295.757C665.681 283.157 668.831 251.807 685.631 248.507C698.531 245.957 704.081 258.707 705.131 269.957C705.881 277.757 708.131 303.107 708.581 308.057C709.031 313.007 708.431 315.557 706.031 316.907C706.031 317.207 706.031 317.957 706.031 317.957H724.631C724.631 317.957 724.631 317.207 724.631 316.907C722.381 315.557 721.031 313.457 720.431 308.057Z" fill="#E8D6C5"/>
<path opacity="0.8" d="M4714.95 306.207C4707.9 315.357 4695.6 323.907 4678.95 323.907H4665.3V230.007C4665.3 224.607 4666.35 222.507 4668.6 221.157C4668.6 220.857 4668.6 219.957 4668.6 219.957H4650C4650 219.957 4650 220.857 4650 221.157C4652.4 222.507 4653.45 224.607 4653.45 230.007V315.057C4653.45 320.307 4652.4 322.557 4650 323.907C4650 324.207 4650 324.957 4650 324.957H4712.55L4715.85 306.807L4714.95 306.207ZM4781.29 276.507H4784.59C4784.59 276.507 4793.89 276.507 4795.24 276.507C4793.14 258.357 4775.59 252.207 4762.84 252.807C4746.34 253.707 4722.79 264.957 4723.54 290.907C4724.14 315.657 4744.09 325.857 4764.79 325.857C4786.09 325.857 4795.54 311.757 4796.44 301.107C4797.64 287.457 4789.84 278.757 4781.29 276.507ZM4756.09 254.607C4770.79 251.757 4782.49 262.257 4784.44 275.307H4736.59C4739.29 265.107 4745.89 256.557 4756.09 254.607ZM4795.09 301.407C4793.59 313.107 4782.34 321.957 4769.44 322.557C4754.14 323.157 4742.89 316.257 4737.34 300.507C4734.79 293.307 4734.34 284.457 4736.29 276.507H4775.14C4786.54 276.507 4796.89 285.807 4795.09 301.407ZM4822.18 315.057V252.807H4821.13L4807.03 256.107C4807.03 256.107 4807.03 256.857 4807.03 257.157C4809.88 257.607 4810.33 259.107 4810.33 264.357V315.057C4810.33 320.307 4809.28 322.557 4807.03 323.907C4807.03 324.207 4807.03 324.957 4807.03 324.957H4825.63C4825.63 324.957 4825.63 324.207 4825.63 323.907C4823.23 322.557 4822.18 320.307 4822.18 315.057ZM4815.88 240.657C4819.78 240.657 4822.93 237.507 4822.93 233.607C4822.93 229.707 4819.78 226.557 4815.88 226.557C4811.98 226.557 4808.83 229.707 4808.83 233.607C4808.83 237.507 4811.98 240.657 4815.88 240.657ZM4865.17 252.807C4848.82 252.807 4843.42 261.657 4842.22 271.407C4838.62 300.807 4890.97 292.107 4888.12 311.757C4887.22 318.207 4879.12 323.757 4868.32 323.757C4854.97 323.757 4843.72 311.307 4838.62 300.807H4837.87L4834.72 315.807C4842.82 321.807 4851.82 325.857 4863.97 325.857C4880.77 325.857 4891.87 317.007 4892.77 305.157C4894.42 280.707 4843.87 286.107 4845.97 266.007C4846.72 259.857 4852.42 254.157 4862.62 254.157C4871.17 254.157 4880.77 263.457 4885.42 276.207H4886.17L4889.17 262.407C4883.17 257.757 4872.97 252.807 4865.17 252.807ZM4955.05 298.407C4952.35 309.957 4947.4 321.807 4937.5 323.157C4924.75 324.807 4921.15 314.757 4921.15 301.707V254.007H4938.85V252.807H4905.7C4914.7 252.357 4926.1 243.807 4926.1 232.257H4914.25C4914.25 239.457 4913.2 252.807 4900.45 252.807V254.007H4909.3V299.457C4909.3 317.157 4917.55 325.857 4930.9 325.857C4946.65 325.857 4952.95 312.807 4955.8 298.707L4955.05 298.407ZM5028.69 323.907C5026.29 322.557 5025.24 320.307 5025.24 315.057V252.807H5024.19L5010.09 256.107C5010.09 256.107 5010.09 256.857 5010.09 257.157C5012.94 257.607 5013.39 259.107 5013.39 264.357V275.907C5013.39 288.507 5010.39 319.857 4993.59 323.157C4980.69 325.557 4973.94 314.757 4973.94 301.707V252.807H4972.89L4958.79 256.107C4958.79 256.107 4958.79 256.857 4958.79 257.157C4961.64 257.607 4962.09 259.107 4962.09 264.357V299.457C4962.09 317.157 4973.04 325.857 4986.84 325.857C5006.34 325.857 5011.44 305.457 5013.39 288.507V324.957H5028.69C5028.69 324.957 5028.69 324.207 5028.69 323.907ZM5109.11 315.057C5108.51 309.507 5107.01 293.757 5105.51 279.207C5103.71 261.207 5093.21 252.807 5080.91 252.807C5061.41 252.807 5056.31 273.207 5054.36 290.007V252.807H5053.31L5039.21 256.107C5039.21 256.107 5039.21 256.857 5039.21 257.157C5042.06 257.607 5042.51 259.107 5042.51 264.357V315.057C5042.51 320.307 5041.46 322.557 5039.21 323.907C5039.21 324.207 5039.21 324.957 5039.21 324.957H5057.81C5057.81 324.957 5057.81 324.207 5057.81 323.907C5055.41 322.557 5054.36 320.307 5054.36 315.057V302.757C5054.36 290.157 5057.51 258.807 5074.31 255.507C5087.21 252.957 5092.76 265.707 5093.81 276.957C5094.56 284.757 5096.81 310.107 5097.26 315.057C5097.71 320.007 5097.11 322.557 5094.71 323.907C5094.71 324.207 5094.71 324.957 5094.71 324.957H5113.31C5113.31 324.957 5113.31 324.207 5113.31 323.907C5111.06 322.557 5109.71 320.457 5109.11 315.057ZM5198.5 320.907C5190.85 321.207 5181.55 329.007 5170.45 335.607C5160.85 341.457 5152.15 347.307 5144.5 347.157C5138.95 347.157 5136.4 343.557 5136.1 338.607C5135.35 329.607 5146.9 326.157 5156.8 325.707C5157.4 325.857 5157.85 325.857 5158.3 325.857C5178.55 325.857 5199.1 310.107 5199.1 286.107C5199.1 272.457 5191.6 262.407 5180.8 257.157L5204.95 256.107L5204.05 248.607L5178.4 256.107C5173.3 254.007 5167.6 252.807 5161.6 252.807C5141.5 252.807 5120.8 267.807 5120.8 292.557C5120.8 311.607 5135.05 323.307 5152.6 325.407C5142.1 326.457 5127.7 331.407 5128 340.557C5128.15 347.457 5134.15 350.307 5142.1 349.707C5149.15 349.257 5156.65 345.357 5163.55 341.157C5167.15 346.107 5172.4 351.957 5183.2 351.957C5195.95 351.957 5210.95 344.307 5210.95 332.457C5210.95 325.857 5207.5 320.757 5198.5 320.907ZM5133.55 297.357C5128.3 279.207 5132.95 260.457 5150.05 255.507C5167.15 250.557 5181.25 263.307 5186.5 281.307C5191.75 299.457 5186.95 318.207 5170 323.157C5152.9 328.257 5138.8 315.357 5133.55 297.357ZM5201.8 335.007C5201.2 344.907 5194.75 351.057 5183.2 350.907C5172.1 350.757 5167.45 344.607 5164.6 340.407C5166.85 339.057 5169.1 337.707 5171.35 336.357C5180.05 330.957 5189.65 324.507 5194.3 323.907C5200.3 323.007 5202.1 328.107 5201.8 335.007ZM5268.79 276.507H5272.09C5272.09 276.507 5281.39 276.507 5282.74 276.507C5280.64 258.357 5263.09 252.207 5250.34 252.807C5233.84 253.707 5210.29 264.957 5211.04 290.907C5211.64 315.657 5231.59 325.857 5252.29 325.857C5273.59 325.857 5283.04 311.757 5283.94 301.107C5285.14 287.457 5277.34 278.757 5268.79 276.507ZM5243.59 254.607C5258.29 251.757 5269.99 262.257 5271.94 275.307H5224.09C5226.79 265.107 5233.39 256.557 5243.59 254.607ZM5282.59 301.407C5281.09 313.107 5269.84 321.957 5256.94 322.557C5241.64 323.157 5230.39 316.257 5224.84 300.507C5222.29 293.307 5221.84 284.457 5223.79 276.507H5262.64C5274.04 276.507 5284.39 285.807 5282.59 301.407ZM5364.43 315.057C5363.83 309.507 5362.33 293.757 5360.83 279.207C5359.03 261.207 5348.53 252.807 5336.23 252.807C5316.73 252.807 5311.63 273.207 5309.68 290.007V252.807H5308.63L5294.53 256.107C5294.53 256.107 5294.53 256.857 5294.53 257.157C5297.38 257.607 5297.83 259.107 5297.83 264.357V315.057C5297.83 320.307 5296.78 322.557 5294.53 323.907C5294.53 324.207 5294.53 324.957 5294.53 324.957H5313.13C5313.13 324.957 5313.13 324.207 5313.13 323.907C5310.73 322.557 5309.68 320.307 5309.68 315.057V302.757C5309.68 290.157 5312.83 258.807 5329.63 255.507C5342.53 252.957 5348.08 265.707 5349.13 276.957C5349.88 284.757 5352.13 310.107 5352.58 315.057C5353.03 320.007 5352.43 322.557 5350.03 323.907C5350.03 324.207 5350.03 324.957 5350.03 324.957H5368.63C5368.63 324.957 5368.63 324.207 5368.63 323.907C5366.38 322.557 5365.03 320.457 5364.43 315.057Z" fill="#E8D6C5"/>
<path opacity="0.8" d="M1598.95 299.25C1591.9 308.4 1579.6 316.95 1562.95 316.95H1549.3V223.05C1549.3 217.65 1550.35 215.55 1552.6 214.2C1552.6 213.9 1552.6 213 1552.6 213H1534C1534 213 1534 213.9 1534 214.2C1536.4 215.55 1537.45 217.65 1537.45 223.05V308.1C1537.45 313.35 1536.4 315.6 1534 316.95C1534 317.25 1534 318 1534 318H1596.55L1599.85 299.85L1598.95 299.25ZM1665.29 269.55H1668.59C1668.59 269.55 1677.89 269.55 1679.24 269.55C1677.14 251.4 1659.59 245.25 1646.84 245.85C1630.34 246.75 1606.79 258 1607.54 283.95C1608.14 308.7 1628.09 318.9 1648.79 318.9C1670.09 318.9 1679.54 304.8 1680.44 294.15C1681.64 280.5 1673.84 271.8 1665.29 269.55ZM1640.09 247.65C1654.79 244.8 1666.49 255.3 1668.44 268.35H1620.59C1623.29 258.15 1629.89 249.6 1640.09 247.65ZM1679.09 294.45C1677.59 306.15 1666.34 315 1653.44 315.6C1638.14 316.2 1626.89 309.3 1621.34 293.55C1618.79 286.35 1618.34 277.5 1620.29 269.55H1659.14C1670.54 269.55 1680.89 278.85 1679.09 294.45ZM1706.18 308.1V245.85H1705.13L1691.03 249.15C1691.03 249.15 1691.03 249.9 1691.03 250.2C1693.88 250.65 1694.33 252.15 1694.33 257.4V308.1C1694.33 313.35 1693.28 315.6 1691.03 316.95C1691.03 317.25 1691.03 318 1691.03 318H1709.63C1709.63 318 1709.63 317.25 1709.63 316.95C1707.23 315.6 1706.18 313.35 1706.18 308.1ZM1699.88 233.7C1703.78 233.7 1706.93 230.55 1706.93 226.65C1706.93 222.75 1703.78 219.6 1699.88 219.6C1695.98 219.6 1692.83 222.75 1692.83 226.65C1692.83 230.55 1695.98 233.7 1699.88 233.7ZM1749.17 245.85C1732.82 245.85 1727.42 254.7 1726.22 264.45C1722.62 293.85 1774.97 285.15 1772.12 304.8C1771.22 311.25 1763.12 316.8 1752.32 316.8C1738.97 316.8 1727.72 304.35 1722.62 293.85H1721.87L1718.72 308.85C1726.82 314.85 1735.82 318.9 1747.97 318.9C1764.77 318.9 1775.87 310.05 1776.77 298.2C1778.42 273.75 1727.87 279.15 1729.97 259.05C1730.72 252.9 1736.42 247.2 1746.62 247.2C1755.17 247.2 1764.77 256.5 1769.42 269.25H1770.17L1773.17 255.45C1767.17 250.8 1756.97 245.85 1749.17 245.85ZM1839.05 291.45C1836.35 303 1831.4 314.85 1821.5 316.2C1808.75 317.85 1805.15 307.8 1805.15 294.75V247.05H1822.85V245.85H1789.7C1798.7 245.4 1810.1 236.85 1810.1 225.3H1798.25C1798.25 232.5 1797.2 245.85 1784.45 245.85V247.05H1793.3V292.5C1793.3 310.2 1801.55 318.9 1814.9 318.9C1830.65 318.9 1836.95 305.85 1839.8 291.75L1839.05 291.45ZM1912.69 316.95C1910.29 315.6 1909.24 313.35 1909.24 308.1V245.85H1908.19L1894.09 249.15C1894.09 249.15 1894.09 249.9 1894.09 250.2C1896.94 250.65 1897.39 252.15 1897.39 257.4V268.95C1897.39 281.55 1894.39 312.9 1877.59 316.2C1864.69 318.6 1857.94 307.8 1857.94 294.75V245.85H1856.89L1842.79 249.15C1842.79 249.15 1842.79 249.9 1842.79 250.2C1845.64 250.65 1846.09 252.15 1846.09 257.4V292.5C1846.09 310.2 1857.04 318.9 1870.84 318.9C1890.34 318.9 1895.44 298.5 1897.39 281.55V318H1912.69C1912.69 318 1912.69 317.25 1912.69 316.95ZM1993.11 308.1C1992.51 302.55 1991.01 286.8 1989.51 272.25C1987.71 254.25 1977.21 245.85 1964.91 245.85C1945.41 245.85 1940.31 266.25 1938.36 283.05V245.85H1937.31L1923.21 249.15C1923.21 249.15 1923.21 249.9 1923.21 250.2C1926.06 250.65 1926.51 252.15 1926.51 257.4V308.1C1926.51 313.35 1925.46 315.6 1923.21 316.95C1923.21 317.25 1923.21 318 1923.21 318H1941.81C1941.81 318 1941.81 317.25 1941.81 316.95C1939.41 315.6 1938.36 313.35 1938.36 308.1V295.8C1938.36 283.2 1941.51 251.85 1958.31 248.55C1971.21 246 1976.76 258.75 1977.81 270C1978.56 277.8 1980.81 303.15 1981.26 308.1C1981.71 313.05 1981.11 315.6 1978.71 316.95C1978.71 317.25 1978.71 318 1978.71 318H1997.31C1997.31 318 1997.31 317.25 1997.31 316.95C1995.06 315.6 1993.71 313.5 1993.11 308.1ZM2082.5 313.95C2074.85 314.25 2065.55 322.05 2054.45 328.65C2044.85 334.5 2036.15 340.35 2028.5 340.2C2022.95 340.2 2020.4 336.6 2020.1 331.65C2019.35 322.65 2030.9 319.2 2040.8 318.75C2041.4 318.9 2041.85 318.9 2042.3 318.9C2062.55 318.9 2083.1 303.15 2083.1 279.15C2083.1 265.5 2075.6 255.45 2064.8 250.2L2088.95 249.15L2088.05 241.65L2062.4 249.15C2057.3 247.05 2051.6 245.85 2045.6 245.85C2025.5 245.85 2004.8 260.85 2004.8 285.6C2004.8 304.65 2019.05 316.35 2036.6 318.45C2026.1 319.5 2011.7 324.45 2012 333.6C2012.15 340.5 2018.15 343.35 2026.1 342.75C2033.15 342.3 2040.65 338.4 2047.55 334.2C2051.15 339.15 2056.4 345 2067.2 345C2079.95 345 2094.95 337.35 2094.95 325.5C2094.95 318.9 2091.5 313.8 2082.5 313.95ZM2017.55 290.4C2012.3 272.25 2016.95 253.5 2034.05 248.55C2051.15 243.6 2065.25 256.35 2070.5 274.35C2075.75 292.5 2070.95 311.25 2054 316.2C2036.9 321.3 2022.8 308.4 2017.55 290.4ZM2085.8 328.05C2085.2 337.95 2078.75 344.1 2067.2 343.95C2056.1 343.8 2051.45 337.65 2048.6 333.45C2050.85 332.1 2053.1 330.75 2055.35 329.4C2064.05 324 2073.65 317.55 2078.3 316.95C2084.3 316.05 2086.1 321.15 2085.8 328.05ZM2152.79 269.55H2156.09C2156.09 269.55 2165.39 269.55 2166.74 269.55C2164.64 251.4 2147.09 245.25 2134.34 245.85C2117.84 246.75 2094.29 258 2095.04 283.95C2095.64 308.7 2115.59 318.9 2136.29 318.9C2157.59 318.9 2167.04 304.8 2167.94 294.15C2169.14 280.5 2161.34 271.8 2152.79 269.55ZM2127.59 247.65C2142.29 244.8 2153.99 255.3 2155.94 268.35H2108.09C2110.79 258.15 2117.39 249.6 2127.59 247.65ZM2166.59 294.45C2165.09 306.15 2153.84 315 2140.94 315.6C2125.64 316.2 2114.39 309.3 2108.84 293.55C2106.29 286.35 2105.84 277.5 2107.79 269.55H2146.64C2158.04 269.55 2168.39 278.85 2166.59 294.45ZM2248.43 308.1C2247.83 302.55 2246.33 286.8 2244.83 272.25C2243.03 254.25 2232.53 245.85 2220.23 245.85C2200.73 245.85 2195.63 266.25 2193.68 283.05V245.85H2192.63L2178.53 249.15C2178.53 249.15 2178.53 249.9 2178.53 250.2C2181.38 250.65 2181.83 252.15 2181.83 257.4V308.1C2181.83 313.35 2180.78 315.6 2178.53 316.95C2178.53 317.25 2178.53 318 2178.53 318H2197.13C2197.13 318 2197.13 317.25 2197.13 316.95C2194.73 315.6 2193.68 313.35 2193.68 308.1V295.8C2193.68 283.2 2196.83 251.85 2213.63 248.55C2226.53 246 2232.08 258.75 2233.13 270C2233.88 277.8 2236.13 303.15 2236.58 308.1C2237.03 313.05 2236.43 315.6 2234.03 316.95C2234.03 317.25 2234.03 318 2234.03 318H2252.63C2252.63 318 2252.63 317.25 2252.63 316.95C2250.38 315.6 2249.03 313.5 2248.43 308.1Z" fill="#E8D6C5"/>
<path opacity="0.8" d="M3915.56 306.207C3908.51 315.357 3896.21 323.907 3879.56 323.907H3865.91V230.007C3865.91 224.607 3866.96 222.507 3869.21 221.157C3869.21 220.857 3869.21 219.957 3869.21 219.957H3850.61C3850.61 219.957 3850.61 220.857 3850.61 221.157C3853.01 222.507 3854.06 224.607 3854.06 230.007V315.057C3854.06 320.307 3853.01 322.557 3850.61 323.907C3850.61 324.207 3850.61 324.957 3850.61 324.957H3913.16L3916.46 306.807L3915.56 306.207ZM3981.9 276.507H3985.2C3985.2 276.507 3994.5 276.507 3995.85 276.507C3993.75 258.357 3976.2 252.207 3963.45 252.807C3946.95 253.707 3923.4 264.957 3924.15 290.907C3924.75 315.657 3944.7 325.857 3965.4 325.857C3986.7 325.857 3996.15 311.757 3997.05 301.107C3998.25 287.457 3990.45 278.757 3981.9 276.507ZM3956.7 254.607C3971.4 251.757 3983.1 262.257 3985.05 275.307H3937.2C3939.9 265.107 3946.5 256.557 3956.7 254.607ZM3995.7 301.407C3994.2 313.107 3982.95 321.957 3970.05 322.557C3954.75 323.157 3943.5 316.257 3937.95 300.507C3935.4 293.307 3934.95 284.457 3936.9 276.507H3975.75C3987.15 276.507 3997.5 285.807 3995.7 301.407ZM4022.79 315.057V252.807H4021.74L4007.64 256.107C4007.64 256.107 4007.64 256.857 4007.64 257.157C4010.49 257.607 4010.94 259.107 4010.94 264.357V315.057C4010.94 320.307 4009.89 322.557 4007.64 323.907C4007.64 324.207 4007.64 324.957 4007.64 324.957H4026.24C4026.24 324.957 4026.24 324.207 4026.24 323.907C4023.84 322.557 4022.79 320.307 4022.79 315.057ZM4016.49 240.657C4020.39 240.657 4023.54 237.507 4023.54 233.607C4023.54 229.707 4020.39 226.557 4016.49 226.557C4012.59 226.557 4009.44 229.707 4009.44 233.607C4009.44 237.507 4012.59 240.657 4016.49 240.657ZM4065.78 252.807C4049.43 252.807 4044.03 261.657 4042.83 271.407C4039.23 300.807 4091.58 292.107 4088.73 311.757C4087.83 318.207 4079.73 323.757 4068.93 323.757C4055.58 323.757 4044.33 311.307 4039.23 300.807H4038.48L4035.33 315.807C4043.43 321.807 4052.43 325.857 4064.58 325.857C4081.38 325.857 4092.48 317.007 4093.38 305.157C4095.03 280.707 4044.48 286.107 4046.58 266.007C4047.33 259.857 4053.03 254.157 4063.23 254.157C4071.78 254.157 4081.38 263.457 4086.03 276.207H4086.78L4089.78 262.407C4083.78 257.757 4073.58 252.807 4065.78 252.807ZM4155.66 298.407C4152.96 309.957 4148.01 321.807 4138.11 323.157C4125.36 324.807 4121.76 314.757 4121.76 301.707V254.007H4139.46V252.807H4106.31C4115.31 252.357 4126.71 243.807 4126.71 232.257H4114.86C4114.86 239.457 4113.81 252.807 4101.06 252.807V254.007H4109.91V299.457C4109.91 317.157 4118.16 325.857 4131.51 325.857C4147.26 325.857 4153.56 312.807 4156.41 298.707L4155.66 298.407ZM4229.3 323.907C4226.9 322.557 4225.85 320.307 4225.85 315.057V252.807H4224.8L4210.7 256.107C4210.7 256.107 4210.7 256.857 4210.7 257.157C4213.55 257.607 4214 259.107 4214 264.357V275.907C4214 288.507 4211 319.857 4194.2 323.157C4181.3 325.557 4174.55 314.757 4174.55 301.707V252.807H4173.5L4159.4 256.107C4159.4 256.107 4159.4 256.857 4159.4 257.157C4162.25 257.607 4162.7 259.107 4162.7 264.357V299.457C4162.7 317.157 4173.65 325.857 4187.45 325.857C4206.95 325.857 4212.05 305.457 4214 288.507V324.957H4229.3C4229.3 324.957 4229.3 324.207 4229.3 323.907ZM4309.72 315.057C4309.12 309.507 4307.62 293.757 4306.12 279.207C4304.32 261.207 4293.82 252.807 4281.52 252.807C4262.02 252.807 4256.92 273.207 4254.97 290.007V252.807H4253.92L4239.82 256.107C4239.82 256.107 4239.82 256.857 4239.82 257.157C4242.67 257.607 4243.12 259.107 4243.12 264.357V315.057C4243.12 320.307 4242.07 322.557 4239.82 323.907C4239.82 324.207 4239.82 324.957 4239.82 324.957H4258.42C4258.42 324.957 4258.42 324.207 4258.42 323.907C4256.02 322.557 4254.97 320.307 4254.97 315.057V302.757C4254.97 290.157 4258.12 258.807 4274.92 255.507C4287.82 252.957 4293.37 265.707 4294.42 276.957C4295.17 284.757 4297.42 310.107 4297.87 315.057C4298.32 320.007 4297.72 322.557 4295.32 323.907C4295.32 324.207 4295.32 324.957 4295.32 324.957H4313.92C4313.92 324.957 4313.92 324.207 4313.92 323.907C4311.67 322.557 4310.32 320.457 4309.72 315.057ZM4399.11 320.907C4391.46 321.207 4382.16 329.007 4371.06 335.607C4361.46 341.457 4352.76 347.307 4345.11 347.157C4339.56 347.157 4337.01 343.557 4336.71 338.607C4335.96 329.607 4347.51 326.157 4357.41 325.707C4358.01 325.857 4358.46 325.857 4358.91 325.857C4379.16 325.857 4399.71 310.107 4399.71 286.107C4399.71 272.457 4392.21 262.407 4381.41 257.157L4405.56 256.107L4404.66 248.607L4379.01 256.107C4373.91 254.007 4368.21 252.807 4362.21 252.807C4342.11 252.807 4321.41 267.807 4321.41 292.557C4321.41 311.607 4335.66 323.307 4353.21 325.407C4342.71 326.457 4328.31 331.407 4328.61 340.557C4328.76 347.457 4334.76 350.307 4342.71 349.707C4349.76 349.257 4357.26 345.357 4364.16 341.157C4367.76 346.107 4373.01 351.957 4383.81 351.957C4396.56 351.957 4411.56 344.307 4411.56 332.457C4411.56 325.857 4408.11 320.757 4399.11 320.907ZM4334.16 297.357C4328.91 279.207 4333.56 260.457 4350.66 255.507C4367.76 250.557 4381.86 263.307 4387.11 281.307C4392.36 299.457 4387.56 318.207 4370.61 323.157C4353.51 328.257 4339.41 315.357 4334.16 297.357ZM4402.41 335.007C4401.81 344.907 4395.36 351.057 4383.81 350.907C4372.71 350.757 4368.06 344.607 4365.21 340.407C4367.46 339.057 4369.71 337.707 4371.96 336.357C4380.66 330.957 4390.26 324.507 4394.91 323.907C4400.91 323.007 4402.71 328.107 4402.41 335.007ZM4469.4 276.507H4472.7C4472.7 276.507 4482 276.507 4483.35 276.507C4481.25 258.357 4463.7 252.207 4450.95 252.807C4434.45 253.707 4410.9 264.957 4411.65 290.907C4412.25 315.657 4432.2 325.857 4452.9 325.857C4474.2 325.857 4483.65 311.757 4484.55 301.107C4485.75 287.457 4477.95 278.757 4469.4 276.507ZM4444.2 254.607C4458.9 251.757 4470.6 262.257 4472.55 275.307H4424.7C4427.4 265.107 4434 256.557 4444.2 254.607ZM4483.2 301.407C4481.7 313.107 4470.45 321.957 4457.55 322.557C4442.25 323.157 4431 316.257 4425.45 300.507C4422.9 293.307 4422.45 284.457 4424.4 276.507H4463.25C4474.65 276.507 4485 285.807 4483.2 301.407ZM4565.04 315.057C4564.44 309.507 4562.94 293.757 4561.44 279.207C4559.64 261.207 4549.14 252.807 4536.84 252.807C4517.34 252.807 4512.24 273.207 4510.29 290.007V252.807H4509.24L4495.14 256.107C4495.14 256.107 4495.14 256.857 4495.14 257.157C4497.99 257.607 4498.44 259.107 4498.44 264.357V315.057C4498.44 320.307 4497.39 322.557 4495.14 323.907C4495.14 324.207 4495.14 324.957 4495.14 324.957H4513.74C4513.74 324.957 4513.74 324.207 4513.74 323.907C4511.34 322.557 4510.29 320.307 4510.29 315.057V302.757C4510.29 290.157 4513.44 258.807 4530.24 255.507C4543.14 252.957 4548.69 265.707 4549.74 276.957C4550.49 284.757 4552.74 310.107 4553.19 315.057C4553.64 320.007 4553.04 322.557 4550.64 323.907C4550.64 324.207 4550.64 324.957 4550.64 324.957H4569.24C4569.24 324.957 4569.24 324.207 4569.24 323.907C4566.99 322.557 4565.64 320.457 4565.04 315.057Z" fill="#2E2828"/>
<path opacity="0.8" d="M839.559 299.207C832.509 308.357 820.209 316.907 803.559 316.907H789.909V223.007C789.909 217.607 790.959 215.507 793.209 214.157C793.209 213.857 793.209 212.957 793.209 212.957H774.609C774.609 212.957 774.609 213.857 774.609 214.157C777.009 215.507 778.059 217.607 778.059 223.007V308.057C778.059 313.307 777.009 315.557 774.609 316.907C774.609 317.207 774.609 317.957 774.609 317.957H837.159L840.459 299.807L839.559 299.207ZM905.898 269.507H909.198C909.198 269.507 918.498 269.507 919.848 269.507C917.748 251.357 900.198 245.207 887.448 245.807C870.948 246.707 847.398 257.957 848.148 283.907C848.748 308.657 868.698 318.857 889.398 318.857C910.698 318.857 920.148 304.757 921.048 294.107C922.248 280.457 914.448 271.757 905.898 269.507ZM880.698 247.607C895.398 244.757 907.098 255.257 909.048 268.307H861.198C863.898 258.107 870.498 249.557 880.698 247.607ZM919.698 294.407C918.198 306.107 906.948 314.957 894.048 315.557C878.748 316.157 867.498 309.257 861.948 293.507C859.398 286.307 858.948 277.457 860.898 269.507H899.748C911.148 269.507 921.498 278.807 919.698 294.407ZM946.79 308.057V245.807H945.74L931.64 249.107C931.64 249.107 931.64 249.857 931.64 250.157C934.49 250.607 934.94 252.107 934.94 257.357V308.057C934.94 313.307 933.89 315.557 931.64 316.907C931.64 317.207 931.64 317.957 931.64 317.957H950.24C950.24 317.957 950.24 317.207 950.24 316.907C947.84 315.557 946.79 313.307 946.79 308.057ZM940.49 233.657C944.39 233.657 947.54 230.507 947.54 226.607C947.54 222.707 944.39 219.557 940.49 219.557C936.59 219.557 933.44 222.707 933.44 226.607C933.44 230.507 936.59 233.657 940.49 233.657ZM989.776 245.807C973.426 245.807 968.026 254.657 966.826 264.407C963.226 293.807 1015.58 285.107 1012.73 304.757C1011.83 311.207 1003.73 316.757 992.926 316.757C979.576 316.757 968.326 304.307 963.226 293.807H962.476L959.326 308.807C967.426 314.807 976.426 318.857 988.576 318.857C1005.38 318.857 1016.48 310.007 1017.38 298.157C1019.03 273.707 968.476 279.107 970.576 259.007C971.326 252.857 977.026 247.157 987.226 247.157C995.776 247.157 1005.38 256.457 1010.03 269.207H1010.78L1013.78 255.407C1007.78 250.757 997.576 245.807 989.776 245.807ZM1079.66 291.407C1076.96 302.957 1072.01 314.807 1062.11 316.157C1049.36 317.807 1045.76 307.757 1045.76 294.707V247.007H1063.46V245.807H1030.31C1039.31 245.357 1050.71 236.807 1050.71 225.257H1038.86C1038.86 232.457 1037.81 245.807 1025.06 245.807V247.007H1033.91V292.457C1033.91 310.157 1042.16 318.857 1055.51 318.857C1071.26 318.857 1077.56 305.807 1080.41 291.707L1079.66 291.407ZM1153.3 316.907C1150.9 315.557 1149.85 313.307 1149.85 308.057V245.807H1148.8L1134.7 249.107C1134.7 249.107 1134.7 249.857 1134.7 250.157C1137.55 250.607 1138 252.107 1138 257.357V268.907C1138 281.507 1135 312.857 1118.2 316.157C1105.3 318.557 1098.55 307.757 1098.55 294.707V245.807H1097.5L1083.4 249.107C1083.4 249.107 1083.4 249.857 1083.4 250.157C1086.25 250.607 1086.7 252.107 1086.7 257.357V292.457C1086.7 310.157 1097.65 318.857 1111.45 318.857C1130.95 318.857 1136.05 298.457 1138 281.507V317.957H1153.3C1153.3 317.957 1153.3 317.207 1153.3 316.907ZM1233.72 308.057C1233.12 302.507 1231.62 286.757 1230.12 272.207C1228.32 254.207 1217.82 245.807 1205.52 245.807C1186.02 245.807 1180.92 266.207 1178.97 283.007V245.807H1177.92L1163.82 249.107C1163.82 249.107 1163.82 249.857 1163.82 250.157C1166.67 250.607 1167.12 252.107 1167.12 257.357V308.057C1167.12 313.307 1166.07 315.557 1163.82 316.907C1163.82 317.207 1163.82 317.957 1163.82 317.957H1182.42C1182.42 317.957 1182.42 317.207 1182.42 316.907C1180.02 315.557 1178.97 313.307 1178.97 308.057V295.757C1178.97 283.157 1182.12 251.807 1198.92 248.507C1211.82 245.957 1217.37 258.707 1218.42 269.957C1219.17 277.757 1221.42 303.107 1221.87 308.057C1222.32 313.007 1221.72 315.557 1219.32 316.907C1219.32 317.207 1219.32 317.957 1219.32 317.957H1237.92C1237.92 317.957 1237.92 317.207 1237.92 316.907C1235.67 315.557 1234.32 313.457 1233.72 308.057ZM1323.11 313.907C1315.46 314.207 1306.16 322.007 1295.06 328.607C1285.46 334.457 1276.76 340.307 1269.11 340.157C1263.56 340.157 1261.01 336.557 1260.71 331.607C1259.96 322.607 1271.51 319.157 1281.41 318.707C1282.01 318.857 1282.46 318.857 1282.91 318.857C1303.16 318.857 1323.71 303.107 1323.71 279.107C1323.71 265.457 1316.21 255.407 1305.41 250.157L1329.56 249.107L1328.66 241.607L1303.01 249.107C1297.91 247.007 1292.21 245.807 1286.21 245.807C1266.11 245.807 1245.41 260.807 1245.41 285.557C1245.41 304.607 1259.66 316.307 1277.21 318.407C1266.71 319.457 1252.31 324.407 1252.61 333.557C1252.76 340.457 1258.76 343.307 1266.71 342.707C1273.76 342.257 1281.26 338.357 1288.16 334.157C1291.76 339.107 1297.01 344.957 1307.81 344.957C1320.56 344.957 1335.56 337.307 1335.56 325.457C1335.56 318.857 1332.11 313.757 1323.11 313.907ZM1258.16 290.357C1252.91 272.207 1257.56 253.457 1274.66 248.507C1291.76 243.557 1305.86 256.307 1311.11 274.307C1316.36 292.457 1311.56 311.207 1294.61 316.157C1277.51 321.257 1263.41 308.357 1258.16 290.357ZM1326.41 328.007C1325.81 337.907 1319.36 344.057 1307.81 343.907C1296.71 343.757 1292.06 337.607 1289.21 333.407C1291.46 332.057 1293.71 330.707 1295.96 329.357C1304.66 323.957 1314.26 317.507 1318.91 316.907C1324.91 316.007 1326.71 321.107 1326.41 328.007ZM1393.4 269.507H1396.7C1396.7 269.507 1406 269.507 1407.35 269.507C1405.25 251.357 1387.7 245.207 1374.95 245.807C1358.45 246.707 1334.9 257.957 1335.65 283.907C1336.25 308.657 1356.2 318.857 1376.9 318.857C1398.2 318.857 1407.65 304.757 1408.55 294.107C1409.75 280.457 1401.95 271.757 1393.4 269.507ZM1368.2 247.607C1382.9 244.757 1394.6 255.257 1396.55 268.307H1348.7C1351.4 258.107 1358 249.557 1368.2 247.607ZM1407.2 294.407C1405.7 306.107 1394.45 314.957 1381.55 315.557C1366.25 316.157 1355 309.257 1349.45 293.507C1346.9 286.307 1346.45 277.457 1348.4 269.507H1387.25C1398.65 269.507 1409 278.807 1407.2 294.407ZM1489.04 308.057C1488.44 302.507 1486.94 286.757 1485.44 272.207C1483.64 254.207 1473.14 245.807 1460.84 245.807C1441.34 245.807 1436.24 266.207 1434.29 283.007V245.807H1433.24L1419.14 249.107C1419.14 249.107 1419.14 249.857 1419.14 250.157C1421.99 250.607 1422.44 252.107 1422.44 257.357V308.057C1422.44 313.307 1421.39 315.557 1419.14 316.907C1419.14 317.207 1419.14 317.957 1419.14 317.957H1437.74C1437.74 317.957 1437.74 317.207 1437.74 316.907C1435.34 315.557 1434.29 313.307 1434.29 308.057V295.757C1434.29 283.157 1437.44 251.807 1454.24 248.507C1467.14 245.957 1472.69 258.707 1473.74 269.957C1474.49 277.757 1476.74 303.107 1477.19 308.057C1477.64 313.007 1477.04 315.557 1474.64 316.907C1474.64 317.207 1474.64 317.957 1474.64 317.957H1493.24C1493.24 317.957 1493.24 317.207 1493.24 316.907C1490.99 315.557 1489.64 313.457 1489.04 308.057Z" fill="#2E2828"/>
<path opacity="0.8" d="M3206.81 132.25C3199.76 141.4 3187.46 149.95 3170.81 149.95H3157.16V56.05C3157.16 50.65 3158.21 48.55 3160.46 47.2C3160.46 46.9 3160.46 46 3160.46 46H3141.86C3141.86 46 3141.86 46.9 3141.86 47.2C3144.26 48.55 3145.31 50.65 3145.31 56.05V141.1C3145.31 146.35 3144.26 148.6 3141.86 149.95C3141.86 150.25 3141.86 151 3141.86 151H3204.41L3207.71 132.85L3206.81 132.25ZM3273.15 102.55H3276.45C3276.45 102.55 3285.75 102.55 3287.1 102.55C3285 84.4 3267.45 78.25 3254.7 78.85C3238.2 79.75 3214.65 91 3215.4 116.95C3216 141.7 3235.95 151.9 3256.65 151.9C3277.95 151.9 3287.4 137.8 3288.3 127.15C3289.5 113.5 3281.7 104.8 3273.15 102.55ZM3247.95 80.65C3262.65 77.8 3274.35 88.3 3276.3 101.35H3228.45C3231.15 91.15 3237.75 82.6 3247.95 80.65ZM3286.95 127.45C3285.45 139.15 3274.2 148 3261.3 148.6C3246 149.2 3234.75 142.3 3229.2 126.55C3226.65 119.35 3226.2 110.5 3228.15 102.55H3267C3278.4 102.55 3288.75 111.85 3286.95 127.45ZM3314.04 141.1V78.85H3312.99L3298.89 82.15C3298.89 82.15 3298.89 82.9 3298.89 83.2C3301.74 83.65 3302.19 85.15 3302.19 90.4V141.1C3302.19 146.35 3301.14 148.6 3298.89 149.95C3298.89 150.25 3298.89 151 3298.89 151H3317.49C3317.49 151 3317.49 150.25 3317.49 149.95C3315.09 148.6 3314.04 146.35 3314.04 141.1ZM3307.74 66.7C3311.64 66.7 3314.79 63.55 3314.79 59.65C3314.79 55.75 3311.64 52.6 3307.74 52.6C3303.84 52.6 3300.69 55.75 3300.69 59.65C3300.69 63.55 3303.84 66.7 3307.74 66.7ZM3357.03 78.85C3340.68 78.85 3335.28 87.7 3334.08 97.45C3330.48 126.85 3382.83 118.15 3379.98 137.8C3379.08 144.25 3370.98 149.8 3360.18 149.8C3346.83 149.8 3335.58 137.35 3330.48 126.85H3329.73L3326.58 141.85C3334.68 147.85 3343.68 151.9 3355.83 151.9C3372.63 151.9 3383.73 143.05 3384.63 131.2C3386.28 106.75 3335.73 112.15 3337.83 92.05C3338.58 85.9 3344.28 80.2 3354.48 80.2C3363.03 80.2 3372.63 89.5 3377.28 102.25H3378.03L3381.03 88.45C3375.03 83.8 3364.83 78.85 3357.03 78.85ZM3446.91 124.45C3444.21 136 3439.26 147.85 3429.36 149.2C3416.61 150.85 3413.01 140.8 3413.01 127.75V80.05H3430.71V78.85H3397.56C3406.56 78.4 3417.96 69.85 3417.96 58.3H3406.11C3406.11 65.5 3405.06 78.85 3392.31 78.85V80.05H3401.16V125.5C3401.16 143.2 3409.41 151.9 3422.76 151.9C3438.51 151.9 3444.81 138.85 3447.66 124.75L3446.91 124.45ZM3520.55 149.95C3518.15 148.6 3517.1 146.35 3517.1 141.1V78.85H3516.05L3501.95 82.15C3501.95 82.15 3501.95 82.9 3501.95 83.2C3504.8 83.65 3505.25 85.15 3505.25 90.4V101.95C3505.25 114.55 3502.25 145.9 3485.45 149.2C3472.55 151.6 3465.8 140.8 3465.8 127.75V78.85H3464.75L3450.65 82.15C3450.65 82.15 3450.65 82.9 3450.65 83.2C3453.5 83.65 3453.95 85.15 3453.95 90.4V125.5C3453.95 143.2 3464.9 151.9 3478.7 151.9C3498.2 151.9 3503.3 131.5 3505.25 114.55V151H3520.55C3520.55 151 3520.55 150.25 3520.55 149.95ZM3600.97 141.1C3600.37 135.55 3598.87 119.8 3597.37 105.25C3595.57 87.25 3585.07 78.85 3572.77 78.85C3553.27 78.85 3548.17 99.25 3546.22 116.05V78.85H3545.17L3531.07 82.15C3531.07 82.15 3531.07 82.9 3531.07 83.2C3533.92 83.65 3534.37 85.15 3534.37 90.4V141.1C3534.37 146.35 3533.32 148.6 3531.07 149.95C3531.07 150.25 3531.07 151 3531.07 151H3549.67C3549.67 151 3549.67 150.25 3549.67 149.95C3547.27 148.6 3546.22 146.35 3546.22 141.1V128.8C3546.22 116.2 3549.37 84.85 3566.17 81.55C3579.07 79 3584.62 91.75 3585.67 103C3586.42 110.8 3588.67 136.15 3589.12 141.1C3589.57 146.05 3588.97 148.6 3586.57 149.95C3586.57 150.25 3586.57 151 3586.57 151H3605.17C3605.17 151 3605.17 150.25 3605.17 149.95C3602.92 148.6 3601.57 146.5 3600.97 141.1ZM3690.36 146.95C3682.71 147.25 3673.41 155.05 3662.31 161.65C3652.71 167.5 3644.01 173.35 3636.36 173.2C3630.81 173.2 3628.26 169.6 3627.96 164.65C3627.21 155.65 3638.76 152.2 3648.66 151.75C3649.26 151.9 3649.71 151.9 3650.16 151.9C3670.41 151.9 3690.96 136.15 3690.96 112.15C3690.96 98.5 3683.46 88.45 3672.66 83.2L3696.81 82.15L3695.91 74.65L3670.26 82.15C3665.16 80.05 3659.46 78.85 3653.46 78.85C3633.36 78.85 3612.66 93.85 3612.66 118.6C3612.66 137.65 3626.91 149.35 3644.46 151.45C3633.96 152.5 3619.56 157.45 3619.86 166.6C3620.01 173.5 3626.01 176.35 3633.96 175.75C3641.01 175.3 3648.51 171.4 3655.41 167.2C3659.01 172.15 3664.26 178 3675.06 178C3687.81 178 3702.81 170.35 3702.81 158.5C3702.81 151.9 3699.36 146.8 3690.36 146.95ZM3625.41 123.4C3620.16 105.25 3624.81 86.5 3641.91 81.55C3659.01 76.6 3673.11 89.35 3678.36 107.35C3683.61 125.5 3678.81 144.25 3661.86 149.2C3644.76 154.3 3630.66 141.4 3625.41 123.4ZM3693.66 161.05C3693.06 170.95 3686.61 177.1 3675.06 176.95C3663.96 176.8 3659.31 170.65 3656.46 166.45C3658.71 165.1 3660.96 163.75 3663.21 162.4C3671.91 157 3681.51 150.55 3686.16 149.95C3692.16 149.05 3693.96 154.15 3693.66 161.05ZM3760.65 102.55H3763.95C3763.95 102.55 3773.25 102.55 3774.6 102.55C3772.5 84.4 3754.95 78.25 3742.2 78.85C3725.7 79.75 3702.15 91 3702.9 116.95C3703.5 141.7 3723.45 151.9 3744.15 151.9C3765.45 151.9 3774.9 137.8 3775.8 127.15C3777 113.5 3769.2 104.8 3760.65 102.55ZM3735.45 80.65C3750.15 77.8 3761.85 88.3 3763.8 101.35H3715.95C3718.65 91.15 3725.25 82.6 3735.45 80.65ZM3774.45 127.45C3772.95 139.15 3761.7 148 3748.8 148.6C3733.5 149.2 3722.25 142.3 3716.7 126.55C3714.15 119.35 3713.7 110.5 3715.65 102.55H3754.5C3765.9 102.55 3776.25 111.85 3774.45 127.45ZM3856.29 141.1C3855.69 135.55 3854.19 119.8 3852.69 105.25C3850.89 87.25 3840.39 78.85 3828.09 78.85C3808.59 78.85 3803.49 99.25 3801.54 116.05V78.85H3800.49L3786.39 82.15C3786.39 82.15 3786.39 82.9 3786.39 83.2C3789.24 83.65 3789.69 85.15 3789.69 90.4V141.1C3789.69 146.35 3788.64 148.6 3786.39 149.95C3786.39 150.25 3786.39 151 3786.39 151H3804.99C3804.99 151 3804.99 150.25 3804.99 149.95C3802.59 148.6 3801.54 146.35 3801.54 141.1V128.8C3801.54 116.2 3804.69 84.85 3821.49 81.55C3834.39 79 3839.94 91.75 3840.99 103C3841.74 110.8 3843.99 136.15 3844.44 141.1C3844.89 146.05 3844.29 148.6 3841.89 149.95C3841.89 150.25 3841.89 151 3841.89 151H3860.49C3860.49 151 3860.49 150.25 3860.49 149.95C3858.24 148.6 3856.89 146.5 3856.29 141.1Z" fill="#2E2828"/>
<path opacity="0.8" d="M150.811 125.25C143.761 134.4 131.461 142.95 114.811 142.95H101.161V49.05C101.161 43.65 102.211 41.55 104.461 40.2C104.461 39.9 104.461 39 104.461 39H85.8613C85.8613 39 85.8613 39.9 85.8613 40.2C88.2613 41.55 89.3113 43.65 89.3113 49.05V134.1C89.3113 139.35 88.2613 141.6 85.8613 142.95C85.8613 143.25 85.8613 144 85.8613 144H148.411L151.711 125.85L150.811 125.25ZM217.15 95.55H220.45C220.45 95.55 229.75 95.55 231.1 95.55C229 77.4 211.45 71.25 198.7 71.85C182.2 72.75 158.65 84 159.4 109.95C160 134.7 179.95 144.9 200.65 144.9C221.95 144.9 231.4 130.8 232.3 120.15C233.5 106.5 225.7 97.8 217.15 95.55ZM191.95 73.65C206.65 70.8 218.35 81.3 220.3 94.35H172.45C175.15 84.15 181.75 75.6 191.95 73.65ZM230.95 120.45C229.45 132.15 218.2 141 205.3 141.6C190 142.2 178.75 135.3 173.2 119.55C170.65 112.35 170.2 103.5 172.15 95.55H211C222.4 95.55 232.75 104.85 230.95 120.45ZM258.043 134.1V71.85H256.993L242.893 75.15C242.893 75.15 242.893 75.9 242.893 76.2C245.743 76.65 246.193 78.15 246.193 83.4V134.1C246.193 139.35 245.143 141.6 242.893 142.95C242.893 143.25 242.893 144 242.893 144H261.493C261.493 144 261.493 143.25 261.493 142.95C259.093 141.6 258.043 139.35 258.043 134.1ZM251.743 59.7C255.643 59.7 258.793 56.55 258.793 52.65C258.793 48.75 255.643 45.6 251.743 45.6C247.843 45.6 244.693 48.75 244.693 52.65C244.693 56.55 247.843 59.7 251.743 59.7ZM301.028 71.85C284.678 71.85 279.278 80.7 278.078 90.45C274.478 119.85 326.828 111.15 323.978 130.8C323.078 137.25 314.978 142.8 304.178 142.8C290.828 142.8 279.578 130.35 274.478 119.85H273.728L270.578 134.85C278.678 140.85 287.678 144.9 299.828 144.9C316.628 144.9 327.728 136.05 328.628 124.2C330.278 99.75 279.728 105.15 281.828 85.05C282.578 78.9 288.278 73.2 298.478 73.2C307.028 73.2 316.628 82.5 321.278 95.25H322.028L325.028 81.45C319.028 76.8 308.828 71.85 301.028 71.85ZM390.914 117.45C388.214 129 383.264 140.85 373.364 142.2C360.614 143.85 357.014 133.8 357.014 120.75V73.05H374.714V71.85H341.564C350.564 71.4 361.964 62.85 361.964 51.3H350.114C350.114 58.5 349.064 71.85 336.314 71.85V73.05H345.164V118.5C345.164 136.2 353.414 144.9 366.764 144.9C382.514 144.9 388.814 131.85 391.664 117.75L390.914 117.45ZM464.55 142.95C462.15 141.6 461.1 139.35 461.1 134.1V71.85H460.05L445.95 75.15C445.95 75.15 445.95 75.9 445.95 76.2C448.8 76.65 449.25 78.15 449.25 83.4V94.95C449.25 107.55 446.25 138.9 429.45 142.2C416.55 144.6 409.8 133.8 409.8 120.75V71.85H408.75L394.65 75.15C394.65 75.15 394.65 75.9 394.65 76.2C397.5 76.65 397.95 78.15 397.95 83.4V118.5C397.95 136.2 408.9 144.9 422.7 144.9C442.2 144.9 447.3 124.5 449.25 107.55V144H464.55C464.55 144 464.55 143.25 464.55 142.95ZM544.97 134.1C544.37 128.55 542.87 112.8 541.37 98.25C539.57 80.25 529.07 71.85 516.77 71.85C497.27 71.85 492.17 92.25 490.22 109.05V71.85H489.17L475.07 75.15C475.07 75.15 475.07 75.9 475.07 76.2C477.92 76.65 478.37 78.15 478.37 83.4V134.1C478.37 139.35 477.32 141.6 475.07 142.95C475.07 143.25 475.07 144 475.07 144H493.67C493.67 144 493.67 143.25 493.67 142.95C491.27 141.6 490.22 139.35 490.22 134.1V121.8C490.22 109.2 493.37 77.85 510.17 74.55C523.07 72 528.62 84.75 529.67 96C530.42 103.8 532.67 129.15 533.12 134.1C533.57 139.05 532.97 141.6 530.57 142.95C530.57 143.25 530.57 144 530.57 144H549.17C549.17 144 549.17 143.25 549.17 142.95C546.92 141.6 545.57 139.5 544.97 134.1ZM634.362 139.95C626.712 140.25 617.412 148.05 606.312 154.65C596.712 160.5 588.012 166.35 580.362 166.2C574.812 166.2 572.262 162.6 571.962 157.65C571.212 148.65 582.762 145.2 592.662 144.75C593.262 144.9 593.712 144.9 594.162 144.9C614.412 144.9 634.962 129.15 634.962 105.15C634.962 91.5 627.462 81.45 616.662 76.2L640.812 75.15L639.912 67.65L614.262 75.15C609.162 73.05 603.462 71.85 597.462 71.85C577.362 71.85 556.662 86.85 556.662 111.6C556.662 130.65 570.912 142.35 588.462 144.45C577.962 145.5 563.562 150.45 563.862 159.6C564.012 166.5 570.012 169.35 577.962 168.75C585.012 168.3 592.512 164.4 599.412 160.2C603.012 165.15 608.262 171 619.062 171C631.812 171 646.812 163.35 646.812 151.5C646.812 144.9 643.362 139.8 634.362 139.95ZM569.412 116.4C564.162 98.25 568.812 79.5 585.912 74.55C603.012 69.6 617.112 82.35 622.362 100.35C627.612 118.5 622.812 137.25 605.862 142.2C588.762 147.3 574.662 134.4 569.412 116.4ZM637.662 154.05C637.062 163.95 630.612 170.1 619.062 169.95C607.962 169.8 603.312 163.65 600.462 159.45C602.712 158.1 604.962 156.75 607.212 155.4C615.912 150 625.512 143.55 630.162 142.95C636.162 142.05 637.962 147.15 637.662 154.05ZM704.65 95.55H707.95C707.95 95.55 717.25 95.55 718.6 95.55C716.5 77.4 698.95 71.25 686.2 71.85C669.7 72.75 646.15 84 646.9 109.95C647.5 134.7 667.45 144.9 688.15 144.9C709.45 144.9 718.9 130.8 719.8 120.15C721 106.5 713.2 97.8 704.65 95.55ZM679.45 73.65C694.15 70.8 705.85 81.3 707.8 94.35H659.95C662.65 84.15 669.25 75.6 679.45 73.65ZM718.45 120.45C716.95 132.15 705.7 141 692.8 141.6C677.5 142.2 666.25 135.3 660.7 119.55C658.15 112.35 657.7 103.5 659.65 95.55H698.5C709.9 95.55 720.25 104.85 718.45 120.45ZM800.293 134.1C799.693 128.55 798.193 112.8 796.693 98.25C794.893 80.25 784.393 71.85 772.093 71.85C752.593 71.85 747.493 92.25 745.543 109.05V71.85H744.493L730.393 75.15C730.393 75.15 730.393 75.9 730.393 76.2C733.243 76.65 733.693 78.15 733.693 83.4V134.1C733.693 139.35 732.643 141.6 730.393 142.95C730.393 143.25 730.393 144 730.393 144H748.993C748.993 144 748.993 143.25 748.993 142.95C746.593 141.6 745.543 139.35 745.543 134.1V121.8C745.543 109.2 748.693 77.85 765.493 74.55C778.393 72 783.943 84.75 784.993 96C785.743 103.8 787.993 129.15 788.443 134.1C788.893 139.05 788.293 141.6 785.893 142.95C785.893 143.25 785.893 144 785.893 144H804.493C804.493 144 804.493 143.25 804.493 142.95C802.243 141.6 800.893 139.5 800.293 134.1Z" fill="#2E2828"/>
<path opacity="0.8" d="M4758.95 132.25C4751.9 141.4 4739.6 149.95 4722.95 149.95H4709.3V56.05C4709.3 50.65 4710.35 48.55 4712.6 47.2C4712.6 46.9 4712.6 46 4712.6 46H4694C4694 46 4694 46.9 4694 47.2C4696.4 48.55 4697.45 50.65 4697.45 56.05V141.1C4697.45 146.35 4696.4 148.6 4694 149.95C4694 150.25 4694 151 4694 151H4756.55L4759.85 132.85L4758.95 132.25ZM4825.29 102.55H4828.59C4828.59 102.55 4837.89 102.55 4839.24 102.55C4837.14 84.4 4819.59 78.25 4806.84 78.85C4790.34 79.75 4766.79 91 4767.54 116.95C4768.14 141.7 4788.09 151.9 4808.79 151.9C4830.09 151.9 4839.54 137.8 4840.44 127.15C4841.64 113.5 4833.84 104.8 4825.29 102.55ZM4800.09 80.65C4814.79 77.8 4826.49 88.3 4828.44 101.35H4780.59C4783.29 91.15 4789.89 82.6 4800.09 80.65ZM4839.09 127.45C4837.59 139.15 4826.34 148 4813.44 148.6C4798.14 149.2 4786.89 142.3 4781.34 126.55C4778.79 119.35 4778.34 110.5 4780.29 102.55H4819.14C4830.54 102.55 4840.89 111.85 4839.09 127.45ZM4866.18 141.1V78.85H4865.13L4851.03 82.15C4851.03 82.15 4851.03 82.9 4851.03 83.2C4853.88 83.65 4854.33 85.15 4854.33 90.4V141.1C4854.33 146.35 4853.28 148.6 4851.03 149.95C4851.03 150.25 4851.03 151 4851.03 151H4869.63C4869.63 151 4869.63 150.25 4869.63 149.95C4867.23 148.6 4866.18 146.35 4866.18 141.1ZM4859.88 66.7C4863.78 66.7 4866.93 63.55 4866.93 59.65C4866.93 55.75 4863.78 52.6 4859.88 52.6C4855.98 52.6 4852.83 55.75 4852.83 59.65C4852.83 63.55 4855.98 66.7 4859.88 66.7ZM4909.17 78.85C4892.82 78.85 4887.42 87.7 4886.22 97.45C4882.62 126.85 4934.97 118.15 4932.12 137.8C4931.22 144.25 4923.12 149.8 4912.32 149.8C4898.97 149.8 4887.72 137.35 4882.62 126.85H4881.87L4878.72 141.85C4886.82 147.85 4895.82 151.9 4907.97 151.9C4924.77 151.9 4935.87 143.05 4936.77 131.2C4938.42 106.75 4887.87 112.15 4889.97 92.05C4890.72 85.9 4896.42 80.2 4906.62 80.2C4915.17 80.2 4924.77 89.5 4929.42 102.25H4930.17L4933.17 88.45C4927.17 83.8 4916.97 78.85 4909.17 78.85ZM4999.05 124.45C4996.35 136 4991.4 147.85 4981.5 149.2C4968.75 150.85 4965.15 140.8 4965.15 127.75V80.05H4982.85V78.85H4949.7C4958.7 78.4 4970.1 69.85 4970.1 58.3H4958.25C4958.25 65.5 4957.2 78.85 4944.45 78.85V80.05H4953.3V125.5C4953.3 143.2 4961.55 151.9 4974.9 151.9C4990.65 151.9 4996.95 138.85 4999.8 124.75L4999.05 124.45ZM5072.69 149.95C5070.29 148.6 5069.24 146.35 5069.24 141.1V78.85H5068.19L5054.09 82.15C5054.09 82.15 5054.09 82.9 5054.09 83.2C5056.94 83.65 5057.39 85.15 5057.39 90.4V101.95C5057.39 114.55 5054.39 145.9 5037.59 149.2C5024.69 151.6 5017.94 140.8 5017.94 127.75V78.85H5016.89L5002.79 82.15C5002.79 82.15 5002.79 82.9 5002.79 83.2C5005.64 83.65 5006.09 85.15 5006.09 90.4V125.5C5006.09 143.2 5017.04 151.9 5030.84 151.9C5050.34 151.9 5055.44 131.5 5057.39 114.55V151H5072.69C5072.69 151 5072.69 150.25 5072.69 149.95ZM5153.11 141.1C5152.51 135.55 5151.01 119.8 5149.51 105.25C5147.71 87.25 5137.21 78.85 5124.91 78.85C5105.41 78.85 5100.31 99.25 5098.36 116.05V78.85H5097.31L5083.21 82.15C5083.21 82.15 5083.21 82.9 5083.21 83.2C5086.06 83.65 5086.51 85.15 5086.51 90.4V141.1C5086.51 146.35 5085.46 148.6 5083.21 149.95C5083.21 150.25 5083.21 151 5083.21 151H5101.81C5101.81 151 5101.81 150.25 5101.81 149.95C5099.41 148.6 5098.36 146.35 5098.36 141.1V128.8C5098.36 116.2 5101.51 84.85 5118.31 81.55C5131.21 79 5136.76 91.75 5137.81 103C5138.56 110.8 5140.81 136.15 5141.26 141.1C5141.71 146.05 5141.11 148.6 5138.71 149.95C5138.71 150.25 5138.71 151 5138.71 151H5157.31C5157.31 151 5157.31 150.25 5157.31 149.95C5155.06 148.6 5153.71 146.5 5153.11 141.1ZM5242.5 146.95C5234.85 147.25 5225.55 155.05 5214.45 161.65C5204.85 167.5 5196.15 173.35 5188.5 173.2C5182.95 173.2 5180.4 169.6 5180.1 164.65C5179.35 155.65 5190.9 152.2 5200.8 151.75C5201.4 151.9 5201.85 151.9 5202.3 151.9C5222.55 151.9 5243.1 136.15 5243.1 112.15C5243.1 98.5 5235.6 88.45 5224.8 83.2L5248.95 82.15L5248.05 74.65L5222.4 82.15C5217.3 80.05 5211.6 78.85 5205.6 78.85C5185.5 78.85 5164.8 93.85 5164.8 118.6C5164.8 137.65 5179.05 149.35 5196.6 151.45C5186.1 152.5 5171.7 157.45 5172 166.6C5172.15 173.5 5178.15 176.35 5186.1 175.75C5193.15 175.3 5200.65 171.4 5207.55 167.2C5211.15 172.15 5216.4 178 5227.2 178C5239.95 178 5254.95 170.35 5254.95 158.5C5254.95 151.9 5251.5 146.8 5242.5 146.95ZM5177.55 123.4C5172.3 105.25 5176.95 86.5 5194.05 81.55C5211.15 76.6 5225.25 89.35 5230.5 107.35C5235.75 125.5 5230.95 144.25 5214 149.2C5196.9 154.3 5182.8 141.4 5177.55 123.4ZM5245.8 161.05C5245.2 170.95 5238.75 177.1 5227.2 176.95C5216.1 176.8 5211.45 170.65 5208.6 166.45C5210.85 165.1 5213.1 163.75 5215.35 162.4C5224.05 157 5233.65 150.55 5238.3 149.95C5244.3 149.05 5246.1 154.15 5245.8 161.05ZM5312.79 102.55H5316.09C5316.09 102.55 5325.39 102.55 5326.74 102.55C5324.64 84.4 5307.09 78.25 5294.34 78.85C5277.84 79.75 5254.29 91 5255.04 116.95C5255.64 141.7 5275.59 151.9 5296.29 151.9C5317.59 151.9 5327.04 137.8 5327.94 127.15C5329.14 113.5 5321.34 104.8 5312.79 102.55ZM5287.59 80.65C5302.29 77.8 5313.99 88.3 5315.94 101.35H5268.09C5270.79 91.15 5277.39 82.6 5287.59 80.65ZM5326.59 127.45C5325.09 139.15 5313.84 148 5300.94 148.6C5285.64 149.2 5274.39 142.3 5268.84 126.55C5266.29 119.35 5265.84 110.5 5267.79 102.55H5306.64C5318.04 102.55 5328.39 111.85 5326.59 127.45ZM5408.43 141.1C5407.83 135.55 5406.33 119.8 5404.83 105.25C5403.03 87.25 5392.53 78.85 5380.23 78.85C5360.73 78.85 5355.63 99.25 5353.68 116.05V78.85H5352.63L5338.53 82.15C5338.53 82.15 5338.53 82.9 5338.53 83.2C5341.38 83.65 5341.83 85.15 5341.83 90.4V141.1C5341.83 146.35 5340.78 148.6 5338.53 149.95C5338.53 150.25 5338.53 151 5338.53 151H5357.13C5357.13 151 5357.13 150.25 5357.13 149.95C5354.73 148.6 5353.68 146.35 5353.68 141.1V128.8C5353.68 116.2 5356.83 84.85 5373.63 81.55C5386.53 79 5392.08 91.75 5393.13 103C5393.88 110.8 5396.13 136.15 5396.58 141.1C5397.03 146.05 5396.43 148.6 5394.03 149.95C5394.03 150.25 5394.03 151 5394.03 151H5412.63C5412.63 151 5412.63 150.25 5412.63 149.95C5410.38 148.6 5409.03 146.5 5408.43 141.1Z" fill="#2E2828"/>
<path opacity="0.8" d="M1662.95 125.25C1655.9 134.4 1643.6 142.95 1626.95 142.95H1613.3V49.05C1613.3 43.65 1614.35 41.55 1616.6 40.2C1616.6 39.9 1616.6 39 1616.6 39H1598C1598 39 1598 39.9 1598 40.2C1600.4 41.55 1601.45 43.65 1601.45 49.05V134.1C1601.45 139.35 1600.4 141.6 1598 142.95C1598 143.25 1598 144 1598 144H1660.55L1663.85 125.85L1662.95 125.25ZM1729.29 95.55H1732.59C1732.59 95.55 1741.89 95.55 1743.24 95.55C1741.14 77.4 1723.59 71.25 1710.84 71.85C1694.34 72.75 1670.79 84 1671.54 109.95C1672.14 134.7 1692.09 144.9 1712.79 144.9C1734.09 144.9 1743.54 130.8 1744.44 120.15C1745.64 106.5 1737.84 97.8 1729.29 95.55ZM1704.09 73.65C1718.79 70.8 1730.49 81.3 1732.44 94.35H1684.59C1687.29 84.15 1693.89 75.6 1704.09 73.65ZM1743.09 120.45C1741.59 132.15 1730.34 141 1717.44 141.6C1702.14 142.2 1690.89 135.3 1685.34 119.55C1682.79 112.35 1682.34 103.5 1684.29 95.55H1723.14C1734.54 95.55 1744.89 104.85 1743.09 120.45ZM1770.18 134.1V71.85H1769.13L1755.03 75.15C1755.03 75.15 1755.03 75.9 1755.03 76.2C1757.88 76.65 1758.33 78.15 1758.33 83.4V134.1C1758.33 139.35 1757.28 141.6 1755.03 142.95C1755.03 143.25 1755.03 144 1755.03 144H1773.63C1773.63 144 1773.63 143.25 1773.63 142.95C1771.23 141.6 1770.18 139.35 1770.18 134.1ZM1763.88 59.7C1767.78 59.7 1770.93 56.55 1770.93 52.65C1770.93 48.75 1767.78 45.6 1763.88 45.6C1759.98 45.6 1756.83 48.75 1756.83 52.65C1756.83 56.55 1759.98 59.7 1763.88 59.7ZM1813.17 71.85C1796.82 71.85 1791.42 80.7 1790.22 90.45C1786.62 119.85 1838.97 111.15 1836.12 130.8C1835.22 137.25 1827.12 142.8 1816.32 142.8C1802.97 142.8 1791.72 130.35 1786.62 119.85H1785.87L1782.72 134.85C1790.82 140.85 1799.82 144.9 1811.97 144.9C1828.77 144.9 1839.87 136.05 1840.77 124.2C1842.42 99.75 1791.87 105.15 1793.97 85.05C1794.72 78.9 1800.42 73.2 1810.62 73.2C1819.17 73.2 1828.77 82.5 1833.42 95.25H1834.17L1837.17 81.45C1831.17 76.8 1820.97 71.85 1813.17 71.85ZM1903.05 117.45C1900.35 129 1895.4 140.85 1885.5 142.2C1872.75 143.85 1869.15 133.8 1869.15 120.75V73.05H1886.85V71.85H1853.7C1862.7 71.4 1874.1 62.85 1874.1 51.3H1862.25C1862.25 58.5 1861.2 71.85 1848.45 71.85V73.05H1857.3V118.5C1857.3 136.2 1865.55 144.9 1878.9 144.9C1894.65 144.9 1900.95 131.85 1903.8 117.75L1903.05 117.45ZM1976.69 142.95C1974.29 141.6 1973.24 139.35 1973.24 134.1V71.85H1972.19L1958.09 75.15C1958.09 75.15 1958.09 75.9 1958.09 76.2C1960.94 76.65 1961.39 78.15 1961.39 83.4V94.95C1961.39 107.55 1958.39 138.9 1941.59 142.2C1928.69 144.6 1921.94 133.8 1921.94 120.75V71.85H1920.89L1906.79 75.15C1906.79 75.15 1906.79 75.9 1906.79 76.2C1909.64 76.65 1910.09 78.15 1910.09 83.4V118.5C1910.09 136.2 1921.04 144.9 1934.84 144.9C1954.34 144.9 1959.44 124.5 1961.39 107.55V144H1976.69C1976.69 144 1976.69 143.25 1976.69 142.95ZM2057.11 134.1C2056.51 128.55 2055.01 112.8 2053.51 98.25C2051.71 80.25 2041.21 71.85 2028.91 71.85C2009.41 71.85 2004.31 92.25 2002.36 109.05V71.85H2001.31L1987.21 75.15C1987.21 75.15 1987.21 75.9 1987.21 76.2C1990.06 76.65 1990.51 78.15 1990.51 83.4V134.1C1990.51 139.35 1989.46 141.6 1987.21 142.95C1987.21 143.25 1987.21 144 1987.21 144H2005.81C2005.81 144 2005.81 143.25 2005.81 142.95C2003.41 141.6 2002.36 139.35 2002.36 134.1V121.8C2002.36 109.2 2005.51 77.85 2022.31 74.55C2035.21 72 2040.76 84.75 2041.81 96C2042.56 103.8 2044.81 129.15 2045.26 134.1C2045.71 139.05 2045.11 141.6 2042.71 142.95C2042.71 143.25 2042.71 144 2042.71 144H2061.31C2061.31 144 2061.31 143.25 2061.31 142.95C2059.06 141.6 2057.71 139.5 2057.11 134.1ZM2146.5 139.95C2138.85 140.25 2129.55 148.05 2118.45 154.65C2108.85 160.5 2100.15 166.35 2092.5 166.2C2086.95 166.2 2084.4 162.6 2084.1 157.65C2083.35 148.65 2094.9 145.2 2104.8 144.75C2105.4 144.9 2105.85 144.9 2106.3 144.9C2126.55 144.9 2147.1 129.15 2147.1 105.15C2147.1 91.5 2139.6 81.45 2128.8 76.2L2152.95 75.15L2152.05 67.65L2126.4 75.15C2121.3 73.05 2115.6 71.85 2109.6 71.85C2089.5 71.85 2068.8 86.85 2068.8 111.6C2068.8 130.65 2083.05 142.35 2100.6 144.45C2090.1 145.5 2075.7 150.45 2076 159.6C2076.15 166.5 2082.15 169.35 2090.1 168.75C2097.15 168.3 2104.65 164.4 2111.55 160.2C2115.15 165.15 2120.4 171 2131.2 171C2143.95 171 2158.95 163.35 2158.95 151.5C2158.95 144.9 2155.5 139.8 2146.5 139.95ZM2081.55 116.4C2076.3 98.25 2080.95 79.5 2098.05 74.55C2115.15 69.6 2129.25 82.35 2134.5 100.35C2139.75 118.5 2134.95 137.25 2118 142.2C2100.9 147.3 2086.8 134.4 2081.55 116.4ZM2149.8 154.05C2149.2 163.95 2142.75 170.1 2131.2 169.95C2120.1 169.8 2115.45 163.65 2112.6 159.45C2114.85 158.1 2117.1 156.75 2119.35 155.4C2128.05 150 2137.65 143.55 2142.3 142.95C2148.3 142.05 2150.1 147.15 2149.8 154.05ZM2216.79 95.55H2220.09C2220.09 95.55 2229.39 95.55 2230.74 95.55C2228.64 77.4 2211.09 71.25 2198.34 71.85C2181.84 72.75 2158.29 84 2159.04 109.95C2159.64 134.7 2179.59 144.9 2200.29 144.9C2221.59 144.9 2231.04 130.8 2231.94 120.15C2233.14 106.5 2225.34 97.8 2216.79 95.55ZM2191.59 73.65C2206.29 70.8 2217.99 81.3 2219.94 94.35H2172.09C2174.79 84.15 2181.39 75.6 2191.59 73.65ZM2230.59 120.45C2229.09 132.15 2217.84 141 2204.94 141.6C2189.64 142.2 2178.39 135.3 2172.84 119.55C2170.29 112.35 2169.84 103.5 2171.79 95.55H2210.64C2222.04 95.55 2232.39 104.85 2230.59 120.45ZM2312.43 134.1C2311.83 128.55 2310.33 112.8 2308.83 98.25C2307.03 80.25 2296.53 71.85 2284.23 71.85C2264.73 71.85 2259.63 92.25 2257.68 109.05V71.85H2256.63L2242.53 75.15C2242.53 75.15 2242.53 75.9 2242.53 76.2C2245.38 76.65 2245.83 78.15 2245.83 83.4V134.1C2245.83 139.35 2244.78 141.6 2242.53 142.95C2242.53 143.25 2242.53 144 2242.53 144H2261.13C2261.13 144 2261.13 143.25 2261.13 142.95C2258.73 141.6 2257.68 139.35 2257.68 134.1V121.8C2257.68 109.2 2260.83 77.85 2277.63 74.55C2290.53 72 2296.08 84.75 2297.13 96C2297.88 103.8 2300.13 129.15 2300.58 134.1C2301.03 139.05 2300.43 141.6 2298.03 142.95C2298.03 143.25 2298.03 144 2298.03 144H2316.63C2316.63 144 2316.63 143.25 2316.63 142.95C2314.38 141.6 2313.03 139.5 2312.43 134.1Z" fill="#2E2828"/>
<path opacity="0.8" d="M2366.95 299.25C2359.9 308.4 2347.6 316.95 2330.95 316.95H2317.3V223.05C2317.3 217.65 2318.35 215.55 2320.6 214.2C2320.6 213.9 2320.6 213 2320.6 213H2302C2302 213 2302 213.9 2302 214.2C2304.4 215.55 2305.45 217.65 2305.45 223.05V308.1C2305.45 313.35 2304.4 315.6 2302 316.95C2302 317.25 2302 318 2302 318H2364.55L2367.85 299.85L2366.95 299.25ZM2433.29 269.55H2436.59C2436.59 269.55 2445.89 269.55 2447.24 269.55C2445.14 251.4 2427.59 245.25 2414.84 245.85C2398.34 246.75 2374.79 258 2375.54 283.95C2376.14 308.7 2396.09 318.9 2416.79 318.9C2438.09 318.9 2447.54 304.8 2448.44 294.15C2449.64 280.5 2441.84 271.8 2433.29 269.55ZM2408.09 247.65C2422.79 244.8 2434.49 255.3 2436.44 268.35H2388.59C2391.29 258.15 2397.89 249.6 2408.09 247.65ZM2447.09 294.45C2445.59 306.15 2434.34 315 2421.44 315.6C2406.14 316.2 2394.89 309.3 2389.34 293.55C2386.79 286.35 2386.34 277.5 2388.29 269.55H2427.14C2438.54 269.55 2448.89 278.85 2447.09 294.45ZM2474.18 308.1V245.85H2473.13L2459.03 249.15C2459.03 249.15 2459.03 249.9 2459.03 250.2C2461.88 250.65 2462.33 252.15 2462.33 257.4V308.1C2462.33 313.35 2461.28 315.6 2459.03 316.95C2459.03 317.25 2459.03 318 2459.03 318H2477.63C2477.63 318 2477.63 317.25 2477.63 316.95C2475.23 315.6 2474.18 313.35 2474.18 308.1ZM2467.88 233.7C2471.78 233.7 2474.93 230.55 2474.93 226.65C2474.93 222.75 2471.78 219.6 2467.88 219.6C2463.98 219.6 2460.83 222.75 2460.83 226.65C2460.83 230.55 2463.98 233.7 2467.88 233.7ZM2517.17 245.85C2500.82 245.85 2495.42 254.7 2494.22 264.45C2490.62 293.85 2542.97 285.15 2540.12 304.8C2539.22 311.25 2531.12 316.8 2520.32 316.8C2506.97 316.8 2495.72 304.35 2490.62 293.85H2489.87L2486.72 308.85C2494.82 314.85 2503.82 318.9 2515.97 318.9C2532.77 318.9 2543.87 310.05 2544.77 298.2C2546.42 273.75 2495.87 279.15 2497.97 259.05C2498.72 252.9 2504.42 247.2 2514.62 247.2C2523.17 247.2 2532.77 256.5 2537.42 269.25H2538.17L2541.17 255.45C2535.17 250.8 2524.97 245.85 2517.17 245.85ZM2607.05 291.45C2604.35 303 2599.4 314.85 2589.5 316.2C2576.75 317.85 2573.15 307.8 2573.15 294.75V247.05H2590.85V245.85H2557.7C2566.7 245.4 2578.1 236.85 2578.1 225.3H2566.25C2566.25 232.5 2565.2 245.85 2552.45 245.85V247.05H2561.3V292.5C2561.3 310.2 2569.55 318.9 2582.9 318.9C2598.65 318.9 2604.95 305.85 2607.8 291.75L2607.05 291.45ZM2680.69 316.95C2678.29 315.6 2677.24 313.35 2677.24 308.1V245.85H2676.19L2662.09 249.15C2662.09 249.15 2662.09 249.9 2662.09 250.2C2664.94 250.65 2665.39 252.15 2665.39 257.4V268.95C2665.39 281.55 2662.39 312.9 2645.59 316.2C2632.69 318.6 2625.94 307.8 2625.94 294.75V245.85H2624.89L2610.79 249.15C2610.79 249.15 2610.79 249.9 2610.79 250.2C2613.64 250.65 2614.09 252.15 2614.09 257.4V292.5C2614.09 310.2 2625.04 318.9 2638.84 318.9C2658.34 318.9 2663.44 298.5 2665.39 281.55V318H2680.69C2680.69 318 2680.69 317.25 2680.69 316.95ZM2761.11 308.1C2760.51 302.55 2759.01 286.8 2757.51 272.25C2755.71 254.25 2745.21 245.85 2732.91 245.85C2713.41 245.85 2708.31 266.25 2706.36 283.05V245.85H2705.31L2691.21 249.15C2691.21 249.15 2691.21 249.9 2691.21 250.2C2694.06 250.65 2694.51 252.15 2694.51 257.4V308.1C2694.51 313.35 2693.46 315.6 2691.21 316.95C2691.21 317.25 2691.21 318 2691.21 318H2709.81C2709.81 318 2709.81 317.25 2709.81 316.95C2707.41 315.6 2706.36 313.35 2706.36 308.1V295.8C2706.36 283.2 2709.51 251.85 2726.31 248.55C2739.21 246 2744.76 258.75 2745.81 270C2746.56 277.8 2748.81 303.15 2749.26 308.1C2749.71 313.05 2749.11 315.6 2746.71 316.95C2746.71 317.25 2746.71 318 2746.71 318H2765.31C2765.31 318 2765.31 317.25 2765.31 316.95C2763.06 315.6 2761.71 313.5 2761.11 308.1ZM2850.5 313.95C2842.85 314.25 2833.55 322.05 2822.45 328.65C2812.85 334.5 2804.15 340.35 2796.5 340.2C2790.95 340.2 2788.4 336.6 2788.1 331.65C2787.35 322.65 2798.9 319.2 2808.8 318.75C2809.4 318.9 2809.85 318.9 2810.3 318.9C2830.55 318.9 2851.1 303.15 2851.1 279.15C2851.1 265.5 2843.6 255.45 2832.8 250.2L2856.95 249.15L2856.05 241.65L2830.4 249.15C2825.3 247.05 2819.6 245.85 2813.6 245.85C2793.5 245.85 2772.8 260.85 2772.8 285.6C2772.8 304.65 2787.05 316.35 2804.6 318.45C2794.1 319.5 2779.7 324.45 2780 333.6C2780.15 340.5 2786.15 343.35 2794.1 342.75C2801.15 342.3 2808.65 338.4 2815.55 334.2C2819.15 339.15 2824.4 345 2835.2 345C2847.95 345 2862.95 337.35 2862.95 325.5C2862.95 318.9 2859.5 313.8 2850.5 313.95ZM2785.55 290.4C2780.3 272.25 2784.95 253.5 2802.05 248.55C2819.15 243.6 2833.25 256.35 2838.5 274.35C2843.75 292.5 2838.95 311.25 2822 316.2C2804.9 321.3 2790.8 308.4 2785.55 290.4ZM2853.8 328.05C2853.2 337.95 2846.75 344.1 2835.2 343.95C2824.1 343.8 2819.45 337.65 2816.6 333.45C2818.85 332.1 2821.1 330.75 2823.35 329.4C2832.05 324 2841.65 317.55 2846.3 316.95C2852.3 316.05 2854.1 321.15 2853.8 328.05ZM2920.79 269.55H2924.09C2924.09 269.55 2933.39 269.55 2934.74 269.55C2932.64 251.4 2915.09 245.25 2902.34 245.85C2885.84 246.75 2862.29 258 2863.04 283.95C2863.64 308.7 2883.59 318.9 2904.29 318.9C2925.59 318.9 2935.04 304.8 2935.94 294.15C2937.14 280.5 2929.34 271.8 2920.79 269.55ZM2895.59 247.65C2910.29 244.8 2921.99 255.3 2923.94 268.35H2876.09C2878.79 258.15 2885.39 249.6 2895.59 247.65ZM2934.59 294.45C2933.09 306.15 2921.84 315 2908.94 315.6C2893.64 316.2 2882.39 309.3 2876.84 293.55C2874.29 286.35 2873.84 277.5 2875.79 269.55H2914.64C2926.04 269.55 2936.39 278.85 2934.59 294.45ZM3016.43 308.1C3015.83 302.55 3014.33 286.8 3012.83 272.25C3011.03 254.25 3000.53 245.85 2988.23 245.85C2968.73 245.85 2963.63 266.25 2961.68 283.05V245.85H2960.63L2946.53 249.15C2946.53 249.15 2946.53 249.9 2946.53 250.2C2949.38 250.65 2949.83 252.15 2949.83 257.4V308.1C2949.83 313.35 2948.78 315.6 2946.53 316.95C2946.53 317.25 2946.53 318 2946.53 318H2965.13C2965.13 318 2965.13 317.25 2965.13 316.95C2962.73 315.6 2961.68 313.35 2961.68 308.1V295.8C2961.68 283.2 2964.83 251.85 2981.63 248.55C2994.53 246 3000.08 258.75 3001.13 270C3001.88 277.8 3004.13 303.15 3004.58 308.1C3005.03 313.05 3004.43 315.6 3002.03 316.95C3002.03 317.25 3002.03 318 3002.03 318H3020.63C3020.63 318 3020.63 317.25 3020.63 316.95C3018.38 315.6 3017.03 313.5 3016.43 308.1Z" fill="#2E2828"/>
</svg>
