<svg width="73" height="86" viewBox="0 0 73 86" fill="none" xmlns="http://www.w3.org/2000/svg">
<path d="M21.7417 30.5878C22.3135 29.3692 22.9773 28.1968 23.727 27.081C24.1973 26.3904 24.7443 25.7564 25.3572 25.1913C25.6232 24.9504 25.9095 24.7334 26.2129 24.5427C26.6646 24.219 27.1846 24.0058 27.7318 23.9201C27.8646 23.8969 27.9993 23.8868 28.134 23.8898C28.2686 23.8834 28.4035 23.8922 28.5362 23.9157H28.7373L28.9384 23.9719L29.3406 24.0844C30.436 24.5401 31.4232 25.2254 32.2373 26.0951C33.3566 27.0937 34.3278 28.25 35.1211 29.5284C34.5276 28.4064 33.8099 27.3561 32.9818 26.3978C32.1743 25.4223 31.1969 24.6045 30.0979 23.9849C29.2166 23.4997 28.1856 23.3714 27.2141 23.626C26.2637 23.9541 25.4203 24.5388 24.7753 25.3167C24.1139 26.084 23.5398 26.9238 23.0638 27.8204C22.5743 28.7147 22.1371 29.6374 21.7545 30.5835" fill="#2E2828"/>
<path d="M32.8872 25.8184C35.1709 28.3673 36.6749 31.5304 37.2172 34.9249C36.9539 33.8945 36.5958 32.8913 36.1476 31.9283C35.4682 29.6951 34.3604 27.6189 32.8872 25.8184Z" fill="#2E2828"/>
<path d="M29.8058 76.0516L29.6688 76.5532L29.4934 77.0332L29.0955 78.0277C28.8259 78.6893 28.5435 79.325 28.2398 79.9606C27.9404 80.574 27.5957 81.1638 27.2086 81.7249C26.8629 82.2501 26.4284 82.7097 25.925 83.0826C25.5367 83.3893 25.046 83.5319 24.5558 83.4805C24.1122 83.3228 23.7259 83.0334 23.4476 82.6502C22.6641 81.652 22.1312 80.477 21.8945 79.2255C21.6203 77.9274 21.5467 76.5942 21.6763 75.2733C21.6972 74.9383 21.7372 74.6048 21.7961 74.2744C21.8431 73.9414 21.8945 73.6128 21.9672 73.2626C22.0999 72.575 22.2582 71.8832 22.4165 71.1913C22.8444 69.1374 23.4049 67.0618 23.8541 64.9127C24.271 63.0269 24.5116 61.1058 24.5729 59.1746C24.6697 57.0548 24.5044 54.9311 24.0809 52.8527C23.8423 51.8078 23.5291 50.7818 23.1439 49.7826L23.0882 49.6399C22.8786 50.5393 22.5363 51.3695 22.2838 52.1695C22.4802 52.8098 22.6402 53.4609 22.7631 54.1197C23.0101 55.5474 23.1303 56.9945 23.1225 58.4438C23.1444 59.8905 23.05 61.3367 22.8401 62.7679C22.4122 65.6262 21.6806 68.4152 21.1286 71.2302C20.8257 72.6162 20.6339 74.0247 20.5553 75.4419C20.4959 76.8614 20.6517 78.2817 21.0174 79.6536C21.1029 79.9952 21.2356 80.3195 21.3468 80.6568C21.472 80.9816 21.6148 81.2992 21.7747 81.6081C22.0829 82.2301 22.4841 82.8004 22.9642 83.2988C23.1944 83.5425 23.4564 83.7535 23.7429 83.9258C23.879 84.0067 24.0222 84.0748 24.1707 84.1291C24.3182 84.171 24.4713 84.1885 24.6243 84.181C25.2749 84.175 25.9012 83.9307 26.3871 83.4934C27.4183 82.6286 28.0986 81.3314 28.6762 80.0601C28.9629 79.4158 29.2239 78.7628 29.4677 78.0796C29.7218 77.4189 29.9404 76.7448 30.1224 76.0603C30.8112 73.3015 31.2648 70.4389 31.7654 67.6196C31.1578 70.4519 30.5973 73.3188 29.8015 76.043" fill="#2E2828"/>
<path d="M22.7216 56.9519C22.7216 57.1205 22.7216 57.6308 22.6703 58.4048C22.6274 59.3941 22.5288 60.3802 22.3751 61.3582C22.0199 63.7018 21.1471 66.6293 20.3341 69.574C20.1331 70.3134 19.9405 71.0615 19.7651 71.8009C19.5897 72.5403 19.4313 73.2668 19.3158 74.0235C19.0891 75.3932 19.0273 76.7856 19.1318 78.1704C19.2245 79.1753 19.4195 80.1679 19.7137 81.1324C19.8293 81.487 19.9405 81.7594 20.009 81.9496C20.0429 82.0458 20.0829 82.1397 20.1288 82.2307C20.6479 83.3662 21.4144 84.3685 22.3708 85.1625C22.6742 85.3978 23.0064 85.5925 23.3592 85.7419C23.5696 85.8369 23.791 85.9052 24.0181 85.9451C24.226 85.9902 24.4389 86.0076 24.6513 85.997C25.0457 86.0065 25.4394 85.957 25.8194 85.85C26.0025 85.7995 26.1813 85.7344 26.3542 85.6554C26.5273 85.5899 26.6935 85.5073 26.8506 85.4089C27.9142 84.729 28.7959 83.7949 29.4178 82.6891C29.9774 81.7552 30.4624 80.7778 30.8683 79.766C31.0693 79.2773 31.2576 78.7887 31.433 78.3087C31.6298 77.8003 31.8011 77.2822 31.9465 76.7564C32.2374 75.7186 32.4599 74.7197 32.6781 73.7295C33.106 71.7274 33.4611 69.7383 33.8334 67.7622C33.9831 66.5514 34.1243 65.3104 34.3211 64.1905C34.518 63.0705 34.826 61.8598 35.1298 60.6836C35.7502 58.327 36.4134 55.979 37.205 53.6526C36.4134 55.5336 35.686 57.4319 34.9886 59.3518C34.27 61.2454 33.6726 63.1837 33.2001 65.1548C32.7723 67.1395 32.3872 69.1632 31.9679 71.1739C31.7582 72.1771 31.54 73.1846 31.3047 74.2008C31.0693 75.217 30.8212 76.2029 30.4789 77.1974C29.9635 78.7755 29.3091 80.3037 28.5235 81.7637C28.1182 82.5109 27.6032 83.1917 26.996 83.7831C26.3578 84.4206 25.4974 84.7793 24.6 84.7819C24.3649 84.786 24.1311 84.7449 23.9111 84.6609L23.5988 84.5182C23.5002 84.4642 23.4045 84.405 23.3121 84.3409C22.9548 84.0969 22.631 83.8061 22.3494 83.4761C21.8054 82.827 21.3624 82.098 21.0359 81.314C20.3912 79.7596 20.0582 78.0915 20.056 76.4061C20.062 74.7416 20.2485 73.0827 20.6123 71.4593C20.9332 69.8421 21.314 68.2465 21.6734 66.6466C22.0328 65.0466 22.358 63.451 22.5633 61.8381C22.7489 60.2238 22.8019 58.5967 22.7216 56.9735" fill="#2E2828"/>
<path d="M39.0823 40.6068C38.7043 38.6481 38.153 36.7277 37.4351 34.8687C37.9419 36.7164 38.2616 38.6115 38.3892 40.5246L39.0823 40.6068Z" fill="#2E2828"/>
<path d="M37.6459 48.5806C37.4705 49.4454 37.3378 50.0983 37.1239 50.9372C36.9036 51.8099 36.6175 52.6642 36.2682 53.4928C35.913 54.3576 35.5707 55.1792 35.237 56.031C34.561 57.7131 33.9491 59.4428 33.3415 61.1724C33.0549 62.0372 32.7725 62.9021 32.5329 63.8058C32.2933 64.7095 32.105 65.6046 31.9253 66.4954C32.1521 65.609 32.3532 64.7225 32.6484 63.8361C32.9436 62.9496 33.2431 62.1064 33.5726 61.2416C34.2315 59.5379 34.9418 57.8601 35.6777 56.1953C36.0457 55.3651 36.4222 54.5349 36.8115 53.7219C37.2136 52.8841 37.5525 52.0168 37.8256 51.1275C38.0609 50.3405 38.2535 49.3978 38.4417 48.6368L37.6459 48.5806Z" fill="#2E2828"/>
<path d="M19.7488 35.66C20.1766 33.9304 20.6986 33.0656 21.3233 31.3705C21.9317 29.6739 22.7222 28.0499 23.6809 26.5275C24.1675 25.7644 24.7532 25.0707 25.4223 24.4649C26.0981 23.8427 26.9462 23.4443 27.8526 23.3233C28.7658 23.2712 29.6742 23.489 30.4668 23.9503C31.254 24.3866 31.9746 24.9357 32.6062 25.5805C31.9817 24.9001 31.2607 24.3172 30.4668 23.8509C30.273 23.7372 30.0714 23.6375 29.8635 23.5525C29.7566 23.5093 29.6539 23.4531 29.5426 23.4141L29.2046 23.3104C28.747 23.1514 28.2626 23.0868 27.7798 23.1201C26.8152 23.2279 25.9061 23.6307 25.1741 24.2746C24.4586 24.885 23.8282 25.5904 23.3001 26.3718C22.9182 26.9411 22.5682 27.5315 22.2518 28.1404C21.9694 28.6636 21.7255 29.1739 21.4902 29.723C20.9767 30.8776 20.5318 32.058 20.1338 33.2515C19.8301 34.3844 19.5691 34.6612 19.3423 35.8071L19.7488 35.66Z" fill="#2E2828"/>
<path d="M22.0842 52.9955C21.8123 51.6771 21.411 50.3893 20.8861 49.1514C20.608 48.4898 20.3042 47.8541 20.0304 47.1839C19.7566 46.5137 19.4742 45.8521 19.2474 45.1689C18.7786 43.802 18.5007 42.3757 18.4216 40.9312C18.3623 39.4797 18.4874 38.0265 18.7939 36.6071C19.2217 36.4428 19.6496 36.2871 20.0775 36.1488C19.7135 37.8456 19.6297 39.5916 19.8293 41.3161C20.0838 43.0012 20.6023 44.6345 21.3653 46.1548C21.4509 46.371 21.5408 46.5872 21.6392 46.8034L21.9301 47.4823C22.1355 47.9579 22.3366 48.4422 22.5206 48.9352C22.6233 49.2033 22.7217 49.48 22.8158 49.7524C23.7999 45.4283 25.1862 39.4654 26.0548 37.0266C26.4185 36.0104 28.9685 30.4582 29.144 23.4315C29.0113 23.371 28.8744 23.3105 28.7161 23.2586L28.3139 23.1461L28.1128 23.0899H27.9117C27.779 23.0662 27.6441 23.0575 27.5095 23.064C27.3748 23.061 27.2401 23.0711 27.1073 23.0942C26.5603 23.1808 26.0405 23.3939 25.5884 23.7169C25.285 23.9076 24.9987 24.1246 24.7327 24.3655C24.1209 24.9317 23.5741 25.5656 23.1025 26.2552C22.3545 27.3721 21.6908 28.5444 21.1172 29.762C21.5012 28.8158 21.9398 27.8932 22.4307 26.9989C22.9066 26.1022 23.4807 25.2624 24.1422 24.4953C24.7872 23.7173 25.6307 23.1326 26.581 22.8045C27.4343 22.5666 28.3433 22.6401 29.1482 23.0121V22.8089C28.5419 22.5508 27.8829 22.444 27.2271 22.4975C26.3223 22.6194 25.4758 23.0177 24.8011 23.6391C24.1296 24.2425 23.5437 24.9366 23.0597 25.7017C22.1024 27.2257 21.3132 28.8512 20.7064 30.549C20.0903 32.2008 19.8293 33.9305 19.4014 35.6601L18.7382 35.8245C18.965 34.6786 19.2217 33.537 19.5298 32.4041C19.9231 31.2057 20.3758 30.028 20.8861 28.8756C21.1215 28.3437 21.3739 27.8205 21.6477 27.3016C21.9611 26.6919 22.3097 26.1014 22.6917 25.5331C23.2198 24.7517 23.8503 24.0462 24.5658 23.4359C25.2978 22.7919 26.2069 22.3891 27.1715 22.2813C27.6525 22.2396 28.1369 22.2955 28.5963 22.4456L28.9343 22.5494C29.0103 22.5767 29.0846 22.6084 29.1568 22.6445C29.1625 20.7562 28.9746 18.8724 28.5963 17.0232C26.5511 7.22041 20.9204 0.902877 14.866 0.124536C5.53852 -1.07324 3.9982 6.68855 3.26655 9.71543C2.53489 12.7423 1.78185 19.4706 2.18832 23.2326C2.51778 26.2854 4.63572 36.8363 3.75432 42.0166C2.87291 47.1969 0.481131 56.4548 0.0318699 62.1237C-0.417391 67.7927 3.94686 72.0995 9.09838 72.5016C14.2499 72.9038 17.4717 67.9137 18.5799 65.8079C19.6881 63.702 21.1856 56.8051 21.8959 53.7912C21.9515 53.562 22.0114 53.2852 22.0842 52.9782" fill="#2E2828"/>
<path d="M26.5717 49.3547C26.523 49.3338 26.4705 49.3235 26.4176 49.3245H26.2936C26.2622 49.3257 26.2309 49.3207 26.2015 49.3095C26.1721 49.2984 26.1452 49.2814 26.1224 49.2596C26.1136 49.2366 26.0991 49.2162 26.0804 49.2004C26.0617 49.1845 26.0394 49.1736 26.0155 49.1688C25.8956 49.1688 25.6475 48.8272 25.5876 48.5937C25.5876 48.438 25.5576 48.2824 25.5576 48.1094C25.5482 47.8172 25.5843 47.5254 25.6646 47.2446C25.9256 46.3797 26.0925 45.9473 26.2807 45.3765C26.4048 45.0349 26.5417 44.5982 26.6059 44.4123C26.6964 44.1338 26.8094 43.8634 26.9439 43.6037C26.9739 43.6037 26.991 43.5258 27.0038 43.461C27.0167 43.3961 27.145 43.0718 27.2819 42.6999C27.4189 42.328 27.5772 41.9691 27.5772 41.9519C27.5925 41.8622 27.6293 41.7776 27.6841 41.7054C27.7312 41.593 27.8681 41.273 27.9751 40.927C28.2061 40.2265 28.8308 38.3715 28.9934 37.9823C29.0632 37.8055 29.119 37.6233 29.1603 37.4375L29.3913 36.7067C29.4669 36.5048 29.5242 36.2964 29.5625 36.084C29.5586 36.0194 29.5763 35.9552 29.6128 35.9019C29.6493 35.8486 29.7023 35.8092 29.7636 35.79C29.8229 35.7471 29.8922 35.7204 29.9647 35.7122L30.0545 35.7424C30.1712 35.7802 30.2897 35.812 30.4096 35.8376C30.5466 35.8376 30.7776 35.8981 30.9188 35.9284C31.0586 35.9659 31.2021 35.9877 31.3467 35.9932L32.0527 35.9586H32.2709C32.3659 35.9829 32.4639 35.9931 32.5618 35.9889L33.64 36.0538C33.7749 36.0553 33.9096 36.0437 34.0422 36.0192H34.2562C34.3032 36.0192 34.3332 36.0192 34.3332 36.0192C34.3332 36.0192 34.4273 36.0538 34.4872 36.0538H34.5172C34.6584 36.0538 34.945 36.2873 34.945 36.4083C34.9002 36.5216 34.8269 36.6211 34.7323 36.6969C34.6378 36.7728 34.5253 36.8224 34.4059 36.8408C34.3873 36.8438 34.3681 36.8409 34.3512 36.8324C34.3344 36.8238 34.3205 36.8101 34.3118 36.7932C34.2818 36.7154 34.1578 36.6678 34.0037 36.6678H33.8497C33.7888 36.6779 33.7266 36.6779 33.6657 36.6678H33.3405C33.2595 36.6592 33.1777 36.6592 33.0967 36.6678C33.018 36.6574 32.938 36.6694 32.8656 36.7024C32.8101 36.7198 32.7526 36.73 32.6945 36.7326H32.5233C32.1211 36.7392 31.7203 36.7811 31.3253 36.858C31.3253 36.858 31.3253 36.8883 31.3253 36.9186V37.0613C31.0962 38.2516 30.7917 39.4258 30.4139 40.5768L30.17 41.3119C30.17 41.3119 30.2171 41.3119 30.307 41.3119C30.4772 41.3136 30.6473 41.3035 30.8161 41.2816H31.3296C31.443 41.2793 31.5563 41.2895 31.6676 41.3119L32.0355 41.3897C32.0775 41.3908 32.1187 41.401 32.1564 41.4196C32.194 41.4383 32.2272 41.465 32.2538 41.4978L32.3778 41.6405C32.4078 41.6405 32.4206 41.6708 32.4206 41.6838C32.4206 41.6967 32.3907 41.7486 32.3436 41.8092C32.1932 41.9475 31.9949 42.0205 31.7917 42.0124C31.7181 42.0096 31.645 41.9994 31.5734 41.9821C31.4248 41.9314 31.268 41.9094 31.1114 41.9173C30.8366 41.9183 30.5633 41.9561 30.2984 42.0297L29.9133 42.1075C29.6951 42.7605 29.5582 43.0718 29.4855 43.4048L28.7495 45.3203L28.4072 46.237C28.3302 46.5181 28.2232 46.8165 28.1933 46.9073C28.1633 46.9981 28.0564 47.2965 27.9622 47.5775C27.5344 49.0088 27.5344 49.0391 27.0552 49.2596C26.9323 49.3244 26.8033 49.3766 26.6701 49.4153C26.6359 49.4153 26.623 49.4153 26.5931 49.3677" fill="#2E2828"/>
<path d="M33.179 48.1395C33.0881 48.1145 32.9949 48.0985 32.9009 48.0919C32.8516 48.0936 32.8028 48.0816 32.7598 48.0572C32.7168 48.0328 32.6812 47.997 32.657 47.9536C32.6353 47.9172 32.6062 47.886 32.5714 47.8621C32.5367 47.8382 32.4973 47.8222 32.4559 47.8152C32.184 47.6276 31.9621 47.3751 31.8098 47.0801C31.7756 47.0023 31.7328 46.9417 31.6986 46.9417C31.6643 46.9417 31.6387 46.8942 31.6387 46.8336C31.6387 46.7731 31.6387 46.7255 31.6087 46.7255C31.4633 46.4054 31.3694 46.0638 31.3306 45.7137C31.2843 45.4453 31.2643 45.1731 31.2707 44.9007C31.2659 44.6105 31.2917 44.3206 31.3477 44.0359C31.5137 43.5044 31.7138 42.9844 31.9467 42.4792C32.0083 42.3739 32.0503 42.2582 32.0708 42.1376C32.0914 42.0717 32.1282 42.0122 32.1778 41.9647C32.3458 41.7592 32.4814 41.5287 32.58 41.2815C32.6268 41.1749 32.6888 41.0758 32.764 40.9874C32.7861 40.9746 32.8047 40.9564 32.8181 40.9345C32.8316 40.9126 32.8394 40.8877 32.841 40.862C32.8417 40.8556 32.8409 40.8491 32.8388 40.843C32.8366 40.837 32.8332 40.8314 32.8287 40.8269C32.8242 40.8223 32.8187 40.8188 32.8127 40.8167C32.8067 40.8145 32.8003 40.8138 32.7939 40.8145H32.734C32.7135 40.8153 32.6931 40.8119 32.674 40.8045C32.6548 40.7971 32.6374 40.7857 32.6228 40.7712C32.6129 40.7609 32.6052 40.7487 32.6001 40.7353C32.5949 40.722 32.5925 40.7077 32.5928 40.6934C32.5975 40.6284 32.6248 40.5671 32.6698 40.5204C32.7462 40.4164 32.8404 40.3271 32.948 40.2566C33.025 40.2091 33.102 40.1312 33.102 40.101C33.102 40.0707 33.179 39.9929 33.2731 39.9583C33.5417 39.8329 33.8331 39.7652 34.1289 39.7594C34.3478 39.7545 34.5648 39.8019 34.7621 39.8978C34.8765 39.9502 34.9954 39.9922 35.1172 40.0231C35.4465 40.1409 35.7533 40.315 36.0243 40.5377C36.4522 40.9269 36.5934 41.0955 36.6576 41.329C36.681 41.4325 36.7169 41.5327 36.7645 41.6274L36.9314 42.0166C37.0306 42.2933 37.0728 42.5876 37.0555 42.8814C37.0555 43.3787 37.0555 43.4435 36.9014 43.69C36.8537 43.7505 36.8174 43.8194 36.7945 43.8932L36.9442 43.8759C36.8277 44.2233 36.6557 44.549 36.4351 44.8402C36.2076 45.1326 36.0165 45.4521 35.866 45.7915C35.7514 45.9677 35.6226 46.134 35.4809 46.2888C35.3428 46.421 35.2322 46.5797 35.1557 46.7558C35.0603 46.9177 34.9405 47.0636 34.8006 47.1882C34.6628 47.2984 34.5479 47.4351 34.4626 47.5903C34.4626 47.7157 34.3728 47.8238 34.0775 48.0228C33.9574 48.1158 33.8156 48.1762 33.6658 48.1982C33.516 48.2201 33.3631 48.2029 33.2218 48.1482L33.179 48.1395ZM34.146 45.9212C34.3027 45.7638 34.4458 45.5931 34.5738 45.411C34.6445 45.2842 34.739 45.1726 34.852 45.0824C35.0095 44.9149 35.1447 44.7274 35.2542 44.5246C35.2967 44.4196 35.3592 44.3241 35.4381 44.2435C35.525 44.1451 35.597 44.0344 35.6521 43.9148C35.7633 43.7462 35.8703 43.6035 35.8831 43.5905C35.8999 43.5817 35.9134 43.5677 35.9219 43.5507C35.9303 43.5336 35.9332 43.5143 35.9302 43.4954C35.9624 43.4041 36.0102 43.3192 36.0714 43.2446C36.2254 43.076 36.2254 43.0457 36.2254 42.5441C36.2254 42.0425 36.1912 41.9993 36.1013 41.8912C36.0045 41.7858 35.9264 41.6644 35.8703 41.5323C35.8235 41.4409 35.7582 41.3605 35.6785 41.2965C35.5989 41.2324 35.5068 41.186 35.4082 41.1604C35.3782 41.1604 35.344 41.1604 35.3312 41.1907C35.2981 41.253 35.2818 41.3231 35.2841 41.3939C35.2467 41.666 35.122 41.9182 34.929 42.1117C34.765 42.3464 34.6219 42.5953 34.5011 42.8554C34.3642 43.1538 34.2273 43.4651 34.1802 43.543C34.1288 43.6661 34.1026 43.7985 34.1032 43.9321C34.1109 44.0283 34.0947 44.1249 34.0561 44.2132C33.8442 44.6082 33.6653 45.0204 33.5213 45.4456C33.454 45.689 33.4223 45.941 33.4272 46.1937C33.4272 46.3493 33.4272 46.4574 33.4742 46.4747H33.5042C33.5812 46.4747 33.6882 46.3666 34.1203 45.9126" fill="#2E2828"/>
<path d="M37.7397 48.2822C37.6627 48.2822 37.5985 48.2476 37.5857 48.2173C37.4574 48.103 37.3132 48.0083 37.1578 47.9362C37.0679 47.906 36.8968 47.6249 36.6358 47.0195C36.5646 46.8859 36.5223 46.7385 36.5117 46.5871V46.4141C36.6179 45.8979 36.783 45.3958 37.0038 44.918C37.0936 44.6845 37.2348 44.2824 37.3247 44.0186C37.4145 43.7548 37.5429 43.3483 37.6327 43.1278C37.7292 42.9321 37.8122 42.7298 37.8809 42.5224C38.0224 42.0982 38.1911 41.6836 38.3858 41.2814L38.5227 40.9701C38.5227 40.862 38.5698 40.8274 38.6297 40.8274H38.7067C38.9337 40.8439 39.1551 40.9072 39.357 41.0133C39.357 41.0436 39.4469 41.0609 39.571 41.0609C39.7721 41.0609 39.8191 41.1085 39.9732 41.2771C40.1813 41.5448 40.3183 41.8619 40.3711 42.1981C40.3535 42.3001 40.3218 42.3991 40.277 42.4922C40.1958 42.6268 40.1338 42.7724 40.093 42.9246L39.755 43.8154C39.5886 44.189 39.4651 44.5808 39.387 44.9829L39.357 45.1385C39.357 45.1818 39.387 45.1991 39.4341 45.1991C39.571 45.1991 39.6309 45.1385 39.725 44.9829L39.879 44.7494C39.921 44.6713 39.9777 44.6023 40.0459 44.5461C40.0915 44.5175 40.125 44.4728 40.14 44.4207C40.4547 43.9381 40.7991 43.476 41.1712 43.037C41.1965 43.0134 41.2165 42.9846 41.2298 42.9525C41.243 42.9204 41.2493 42.8858 41.2482 42.8511C41.401 42.5511 41.6299 42.2974 41.9114 42.116C42.0087 42.0935 42.1024 42.0571 42.1895 42.0079C42.3454 41.936 42.5114 41.8894 42.6816 41.8695H42.8527C42.8991 41.8654 42.9457 41.8752 42.9867 41.8974C43.0278 41.9197 43.0615 41.9536 43.0838 41.9949C43.1736 42.097 43.2997 42.1591 43.4346 42.1679C43.5886 42.1679 43.7298 42.2284 43.7427 42.276C43.8239 42.3899 43.9126 42.4982 44.008 42.6003C44.1748 42.7862 44.2048 42.8338 44.2048 43.0327V43.1754C44.1794 43.4324 44.1175 43.6844 44.0208 43.9235C43.9361 44.1035 43.8895 44.2993 43.8839 44.4986V44.7018C43.8839 44.7926 43.8411 44.8402 43.7298 44.918C43.6229 44.9953 43.4931 45.0334 43.3619 45.0261C43.2717 45.0304 43.1816 45.0161 43.097 44.9841C43.0124 44.9522 42.9351 44.9032 42.8698 44.8402C42.7898 44.7635 42.6848 44.7189 42.5746 44.7148C42.5368 44.716 42.4998 44.7043 42.4695 44.6815C42.4392 44.6588 42.4174 44.6263 42.4077 44.5894C42.3761 44.4874 42.3345 44.389 42.2836 44.2953C42.0905 44.0033 41.9782 43.6644 41.9585 43.3138V43.2835C41.9585 43.1278 41.9285 43.0327 41.8686 43.0327C41.8087 43.0327 41.7916 43.0673 41.7274 43.1451L41.4536 43.4262C41.297 43.5832 41.1617 43.7606 41.0514 43.9537C40.7685 44.4071 40.4555 44.8405 40.1144 45.251L39.9261 45.4672C39.8961 45.5277 39.7892 45.6704 39.7122 45.7958C39.6569 45.8674 39.6109 45.9459 39.5752 46.0293L39.31 46.3406C39.2129 46.4436 39.1215 46.5519 39.0361 46.6649C38.9508 46.8358 38.8413 46.9931 38.711 47.1319C38.6511 47.1319 38.497 47.5081 38.42 47.7849C38.3898 47.9106 38.3422 48.0314 38.2788 48.1438C38.2618 48.1996 38.227 48.2482 38.1797 48.2818C38.1325 48.3155 38.0755 48.3323 38.0178 48.3297L37.7397 48.2822Z" fill="#2E2828"/>
<path d="M45.098 48.4984C45.0044 48.457 44.9069 48.4252 44.807 48.4033C44.6625 48.3624 44.5304 48.2856 44.4227 48.1798C44.3151 48.0741 44.2354 47.9428 44.1909 47.7979C44.0854 47.4553 44.0391 47.0969 44.054 46.7385C44.0454 46.4079 44.0814 46.0777 44.161 45.7569L44.2851 45.1991C44.3013 45.0209 44.3476 44.8469 44.422 44.6845C44.4495 44.6193 44.4696 44.5511 44.4819 44.4813C44.593 43.9441 44.7359 43.4142 44.9097 42.8943L45.0509 42.3798C45.1073 42.1574 45.1788 41.9392 45.2649 41.7268C45.3718 41.3982 45.4788 41.1171 45.4788 41.0695C45.5121 40.9801 45.5598 40.8968 45.62 40.8231C45.7098 40.6977 45.774 40.6371 45.851 40.6371C45.9152 40.6371 45.9922 40.6371 46.0222 40.6025H46.0821L46.3773 40.6631H46.5613C46.6142 40.6617 46.6668 40.672 46.7153 40.6933C46.745 40.6996 46.7756 40.6996 46.8052 40.6933C46.842 40.7 46.8796 40.7 46.9164 40.6933C46.9425 40.674 46.9739 40.6634 47.0063 40.6631C47.0063 40.6631 47.0362 40.6631 47.0362 40.6933C47.0595 40.7118 47.088 40.7224 47.1175 40.7236H47.1603C47.2544 40.7236 47.3785 40.8014 47.6224 41.0047C47.6896 41.1008 47.7322 41.2122 47.7465 41.329C47.7636 41.3955 47.7737 41.4636 47.7764 41.5322C47.7772 41.6195 47.7566 41.7057 47.7165 41.783C47.6629 41.922 47.6269 42.0673 47.6096 42.2154C47.6011 42.3848 47.5694 42.5521 47.5154 42.7127C47.4708 42.8107 47.4447 42.9163 47.4384 43.024V43.0543C47.4384 43.1019 47.4384 43.1797 47.3914 43.197C47.3602 43.2362 47.3436 43.2851 47.3443 43.3354C47.3353 43.4371 47.3093 43.5365 47.2673 43.6294C47.1945 43.8932 46.9293 44.8142 46.8694 45.0953L46.7153 45.6704C46.668 45.8327 46.6365 45.9992 46.6212 46.1677C46.6212 46.2282 46.6212 46.2455 46.6554 46.2455C46.6854 46.2455 46.7496 46.1374 46.7924 46.0293C46.8184 45.948 46.8606 45.873 46.9164 45.8088C47.0745 45.5958 47.2175 45.3719 47.3443 45.1385C47.4755 44.9012 47.6303 44.6781 47.8064 44.4726C47.8181 44.4599 47.8272 44.4449 47.8331 44.4286C47.839 44.4122 47.8415 44.3949 47.8406 44.3775C47.8626 44.3023 47.8927 44.2298 47.9305 44.1613C48.0453 43.975 48.1482 43.7815 48.2385 43.5819C48.3437 43.3682 48.4623 43.1617 48.5937 42.9635C48.6543 42.8957 48.7009 42.8163 48.7306 42.73C48.7557 42.6602 48.7934 42.5957 48.8418 42.5397C48.8689 42.495 48.9074 42.4584 48.9534 42.4341C48.9994 42.4097 49.051 42.3984 49.1028 42.4014C49.1667 42.3966 49.2287 42.3774 49.2842 42.3453C49.3397 42.3131 49.3874 42.2687 49.4237 42.2154C49.8262 41.8926 50.3032 41.6783 50.81 41.5928L51.2122 41.5625H51.3491H51.4604C51.5545 41.5322 51.6526 41.5161 51.7513 41.5149C51.8227 41.5124 51.8938 41.5249 51.9601 41.5517C52.0264 41.5785 52.0865 41.619 52.1364 41.6706C52.2137 41.7207 52.2771 41.7898 52.3205 41.8715C52.3639 41.9533 52.386 42.0448 52.3846 42.1376C52.3732 42.3165 52.3416 42.4935 52.2904 42.6651L52.1664 43.2273C52.1381 43.3765 52.0921 43.5216 52.0294 43.6597C51.9524 43.8759 51.8583 44.0921 51.8455 44.1872C51.8177 44.3389 51.7656 44.4849 51.6914 44.6196C51.6371 44.7283 51.5955 44.8429 51.5674 44.9613C51.543 45.084 51.5071 45.2042 51.4604 45.3202C51.4138 45.4306 51.3766 45.5449 51.3491 45.6618C51.3026 45.8009 51.2469 45.9367 51.1823 46.0682C51.1199 46.2053 51.078 46.3511 51.0582 46.5006V46.5309C51.0582 46.5309 51.0582 46.5309 51.0881 46.5309C51.1181 46.5309 51.2293 46.4185 51.4604 46.1244C52.0519 45.4179 52.5924 44.6694 53.0777 43.8845C53.133 43.7465 53.2049 43.6158 53.2917 43.4954C53.4157 43.3224 53.5227 43.1365 53.5527 43.0889C53.6075 43.0334 53.6776 42.9958 53.7538 42.9808C53.8718 42.9344 53.9732 42.853 54.0447 42.7473C54.1002 42.6691 54.1633 42.5967 54.233 42.5311C54.3428 42.4339 54.4405 42.3235 54.5239 42.2025C54.802 41.8133 54.8448 41.8003 55.7562 41.6447C55.8687 41.6356 55.9817 41.6356 56.0942 41.6447C56.2999 41.6253 56.5069 41.6627 56.6932 41.7528C56.7546 41.8384 56.8022 41.9332 56.8344 42.0338C56.8644 42.114 56.8804 42.1989 56.8815 42.2846C56.8763 42.4307 56.8548 42.5758 56.8173 42.717C56.7653 42.949 56.6981 43.1773 56.6162 43.4002C56.5718 43.5493 56.536 43.7009 56.5092 43.8543C56.4543 44.1181 56.3829 44.378 56.2953 44.6326C56.2012 44.944 56.0771 45.3461 56.0471 45.4974L55.846 46.2152C55.7904 46.3708 55.7502 46.5316 55.7262 46.6952C55.7262 46.7601 55.7262 46.7731 55.7861 46.7731C55.8289 46.7731 55.8631 46.7428 55.8631 46.7125C55.8631 46.6823 55.8931 46.652 55.9402 46.6347C56.0839 46.5053 56.213 46.3603 56.3252 46.2023C56.6549 45.7418 57.0197 45.308 57.4163 44.905C57.5792 44.7535 57.723 44.5821 57.8442 44.3948L58.2121 43.8802C58.221 43.978 58.221 44.0765 58.2121 44.1743C58.2104 44.2785 58.184 44.3808 58.1351 44.4726C57.9551 44.751 57.7549 45.0155 57.5361 45.2639C57.0982 45.6948 56.7054 46.1701 56.3637 46.6823C56.3051 46.7721 56.2259 46.8463 56.1327 46.8985C56.0856 46.8985 56.0386 46.9287 56.0257 46.9633C55.9734 47.0567 55.9054 47.1401 55.8246 47.2098C55.7448 47.283 55.682 47.373 55.6406 47.4736C55.6406 47.5211 55.5636 47.6119 55.4695 47.6898C55.3903 47.756 55.3224 47.8349 55.2684 47.9233C55.2385 48.0184 54.7336 48.1568 54.4555 48.1568H54.3613C54.255 48.1247 54.1519 48.0828 54.0533 48.0314C53.8099 47.847 53.6012 47.62 53.4371 47.3611C53.4371 47.3006 53.3901 47.253 53.3601 47.253C53.3002 47.253 53.2703 47.0195 53.2703 46.7687C53.2595 46.5374 53.2899 46.306 53.3601 46.0855C53.4 46.0079 53.4219 45.9221 53.4243 45.8347C53.4926 45.4507 53.6016 45.0752 53.7495 44.7148C53.8849 44.3868 53.9769 44.0422 54.0233 43.69C54.0233 43.6424 54.0233 43.6121 53.9805 43.6121C53.9377 43.6121 53.8564 43.7029 53.7495 43.9062C53.5912 44.1872 52.8681 45.2293 52.637 45.5104C52.2664 45.9414 51.9422 46.411 51.67 46.9114C51.4967 47.281 51.2557 47.6141 50.9598 47.893C50.8958 47.8795 50.8375 47.8462 50.7929 47.7979L50.6859 47.6725C50.5619 47.8584 50.4848 47.906 50.4848 48.0011L50.5148 48.0919C50.5148 48.0919 50.5148 48.0919 50.4848 48.0919H49.9158H49.6847C49.5735 48.0919 49.5136 48.0919 49.5136 48.0616C49.5136 48.0314 49.4366 48.0011 49.3596 48.0011H49.2997C49.1585 48.0011 49.0515 47.9362 48.8376 47.733C48.6236 47.5298 48.6365 47.5341 48.6065 47.1882V46.9547C48.6409 46.5539 48.7184 46.1581 48.8376 45.7742C48.9146 45.4628 49.3767 44.1224 49.5136 43.7635C49.5437 43.7062 49.5599 43.6424 49.5607 43.5775C49.5614 43.5078 49.589 43.4411 49.6377 43.3916C49.7148 43.3029 49.764 43.193 49.7789 43.0759C49.7789 43.0457 49.7789 43.0327 49.7446 43.0327C49.5482 43.2422 49.3876 43.4833 49.2697 43.7462C49.2255 43.8497 49.1564 43.9404 49.0686 44.0099C48.954 44.1172 48.8598 44.2447 48.7905 44.3861C48.4737 44.9558 48.1237 45.506 47.7422 46.0336C47.6294 46.1979 47.5279 46.3698 47.4384 46.5482L47.3272 46.7341C47.2414 46.8644 47.1643 47.0001 47.0961 47.1406C46.9421 47.4346 46.8351 47.6249 46.7881 47.6249C46.741 47.6249 46.7881 47.6249 46.7881 47.5903C46.8426 47.3986 46.931 47.2184 47.0491 47.0584C47.0983 47.0006 47.1348 46.9328 47.156 46.8595C47.156 46.8249 47.156 46.8249 47.1261 46.8249C47.0961 46.8249 47.0191 46.9201 46.925 47.0757C46.8044 47.2757 46.6715 47.4678 46.5271 47.6509C46.4035 47.8134 46.3001 47.9905 46.219 48.1784L46.1719 48.3687C45.8571 48.4325 45.5383 48.4744 45.2178 48.4941C45.1707 48.4941 45.1237 48.4941 45.1066 48.4941" fill="#2E2828"/>
<path d="M39.6212 60.4026C39.5613 60.4026 39.2961 60.3723 39.0351 60.355C38.6072 60.355 38.5601 60.355 38.436 60.2469C38.312 60.1388 38.175 60.0783 38.0082 59.9961C37.9163 59.9303 37.8291 59.858 37.7472 59.7799C37.4077 59.4705 37.2018 59.0389 37.1738 58.5778V58.4222C37.1738 57.3022 38.4061 56.0698 38.4061 56.0698H38.4831C38.5601 56.0698 38.5772 56.0698 38.5772 56.1347V56.165C38.5772 56.1952 38.5772 56.2255 38.6072 56.2255C38.6371 56.2255 37.5418 57.4276 37.5118 58.3876V58.5303C37.5019 58.6608 37.512 58.792 37.5418 58.9194C37.5948 59.0012 37.6366 59.09 37.6659 59.1832C37.7306 59.3004 37.8145 59.4057 37.914 59.4945C37.9625 59.5366 38.0191 59.5679 38.0803 59.5866C38.1414 59.6052 38.2058 59.6107 38.2692 59.6026H38.5131C38.7764 59.6156 39.0382 59.5558 39.2704 59.4297C39.7924 59.1529 40.0534 58.8719 40.5026 58.0633C40.6459 57.8067 40.7141 57.5143 40.6995 57.2201V56.8957C40.6924 56.5807 40.6508 56.2675 40.5754 55.9617C40.5153 55.6639 40.4796 55.3617 40.4684 55.058V54.9499C40.5417 54.4182 40.6856 53.899 40.8963 53.4062C40.9332 53.3651 40.9636 53.3184 40.9861 53.2678C40.9861 53.1727 41.3883 52.8613 41.5252 52.8354C41.8358 52.7749 42.1505 52.7388 42.4666 52.7273C42.669 52.7343 42.8681 52.7814 43.0527 52.8657C43.2048 52.9191 43.3389 53.0148 43.4395 53.1418C43.5402 53.2687 43.6034 53.4218 43.6218 53.5835C43.6363 53.7053 43.6621 53.8254 43.6988 53.9424C43.7281 54 43.7442 54.0635 43.7459 54.1283C43.7242 54.2546 43.6927 54.3789 43.6518 54.5002C43.6218 54.5953 43.5918 54.6083 43.4507 54.6083H43.2966V54.1283C43.3221 53.8745 43.2568 53.6199 43.1126 53.4105C43.0648 53.3709 43.0316 53.316 43.0185 53.2548C43.0192 53.2467 43.018 53.2386 43.0153 53.2309C43.0125 53.2233 43.0081 53.2163 43.0024 53.2106C42.9967 53.2048 42.9898 53.2004 42.9823 53.1976C42.9747 53.1948 42.9666 53.1936 42.9586 53.1943C42.8665 53.2023 42.7794 53.2402 42.7104 53.3024C42.6408 53.3523 42.5826 53.4167 42.5398 53.4913C42.4969 53.5659 42.4705 53.649 42.4623 53.7348L42.4965 54.0116C42.4099 54.5052 42.374 55.0066 42.3895 55.5077C42.3869 55.7358 42.3969 55.9639 42.4195 56.1909C42.5687 56.7723 42.6562 57.368 42.6805 57.9681C42.6797 58.0826 42.6697 58.1969 42.6505 58.3097L42.5265 58.7767C42.4293 59.1025 42.2423 59.3934 41.9873 59.6156C41.7491 59.8747 41.4568 60.0771 41.1316 60.208C40.9408 60.3093 40.7307 60.3683 40.5155 60.381L39.8394 60.4113C39.7571 60.4225 39.6736 60.4225 39.5913 60.4113" fill="#2E2828"/>
<path d="M45.6476 60.8568C45.4982 60.8437 45.3529 60.8011 45.2197 60.7314C45.0722 60.6613 44.9377 60.5662 44.8218 60.4503C44.8083 60.4224 44.7884 60.3981 44.7639 60.3793C44.7394 60.3605 44.7109 60.3478 44.6806 60.3422C44.5908 60.3422 44.3597 59.9833 44.0046 59.2828C43.844 58.9865 43.734 58.6649 43.6794 58.3315C43.6794 58.1931 43.6495 58.0202 43.6495 57.8515C43.6472 57.2707 43.7516 56.6945 43.9575 56.1522C44.4367 55.1101 44.5137 54.9068 44.6036 54.829C44.6294 54.8113 44.6511 54.7883 44.6673 54.7614C44.6836 54.7346 44.6939 54.7045 44.6977 54.6733C44.7172 54.6332 44.7432 54.5966 44.7747 54.5652C44.8426 54.4922 44.8989 54.4091 44.9416 54.3187C45.1025 54.0744 45.2906 53.8495 45.5021 53.6485C45.8701 53.2766 45.9642 53.1815 46.0712 53.1815L46.2381 53.2118C46.2723 53.2118 46.2851 53.2118 46.2851 53.1815L46.2552 53.0864C46.2552 52.9956 46.3621 52.948 46.5803 52.948H46.8242C47.2414 52.961 47.6536 53.0443 48.0437 53.1945C48.0862 53.2282 48.1394 53.2451 48.1934 53.242C48.2939 53.2843 48.3843 53.3476 48.4587 53.428C48.5871 53.5708 48.668 53.7508 48.6897 53.9425C48.721 54.1645 48.7353 54.3886 48.7325 54.6128C48.745 54.7584 48.7304 54.905 48.6897 55.0452C48.6135 55.1145 48.546 55.1929 48.4886 55.2787C48.4116 55.3738 48.3346 55.4517 48.3047 55.4517C48.2655 55.3111 48.2496 55.165 48.2576 55.0192C48.2576 54.6128 48.1378 54.1544 48.0137 54.1544C47.9795 54.1544 47.8896 54.2323 47.8297 54.3231C47.7477 54.4281 47.6591 54.5278 47.5644 54.6214C47.5144 54.6668 47.4774 54.7251 47.4575 54.7901C47.4082 54.8966 47.3465 54.9968 47.2735 55.0884C47.1655 55.2161 47.0814 55.3627 47.0253 55.5208C46.9184 55.8444 46.7626 56.1493 46.5632 56.4246C46.4221 56.5966 46.3225 56.7994 46.2723 57.017C46.2735 57.0312 46.2694 57.0454 46.2606 57.0567C46.2519 57.0679 46.2392 57.0754 46.2252 57.0775C46.2252 57.0775 46.0883 57.311 45.9642 57.5748C45.793 57.8856 45.6936 58.2315 45.6733 58.5866C45.639 58.9455 45.6262 59.1963 45.6262 59.365C45.6262 59.5985 45.6562 59.6936 45.7032 59.6936C45.8401 59.6936 46.0113 59.5855 46.3022 59.3044C46.5618 59.0494 46.8488 58.8246 47.158 58.6342C47.2475 58.584 47.3295 58.5215 47.4019 58.4483C47.5276 58.3095 47.6716 58.1887 47.8297 58.0894C48.1378 57.8861 49.7979 56.563 49.9691 56.4073C50.0304 56.3539 50.1039 56.3167 50.183 56.2992C50.2172 56.2992 50.2472 56.2992 50.2472 56.2516C50.2472 56.2041 50.3242 56.1608 50.4012 56.1132C50.4273 56.0939 50.4587 56.0833 50.4911 56.083H50.5681H50.6365C50.7606 56.083 50.8205 56.1478 50.8205 56.2084C50.8189 56.2341 50.8111 56.259 50.7976 56.2809C50.7842 56.3028 50.7656 56.3209 50.7435 56.3338C50.6156 56.4123 50.5014 56.5117 50.4055 56.6278C50.4055 56.6624 50.3285 56.7532 50.2514 56.8181C50.1744 56.8829 50.0803 56.9565 50.0803 56.9867C49.5442 57.597 48.9727 58.1746 48.3688 58.7164C48.1309 58.931 47.9052 59.1591 47.6928 59.3996C47.6122 59.5086 47.5188 59.6073 47.4147 59.6936C47.4147 59.7585 47.2778 59.7887 47.2008 59.8666C46.8927 60.2082 46.7986 60.0698 46.7729 60.2082C46.6959 60.5195 46.345 60.7227 45.7888 60.7876L45.6476 60.8568Z" fill="#2E2828"/>
<path d="M53.7333 61.0253C53.5921 60.7918 53.5921 60.4978 53.545 59.2654C53.545 58.5044 53.9002 57.7866 54.6404 56.0137C54.6404 56.0137 54.6104 55.9834 54.5933 55.9834C54.5035 55.9834 54.0071 56.5931 53.9772 56.5931C53.8531 56.5931 53.6991 56.792 53.3611 57.1207C53.2033 57.2389 53.0684 57.3855 52.9631 57.5531C52.6208 58.0504 51.9448 58.6903 51.7608 59.1573C51.5897 59.5162 51.4827 59.4687 51.4228 59.7973L51.2688 60.2946C51.2046 60.541 51.1447 60.727 50.3446 60.8091C50.2514 60.808 50.1595 60.7878 50.0742 60.7499C49.9889 60.7121 49.9121 60.6572 49.8483 60.5886C49.6963 60.4978 49.5745 60.3634 49.4983 60.2025C49.4221 60.0416 49.395 59.8614 49.4204 59.6849V59.3433C49.4204 58.8633 49.6044 58.4784 49.8953 57.5531C50.0079 57.0595 50.1729 56.5796 50.3874 56.1218C50.3874 55.9618 51.2046 54.0332 51.2046 53.9857C51.2046 53.9381 51.5426 53.3025 51.6325 53.069C51.7223 52.8355 51.9876 52.3382 52.0603 52.135C52.1628 51.8356 52.2917 51.5462 52.4454 51.2701C52.5295 51.0768 52.5816 50.8708 52.5994 50.6604V50.228H52.7749C53.13 50.228 53.468 50.6172 53.6306 50.6172C53.7932 50.6172 54.281 51.1923 54.281 51.7544C54.2501 52.2175 54.134 52.6706 53.9387 53.0906C53.8202 53.4094 53.7286 53.7378 53.6648 54.0722C53.4961 54.6206 53.2903 55.1566 53.0487 55.6764C52.8938 56.0048 52.7595 56.3428 52.6465 56.6883C52.5499 56.868 52.482 57.0621 52.4454 57.2634C52.4454 57.2936 52.4454 57.3109 52.4454 57.3109C52.4454 57.3109 52.7064 56.9823 52.8134 56.9823C52.9402 56.9347 53.0523 56.8541 53.1386 56.7488L54.3366 55.5813C54.5847 55.3348 54.6789 55.3651 54.7858 55.2094C54.8283 55.1544 54.882 55.1093 54.9433 55.0772C55.0046 55.0451 55.072 55.0268 55.141 55.0235C55.2308 55.0235 55.2651 55.1316 55.4148 55.1316C55.4961 55.1316 55.556 55.1618 55.556 55.2094C55.556 55.257 55.7571 55.4256 55.894 55.4256H55.971C56.2791 55.4256 56.7883 56.1737 56.7883 56.5629C56.7883 56.952 56.4631 57.3412 56.4631 57.4277C56.3943 57.7359 56.2864 58.0338 56.1422 58.3141C56.0309 58.4871 55.6801 59.3735 55.556 59.5292C55.5045 59.5964 55.4627 59.6706 55.4319 59.7497C55.4319 59.78 55.3378 59.8751 55.2651 59.9703C54.8372 60.3119 54.6917 60.4978 54.6618 60.6059C54.6318 60.714 54.4008 60.9951 54.3066 60.9951H54.2639C54.0628 60.9951 54.0328 61.4621 53.9087 61.4621C53.7846 61.4621 53.8317 61.3237 53.7247 61.0729" fill="#2E2828"/>
<path d="M59.2137 60.2469C59.1227 60.2219 59.0296 60.206 58.9355 60.1993C58.8863 60.201 58.8375 60.189 58.7945 60.1646C58.7515 60.1402 58.7159 60.1044 58.6917 60.061C58.67 60.0246 58.6408 59.9934 58.6061 59.9695C58.5714 59.9456 58.532 59.9296 58.4906 59.9226C58.2187 59.735 57.9968 59.4825 57.8445 59.1875C57.8145 59.1097 57.7675 59.0491 57.7375 59.0491C57.7076 59.0491 57.6733 59.0016 57.6733 58.941C57.6733 58.8805 57.6733 58.8329 57.6434 58.8329C57.498 58.5128 57.4041 58.1712 57.3653 57.8211C57.319 57.5527 57.2989 57.2805 57.3054 57.0081C57.3006 56.7179 57.3264 56.428 57.3824 56.1433C57.5484 55.6118 57.7485 55.0918 57.9814 54.5866C58.0429 54.4813 58.085 54.3656 58.1055 54.245C58.126 54.1791 58.1628 54.1196 58.2125 54.0721C58.3793 53.8705 58.5149 53.6445 58.6146 53.4018C58.6614 53.2953 58.7234 53.1962 58.7986 53.1078C58.8207 53.095 58.8393 53.0768 58.8528 53.0549C58.8662 53.033 58.8741 53.0081 58.8756 52.9824C58.8763 52.976 58.8756 52.9695 58.8734 52.9634C58.8713 52.9573 58.8679 52.9518 58.8634 52.9473C58.8588 52.9427 58.8534 52.9392 58.8474 52.9371C58.8413 52.9349 58.8349 52.9342 58.8286 52.9348H58.7644C58.7445 52.9359 58.7247 52.9326 58.7062 52.9251C58.6877 52.9177 58.6711 52.9062 58.6574 52.8916C58.6464 52.882 58.6376 52.87 58.6317 52.8566C58.6257 52.8431 58.6229 52.8285 58.6232 52.8138C58.6279 52.7487 58.6552 52.6875 58.7002 52.6408C58.7777 52.5378 58.8717 52.4486 58.9783 52.377C59.0554 52.3295 59.1324 52.2516 59.1324 52.2214C59.1324 52.1911 59.2094 52.1133 59.3035 52.0787C59.5721 51.9533 59.8635 51.8855 60.1592 51.8797C60.3782 51.8748 60.5951 51.9223 60.7925 52.0181C60.9069 52.0706 61.0258 52.1126 61.1476 52.1435C61.4769 52.2613 61.7837 52.4353 62.0547 52.6581C62.4826 53.0473 62.6238 53.2159 62.6879 53.4494C62.7114 53.5529 62.7473 53.6531 62.7949 53.7478L62.9618 54.1369C63.061 54.4137 63.1032 54.708 63.0859 55.0018C63.0859 55.499 63.0859 55.5639 62.9318 55.8104C62.8833 55.8703 62.8469 55.9394 62.8249 56.0136L62.919 55.966C62.8024 56.3134 62.6304 56.6391 62.4098 56.9303C62.1824 57.2227 61.9913 57.5422 61.8408 57.8816C61.7262 58.0578 61.5974 58.2241 61.4557 58.3789C61.3175 58.5111 61.207 58.6699 61.1305 58.8459C61.0356 59.007 60.9174 59.1527 60.7797 59.2783C60.6394 59.3871 60.5228 59.524 60.4374 59.6805C60.4374 59.8059 60.3475 59.914 60.0523 60.1129C59.9321 60.2059 59.7904 60.2663 59.6406 60.2883C59.4908 60.3102 59.3379 60.293 59.1965 60.2383L59.2137 60.2469ZM59.1965 51.0538C58.7986 50.976 58.6874 50.9457 58.4735 50.682C58.374 50.5827 58.26 50.4996 58.1354 50.4355L58.0884 50.3879V50.2928C58.0884 50.1847 58.0114 50.0593 57.8573 49.8604C57.7803 49.7653 57.7332 49.735 57.7332 49.6572L57.7931 49.4409C57.8165 49.3331 57.8265 49.2227 57.8231 49.1123L57.9343 48.8183C57.9901 48.7274 58.0265 48.6258 58.0413 48.5199C58.0643 48.3729 58.1001 48.2282 58.1483 48.0875C58.2253 47.8713 58.2724 47.7935 58.3622 47.7935L58.9655 47.9794C59.1195 48.0097 59.1794 48.0572 59.1794 48.0875C59.1794 48.1178 59.2265 48.1653 59.3335 48.1653L59.4747 48.1351L59.5174 48.1653C59.5174 48.1956 59.6287 48.2734 59.7357 48.321C59.9967 48.4637 60.0737 48.5372 60.3646 48.9912L60.5486 49.2853L60.3347 50.0333C60.3347 50.176 60.2876 50.3274 60.2577 50.3274C60.2277 50.3274 60.2106 50.4095 60.2106 50.4701C60.207 50.5363 60.1863 50.6004 60.1507 50.656L60.0266 50.9198C59.9967 51.0279 59.9667 51.0755 59.8426 51.0755C59.7647 51.0746 59.6893 51.0471 59.6287 50.9976C59.6287 50.9674 59.5816 50.9371 59.5645 50.9371C59.5474 50.9371 59.5174 50.9674 59.5174 51.0279C59.5169 51.0391 59.5142 51.05 59.5093 51.0601C59.5044 51.0702 59.4976 51.0791 59.4892 51.0864C59.4807 51.0937 59.4709 51.0992 59.4603 51.1025C59.4498 51.1058 59.4386 51.1069 59.4276 51.1057L59.1965 51.0538ZM60.1207 58.0113C60.2775 57.8539 60.4206 57.6832 60.5486 57.5011C60.6193 57.3743 60.7138 57.2627 60.8267 57.1725C60.9843 57.005 61.1195 56.8175 61.2289 56.6147C61.2734 56.5107 61.3357 56.4156 61.4129 56.3336C61.4997 56.2352 61.5718 56.1245 61.6268 56.005C61.7381 55.8363 61.845 55.6936 61.8579 55.6763C61.8707 55.659 61.9049 55.6331 61.9049 55.5855C61.9378 55.4945 61.9855 55.4097 62.0461 55.3347C62.2002 55.1661 62.2002 55.1358 62.2002 54.6342C62.2002 54.1326 62.166 54.0894 62.0761 53.9813C61.9793 53.8759 61.9011 53.7545 61.845 53.6224C61.7983 53.531 61.7329 53.4507 61.6533 53.3866C61.5737 53.3225 61.4815 53.2761 61.383 53.2505C61.353 53.2505 61.3188 53.2505 61.3059 53.2808C61.2728 53.3431 61.2566 53.4132 61.2589 53.484C61.2215 53.7561 61.0967 54.0083 60.9037 54.2018C60.7384 54.4357 60.5952 54.6847 60.4759 54.9455C60.3347 55.2439 60.1978 55.5552 60.1507 55.6331C60.0993 55.7562 60.0731 55.8886 60.0737 56.0223C60.0814 56.1184 60.0652 56.2151 60.0266 56.3033C59.8205 56.7024 59.6459 57.1174 59.5046 57.5443C59.4374 57.7877 59.4056 58.0398 59.4105 58.2924C59.4105 58.4481 59.4105 58.5562 59.4575 58.5735H59.4875C59.5645 58.5735 59.6715 58.4654 60.1036 58.0113H60.1207ZM62.6452 51.0538C62.243 50.976 62.136 50.9457 61.9221 50.682C61.8226 50.5827 61.7086 50.4996 61.584 50.4355L61.537 50.3879V50.2928C61.5113 50.1261 61.4298 49.9735 61.3059 49.8604C61.2332 49.7653 61.1861 49.735 61.1861 49.6572L61.246 49.4409C61.2694 49.3331 61.2794 49.2227 61.276 49.1123L61.3872 48.8183C61.443 48.7274 61.4794 48.6258 61.4942 48.5199C61.515 48.3724 61.5509 48.2275 61.6012 48.0875C61.6782 47.8713 61.7252 47.7935 61.8151 47.7935L62.4184 47.9794C62.5724 48.0097 62.6323 48.0572 62.6323 48.0875C62.6323 48.1178 62.6794 48.1653 62.7864 48.1653L62.9233 48.1351L62.9703 48.1653C62.9703 48.1956 63.0773 48.2734 63.1886 48.321C63.4496 48.4637 63.5266 48.5372 63.8175 48.9912L64.0015 49.2853L63.7876 50.0333C63.7876 50.176 63.7405 50.3274 63.7105 50.3274C63.6806 50.3274 63.6635 50.4095 63.6635 50.4701C63.6599 50.5363 63.6392 50.6004 63.6036 50.656L63.4795 50.9198C63.4496 51.0279 63.4196 51.0755 63.2955 51.0755C63.2164 51.0736 63.14 51.0463 63.0773 50.9976C63.0773 50.9674 63.0345 50.9371 63.0174 50.9371C63.0003 50.9371 62.9703 50.9674 62.9703 51.0279C62.9682 51.0501 62.9576 51.0705 62.9409 51.085C62.9241 51.0995 62.9025 51.107 62.8805 51.1057L62.6452 51.0538Z" fill="#2E2828"/>
<path d="M64.2197 60.4806C64.0878 60.4477 63.9531 60.4274 63.8175 60.42C63.5619 60.4071 63.3149 60.3231 63.1035 60.1774C62.8921 60.0317 62.7246 59.8299 62.6194 59.5941C62.5349 59.4664 62.4915 59.3154 62.4954 59.1617V58.898C62.5072 58.659 62.5533 58.423 62.6323 58.1974C62.7038 57.999 62.7652 57.7969 62.8163 57.5921C62.8804 57.4018 62.9403 57.1856 62.9703 57.1251C63.0427 56.9519 63.1041 56.7742 63.1543 56.5932L63.5393 55.5381C63.6805 55.2095 63.8346 54.803 63.8816 54.6733L64.1726 53.8517C64.2639 53.6395 64.3411 53.4214 64.4036 53.1988C64.4017 53.1762 64.4064 53.1535 64.417 53.1335C64.4277 53.1136 64.4438 53.0972 64.4635 53.0863C64.4978 53.0863 64.5277 53.0258 64.5277 52.948C64.5298 52.8855 64.5507 52.8252 64.5876 52.775C64.6601 52.7042 64.717 52.6188 64.7545 52.5242C64.8786 52.2475 65.0326 52.0918 65.1567 52.0918C65.1837 52.0939 65.2096 52.104 65.2309 52.121C65.2522 52.1379 65.2681 52.1609 65.2765 52.1869C65.2904 52.213 65.3106 52.2351 65.3354 52.251C65.3601 52.2669 65.3884 52.2761 65.4177 52.2777C65.4926 52.2928 65.5613 52.3305 65.6145 52.3858C65.6373 52.4133 65.6654 52.4359 65.697 52.4523C65.7286 52.4686 65.7631 52.4784 65.7985 52.481L66.0295 52.4507H66.0937C66.1347 52.4764 66.1825 52.4885 66.2306 52.4853C66.4987 52.5994 66.7205 52.8022 66.8596 53.0604L66.8938 53.2161C66.8836 53.4 66.8245 53.5778 66.7227 53.7306C66.6531 53.8675 66.6014 54.0128 66.5687 54.163C66.527 54.3282 66.4697 54.489 66.3975 54.643C66.3205 54.7857 65.8156 56.1392 65.8156 56.217C65.7891 56.3208 65.7473 56.4199 65.6915 56.511C65.3703 57.3403 65.0975 58.1878 64.8743 59.0493V59.0796L64.9641 59.032C65.0254 58.9825 65.0739 58.9187 65.1053 58.8461C65.4559 58.2618 65.8357 57.696 66.2435 57.151C66.2986 57.0957 66.3359 57.0249 66.3504 56.9478C66.3567 56.9236 66.3684 56.9012 66.3848 56.8824C66.4011 56.8636 66.4216 56.849 66.4446 56.8397C66.4821 56.8163 66.5131 56.7835 66.5344 56.7445C66.6464 56.5287 66.7813 56.3257 66.9366 56.1392C67.0096 56.0475 67.0713 55.9474 67.1206 55.8408C67.2456 55.6364 67.3889 55.4439 67.5485 55.2657C67.6567 55.1481 67.7501 55.0174 67.8266 54.8765C68.0177 54.616 68.2295 54.3716 68.4598 54.1458C69.046 53.5231 69.1059 53.4755 69.2899 53.4452C69.3851 53.4371 69.4808 53.4534 69.568 53.4928C69.7001 53.5602 69.8488 53.5873 69.9959 53.5706H70.351C70.374 53.5677 70.3973 53.5705 70.4189 53.5788C70.4405 53.5871 70.4598 53.6006 70.4751 53.6182C70.483 53.6357 70.4956 53.6507 70.5115 53.6614C70.5274 53.6721 70.5459 53.6781 70.5649 53.6787H70.612C70.719 53.6787 70.873 53.8214 71.0142 54.0679C71.0826 54.1861 71.1194 54.3202 71.1212 54.4571C71.042 55.0586 70.8657 55.6429 70.5992 56.1867C70.4862 56.4339 70.3932 56.6898 70.321 56.9521L70.2269 57.1856C70.1069 57.3882 70.0188 57.6085 69.9659 57.8385C70.1081 57.7588 70.2379 57.6583 70.351 57.5402C70.535 57.3715 71.4292 56.6537 71.5062 56.5932C71.7073 56.4505 71.9983 56.1867 72.0753 56.1608C72.1715 56.1156 72.2645 56.0636 72.3534 56.0051H72.4005C72.4434 56.0083 72.4843 56.025 72.5173 56.053C72.5503 56.0809 72.5738 56.1186 72.5845 56.1608C72.5845 56.1911 72.5374 56.2386 72.5074 56.2386C72.4775 56.2386 71.9983 56.7964 71.7972 57.017C71.5961 57.2375 70.6291 58.0591 70.5136 58.1845C70.3981 58.3099 70.2355 58.4958 70.1413 58.6169C69.9304 58.8833 69.6939 59.1281 69.4354 59.3477C69.4011 59.3477 69.3412 59.4125 69.2942 59.4904C69.2471 59.5682 69.2043 59.646 69.1701 59.646C69.1273 59.6925 69.0913 59.7449 69.0631 59.8017C68.9934 59.9338 68.889 60.044 68.7615 60.1203C68.634 60.1965 68.4882 60.2359 68.34 60.2341C68.2674 60.2402 68.1943 60.2298 68.1261 60.2038L67.771 60.0784C67.6255 59.9964 67.4984 59.8849 67.3976 59.751C67.2967 59.6171 67.2243 59.4636 67.1848 59.3001C67.138 59.1225 67.1178 58.9389 67.1249 58.7553C67.1225 58.3389 67.201 57.926 67.3559 57.5402C67.4212 57.3874 67.503 57.2424 67.5998 57.1078C67.6377 57.0631 67.6642 57.0096 67.6768 56.9521C67.7188 56.8342 67.7703 56.7199 67.8309 56.6105C67.9079 56.4548 67.9849 56.2689 68.0148 56.1781C68.0448 56.0873 68.079 56.0224 68.109 56.0094C68.1389 55.9965 68.156 55.9619 68.156 55.9013C68.2129 55.7393 68.2845 55.583 68.37 55.4343C68.5052 55.1817 68.5936 54.9062 68.631 54.6214C68.631 54.5911 68.631 54.5609 68.601 54.5609C68.4487 54.6763 68.3232 54.8238 68.2331 54.9933V55.1187C68.2331 55.1489 68.2031 55.1619 68.156 55.1965C67.6732 55.6978 67.2588 56.2621 66.9238 56.8743C66.6457 57.3413 66.3376 57.8083 66.2606 57.9034C66.1474 58.0396 66.0444 58.1841 65.9525 58.3358C65.8876 58.4589 65.8102 58.5749 65.7215 58.6817C65.6823 58.7115 65.655 58.7545 65.6445 58.8028C65.569 58.9455 65.4817 59.0815 65.3835 59.2093C65.2621 59.3689 65.1493 59.5348 65.0454 59.7066C64.8443 60.0482 64.3822 60.5022 64.1897 60.5022L64.2197 60.4806Z" fill="#2E2828"/>
</svg>
